G04*
G04 #@! TF.GenerationSoftware,Altium Limited,Altium Designer,21.0.8 (223)*
G04*
G04 Layer_Color=16711935*
%FSLAX43Y43*%
%MOMM*%
G71*
G04*
G04 #@! TF.SameCoordinates,52B3D4D8-3C3D-47A6-B8D2-5A20DE205E22*
G04*
G04*
G04 #@! TF.FilePolarity,Negative*
G04*
G01*
G75*
%ADD41R,1.603X1.703*%
%ADD44R,1.703X1.603*%
%ADD45R,10.273X8.493*%
%ADD46O,3.759X1.703*%
%ADD47R,3.759X1.703*%
%ADD49R,1.903X1.303*%
%ADD52R,1.403X1.603*%
%ADD54R,1.603X1.403*%
%ADD55R,1.303X1.903*%
%ADD56R,1.703X2.803*%
%ADD57C,1.703*%
%ADD58R,1.703X1.703*%
%ADD59C,1.727*%
%ADD60R,3.003X3.003*%
%ADD61C,3.003*%
%ADD62R,1.703X1.703*%
%ADD63C,5.203*%
%ADD64C,0.803*%
%ADD86R,1.461X0.559*%
%ADD91R,1.575X0.533*%
%ADD93R,0.949X2.803*%
%ADD94R,1.203X2.803*%
%ADD95R,2.363X1.273*%
%ADD96R,1.003X4.013*%
%ADD97R,3.099X5.613*%
%ADD98R,1.653X0.803*%
%ADD99O,1.703X3.759*%
%ADD100R,1.703X3.759*%
%ADD101R,1.753X2.453*%
%ADD102R,2.803X1.703*%
G36*
X55878Y71870D02*
X54208D01*
Y70820D01*
X48008D01*
Y61920D01*
X54208D01*
Y60870D01*
X55878D01*
Y71870D01*
D02*
G37*
D41*
X105013Y36322D02*
D03*
X103013D02*
D03*
X71485Y46355D02*
D03*
X69485D02*
D03*
X38878Y46101D02*
D03*
X40878D02*
D03*
D44*
X73279Y57388D02*
D03*
Y55388D02*
D03*
X59055Y36687D02*
D03*
Y34687D02*
D03*
D45*
X67056Y96928D02*
D03*
X41275D02*
D03*
X92964D02*
D03*
X118745D02*
D03*
D46*
X53721Y76200D02*
D03*
D47*
X46355D02*
D03*
D49*
X52832Y40941D02*
D03*
Y43641D02*
D03*
D52*
X69226Y37338D02*
D03*
X67426D02*
D03*
X68337Y49657D02*
D03*
X66537D02*
D03*
X38978Y43688D02*
D03*
X40778D02*
D03*
X39105Y49022D02*
D03*
X40905D02*
D03*
D54*
X61849Y36714D02*
D03*
Y34914D02*
D03*
X60579Y53097D02*
D03*
Y51297D02*
D03*
D55*
X36990Y70993D02*
D03*
X34290D02*
D03*
X34210Y66167D02*
D03*
X36910D02*
D03*
D56*
X73303Y50165D02*
D03*
X76303D02*
D03*
D57*
X99568Y68199D02*
D03*
X97028D02*
D03*
X102108D02*
D03*
X82931Y44450D02*
D03*
X80391D02*
D03*
X105537Y33655D02*
D03*
X102997D02*
D03*
X93726D02*
D03*
X91186D02*
D03*
X115824Y56769D02*
D03*
Y59309D02*
D03*
Y51689D02*
D03*
Y54229D02*
D03*
Y46609D02*
D03*
Y49149D02*
D03*
Y44069D02*
D03*
X33528Y54864D02*
D03*
X81534Y51181D02*
D03*
X82931Y47244D02*
D03*
X80391D02*
D03*
D58*
X104648Y68199D02*
D03*
X85471Y44450D02*
D03*
X100457Y33655D02*
D03*
X88646D02*
D03*
X33528Y57404D02*
D03*
X85471Y47244D02*
D03*
D59*
X82677Y38100D02*
D03*
X78677D02*
D03*
D60*
X34925Y75034D02*
D03*
D61*
Y78994D02*
D03*
D62*
X115824Y61849D02*
D03*
X81534Y53721D02*
D03*
D63*
X34544Y114173D02*
D03*
X125349D02*
D03*
X124333Y36322D02*
D03*
X35560D02*
D03*
D64*
X102870Y78124D02*
D03*
X85598Y76369D02*
D03*
X87503D02*
D03*
X62738Y75615D02*
D03*
X89535Y76369D02*
D03*
X104648Y77978D02*
D03*
X108585Y78232D02*
D03*
X106680D02*
D03*
X114681Y100330D02*
D03*
X115824D02*
D03*
X116967D02*
D03*
X118110D02*
D03*
X122809D02*
D03*
X121666D02*
D03*
X120523D02*
D03*
X119380D02*
D03*
X118110Y99314D02*
D03*
X116967D02*
D03*
X115824D02*
D03*
X114681D02*
D03*
X122809D02*
D03*
X121666D02*
D03*
X120523D02*
D03*
X119380D02*
D03*
X122809Y98298D02*
D03*
X121666D02*
D03*
X120523D02*
D03*
X119380D02*
D03*
X118110D02*
D03*
X116967D02*
D03*
X115824D02*
D03*
X114681D02*
D03*
X118110Y97282D02*
D03*
X116967D02*
D03*
X115824D02*
D03*
X114681D02*
D03*
X122809D02*
D03*
X121666D02*
D03*
X120523D02*
D03*
X119380D02*
D03*
X118110Y96266D02*
D03*
X116967D02*
D03*
X115824D02*
D03*
X114681D02*
D03*
X122809D02*
D03*
X121666D02*
D03*
X120523D02*
D03*
X119380D02*
D03*
X122809Y95123D02*
D03*
X121666D02*
D03*
X120523D02*
D03*
X119380D02*
D03*
X118110D02*
D03*
X116967D02*
D03*
X115824D02*
D03*
X114681D02*
D03*
X118110Y93980D02*
D03*
X116967D02*
D03*
X115824D02*
D03*
X114681D02*
D03*
X122809D02*
D03*
X121666D02*
D03*
X120523D02*
D03*
X119380D02*
D03*
X88900Y100330D02*
D03*
X90043D02*
D03*
X91186D02*
D03*
X92329D02*
D03*
X97028D02*
D03*
X95885D02*
D03*
X94742D02*
D03*
X93599D02*
D03*
X92329Y99314D02*
D03*
X91186D02*
D03*
X90043D02*
D03*
X88900D02*
D03*
X97028D02*
D03*
X95885D02*
D03*
X94742D02*
D03*
X93599D02*
D03*
X97028Y98298D02*
D03*
X95885D02*
D03*
X94742D02*
D03*
X93599D02*
D03*
X92329D02*
D03*
X91186D02*
D03*
X90043D02*
D03*
X88900D02*
D03*
X92329Y97282D02*
D03*
X91186D02*
D03*
X90043D02*
D03*
X88900D02*
D03*
X97028D02*
D03*
X95885D02*
D03*
X94742D02*
D03*
X93599D02*
D03*
X92329Y96266D02*
D03*
X91186D02*
D03*
X90043D02*
D03*
X88900D02*
D03*
X97028D02*
D03*
X95885D02*
D03*
X94742D02*
D03*
X93599D02*
D03*
X97028Y95123D02*
D03*
X95885D02*
D03*
X94742D02*
D03*
X93599D02*
D03*
X92329D02*
D03*
X91186D02*
D03*
X90043D02*
D03*
X88900D02*
D03*
X92329Y93980D02*
D03*
X91186D02*
D03*
X90043D02*
D03*
X88900D02*
D03*
X97028D02*
D03*
X95885D02*
D03*
X94742D02*
D03*
X93599D02*
D03*
X62865Y100203D02*
D03*
X64008D02*
D03*
X65151D02*
D03*
X66294D02*
D03*
X70993D02*
D03*
X69850D02*
D03*
X68707D02*
D03*
X67564D02*
D03*
X66294Y99187D02*
D03*
X65151D02*
D03*
X64008D02*
D03*
X62865D02*
D03*
X70993D02*
D03*
X69850D02*
D03*
X68707D02*
D03*
X67564D02*
D03*
X70993Y98171D02*
D03*
X69850D02*
D03*
X68707D02*
D03*
X67564D02*
D03*
X66294D02*
D03*
X65151D02*
D03*
X64008D02*
D03*
X62865D02*
D03*
X66294Y97155D02*
D03*
X65151D02*
D03*
X64008D02*
D03*
X62865D02*
D03*
X70993D02*
D03*
X69850D02*
D03*
X68707D02*
D03*
X67564D02*
D03*
X66294Y96139D02*
D03*
X65151D02*
D03*
X64008D02*
D03*
X62865D02*
D03*
X70993D02*
D03*
X69850D02*
D03*
X68707D02*
D03*
X67564D02*
D03*
X70993Y94996D02*
D03*
X69850D02*
D03*
X68707D02*
D03*
X67564D02*
D03*
X66294D02*
D03*
X65151D02*
D03*
X64008D02*
D03*
X62865D02*
D03*
X66294Y93853D02*
D03*
X65151D02*
D03*
X64008D02*
D03*
X62865D02*
D03*
X70993D02*
D03*
X69850D02*
D03*
X68707D02*
D03*
X67564D02*
D03*
X41656Y93980D02*
D03*
X42799D02*
D03*
X43942D02*
D03*
X45085D02*
D03*
X36957D02*
D03*
X38100D02*
D03*
X39243D02*
D03*
X40386D02*
D03*
X36957Y95123D02*
D03*
X38100D02*
D03*
X39243D02*
D03*
X40386D02*
D03*
X41656D02*
D03*
X42799D02*
D03*
X43942D02*
D03*
X45085D02*
D03*
X41656Y96266D02*
D03*
X42799D02*
D03*
X43942D02*
D03*
X45085D02*
D03*
X36957D02*
D03*
X38100D02*
D03*
X39243D02*
D03*
X40386D02*
D03*
X41656Y97282D02*
D03*
X42799D02*
D03*
X43942D02*
D03*
X45085D02*
D03*
X36957D02*
D03*
X38100D02*
D03*
X39243D02*
D03*
X40386D02*
D03*
X36957Y98298D02*
D03*
X38100D02*
D03*
X39243D02*
D03*
X40386D02*
D03*
X41656D02*
D03*
X42799D02*
D03*
X43942D02*
D03*
X45085D02*
D03*
X41656Y99314D02*
D03*
X42799D02*
D03*
X43942D02*
D03*
X45085D02*
D03*
X36957D02*
D03*
X38100D02*
D03*
X39243D02*
D03*
X40386D02*
D03*
X41656Y100330D02*
D03*
X42799D02*
D03*
X43942D02*
D03*
X45085D02*
D03*
X40386D02*
D03*
X39243D02*
D03*
X38100D02*
D03*
X36957D02*
D03*
X74041Y40132D02*
D03*
X72771D02*
D03*
X56007Y57277D02*
D03*
X57277D02*
D03*
X68834Y39243D02*
D03*
X96774Y54991D02*
D03*
X110744Y50927D02*
D03*
X98806Y53975D02*
D03*
X91486Y56303D02*
D03*
X108712Y52070D02*
D03*
X114046Y62738D02*
D03*
X102359Y47374D02*
D03*
X100330Y61595D02*
D03*
X95904Y48387D02*
D03*
X99277Y61558D02*
D03*
X107950Y53325D02*
D03*
X39751Y64570D02*
D03*
X51689Y66294D02*
D03*
X74930Y67691D02*
D03*
Y71120D02*
D03*
X53975Y74168D02*
D03*
X89789Y59944D02*
D03*
X54102Y78359D02*
D03*
X38735Y84328D02*
D03*
X119113Y64535D02*
D03*
X120650Y61849D02*
D03*
X109474Y62611D02*
D03*
X93091Y59055D02*
D03*
X88392Y54831D02*
D03*
X89789Y37820D02*
D03*
X94234Y40386D02*
D03*
Y39751D02*
D03*
X92964Y39116D02*
D03*
X93599Y40386D02*
D03*
X94234Y39116D02*
D03*
X93599D02*
D03*
X92964Y40386D02*
D03*
X93599Y39751D02*
D03*
X92964D02*
D03*
X110236Y37719D02*
D03*
X58674Y77670D02*
D03*
X58801Y75565D02*
D03*
X45085Y73660D02*
D03*
Y72263D02*
D03*
X106299Y44196D02*
D03*
X101346Y43561D02*
D03*
X95250Y63119D02*
D03*
X96266Y69792D02*
D03*
X70739Y49022D02*
D03*
X61722Y49784D02*
D03*
X112409Y61873D02*
D03*
X83820Y59055D02*
D03*
Y55499D02*
D03*
X93472Y44958D02*
D03*
X88392Y49530D02*
D03*
X98660Y39878D02*
D03*
X65278Y45212D02*
D03*
X75650Y55372D02*
D03*
X75692Y58039D02*
D03*
X70866Y71628D02*
D03*
X101219Y64389D02*
D03*
X109474Y76581D02*
D03*
X87503Y74307D02*
D03*
X85344Y64770D02*
D03*
X89535Y74307D02*
D03*
X62103Y32639D02*
D03*
X63373Y50546D02*
D03*
X72644Y36703D02*
D03*
X65278Y42545D02*
D03*
X45085Y79502D02*
D03*
X43815Y84778D02*
D03*
X42545Y84074D02*
D03*
X40005Y84709D02*
D03*
X37219Y88238D02*
D03*
Y86714D02*
D03*
Y87476D02*
D03*
X68326Y52578D02*
D03*
X45720Y109474D02*
D03*
X46609D02*
D03*
X47498D02*
D03*
X48268Y91667D02*
D03*
Y90905D02*
D03*
Y90143D02*
D03*
X49030D02*
D03*
Y91667D02*
D03*
Y90905D02*
D03*
X47506D02*
D03*
Y90143D02*
D03*
Y91667D02*
D03*
X36322Y48006D02*
D03*
X61341Y32639D02*
D03*
X60325Y108839D02*
D03*
X61087D02*
D03*
X61849D02*
D03*
Y109601D02*
D03*
X61087D02*
D03*
X60325D02*
D03*
X61849Y110363D02*
D03*
X61087D02*
D03*
X60325D02*
D03*
X62611Y108839D02*
D03*
Y109601D02*
D03*
Y110363D02*
D03*
X98679Y110490D02*
D03*
Y109728D02*
D03*
Y108966D02*
D03*
X113792Y109347D02*
D03*
X112903D02*
D03*
X112014D02*
D03*
X96393Y110490D02*
D03*
X97155D02*
D03*
X97917D02*
D03*
X96393Y109728D02*
D03*
X97155D02*
D03*
X97917D02*
D03*
X47498Y108839D02*
D03*
X46609D02*
D03*
X45720D02*
D03*
X97917Y108966D02*
D03*
X97155D02*
D03*
X96393D02*
D03*
X101346Y93472D02*
D03*
X102108D02*
D03*
X102870D02*
D03*
X101346Y92710D02*
D03*
X102108D02*
D03*
X102870D02*
D03*
Y91948D02*
D03*
X102108D02*
D03*
X101346D02*
D03*
X82423Y62611D02*
D03*
X71890Y88619D02*
D03*
X72652D02*
D03*
X69587Y83471D02*
D03*
X68317Y84106D02*
D03*
X65794Y83793D02*
D03*
X64524Y84682D02*
D03*
X72652Y86333D02*
D03*
X71890D02*
D03*
X72652Y87095D02*
D03*
X71890D02*
D03*
X72652Y87857D02*
D03*
X71890D02*
D03*
X61341Y59605D02*
D03*
X49276Y78359D02*
D03*
X51181Y77555D02*
D03*
X40894Y50292D02*
D03*
X112395Y76962D02*
D03*
X100965Y78359D02*
D03*
X94596Y44450D02*
D03*
X109601Y48514D02*
D03*
X112395Y88138D02*
D03*
X113157D02*
D03*
X113919D02*
D03*
X112395Y87376D02*
D03*
X113157D02*
D03*
X113919D02*
D03*
Y86614D02*
D03*
X113157D02*
D03*
X112395D02*
D03*
X36457Y86714D02*
D03*
X35695D02*
D03*
X36457Y87476D02*
D03*
X35695D02*
D03*
X36457Y88238D02*
D03*
X35695D02*
D03*
X60460D02*
D03*
X61222D02*
D03*
X60460Y87476D02*
D03*
X61222D02*
D03*
X60460Y86714D02*
D03*
X61222D02*
D03*
X61984D02*
D03*
Y88238D02*
D03*
Y87476D02*
D03*
X86614Y86868D02*
D03*
X87376D02*
D03*
X88138D02*
D03*
Y87630D02*
D03*
X87376D02*
D03*
X86614D02*
D03*
X88138Y88392D02*
D03*
X87376D02*
D03*
X86614D02*
D03*
X57277Y54864D02*
D03*
Y52197D02*
D03*
X56007D02*
D03*
Y53467D02*
D03*
X57277Y56134D02*
D03*
Y53467D02*
D03*
X56007Y54864D02*
D03*
Y56134D02*
D03*
X68395Y68072D02*
D03*
X68326Y61383D02*
D03*
X67056Y65405D02*
D03*
X59055Y40005D02*
D03*
X51689Y69850D02*
D03*
X49530D02*
D03*
X53848D02*
D03*
X51689Y68199D02*
D03*
X53848D02*
D03*
X49530D02*
D03*
Y66294D02*
D03*
X53848D02*
D03*
Y64389D02*
D03*
X51689D02*
D03*
X49530D02*
D03*
Y62484D02*
D03*
X53848D02*
D03*
X51689D02*
D03*
X43688Y72263D02*
D03*
X42164D02*
D03*
X40767D02*
D03*
X39243D02*
D03*
Y73660D02*
D03*
X43688D02*
D03*
X42164D02*
D03*
X40767D02*
D03*
X92202Y44958D02*
D03*
X111363Y56153D02*
D03*
X107950Y74422D02*
D03*
X81534Y55372D02*
D03*
X117475Y83820D02*
D03*
X121276Y83090D02*
D03*
X120015Y84582D02*
D03*
X116205Y84709D02*
D03*
X91685Y84614D02*
D03*
X95495Y84741D02*
D03*
X94234Y84074D02*
D03*
X90424Y83947D02*
D03*
D86*
X64967Y51943D02*
D03*
Y53213D02*
D03*
Y54483D02*
D03*
Y55753D02*
D03*
Y57023D02*
D03*
Y58293D02*
D03*
Y59563D02*
D03*
X70415D02*
D03*
Y58293D02*
D03*
Y57023D02*
D03*
Y55753D02*
D03*
Y54483D02*
D03*
Y53213D02*
D03*
Y51943D02*
D03*
D91*
X63741Y43688D02*
D03*
Y42418D02*
D03*
Y41148D02*
D03*
Y39878D02*
D03*
X71133D02*
D03*
Y41148D02*
D03*
Y42418D02*
D03*
Y43688D02*
D03*
D93*
X79979Y73152D02*
D03*
X96997D02*
D03*
X60770D02*
D03*
X77788D02*
D03*
D94*
X91535Y79121D02*
D03*
X89535D02*
D03*
X87535D02*
D03*
X85535D02*
D03*
X83535D02*
D03*
X93535D02*
D03*
X72326D02*
D03*
X70326D02*
D03*
X68326D02*
D03*
X66326D02*
D03*
X64326D02*
D03*
X74326D02*
D03*
D95*
X41608Y62970D02*
D03*
Y64670D02*
D03*
Y66370D02*
D03*
Y68070D02*
D03*
Y69770D02*
D03*
D96*
X67056Y87268D02*
D03*
X68326D02*
D03*
X69596D02*
D03*
X70866D02*
D03*
X65786D02*
D03*
X64516D02*
D03*
X63246D02*
D03*
X37465D02*
D03*
X38735D02*
D03*
X40005D02*
D03*
X45085D02*
D03*
X43815D02*
D03*
X42545D02*
D03*
X41275D02*
D03*
X89154D02*
D03*
X90424D02*
D03*
X91694D02*
D03*
X96774D02*
D03*
X95504D02*
D03*
X94234D02*
D03*
X92964D02*
D03*
X114935D02*
D03*
X116205D02*
D03*
X117475D02*
D03*
X122555D02*
D03*
X121285D02*
D03*
X120015D02*
D03*
X118745D02*
D03*
D97*
X46736Y54356D02*
D03*
X56642D02*
D03*
D98*
X82963Y40894D02*
D03*
X80613Y41844D02*
D03*
Y39944D02*
D03*
D99*
X47244Y37973D02*
D03*
D100*
Y45339D02*
D03*
D101*
X55753Y44386D02*
D03*
Y40386D02*
D03*
X41529Y54515D02*
D03*
Y58515D02*
D03*
D102*
X61341Y56539D02*
D03*
Y59539D02*
D03*
M02*
