G04*
G04 #@! TF.GenerationSoftware,Altium Limited,Altium Designer,21.0.8 (223)*
G04*
G04 Layer_Color=32896*
%FSLAX43Y43*%
%MOMM*%
G71*
G04*
G04 #@! TF.SameCoordinates,52B3D4D8-3C3D-47A6-B8D2-5A20DE205E22*
G04*
G04*
G04 #@! TF.FilePolarity,Positive*
G04*
G01*
G75*
%ADD10C,0.152*%
%ADD11C,0.200*%
%ADD12C,0.254*%
%ADD13C,0.127*%
%ADD14C,0.102*%
%ADD15R,1.950X4.575*%
%ADD103C,0.250*%
%ADD104C,0.076*%
%ADD105R,4.575X1.950*%
G36*
X71399Y56833D02*
X71653D01*
Y57214D01*
X71399D01*
Y56833D01*
D02*
G37*
D10*
X44602Y54356D02*
G03*
X44450Y54356I-76J0D01*
G01*
D02*
G03*
X44602Y54356I76J0D01*
G01*
X45415Y60630D02*
X57963D01*
Y57404D02*
Y60630D01*
X45415Y48082D02*
X57963D01*
X45415D02*
Y51308D01*
Y57404D02*
Y60630D01*
X57963Y48082D02*
Y51308D01*
X65570Y60249D02*
X69812D01*
X65570Y51257D02*
X69812D01*
X64605Y44279D02*
Y44590D01*
X70269Y38976D02*
Y39287D01*
Y44279D02*
Y44590D01*
X64605D02*
X70269D01*
X64605Y38976D02*
Y39287D01*
Y38976D02*
X70269D01*
D11*
X39843Y62970D02*
G03*
X39843Y62970I-100J0D01*
G01*
X71056Y84718D02*
G03*
X71056Y84718I-100J0D01*
G01*
X45275D02*
G03*
X45275Y84718I-100J0D01*
G01*
X96964D02*
G03*
X96964Y84718I-100J0D01*
G01*
X122745D02*
G03*
X122745Y84718I-100J0D01*
G01*
X80487Y71882D02*
Y76986D01*
Y71882D02*
X96440D01*
Y76986D01*
X80487D02*
X96440D01*
X61278Y71882D02*
Y76986D01*
Y71882D02*
X77231D01*
Y76986D01*
X61278D02*
X77231D01*
X68326Y36738D02*
Y37938D01*
X35240Y71743D02*
X36040D01*
X35240Y70243D02*
X36040D01*
X104013Y35672D02*
Y36972D01*
X72629Y56388D02*
X73929D01*
X82488Y41594D02*
Y42394D01*
X81688D02*
X82488D01*
Y39394D02*
Y40194D01*
X81688Y39394D02*
X82488D01*
X58405Y35687D02*
X59705D01*
X61249Y35814D02*
X62449D01*
X35160Y65417D02*
X35960D01*
X35160Y66917D02*
X35960D01*
X54503Y39911D02*
Y44861D01*
X57003Y39911D02*
Y44861D01*
X42779Y54040D02*
Y58990D01*
X40279Y54040D02*
Y58990D01*
X70485Y45705D02*
Y47005D01*
X53582Y41891D02*
Y42691D01*
X52082Y41891D02*
Y42691D01*
X75553Y48465D02*
X77453D01*
X75553Y51865D02*
X77453D01*
Y48465D02*
Y51865D01*
X71853Y48865D02*
Y51465D01*
X72353Y48465D02*
X74053D01*
X71853Y51465D02*
X72353Y51865D01*
X71853Y48865D02*
X72353Y48465D01*
Y51865D02*
X74053D01*
X67437Y49057D02*
Y50257D01*
X59979Y52197D02*
X61179D01*
X63041Y58789D02*
Y60689D01*
X59641Y58789D02*
Y60689D01*
X63041D01*
X60041Y55089D02*
X62641D01*
X63041Y55589D02*
Y57289D01*
X59641Y55589D02*
X60041Y55089D01*
X62641Y55089D02*
X63041Y55589D01*
X59641D02*
Y57289D01*
X39878Y45451D02*
Y46751D01*
Y43088D02*
Y44288D01*
X40005Y48422D02*
Y49622D01*
D12*
X98933Y35052D02*
X106934D01*
X98933Y32385D02*
Y35052D01*
Y32385D02*
X106934D01*
Y35052D01*
X87122D02*
X95123D01*
X87122Y32385D02*
Y35052D01*
Y32385D02*
X95123D01*
Y35052D01*
X90106Y74922D02*
Y73922D01*
Y74422D01*
X89439D01*
Y74922D01*
Y73922D01*
X89106Y74922D02*
Y73922D01*
X88606D01*
X88440Y74089D01*
Y74755D01*
X88606Y74922D01*
X89106D01*
X87440D02*
X88107D01*
Y74422D01*
X87773Y74589D01*
X87607D01*
X87440Y74422D01*
Y74089D01*
X87607Y73922D01*
X87940D01*
X88107Y74089D01*
X55253Y38679D02*
X56253D01*
Y38179D01*
X56086Y38013D01*
X55420D01*
X55253Y38179D01*
Y38679D01*
Y37013D02*
X55420Y37346D01*
X55753Y37679D01*
X56086D01*
X56253Y37513D01*
Y37180D01*
X56086Y37013D01*
X55920D01*
X55753Y37180D01*
Y37679D01*
X39060Y60063D02*
Y59063D01*
X38560D01*
X38394Y59230D01*
Y59896D01*
X38560Y60063D01*
X39060D01*
X37394D02*
X38060D01*
Y59563D01*
X37727Y59730D01*
X37561D01*
X37394Y59563D01*
Y59230D01*
X37561Y59063D01*
X37894D01*
X38060Y59230D01*
X108997Y36909D02*
X109164Y37076D01*
X109497D01*
X109664Y36909D01*
Y36243D01*
X109497Y36076D01*
X109164D01*
X108997Y36243D01*
X107998Y36076D02*
X108664D01*
X107998Y36743D01*
Y36909D01*
X108164Y37076D01*
X108498D01*
X108664Y36909D01*
X106998Y36076D02*
X107665D01*
X106998Y36743D01*
Y36909D01*
X107165Y37076D01*
X107498D01*
X107665Y36909D01*
X59594Y39195D02*
X59761Y39362D01*
X60094D01*
X60261Y39195D01*
Y38529D01*
X60094Y38362D01*
X59761D01*
X59594Y38529D01*
X58595Y38362D02*
X59261D01*
X58595Y39029D01*
Y39195D01*
X58761Y39362D01*
X59095D01*
X59261Y39195D01*
X57762Y38362D02*
Y39362D01*
X58262Y38862D01*
X57595D01*
X36607Y46561D02*
X36774Y46728D01*
X37107D01*
X37274Y46561D01*
Y45895D01*
X37107Y45728D01*
X36774D01*
X36607Y45895D01*
X35608Y45728D02*
X36274D01*
X35608Y46395D01*
Y46561D01*
X35774Y46728D01*
X36108D01*
X36274Y46561D01*
X34608Y46728D02*
X34941Y46561D01*
X35275Y46228D01*
Y45895D01*
X35108Y45728D01*
X34775D01*
X34608Y45895D01*
Y46061D01*
X34775Y46228D01*
X35275D01*
X44100Y47450D02*
X44267Y47617D01*
X44600D01*
X44767Y47450D01*
Y46784D01*
X44600Y46617D01*
X44267D01*
X44100Y46784D01*
X43101Y46617D02*
X43767D01*
X43101Y47284D01*
Y47450D01*
X43267Y47617D01*
X43601D01*
X43767Y47450D01*
X42768Y47617D02*
X42101D01*
Y47450D01*
X42768Y46784D01*
Y46617D01*
X32623Y71453D02*
X32790Y71620D01*
X33123D01*
X33290Y71453D01*
Y70787D01*
X33123Y70620D01*
X32790D01*
X32623Y70787D01*
X31624Y70620D02*
X32290D01*
X31624Y71287D01*
Y71453D01*
X31790Y71620D01*
X32124D01*
X32290Y71453D01*
X31291D02*
X31124Y71620D01*
X30791D01*
X30624Y71453D01*
Y71287D01*
X30791Y71120D01*
X30624Y70953D01*
Y70787D01*
X30791Y70620D01*
X31124D01*
X31291Y70787D01*
Y70953D01*
X31124Y71120D01*
X31291Y71287D01*
Y71453D01*
X31124Y71120D02*
X30791D01*
X32543Y66500D02*
X32710Y66667D01*
X33043D01*
X33210Y66500D01*
Y65834D01*
X33043Y65667D01*
X32710D01*
X32543Y65834D01*
X31544Y65667D02*
X32210D01*
X31544Y66334D01*
Y66500D01*
X31710Y66667D01*
X32044D01*
X32210Y66500D01*
X31211Y65834D02*
X31044Y65667D01*
X30711D01*
X30544Y65834D01*
Y66500D01*
X30711Y66667D01*
X31044D01*
X31211Y66500D01*
Y66334D01*
X31044Y66167D01*
X30544D01*
X53165Y38512D02*
X53332Y38679D01*
Y39012D01*
X53165Y39179D01*
X52499D01*
X52332Y39012D01*
Y38679D01*
X52499Y38512D01*
X53165Y38179D02*
X53332Y38013D01*
Y37679D01*
X53165Y37513D01*
X52999D01*
X52832Y37679D01*
Y37846D01*
Y37679D01*
X52665Y37513D01*
X52499D01*
X52332Y37679D01*
Y38013D01*
X52499Y38179D01*
X53165Y37180D02*
X53332Y37013D01*
Y36680D01*
X53165Y36513D01*
X52499D01*
X52332Y36680D01*
Y37013D01*
X52499Y37180D01*
X53165D01*
X74072Y59769D02*
X74239Y59936D01*
X74572D01*
X74739Y59769D01*
Y59103D01*
X74572Y58936D01*
X74239D01*
X74072Y59103D01*
X73739Y59769D02*
X73573Y59936D01*
X73239D01*
X73073Y59769D01*
Y59603D01*
X73239Y59436D01*
X73406D01*
X73239D01*
X73073Y59269D01*
Y59103D01*
X73239Y58936D01*
X73573D01*
X73739Y59103D01*
X72740Y59769D02*
X72573Y59936D01*
X72240D01*
X72073Y59769D01*
Y59603D01*
X72240Y59436D01*
X72406D01*
X72240D01*
X72073Y59269D01*
Y59103D01*
X72240Y58936D01*
X72573D01*
X72740Y59103D01*
X67484Y46688D02*
X67651Y46855D01*
X67984D01*
X68151Y46688D01*
Y46022D01*
X67984Y45855D01*
X67651D01*
X67484Y46022D01*
X67151Y46688D02*
X66985Y46855D01*
X66651D01*
X66485Y46688D01*
Y46522D01*
X66651Y46355D01*
X66818D01*
X66651D01*
X66485Y46188D01*
Y46022D01*
X66651Y45855D01*
X66985D01*
X67151Y46022D01*
X65652Y45855D02*
Y46855D01*
X66152Y46355D01*
X65485D01*
X47148Y81613D02*
X47315Y81780D01*
X47648D01*
X47815Y81613D01*
Y80947D01*
X47648Y80780D01*
X47315D01*
X47148Y80947D01*
X46815Y81613D02*
X46649Y81780D01*
X46315D01*
X46149Y81613D01*
Y81447D01*
X46315Y81280D01*
X46482D01*
X46315D01*
X46149Y81113D01*
Y80947D01*
X46315Y80780D01*
X46649D01*
X46815Y80947D01*
X45816Y81613D02*
X45649Y81780D01*
X45316D01*
X45149Y81613D01*
Y81447D01*
X45316Y81280D01*
X45149Y81113D01*
Y80947D01*
X45316Y80780D01*
X45649D01*
X45816Y80947D01*
Y81113D01*
X45649Y81280D01*
X45816Y81447D01*
Y81613D01*
X45649Y81280D02*
X45316D01*
X70548Y74922D02*
Y73922D01*
Y74422D01*
X69881D01*
Y74922D01*
Y73922D01*
X69548Y74922D02*
Y73922D01*
X69048D01*
X68882Y74089D01*
Y74755D01*
X69048Y74922D01*
X69548D01*
X68049Y73922D02*
Y74922D01*
X68549Y74422D01*
X67882D01*
X58197Y62400D02*
Y61400D01*
X57531D01*
X57198D02*
X56865D01*
X57031D01*
Y62400D01*
X57198Y62233D01*
X61285Y49157D02*
Y50157D01*
X60785D01*
X60619Y49990D01*
Y49657D01*
X60785Y49490D01*
X61285D01*
X60952D02*
X60619Y49157D01*
X59786D02*
Y50157D01*
X60285Y49657D01*
X59619D01*
X65349Y49157D02*
Y50157D01*
X64849D01*
X64683Y49990D01*
Y49657D01*
X64849Y49490D01*
X65349D01*
X65016D02*
X64683Y49157D01*
X64349Y50157D02*
X63683D01*
Y49990D01*
X64349Y49324D01*
Y49157D01*
X62555Y38351D02*
Y39351D01*
X62055D01*
X61889Y39184D01*
Y38851D01*
X62055Y38684D01*
X62555D01*
X62222D02*
X61889Y38351D01*
X61555Y39184D02*
X61389Y39351D01*
X61056D01*
X60889Y39184D01*
Y39018D01*
X61056Y38851D01*
X60889Y38684D01*
Y38518D01*
X61056Y38351D01*
X61389D01*
X61555Y38518D01*
Y38684D01*
X61389Y38851D01*
X61555Y39018D01*
Y39184D01*
X61389Y38851D02*
X61056D01*
X37318Y43061D02*
Y44061D01*
X36818D01*
X36651Y43894D01*
Y43561D01*
X36818Y43394D01*
X37318D01*
X36984D02*
X36651Y43061D01*
X36318D02*
X35985D01*
X36151D01*
Y44061D01*
X36318Y43894D01*
X35485D02*
X35318Y44061D01*
X34985D01*
X34818Y43894D01*
Y43228D01*
X34985Y43061D01*
X35318D01*
X35485Y43228D01*
Y43894D01*
X37151Y48649D02*
Y49649D01*
X36651D01*
X36485Y49482D01*
Y49149D01*
X36651Y48982D01*
X37151D01*
X36818D02*
X36485Y48649D01*
X36151D02*
X35818D01*
X35985D01*
Y49649D01*
X36151Y49482D01*
X35318Y48649D02*
X34985D01*
X35152D01*
Y49649D01*
X35318Y49482D01*
X71191Y61714D02*
Y60881D01*
X71024Y60714D01*
X70691D01*
X70525Y60881D01*
Y61714D01*
X70191Y61547D02*
X70025Y61714D01*
X69692D01*
X69525Y61547D01*
Y61381D01*
X69692Y61214D01*
X69858D01*
X69692D01*
X69525Y61047D01*
Y60881D01*
X69692Y60714D01*
X70025D01*
X70191Y60881D01*
X68143Y42537D02*
Y41704D01*
X67976Y41537D01*
X67643D01*
X67477Y41704D01*
Y42537D01*
X66477D02*
X66810Y42370D01*
X67143Y42037D01*
Y41704D01*
X66977Y41537D01*
X66644D01*
X66477Y41704D01*
Y41870D01*
X66644Y42037D01*
X67143D01*
X58237Y71493D02*
Y70660D01*
X58070Y70493D01*
X57737D01*
X57571Y70660D01*
Y71493D01*
X57237D02*
X56571D01*
Y71326D01*
X57237Y70660D01*
Y70493D01*
X46330Y103632D02*
Y102362D01*
X46076Y102108D01*
X45568D01*
X45314Y102362D01*
Y103632D01*
X44806Y103378D02*
X44552Y103632D01*
X44044D01*
X43790Y103378D01*
Y103124D01*
X44044Y102870D01*
X43790Y102616D01*
Y102362D01*
X44044Y102108D01*
X44552D01*
X44806Y102362D01*
Y102616D01*
X44552Y102870D01*
X44806Y103124D01*
Y103378D01*
X44552Y102870D02*
X44044D01*
X72111Y103632D02*
Y102362D01*
X71857Y102108D01*
X71349D01*
X71095Y102362D01*
Y103632D01*
X70587Y102362D02*
X70333Y102108D01*
X69825D01*
X69571Y102362D01*
Y103378D01*
X69825Y103632D01*
X70333D01*
X70587Y103378D01*
Y103124D01*
X70333Y102870D01*
X69571D01*
X98019Y103632D02*
Y102362D01*
X97765Y102108D01*
X97257D01*
X97003Y102362D01*
Y103632D01*
X96495Y102108D02*
X95987D01*
X96241D01*
Y103632D01*
X96495Y103378D01*
X95226D02*
X94972Y103632D01*
X94464D01*
X94210Y103378D01*
Y102362D01*
X94464Y102108D01*
X94972D01*
X95226Y102362D01*
Y103378D01*
X123800Y103632D02*
Y102362D01*
X123546Y102108D01*
X123038D01*
X122784Y102362D01*
Y103632D01*
X122276Y102108D02*
X121768D01*
X122022D01*
Y103632D01*
X122276Y103378D01*
X121007Y102108D02*
X120499D01*
X120753D01*
Y103632D01*
X121007Y103378D01*
X94330Y36941D02*
X94663D01*
X94496D01*
Y36108D01*
X94663Y35941D01*
X94829D01*
X94996Y36108D01*
X93330Y36941D02*
X93996D01*
Y36441D01*
X93663Y36607D01*
X93496D01*
X93330Y36441D01*
Y36108D01*
X93496Y35941D01*
X93830D01*
X93996Y36108D01*
X108498Y34155D02*
X108831D01*
X108664D01*
Y33322D01*
X108831Y33155D01*
X108997D01*
X109164Y33322D01*
X108164Y34155D02*
X107498D01*
Y33988D01*
X108164Y33322D01*
Y33155D01*
X85050Y40465D02*
Y39799D01*
X84884Y39632D01*
X84551D01*
X84384Y39799D01*
Y40465D01*
X84551Y40632D01*
X84884D01*
X84717Y40299D02*
X85050Y40632D01*
X84884D02*
X85050Y40465D01*
X86050Y40632D02*
X85384D01*
X86050Y39965D01*
Y39799D01*
X85883Y39632D01*
X85550D01*
X85384Y39799D01*
X65984Y36838D02*
Y37838D01*
X65484D01*
X65318Y37671D01*
Y37338D01*
X65484Y37171D01*
X65984D01*
X65651D02*
X65318Y36838D01*
X64984Y37005D02*
X64818Y36838D01*
X64485D01*
X64318Y37005D01*
Y37671D01*
X64485Y37838D01*
X64818D01*
X64984Y37671D01*
Y37505D01*
X64818Y37338D01*
X64318D01*
X62388Y62349D02*
Y61349D01*
X61889D01*
X61722Y61516D01*
Y62182D01*
X61889Y62349D01*
X62388D01*
X61389Y61349D02*
X61056D01*
X61222D01*
Y62349D01*
X61389Y62182D01*
X77287Y53459D02*
Y52459D01*
X76787D01*
X76621Y52626D01*
Y53292D01*
X76787Y53459D01*
X77287D01*
X75621Y52459D02*
X76287D01*
X75621Y53126D01*
Y53292D01*
X75788Y53459D01*
X76121D01*
X76287Y53292D01*
D13*
X53986Y76175D02*
G03*
X53986Y76200I-4075J25D01*
G01*
D02*
G03*
X53986Y76200I-4075J0D01*
G01*
X51319Y41783D02*
G03*
X51319Y41783I-4075J0D01*
G01*
X47219Y37708D02*
G03*
X47244Y37708I25J4075D01*
G01*
X45808Y71450D02*
X53993D01*
X45808Y61290D02*
Y71450D01*
Y61290D02*
X53993D01*
X72006Y90528D02*
Y92469D01*
X62106Y90528D02*
X72006D01*
X62106D02*
Y92469D01*
X36325Y90528D02*
Y92469D01*
Y90528D02*
X46225D01*
Y92469D01*
X53986Y76175D02*
X53986Y76175D01*
Y72050D02*
Y76175D01*
X45686Y72050D02*
X53986D01*
X45686D02*
Y76200D01*
X45686Y72900D02*
X45686Y72900D01*
Y76200D01*
X45711Y73050D02*
X46711Y72050D01*
X45686Y73550D02*
Y76200D01*
X53986Y76225D02*
X53986Y76225D01*
Y80350D01*
X45686D02*
X53986D01*
X45686Y76200D02*
Y80350D01*
X45686Y79500D02*
X45686Y79500D01*
Y76200D02*
Y79500D01*
X45036Y75425D02*
X45686D01*
X45711Y79350D02*
X46711Y80350D01*
X45686Y76200D02*
Y78850D01*
X45036Y76975D02*
X45686D01*
X53986Y75425D02*
X54661D01*
X53986Y76975D02*
X54661D01*
X48019Y37033D02*
Y37708D01*
X46469Y37033D02*
Y37708D01*
X48019Y46008D02*
Y46658D01*
X47244Y46008D02*
X49894D01*
X50394Y45983D02*
X51394Y44983D01*
X46469Y46008D02*
Y46658D01*
X47244Y46008D02*
X50544D01*
X50544Y46008D01*
X47244Y46008D02*
X51394D01*
Y37708D02*
Y46008D01*
X47269Y37708D02*
X51394D01*
X47269Y37708D02*
X47269Y37708D01*
X44594Y46008D02*
X47244D01*
X43094Y44983D02*
X44094Y45983D01*
X43944Y46008D02*
X47244D01*
X43944Y46008D02*
X43944Y46008D01*
X43094D02*
X47244D01*
X43094Y37708D02*
Y46008D01*
Y37708D02*
X47219D01*
X47219Y37708D01*
X54553Y42986D02*
X56953D01*
X40329Y55915D02*
X42729D01*
X88014Y90528D02*
Y92469D01*
Y90528D02*
X97914D01*
Y92469D01*
X113795Y90528D02*
Y92469D01*
Y90528D02*
X123695D01*
Y92469D01*
D14*
X46686Y74856D02*
X47278D01*
X46982Y74559D02*
Y75152D01*
X45900Y45008D02*
Y44416D01*
X45603Y44712D02*
X46196D01*
D15*
X52111Y76162D02*
D03*
D103*
X83263Y40044D02*
G03*
X83263Y40044I-125J0D01*
G01*
D104*
X64395Y50453D02*
X65242Y51300D01*
X64395D02*
X65242Y50453D01*
X64395Y50876D02*
X65242D01*
X64819Y51300D02*
Y50453D01*
X71704Y45152D02*
X70858Y44306D01*
X71704D02*
X70858Y45152D01*
X71704Y44729D02*
X70858D01*
X71281Y44306D02*
Y45152D01*
D105*
X47207Y39584D02*
D03*
M02*
