M48
;Layer_Color=9474304
;FILE_FORMAT=4:4
METRIC,LZ
;TYPE=PLATED
T1F00S00C0.3000
T2F00S00C0.7000
T3F00S00C0.7620
T4F00S00C0.9000
T5F00S00C1.3000
T6F00S00C3.5000
%
T01
X0061341Y0032639
X0062103
X0068834Y0039243
X0072644Y0036703
X0089789Y003782
X0092964Y0039116
X0093599
X0094234
X0110236Y0037719
X012065Y0061849
X0119113Y0064535
X0114046Y0062738
X01124093Y00618727
X0109474Y0062611
X0111363Y0056153
X0110744Y0050927
X0108712Y005207
X010795Y0053325
X0109601Y0048514
X0106299Y0044196
X0101346Y0043561
X01023589Y00473741
X0095904Y0048387
X0094596Y004445
X0093472Y0044958
X0092202Y0044958
X0092964Y0040386
X0093599
X0094234
Y0039751
X0093599
X0092964
X009866Y0039878
X0098806Y0053975
X0096774Y0054991
X00914858Y0056303
X0093091Y0059055
X0089789Y0059944
X0088392Y00548314
X008382Y0055499
X0081534Y0055372
X008382Y0059055
X0082423Y0062611
X0085344Y006477
X009525Y0063119
X0099277Y0061558
X010033Y0061595
X0101219Y0064389
X0096266Y0069792
X0089535Y0074307
X0087503
Y0076369
X0085598
X0089535
X0100965Y0078359
X010287Y0078124
X0104648Y0077978
X010668Y0078232
X0108585
X0109474Y0076581
X0112395Y0076962
X010795Y0074422
X0088392Y004953
X0070739Y0049022
X0068326Y0052578
X0063373Y0050546
X0061722Y0049784
X0057277Y0052197
X0056007
Y0053467
X0057277
Y0054864
Y0056134
Y0057277
X0056007
Y0056134
Y0054864
X0053848Y0062484
Y0064389
Y0066294
Y0068199
Y006985
X0051689
Y0068199
Y0066294
Y0064389
Y0062484
X004953
Y0064389
Y0066294
Y0068199
Y006985
X0045085Y0072263
Y007366
X0043688
Y0072263
X0042164
X0040767
Y007366
X0042164
X0039751Y00645704
X0040894Y0050292
X0059055Y0040005
X0065278Y0042545
Y0045212
X0072771Y0040132
X0074041
X007565Y0055372
X0075692Y0058039
X007493Y0067691
Y007112
X0070866Y0071628
X0068395Y0068072
X0067056Y0065405
X0068326Y0061383
X0061341Y0059605
X0062738Y0075615
X0058801Y0075565
X0058674Y007767
X0054102Y0078359
X0051181Y0077555
X0049276Y0078359
X0053975Y0074168
X0039243Y007366
Y0072263
X0037592Y0063373
Y0062357
Y0061341
X0035433
Y0062357
Y0063373
X0033401
Y0062357
Y0061341
X0031496
Y0062357
Y0063373
X0036322Y0048006
X0038735Y0084328
X00372194Y00867139
Y00874759
Y00882379
X00364574
Y00874759
Y00867139
X00356954
Y00874759
Y00882379
X0036957Y009398
X00381
X0039243
Y0095123
X00381
X0036957
Y0096266
Y0097282
Y0098298
Y0099314
Y010033
X00381
Y0099314
Y0098298
Y0097282
Y0096266
X0039243
Y0097282
Y0098298
Y0099314
Y010033
X0040386
Y0099314
Y0098298
Y0097282
Y0096266
Y0095123
Y009398
X0041656
X0042799
X0043942
X0045085
Y0095123
X0043942
X0042799
X0041656
Y0096266
Y0097282
Y0098298
Y0099314
Y010033
X0042799
Y0099314
Y0098298
Y0097282
Y0096266
X0043942
Y0097282
Y0098298
Y0099314
Y010033
X0045085
Y0099314
Y0098298
Y0097282
Y0096266
X00475064Y00916669
X00482684
Y00909049
Y00901429
X00490304
Y00909049
Y00916669
X00475064Y00909049
Y00901429
X0043815Y0084778
X0042545Y0084074
X0040005Y0084709
X0045085Y0079502
X00604604Y00867139
Y00874759
Y00882379
X00612224
Y00874759
Y00867139
X00619844
Y00874759
Y00882379
X00645244Y00846819
X00657944Y00837929
X00683168Y00841056
X00695868Y00834706
X00718904Y00863329
X00726524
Y00870949
X00718904
Y00878569
Y00886189
X00726524
Y00878569
X0070993Y0093853
Y0094996
Y0096139
Y0097155
Y0098171
Y0099187
Y0100203
X006985
Y0099187
Y0098171
Y0097155
Y0096139
X0068707
Y0097155
Y0098171
Y0099187
Y0100203
X0067564
Y0099187
Y0098171
Y0097155
Y0096139
Y0094996
X0068707
X006985
Y0093853
X0068707
X0067564
X0066294
Y0094996
Y0096139
Y0097155
Y0098171
Y0099187
Y0100203
X0065151
Y0099187
Y0098171
Y0097155
Y0096139
X0064008
Y0097155
Y0098171
Y0099187
Y0100203
X0062865
Y0099187
Y0098171
Y0097155
Y0096139
Y0094996
X0064008
X0065151
Y0093853
X0064008
X0062865
X0062611Y0108839
X0061849
X0061087
X0060325
Y0109601
X0061087
X0061849
Y0110363
X0061087
X0060325
X0062611
Y0109601
X0047498Y0109474
Y0108839
X0046609
Y0109474
X004572
Y0108839
X0096393Y0108966
Y0109728
Y011049
X0097155
X0097917
X0098679
Y0109728
Y0108966
X0097917
Y0109728
X0097155
Y0108966
X0097028Y010033
Y0099314
Y0098298
Y0097282
Y0096266
X0095885
Y0097282
Y0098298
Y0099314
Y010033
X0094742
Y0099314
Y0098298
Y0097282
Y0096266
X0093599
Y0097282
Y0098298
Y0099314
Y010033
X0092329
Y0099314
Y0098298
Y0097282
Y0096266
X0091186
Y0097282
Y0098298
Y0099314
Y010033
X0090043
Y0099314
Y0098298
Y0097282
Y0096266
X00889
Y0097282
Y0098298
Y0099314
Y010033
Y0095123
X0090043
X0091186
X0092329
Y009398
X0091186
X0090043
X00889
X0093599
Y0095123
X0094742
X0095885
X0097028
Y009398
X0095885
X0094742
X0101346Y0093472
X0102108
X010287
Y009271
X0102108
X0101346
Y0091948
X0102108
X010287
X0112395Y0088138
X0113157
X0113919
Y0087376
X0113157
X0112395
Y0086614
X0113157
X0113919
X0116205Y0084709
X0117475Y008382
X0116967Y009398
Y0095123
Y0096266
Y0097282
Y0098298
Y0099314
Y010033
X0115824
Y0099314
Y0098298
Y0097282
Y0096266
X0114681
Y0097282
Y0098298
Y0099314
Y010033
X011811
Y0099314
Y0098298
Y0097282
Y0096266
Y0095123
Y009398
X0115824
Y0095123
X0114681
Y009398
X0113792Y0109347
X0112903
X0112014
X00954948Y00847406
X0094234Y0084074
X00916848Y00846136
X0090424Y0083947
X0088138Y0086868
X0087376
X0086614
Y008763
X0087376
X0088138
Y0088392
X0087376
X0086614
X0120015Y0084582
X01212758Y00830896
X0121666Y009398
Y0095123
Y0096266
Y0097282
Y0098298
Y0099314
Y010033
X0122809
Y0099314
Y0098298
Y0097282
Y0096266
Y0095123
Y009398
X0120523
Y0095123
Y0096266
Y0097282
Y0098298
Y0099314
Y010033
X011938
Y0099314
Y0098298
Y0097282
Y0096266
Y0095123
Y009398
T02
X0088646Y0033655
X0091186
X0093726
X0100457
X0102997
X0105537
X0115824Y0044069
Y0046609
Y0049149
Y0051689
Y0054229
Y0056769
Y0059309
Y0061849
X0104648Y0068199
X0102108
X0099568
X0097028
X0081534Y0053721
Y0051181
X0080391Y0047244
X0082931
X0085471
Y004445
X0082931
X0080391
T03
X0078677Y00381
X0082677
T04
X0033528Y0054864
Y0057404
T05
X0034925Y0075034
Y0078994
T06
X003556Y0036322
X0124333
X0034544Y0114173
X0125349
M30
