G04*
G04 #@! TF.GenerationSoftware,Altium Limited,Altium Designer,21.0.8 (223)*
G04*
G04 Layer_Color=8388736*
%FSTAX24Y24*%
%MOIN*%
G70*
G04*
G04 #@! TF.SameCoordinates,00D354F9-114D-4BFF-AAB9-25B0FB3EDDE6*
G04*
G04*
G04 #@! TF.FilePolarity,Negative*
G04*
G01*
G75*
%ADD16R,0.0120X0.0470*%
%ADD17R,0.0470X0.0120*%
%ADD29R,0.4610X0.4200*%
%ADD30R,0.1260X0.0390*%
%ADD38R,0.0690X0.0592*%
%ADD39R,0.0867X0.1655*%
%ADD40R,0.0474X0.1182*%
%ADD41R,0.0631X0.0671*%
G04:AMPARAMS|DCode=42|XSize=59.6mil|YSize=135.6mil|CornerRadius=7.9mil|HoleSize=0mil|Usage=FLASHONLY|Rotation=270.000|XOffset=0mil|YOffset=0mil|HoleType=Round|Shape=RoundedRectangle|*
%AMROUNDEDRECTD42*
21,1,0.0596,0.1198,0,0,270.0*
21,1,0.0438,0.1356,0,0,270.0*
1,1,0.0157,-0.0599,-0.0219*
1,1,0.0157,-0.0599,0.0219*
1,1,0.0157,0.0599,0.0219*
1,1,0.0157,0.0599,-0.0219*
%
%ADD42ROUNDEDRECTD42*%
G04:AMPARAMS|DCode=43|XSize=59.6mil|YSize=44.6mil|CornerRadius=6.7mil|HoleSize=0mil|Usage=FLASHONLY|Rotation=270.000|XOffset=0mil|YOffset=0mil|HoleType=Round|Shape=RoundedRectangle|*
%AMROUNDEDRECTD43*
21,1,0.0596,0.0311,0,0,270.0*
21,1,0.0461,0.0446,0,0,270.0*
1,1,0.0135,-0.0156,-0.0230*
1,1,0.0135,-0.0156,0.0230*
1,1,0.0135,0.0156,0.0230*
1,1,0.0135,0.0156,-0.0230*
%
%ADD43ROUNDEDRECTD43*%
%ADD44R,0.0671X0.0631*%
%ADD45R,0.4045X0.3344*%
%ADD46O,0.1480X0.0671*%
%ADD47R,0.1480X0.0671*%
G04:AMPARAMS|DCode=48|XSize=85.6mil|YSize=31.6mil|CornerRadius=7mil|HoleSize=0mil|Usage=FLASHONLY|Rotation=0.000|XOffset=0mil|YOffset=0mil|HoleType=Round|Shape=RoundedRectangle|*
%AMROUNDEDRECTD48*
21,1,0.0856,0.0177,0,0,0.0*
21,1,0.0717,0.0316,0,0,0.0*
1,1,0.0139,0.0358,-0.0089*
1,1,0.0139,-0.0358,-0.0089*
1,1,0.0139,-0.0358,0.0089*
1,1,0.0139,0.0358,0.0089*
%
%ADD48ROUNDEDRECTD48*%
%ADD49R,0.0749X0.0513*%
%ADD50R,0.0867X0.0592*%
%ADD51O,0.0867X0.0592*%
%ADD52R,0.0552X0.0631*%
%ADD53R,0.0867X0.1261*%
%ADD54R,0.0631X0.0552*%
%ADD55R,0.0513X0.0749*%
%ADD56R,0.0671X0.1104*%
%ADD57C,0.0671*%
%ADD58R,0.0671X0.0671*%
%ADD59C,0.0680*%
%ADD60R,0.1182X0.1182*%
%ADD61C,0.1182*%
%ADD62R,0.0671X0.0671*%
%ADD63C,0.2049*%
%ADD64C,0.0316*%
D16*
X038124Y023614D02*
D03*
X03832D02*
D03*
X038517D02*
D03*
X038714D02*
D03*
X038911D02*
D03*
X039108D02*
D03*
X039305D02*
D03*
X039502D02*
D03*
X039698D02*
D03*
X039895D02*
D03*
X040092D02*
D03*
X040289D02*
D03*
X040486D02*
D03*
X040683D02*
D03*
X04088D02*
D03*
X041076D02*
D03*
Y019086D02*
D03*
X04088D02*
D03*
X040683D02*
D03*
X040486D02*
D03*
X040289D02*
D03*
X040092D02*
D03*
X039895D02*
D03*
X039698D02*
D03*
X039502D02*
D03*
X039305D02*
D03*
X039108D02*
D03*
X038911D02*
D03*
X038714D02*
D03*
X038517D02*
D03*
X03832D02*
D03*
X038124D02*
D03*
D17*
X041864Y022826D02*
D03*
Y02263D02*
D03*
Y022433D02*
D03*
Y022236D02*
D03*
Y022039D02*
D03*
Y021842D02*
D03*
Y021645D02*
D03*
Y021448D02*
D03*
Y021252D02*
D03*
Y021055D02*
D03*
Y020858D02*
D03*
Y020661D02*
D03*
Y020464D02*
D03*
Y020267D02*
D03*
Y02007D02*
D03*
Y019874D02*
D03*
X037336D02*
D03*
Y02007D02*
D03*
Y020267D02*
D03*
Y020464D02*
D03*
Y020661D02*
D03*
Y020858D02*
D03*
Y021055D02*
D03*
Y021252D02*
D03*
Y021448D02*
D03*
Y021645D02*
D03*
Y021842D02*
D03*
Y022039D02*
D03*
Y022236D02*
D03*
Y022433D02*
D03*
Y02263D02*
D03*
Y022826D02*
D03*
D29*
X01925Y0177D02*
D03*
D30*
X022735Y0187D02*
D03*
Y0167D02*
D03*
D38*
X044085Y014836D02*
D03*
Y013064D02*
D03*
X047215Y014836D02*
D03*
Y013064D02*
D03*
D39*
X0503Y02945D02*
D03*
X04545D02*
D03*
D40*
X0489Y0265D02*
D03*
X0479D02*
D03*
X0469D02*
D03*
D41*
X013506D02*
D03*
X014294D02*
D03*
X043106Y0236D02*
D03*
X043894D02*
D03*
X043056Y0226D02*
D03*
X043844D02*
D03*
X038156Y01795D02*
D03*
X038944D02*
D03*
X04265D02*
D03*
X041863D02*
D03*
X047094Y01565D02*
D03*
X046306D02*
D03*
X038106Y02485D02*
D03*
X038894D02*
D03*
X02565Y0136D02*
D03*
X026437D02*
D03*
X0143Y0196D02*
D03*
X013513D02*
D03*
D42*
X0336Y025983D02*
D03*
D43*
X032698Y028617D02*
D03*
X0336D02*
D03*
X034502D02*
D03*
D44*
X03385Y013994D02*
D03*
Y013206D02*
D03*
X04395Y0444D02*
D03*
Y043613D02*
D03*
X04495Y044394D02*
D03*
Y043606D02*
D03*
X01785Y044244D02*
D03*
Y043456D02*
D03*
X01885D02*
D03*
Y044244D02*
D03*
X03685Y027006D02*
D03*
Y027794D02*
D03*
X0303Y027444D02*
D03*
Y026656D02*
D03*
X03055Y023206D02*
D03*
Y023994D02*
D03*
X03475Y024044D02*
D03*
Y023256D02*
D03*
X03595D02*
D03*
Y024044D02*
D03*
Y020994D02*
D03*
Y020206D02*
D03*
X0409Y017256D02*
D03*
Y018044D02*
D03*
X02805Y015244D02*
D03*
Y014456D02*
D03*
X04675Y024344D02*
D03*
Y023556D02*
D03*
D45*
X0264Y03815D02*
D03*
X01625D02*
D03*
X0366D02*
D03*
X04675D02*
D03*
D46*
X03945Y0444D02*
D03*
X02325D02*
D03*
D47*
X04235D02*
D03*
X02035D02*
D03*
D48*
X024476Y01595D02*
D03*
Y01545D02*
D03*
Y01495D02*
D03*
Y01445D02*
D03*
X026424D02*
D03*
Y01495D02*
D03*
Y01545D02*
D03*
Y01595D02*
D03*
X025726Y0273D02*
D03*
Y0268D02*
D03*
Y0263D02*
D03*
Y0258D02*
D03*
X027674D02*
D03*
Y0263D02*
D03*
Y0268D02*
D03*
Y0273D02*
D03*
D49*
X0357Y026818D02*
D03*
Y027882D02*
D03*
X03145Y027531D02*
D03*
Y026469D02*
D03*
X03885Y017132D02*
D03*
Y016069D02*
D03*
X0348Y021181D02*
D03*
Y020119D02*
D03*
D50*
X0318Y0247D02*
D03*
D51*
Y022653D02*
D03*
X03369D02*
D03*
Y0247D02*
D03*
D52*
X043996Y0157D02*
D03*
X044704D02*
D03*
X035096Y01845D02*
D03*
X035804D02*
D03*
X035096Y0177D02*
D03*
X035804D02*
D03*
X027154Y0282D02*
D03*
X026446D02*
D03*
X0135Y02055D02*
D03*
X014209D02*
D03*
D53*
X019165Y023D02*
D03*
X017335D02*
D03*
D54*
X0241Y026496D02*
D03*
Y027204D02*
D03*
X02885Y026446D02*
D03*
Y027154D02*
D03*
X0209Y032004D02*
D03*
Y031296D02*
D03*
X0239Y031291D02*
D03*
Y032D02*
D03*
X02015Y032004D02*
D03*
Y031296D02*
D03*
X02315Y031296D02*
D03*
Y032004D02*
D03*
X0194Y031291D02*
D03*
Y032D02*
D03*
X01865Y031291D02*
D03*
Y032D02*
D03*
X02165Y031296D02*
D03*
Y032004D02*
D03*
X0224Y031296D02*
D03*
Y032004D02*
D03*
X04125Y032004D02*
D03*
Y031296D02*
D03*
X04425Y031296D02*
D03*
Y032004D02*
D03*
X0405Y032004D02*
D03*
Y031296D02*
D03*
X0435Y031296D02*
D03*
Y032004D02*
D03*
X03975Y031291D02*
D03*
Y032D02*
D03*
X039Y031291D02*
D03*
Y032D02*
D03*
X042Y031296D02*
D03*
Y032004D02*
D03*
X04275Y031296D02*
D03*
Y032004D02*
D03*
D55*
X013469Y02795D02*
D03*
X014532D02*
D03*
D56*
X025341Y0247D02*
D03*
X024159D02*
D03*
X027659Y0247D02*
D03*
X028841D02*
D03*
D57*
X0392Y02685D02*
D03*
X0382D02*
D03*
X0402D02*
D03*
X03265Y0175D02*
D03*
X03165D02*
D03*
X04155Y01325D02*
D03*
X04055D02*
D03*
X0369D02*
D03*
X0359D02*
D03*
X0456Y02235D02*
D03*
Y02335D02*
D03*
Y02035D02*
D03*
Y02135D02*
D03*
Y01835D02*
D03*
Y01935D02*
D03*
Y01735D02*
D03*
X0132Y0216D02*
D03*
X0321Y02015D02*
D03*
X03265Y0186D02*
D03*
X03165D02*
D03*
D58*
X0412Y02685D02*
D03*
X03365Y0175D02*
D03*
X03955Y01325D02*
D03*
X0349D02*
D03*
X0132Y0226D02*
D03*
X03365Y0186D02*
D03*
D59*
X03255Y015D02*
D03*
X030975D02*
D03*
D60*
X01375Y029541D02*
D03*
D61*
Y0311D02*
D03*
D62*
X0456Y02435D02*
D03*
X0321Y02115D02*
D03*
D63*
X0136Y04495D02*
D03*
X04935D02*
D03*
X04895Y0143D02*
D03*
X014D02*
D03*
D64*
X0405Y030757D02*
D03*
X0337Y030067D02*
D03*
X03445D02*
D03*
X0247Y02977D02*
D03*
X03525Y030067D02*
D03*
X0412Y0307D02*
D03*
X04275Y0308D02*
D03*
X042D02*
D03*
X04515Y0395D02*
D03*
X0456D02*
D03*
X04605D02*
D03*
X0465D02*
D03*
X04835D02*
D03*
X0479D02*
D03*
X04745D02*
D03*
X047D02*
D03*
X0465Y0391D02*
D03*
X04605D02*
D03*
X0456D02*
D03*
X04515D02*
D03*
X04835D02*
D03*
X0479D02*
D03*
X04745D02*
D03*
X047D02*
D03*
X04835Y0387D02*
D03*
X0479D02*
D03*
X04745D02*
D03*
X047D02*
D03*
X0465D02*
D03*
X04605D02*
D03*
X0456D02*
D03*
X04515D02*
D03*
X0465Y0383D02*
D03*
X04605D02*
D03*
X0456D02*
D03*
X04515D02*
D03*
X04835D02*
D03*
X0479D02*
D03*
X04745D02*
D03*
X047D02*
D03*
X0465Y0379D02*
D03*
X04605D02*
D03*
X0456D02*
D03*
X04515D02*
D03*
X04835D02*
D03*
X0479D02*
D03*
X04745D02*
D03*
X047D02*
D03*
X04835Y03745D02*
D03*
X0479D02*
D03*
X04745D02*
D03*
X047D02*
D03*
X0465D02*
D03*
X04605D02*
D03*
X0456D02*
D03*
X04515D02*
D03*
X0465Y037D02*
D03*
X04605D02*
D03*
X0456D02*
D03*
X04515D02*
D03*
X04835D02*
D03*
X0479D02*
D03*
X04745D02*
D03*
X047D02*
D03*
X035Y0395D02*
D03*
X03545D02*
D03*
X0359D02*
D03*
X03635D02*
D03*
X0382D02*
D03*
X03775D02*
D03*
X0373D02*
D03*
X03685D02*
D03*
X03635Y0391D02*
D03*
X0359D02*
D03*
X03545D02*
D03*
X035D02*
D03*
X0382D02*
D03*
X03775D02*
D03*
X0373D02*
D03*
X03685D02*
D03*
X0382Y0387D02*
D03*
X03775D02*
D03*
X0373D02*
D03*
X03685D02*
D03*
X03635D02*
D03*
X0359D02*
D03*
X03545D02*
D03*
X035D02*
D03*
X03635Y0383D02*
D03*
X0359D02*
D03*
X03545D02*
D03*
X035D02*
D03*
X0382D02*
D03*
X03775D02*
D03*
X0373D02*
D03*
X03685D02*
D03*
X03635Y0379D02*
D03*
X0359D02*
D03*
X03545D02*
D03*
X035D02*
D03*
X0382D02*
D03*
X03775D02*
D03*
X0373D02*
D03*
X03685D02*
D03*
X0382Y03745D02*
D03*
X03775D02*
D03*
X0373D02*
D03*
X03685D02*
D03*
X03635D02*
D03*
X0359D02*
D03*
X03545D02*
D03*
X035D02*
D03*
X03635Y037D02*
D03*
X0359D02*
D03*
X03545D02*
D03*
X035D02*
D03*
X0382D02*
D03*
X03775D02*
D03*
X0373D02*
D03*
X03685D02*
D03*
X02475Y03945D02*
D03*
X0252D02*
D03*
X02565D02*
D03*
X0261D02*
D03*
X02795D02*
D03*
X0275D02*
D03*
X02705D02*
D03*
X0266D02*
D03*
X0261Y03905D02*
D03*
X02565D02*
D03*
X0252D02*
D03*
X02475D02*
D03*
X02795D02*
D03*
X0275D02*
D03*
X02705D02*
D03*
X0266D02*
D03*
X02795Y03865D02*
D03*
X0275D02*
D03*
X02705D02*
D03*
X0266D02*
D03*
X0261D02*
D03*
X02565D02*
D03*
X0252D02*
D03*
X02475D02*
D03*
X0261Y03825D02*
D03*
X02565D02*
D03*
X0252D02*
D03*
X02475D02*
D03*
X02795D02*
D03*
X0275D02*
D03*
X02705D02*
D03*
X0266D02*
D03*
X0261Y03785D02*
D03*
X02565D02*
D03*
X0252D02*
D03*
X02475D02*
D03*
X02795D02*
D03*
X0275D02*
D03*
X02705D02*
D03*
X0266D02*
D03*
X02795Y0374D02*
D03*
X0275D02*
D03*
X02705D02*
D03*
X0266D02*
D03*
X0261D02*
D03*
X02565D02*
D03*
X0252D02*
D03*
X02475D02*
D03*
X0261Y03695D02*
D03*
X02565D02*
D03*
X0252D02*
D03*
X02475D02*
D03*
X02795D02*
D03*
X0275D02*
D03*
X02705D02*
D03*
X0266D02*
D03*
X0164Y037D02*
D03*
X01685D02*
D03*
X0173D02*
D03*
X01775D02*
D03*
X01455D02*
D03*
X015D02*
D03*
X01545D02*
D03*
X0159D02*
D03*
X01455Y03745D02*
D03*
X015D02*
D03*
X01545D02*
D03*
X0159D02*
D03*
X0164D02*
D03*
X01685D02*
D03*
X0173D02*
D03*
X01775D02*
D03*
X0164Y0379D02*
D03*
X01685D02*
D03*
X0173D02*
D03*
X01775D02*
D03*
X01455D02*
D03*
X015D02*
D03*
X01545D02*
D03*
X0159D02*
D03*
X0164Y0383D02*
D03*
X01685D02*
D03*
X0173D02*
D03*
X01775D02*
D03*
X01455D02*
D03*
X015D02*
D03*
X01545D02*
D03*
X0159D02*
D03*
X01455Y0387D02*
D03*
X015D02*
D03*
X01545D02*
D03*
X0159D02*
D03*
X0164D02*
D03*
X01685D02*
D03*
X0173D02*
D03*
X01775D02*
D03*
X0164Y0391D02*
D03*
X01685D02*
D03*
X0173D02*
D03*
X01775D02*
D03*
X01455D02*
D03*
X015D02*
D03*
X01545D02*
D03*
X0159D02*
D03*
X0164Y0395D02*
D03*
X01685D02*
D03*
X0173D02*
D03*
X01775D02*
D03*
X0159D02*
D03*
X01545D02*
D03*
X015D02*
D03*
X01455D02*
D03*
X02915Y0158D02*
D03*
X02865D02*
D03*
X02205Y02255D02*
D03*
X02255D02*
D03*
X0271Y01545D02*
D03*
X0381Y02165D02*
D03*
X0436Y02005D02*
D03*
X0389Y02125D02*
D03*
X036018Y022167D02*
D03*
X0428Y0205D02*
D03*
X0449Y0247D02*
D03*
X040299Y018651D02*
D03*
X0395Y02425D02*
D03*
X037757Y01905D02*
D03*
X039085Y024235D02*
D03*
X0425Y020994D02*
D03*
X01565Y025421D02*
D03*
X02035Y0261D02*
D03*
X0295Y02665D02*
D03*
Y028D02*
D03*
X02125Y0292D02*
D03*
X03535Y0236D02*
D03*
X0213Y03085D02*
D03*
X01525Y0332D02*
D03*
X046895Y025407D02*
D03*
X0475Y02435D02*
D03*
X0431Y02465D02*
D03*
X03665Y02325D02*
D03*
X0348Y021587D02*
D03*
X03535Y01489D02*
D03*
X0371Y0159D02*
D03*
Y01565D02*
D03*
X0366Y0154D02*
D03*
X03685Y0159D02*
D03*
X0371Y0154D02*
D03*
X03685D02*
D03*
X0366Y0159D02*
D03*
X03685Y01565D02*
D03*
X0366D02*
D03*
X0434Y01485D02*
D03*
X0231Y030579D02*
D03*
X02315Y02975D02*
D03*
X01775Y029D02*
D03*
Y02845D02*
D03*
X04185Y0174D02*
D03*
X0399Y01715D02*
D03*
X0375Y02485D02*
D03*
X0379Y027477D02*
D03*
X02785Y0193D02*
D03*
X0243Y0196D02*
D03*
X044256Y024359D02*
D03*
X033Y02325D02*
D03*
Y02185D02*
D03*
X0368Y0177D02*
D03*
X0348Y0195D02*
D03*
X038843Y0157D02*
D03*
X0257Y0178D02*
D03*
X029783Y0218D02*
D03*
X0298Y02285D02*
D03*
X0279Y0282D02*
D03*
X03985Y02535D02*
D03*
X0431Y03015D02*
D03*
X03445Y029255D02*
D03*
X0336Y0255D02*
D03*
X03525Y029255D02*
D03*
X02445Y01285D02*
D03*
X02495Y0199D02*
D03*
X0286Y01445D02*
D03*
X0257Y01675D02*
D03*
X01775Y0313D02*
D03*
X01725Y033377D02*
D03*
X01675Y0331D02*
D03*
X01575Y03335D02*
D03*
X014653Y034739D02*
D03*
Y034139D02*
D03*
Y034439D02*
D03*
X0269Y0207D02*
D03*
X018Y0431D02*
D03*
X01835D02*
D03*
X0187D02*
D03*
X019003Y036089D02*
D03*
Y035789D02*
D03*
Y035489D02*
D03*
X019303D02*
D03*
Y036089D02*
D03*
Y035789D02*
D03*
X018703D02*
D03*
Y035489D02*
D03*
Y036089D02*
D03*
X0143Y0189D02*
D03*
X02415Y01285D02*
D03*
X02375Y04285D02*
D03*
X02405D02*
D03*
X02435D02*
D03*
Y04315D02*
D03*
X02405D02*
D03*
X02375D02*
D03*
X02435Y04345D02*
D03*
X02405D02*
D03*
X02375D02*
D03*
X02465Y04285D02*
D03*
Y04315D02*
D03*
Y04345D02*
D03*
X03885Y0435D02*
D03*
Y0432D02*
D03*
Y0429D02*
D03*
X0448Y04305D02*
D03*
X04445D02*
D03*
X0441D02*
D03*
X03795Y0435D02*
D03*
X03825D02*
D03*
X03855D02*
D03*
X03795Y0432D02*
D03*
X03825D02*
D03*
X03855D02*
D03*
X0187Y04285D02*
D03*
X01835D02*
D03*
X018D02*
D03*
X03855Y0429D02*
D03*
X03825D02*
D03*
X03795D02*
D03*
X0399Y0368D02*
D03*
X0402D02*
D03*
X0405D02*
D03*
X0399Y0365D02*
D03*
X0402D02*
D03*
X0405D02*
D03*
Y0362D02*
D03*
X0402D02*
D03*
X0399D02*
D03*
X03245Y02465D02*
D03*
X028303Y034889D02*
D03*
X028603D02*
D03*
X027396Y032862D02*
D03*
X026896Y033112D02*
D03*
X025903Y032989D02*
D03*
X025403Y033339D02*
D03*
X028603Y033989D02*
D03*
X028303D02*
D03*
X028603Y034289D02*
D03*
X028303D02*
D03*
X028603Y034589D02*
D03*
X028303D02*
D03*
X02415Y023467D02*
D03*
X0194Y03085D02*
D03*
X02015Y030533D02*
D03*
X0161Y0198D02*
D03*
X04425Y0303D02*
D03*
X03975Y03085D02*
D03*
X037243Y0175D02*
D03*
X04315Y0191D02*
D03*
X04425Y0347D02*
D03*
X04455D02*
D03*
X04485D02*
D03*
X04425Y0344D02*
D03*
X04455D02*
D03*
X04485D02*
D03*
Y0341D02*
D03*
X04455D02*
D03*
X04425D02*
D03*
X014353Y034139D02*
D03*
X014053D02*
D03*
X014353Y034439D02*
D03*
X014053D02*
D03*
X014353Y034739D02*
D03*
X014053D02*
D03*
X023803D02*
D03*
X024103D02*
D03*
X023803Y034439D02*
D03*
X024103D02*
D03*
X023803Y034139D02*
D03*
X024103D02*
D03*
X024403D02*
D03*
Y034739D02*
D03*
Y034439D02*
D03*
X0341Y0342D02*
D03*
X0344D02*
D03*
X0347D02*
D03*
Y0345D02*
D03*
X0344D02*
D03*
X0341D02*
D03*
X0347Y0348D02*
D03*
X0344D02*
D03*
X0341D02*
D03*
X02255Y0216D02*
D03*
Y02055D02*
D03*
X02205D02*
D03*
Y02105D02*
D03*
X02255Y0221D02*
D03*
Y02105D02*
D03*
X02205Y0216D02*
D03*
Y0221D02*
D03*
X026927Y0268D02*
D03*
X0269Y024167D02*
D03*
X0264Y02575D02*
D03*
X02325Y01575D02*
D03*
X02035Y0275D02*
D03*
X0195D02*
D03*
X0212D02*
D03*
X02035Y02685D02*
D03*
X0212D02*
D03*
X0195D02*
D03*
Y0261D02*
D03*
X0212D02*
D03*
Y02535D02*
D03*
X02035D02*
D03*
X0195D02*
D03*
Y0246D02*
D03*
X0212D02*
D03*
X02035D02*
D03*
X0172Y02845D02*
D03*
X0166D02*
D03*
X01605D02*
D03*
X01545D02*
D03*
Y029D02*
D03*
X0172D02*
D03*
X0166D02*
D03*
X01605D02*
D03*
X0363Y0177D02*
D03*
X043844Y022107D02*
D03*
X0425Y0293D02*
D03*
X0321Y0218D02*
D03*
X04625Y033D02*
D03*
X047746Y032712D02*
D03*
X04725Y0333D02*
D03*
X04575Y03335D02*
D03*
X036096Y033312D02*
D03*
X037596Y033362D02*
D03*
X0371Y0331D02*
D03*
X0356Y03305D02*
D03*
M02*
