G04*
G04 #@! TF.GenerationSoftware,Altium Limited,Altium Designer,21.0.8 (223)*
G04*
G04 Layer_Color=32896*
%FSTAX24Y24*%
%MOIN*%
G70*
G04*
G04 #@! TF.SameCoordinates,00D354F9-114D-4BFF-AAB9-25B0FB3EDDE6*
G04*
G04*
G04 #@! TF.FilePolarity,Positive*
G04*
G01*
G75*
%ADD10C,0.0060*%
%ADD11C,0.0079*%
%ADD12C,0.0100*%
%ADD13C,0.0050*%
%ADD14C,0.0040*%
%ADD15R,0.0768X0.1801*%
%ADD103C,0.0098*%
%ADD104C,0.0030*%
%ADD105R,0.1801X0.0768*%
G36*
X02811Y022375D02*
X02821D01*
Y022525D01*
X02811D01*
Y022375D01*
D02*
G37*
D10*
X01756Y0214D02*
G03*
X0175Y0214I-00003J0D01*
G01*
D02*
G03*
X01756Y0214I00003J0D01*
G01*
X01788Y02387D02*
X02282D01*
Y0226D02*
Y02387D01*
X01788Y01893D02*
X02282D01*
X01788D02*
Y0202D01*
Y0226D02*
Y02387D01*
X02282Y01893D02*
Y0202D01*
X025815Y02372D02*
X027485D01*
X025815Y02018D02*
X027485D01*
X025435Y017433D02*
Y017555D01*
X027665Y015345D02*
Y015467D01*
Y017433D02*
Y017555D01*
X025435D02*
X027665D01*
X025435Y015345D02*
Y015467D01*
Y015345D02*
X027665D01*
D11*
X015686Y024791D02*
G03*
X015686Y024791I-000039J0D01*
G01*
X027975Y033354D02*
G03*
X027975Y033354I-000039J0D01*
G01*
X017825D02*
G03*
X017825Y033354I-000039J0D01*
G01*
X038175D02*
G03*
X038175Y033354I-000039J0D01*
G01*
X048325D02*
G03*
X048325Y033354I-000039J0D01*
G01*
X031688Y0283D02*
Y030309D01*
Y0283D02*
X037969D01*
Y030309D01*
X031688D02*
X037969D01*
X024125Y0283D02*
Y030309D01*
Y0283D02*
X030406D01*
Y030309D01*
X024125D02*
X030406D01*
X0269Y014464D02*
Y014936D01*
X013874Y028245D02*
X014189D01*
X013874Y027655D02*
X014189D01*
X04095Y014044D02*
Y014556D01*
X028594Y0222D02*
X029106D01*
X032476Y016376D02*
Y016691D01*
X032161D02*
X032476D01*
Y015509D02*
Y015824D01*
X032161Y015509D02*
X032476D01*
X022994Y01405D02*
X023506D01*
X024114Y0141D02*
X024586D01*
X013843Y025755D02*
X014157D01*
X013843Y026345D02*
X014157D01*
X021458Y015713D02*
Y017662D01*
X022442Y015713D02*
Y017662D01*
X016842Y021276D02*
Y023224D01*
X015858Y021276D02*
Y023224D01*
X02775Y017994D02*
Y018506D01*
X021095Y016493D02*
Y016807D01*
X020505Y016493D02*
Y016807D01*
X029745Y019081D02*
X030493D01*
X029745Y020419D02*
X030493D01*
Y019081D02*
Y020419D01*
X028289Y019238D02*
Y020262D01*
X028485Y019081D02*
X029155D01*
X028289Y020262D02*
X028485Y020419D01*
X028289Y019238D02*
X028485Y019081D01*
Y020419D02*
X029155D01*
X02655Y019314D02*
Y019786D01*
X023614Y02055D02*
X024086D01*
X024819Y023145D02*
Y023893D01*
X023481Y023145D02*
Y023893D01*
X024819D01*
X023638Y021689D02*
X024662D01*
X024819Y021885D02*
Y022555D01*
X023481Y021885D02*
X023638Y021689D01*
X024662Y021689D02*
X024819Y021885D01*
X023481D02*
Y022555D01*
X0157Y017894D02*
Y018406D01*
Y016964D02*
Y017436D01*
X01575Y019064D02*
Y019536D01*
D12*
X03895Y0138D02*
X0421D01*
X03895Y01275D02*
Y0138D01*
Y01275D02*
X0421D01*
Y0138D01*
X0343D02*
X03745D01*
X0343Y01275D02*
Y0138D01*
Y01275D02*
X03745D01*
Y0138D01*
X035475Y029497D02*
Y029103D01*
Y0293D01*
X035212D01*
Y029497D01*
Y029103D01*
X035081Y029497D02*
Y029103D01*
X034884D01*
X034819Y029169D01*
Y029431D01*
X034884Y029497D01*
X035081D01*
X034425D02*
X034688D01*
Y0293D01*
X034556Y029366D01*
X034491D01*
X034425Y0293D01*
Y029169D01*
X034491Y029103D01*
X034622D01*
X034688Y029169D01*
X021753Y015228D02*
X022147D01*
Y015031D01*
X022081Y014966D01*
X021819D01*
X021753Y015031D01*
Y015228D01*
Y014572D02*
X021819Y014703D01*
X02195Y014834D01*
X022081D01*
X022147Y014769D01*
Y014638D01*
X022081Y014572D01*
X022016D01*
X02195Y014638D01*
Y014834D01*
X015378Y023647D02*
Y023253D01*
X015181D01*
X015116Y023319D01*
Y023581D01*
X015181Y023647D01*
X015378D01*
X014722D02*
X014984D01*
Y02345D01*
X014853Y023516D01*
X014788D01*
X014722Y02345D01*
Y023319D01*
X014788Y023253D01*
X014919D01*
X014984Y023319D01*
X042912Y014531D02*
X042978Y014597D01*
X043109D01*
X043175Y014531D01*
Y014269D01*
X043109Y014203D01*
X042978D01*
X042912Y014269D01*
X042519Y014203D02*
X042781D01*
X042519Y014466D01*
Y014531D01*
X042584Y014597D01*
X042716D01*
X042781Y014531D01*
X042125Y014203D02*
X042388D01*
X042125Y014466D01*
Y014531D01*
X042191Y014597D01*
X042322D01*
X042388Y014531D01*
X023462Y015431D02*
X023528Y015497D01*
X023659D01*
X023725Y015431D01*
Y015169D01*
X023659Y015103D01*
X023528D01*
X023462Y015169D01*
X023069Y015103D02*
X023331D01*
X023069Y015366D01*
Y015431D01*
X023134Y015497D01*
X023266D01*
X023331Y015431D01*
X022741Y015103D02*
Y015497D01*
X022938Y0153D01*
X022675D01*
X014412Y018331D02*
X014478Y018397D01*
X014609D01*
X014675Y018331D01*
Y018069D01*
X014609Y018003D01*
X014478D01*
X014412Y018069D01*
X014019Y018003D02*
X014281D01*
X014019Y018266D01*
Y018331D01*
X014084Y018397D01*
X014216D01*
X014281Y018331D01*
X013625Y018397D02*
X013756Y018331D01*
X013888Y0182D01*
Y018069D01*
X013822Y018003D01*
X013691D01*
X013625Y018069D01*
Y018134D01*
X013691Y0182D01*
X013888D01*
X017362Y018681D02*
X017428Y018747D01*
X017559D01*
X017625Y018681D01*
Y018419D01*
X017559Y018353D01*
X017428D01*
X017362Y018419D01*
X016969Y018353D02*
X017231D01*
X016969Y018616D01*
Y018681D01*
X017034Y018747D01*
X017166D01*
X017231Y018681D01*
X016838Y018747D02*
X016575D01*
Y018681D01*
X016838Y018419D01*
Y018353D01*
X012844Y028131D02*
X012909Y028197D01*
X013041D01*
X013106Y028131D01*
Y027869D01*
X013041Y027803D01*
X012909D01*
X012844Y027869D01*
X01245Y027803D02*
X012713D01*
X01245Y028066D01*
Y028131D01*
X012516Y028197D01*
X012647D01*
X012713Y028131D01*
X012319D02*
X012254Y028197D01*
X012122D01*
X012057Y028131D01*
Y028066D01*
X012122Y028D01*
X012057Y027934D01*
Y027869D01*
X012122Y027803D01*
X012254D01*
X012319Y027869D01*
Y027934D01*
X012254Y028D01*
X012319Y028066D01*
Y028131D01*
X012254Y028D02*
X012122D01*
X012812Y026181D02*
X012878Y026247D01*
X013009D01*
X013075Y026181D01*
Y025919D01*
X013009Y025853D01*
X012878D01*
X012812Y025919D01*
X012419Y025853D02*
X012681D01*
X012419Y026116D01*
Y026181D01*
X012484Y026247D01*
X012616D01*
X012681Y026181D01*
X012288Y025919D02*
X012222Y025853D01*
X012091D01*
X012025Y025919D01*
Y026181D01*
X012091Y026247D01*
X012222D01*
X012288Y026181D01*
Y026116D01*
X012222Y02605D01*
X012025D01*
X020931Y015162D02*
X020997Y015228D01*
Y015359D01*
X020931Y015425D01*
X020669D01*
X020603Y015359D01*
Y015228D01*
X020669Y015162D01*
X020931Y015031D02*
X020997Y014966D01*
Y014834D01*
X020931Y014769D01*
X020866D01*
X0208Y014834D01*
Y0149D01*
Y014834D01*
X020734Y014769D01*
X020669D01*
X020603Y014834D01*
Y014966D01*
X020669Y015031D01*
X020931Y014638D02*
X020997Y014572D01*
Y014441D01*
X020931Y014375D01*
X020669D01*
X020603Y014441D01*
Y014572D01*
X020669Y014638D01*
X020931D01*
X029162Y023531D02*
X029228Y023597D01*
X029359D01*
X029425Y023531D01*
Y023269D01*
X029359Y023203D01*
X029228D01*
X029162Y023269D01*
X029031Y023531D02*
X028966Y023597D01*
X028834D01*
X028769Y023531D01*
Y023466D01*
X028834Y0234D01*
X0289D01*
X028834D01*
X028769Y023334D01*
Y023269D01*
X028834Y023203D01*
X028966D01*
X029031Y023269D01*
X028638Y023531D02*
X028572Y023597D01*
X028441D01*
X028375Y023531D01*
Y023466D01*
X028441Y0234D01*
X028506D01*
X028441D01*
X028375Y023334D01*
Y023269D01*
X028441Y023203D01*
X028572D01*
X028638Y023269D01*
X026569Y018381D02*
X026634Y018447D01*
X026765D01*
X026831Y018381D01*
Y018119D01*
X026765Y018053D01*
X026634D01*
X026569Y018119D01*
X026437Y018381D02*
X026372Y018447D01*
X026241D01*
X026175Y018381D01*
Y018316D01*
X026241Y01825D01*
X026306D01*
X026241D01*
X026175Y018184D01*
Y018119D01*
X026241Y018053D01*
X026372D01*
X026437Y018119D01*
X025847Y018053D02*
Y018447D01*
X026044Y01825D01*
X025782D01*
X018562Y032131D02*
X018628Y032197D01*
X018759D01*
X018825Y032131D01*
Y031869D01*
X018759Y031803D01*
X018628D01*
X018562Y031869D01*
X018431Y032131D02*
X018366Y032197D01*
X018234D01*
X018169Y032131D01*
Y032066D01*
X018234Y032D01*
X0183D01*
X018234D01*
X018169Y031934D01*
Y031869D01*
X018234Y031803D01*
X018366D01*
X018431Y031869D01*
X018038Y032131D02*
X017972Y032197D01*
X017841D01*
X017775Y032131D01*
Y032066D01*
X017841Y032D01*
X017775Y031934D01*
Y031869D01*
X017841Y031803D01*
X017972D01*
X018038Y031869D01*
Y031934D01*
X017972Y032D01*
X018038Y032066D01*
Y032131D01*
X017972Y032D02*
X017841D01*
X027775Y029497D02*
Y029103D01*
Y0293D01*
X027512D01*
Y029497D01*
Y029103D01*
X027381Y029497D02*
Y029103D01*
X027184D01*
X027119Y029169D01*
Y029431D01*
X027184Y029497D01*
X027381D01*
X026791Y029103D02*
Y029497D01*
X026988Y0293D01*
X026725D01*
X022912Y024567D02*
Y024173D01*
X02265D01*
X022519D02*
X022388D01*
X022453D01*
Y024567D01*
X022519Y024501D01*
X024128Y019353D02*
Y019747D01*
X023931D01*
X023866Y019681D01*
Y01955D01*
X023931Y019484D01*
X024128D01*
X023997D02*
X023866Y019353D01*
X023538D02*
Y019747D01*
X023734Y01955D01*
X023472D01*
X025728Y019353D02*
Y019747D01*
X025531D01*
X025466Y019681D01*
Y01955D01*
X025531Y019484D01*
X025728D01*
X025597D02*
X025466Y019353D01*
X025334Y019747D02*
X025072D01*
Y019681D01*
X025334Y019419D01*
Y019353D01*
X024628Y015099D02*
Y015492D01*
X024431D01*
X024366Y015427D01*
Y015296D01*
X024431Y01523D01*
X024628D01*
X024497D02*
X024366Y015099D01*
X024234Y015427D02*
X024169Y015492D01*
X024038D01*
X023972Y015427D01*
Y015361D01*
X024038Y015296D01*
X023972Y01523D01*
Y015164D01*
X024038Y015099D01*
X024169D01*
X024234Y015164D01*
Y01523D01*
X024169Y015296D01*
X024234Y015361D01*
Y015427D01*
X024169Y015296D02*
X024038D01*
X014692Y016953D02*
Y017347D01*
X014495D01*
X01443Y017281D01*
Y01715D01*
X014495Y017084D01*
X014692D01*
X014561D02*
X01443Y016953D01*
X014298D02*
X014167D01*
X014233D01*
Y017347D01*
X014298Y017281D01*
X01397D02*
X013905Y017347D01*
X013774D01*
X013708Y017281D01*
Y017019D01*
X013774Y016953D01*
X013905D01*
X01397Y017019D01*
Y017281D01*
X014626Y019153D02*
Y019547D01*
X01443D01*
X014364Y019481D01*
Y01935D01*
X01443Y019284D01*
X014626D01*
X014495D02*
X014364Y019153D01*
X014233D02*
X014102D01*
X014167D01*
Y019547D01*
X014233Y019481D01*
X013905Y019153D02*
X013774D01*
X013839D01*
Y019547D01*
X013905Y019481D01*
X028028Y024297D02*
Y023969D01*
X027962Y023903D01*
X027831D01*
X027766Y023969D01*
Y024297D01*
X027634Y024231D02*
X027569Y024297D01*
X027438D01*
X027372Y024231D01*
Y024166D01*
X027438Y0241D01*
X027503D01*
X027438D01*
X027372Y024034D01*
Y023969D01*
X027438Y023903D01*
X027569D01*
X027634Y023969D01*
X026828Y016747D02*
Y016419D01*
X026762Y016353D01*
X026631D01*
X026566Y016419D01*
Y016747D01*
X026172D02*
X026303Y016681D01*
X026434Y01655D01*
Y016419D01*
X026369Y016353D01*
X026238D01*
X026172Y016419D01*
Y016484D01*
X026238Y01655D01*
X026434D01*
X022928Y028147D02*
Y027819D01*
X022862Y027753D01*
X022731D01*
X022666Y027819D01*
Y028147D01*
X022534D02*
X022272D01*
Y028081D01*
X022534Y027819D01*
Y027753D01*
X01824Y0408D02*
Y0403D01*
X01814Y0402D01*
X01794D01*
X01784Y0403D01*
Y0408D01*
X01764Y0407D02*
X01754Y0408D01*
X01734D01*
X01724Y0407D01*
Y0406D01*
X01734Y0405D01*
X01724Y0404D01*
Y0403D01*
X01734Y0402D01*
X01754D01*
X01764Y0403D01*
Y0404D01*
X01754Y0405D01*
X01764Y0406D01*
Y0407D01*
X01754Y0405D02*
X01734D01*
X02839Y0408D02*
Y0403D01*
X02829Y0402D01*
X02809D01*
X02799Y0403D01*
Y0408D01*
X02779Y0403D02*
X02769Y0402D01*
X02749D01*
X02739Y0403D01*
Y0407D01*
X02749Y0408D01*
X02769D01*
X02779Y0407D01*
Y0406D01*
X02769Y0405D01*
X02739D01*
X03859Y0408D02*
Y0403D01*
X03849Y0402D01*
X03829D01*
X03819Y0403D01*
Y0408D01*
X03799Y0402D02*
X03779D01*
X03789D01*
Y0408D01*
X03799Y0407D01*
X03749D02*
X03739Y0408D01*
X03719D01*
X03709Y0407D01*
Y0403D01*
X03719Y0402D01*
X03739D01*
X03749Y0403D01*
Y0407D01*
X04874Y0408D02*
Y0403D01*
X04864Y0402D01*
X04844D01*
X04834Y0403D01*
Y0408D01*
X04814Y0402D02*
X04794D01*
X04804D01*
Y0408D01*
X04814Y0407D01*
X04764Y0402D02*
X04744D01*
X04754D01*
Y0408D01*
X04764Y0407D01*
X037138Y014544D02*
X037269D01*
X037203D01*
Y014216D01*
X037269Y01415D01*
X037334D01*
X0374Y014216D01*
X036744Y014544D02*
X037006D01*
Y014347D01*
X036875Y014412D01*
X03681D01*
X036744Y014347D01*
Y014216D01*
X03681Y01415D01*
X036941D01*
X037006Y014216D01*
X042716Y013447D02*
X042847D01*
X042781D01*
Y013119D01*
X042847Y013053D01*
X042912D01*
X042978Y013119D01*
X042584Y013447D02*
X042322D01*
Y013381D01*
X042584Y013119D01*
Y013053D01*
X033484Y015931D02*
Y015669D01*
X033419Y015603D01*
X033288D01*
X033222Y015669D01*
Y015931D01*
X033288Y015997D01*
X033419D01*
X033353Y015866D02*
X033484Y015997D01*
X033419D02*
X033484Y015931D01*
X033878Y015997D02*
X033616D01*
X033878Y015734D01*
Y015669D01*
X033812Y015603D01*
X033681D01*
X033616Y015669D01*
X025978Y014503D02*
Y014897D01*
X025781D01*
X025716Y014831D01*
Y0147D01*
X025781Y014634D01*
X025978D01*
X025847D02*
X025716Y014503D01*
X025584Y014569D02*
X025519Y014503D01*
X025388D01*
X025322Y014569D01*
Y014831D01*
X025388Y014897D01*
X025519D01*
X025584Y014831D01*
Y014766D01*
X025519Y0147D01*
X025322D01*
X024562Y024547D02*
Y024153D01*
X024366D01*
X0243Y024219D01*
Y024481D01*
X024366Y024547D01*
X024562D01*
X024169Y024153D02*
X024038D01*
X024103D01*
Y024547D01*
X024169Y024481D01*
X030428Y021047D02*
Y020653D01*
X030231D01*
X030166Y020719D01*
Y020981D01*
X030231Y021047D01*
X030428D01*
X029772Y020653D02*
X030034D01*
X029772Y020916D01*
Y020981D01*
X029838Y021047D01*
X029969D01*
X030034Y020981D01*
D13*
X021254Y02999D02*
G03*
X021254Y03I-001604J00001D01*
G01*
D02*
G03*
X021254Y03I-001604J0D01*
G01*
X020204Y01645D02*
G03*
X020204Y01645I-001604J0D01*
G01*
X01859Y014846D02*
G03*
X0186Y014846I00001J001604D01*
G01*
X018035Y02813D02*
X021257D01*
X018035Y02413D02*
Y02813D01*
Y02413D02*
X021257D01*
X028349Y035641D02*
Y036405D01*
X024451Y035641D02*
X028349D01*
X024451D02*
Y036405D01*
X014301Y035641D02*
Y036405D01*
Y035641D02*
X018199D01*
Y036405D01*
X021254Y02999D02*
X021254Y02999D01*
Y028366D02*
Y02999D01*
X017987Y028366D02*
X021254D01*
X017987D02*
Y03D01*
X017987Y028701D02*
X017987Y028701D01*
Y03D01*
X017996Y02876D02*
X01839Y028366D01*
X017987Y028957D02*
Y03D01*
X021254Y03001D02*
X021254Y03001D01*
Y031634D01*
X017987D02*
X021254D01*
X017987Y03D02*
Y031634D01*
X017987Y031299D02*
X017987Y031299D01*
Y03D02*
Y031299D01*
X017731Y029695D02*
X017987D01*
X017996Y03124D02*
X01839Y031634D01*
X017987Y03D02*
Y031043D01*
X017731Y030305D02*
X017987D01*
X021254Y029695D02*
X02152D01*
X021254Y030305D02*
X02152D01*
X018905Y01458D02*
Y014846D01*
X018295Y01458D02*
Y014846D01*
X018905Y018113D02*
Y018369D01*
X0186Y018113D02*
X019643D01*
X01984Y018104D02*
X020234Y01771D01*
X018295Y018113D02*
Y018369D01*
X0186Y018113D02*
X019899D01*
X019899Y018113D01*
X0186Y018113D02*
X020234D01*
Y014846D02*
Y018113D01*
X01861Y014846D02*
X020234D01*
X01861Y014846D02*
X01861Y014846D01*
X017557Y018113D02*
X0186D01*
X016966Y01771D02*
X01736Y018104D01*
X017301Y018113D02*
X0186D01*
X017301Y018113D02*
X017301Y018113D01*
X016966D02*
X0186D01*
X016966Y014846D02*
Y018113D01*
Y014846D02*
X01859D01*
X01859Y014846D01*
X021478Y016924D02*
X022422D01*
X015878Y022014D02*
X016822D01*
X034651Y035641D02*
Y036405D01*
Y035641D02*
X038549D01*
Y036405D01*
X044801Y035641D02*
Y036405D01*
Y035641D02*
X048699D01*
Y036405D01*
D14*
X01838Y029471D02*
X018614D01*
X018497Y029354D02*
Y029587D01*
X018071Y01772D02*
Y017486D01*
X017954Y017603D02*
X018187D01*
D15*
X020516Y029985D02*
D03*
D103*
X032781Y015765D02*
G03*
X032781Y015765I-000049J0D01*
G01*
D104*
X025352Y019863D02*
X025686Y020197D01*
X025352D02*
X025686Y019863D01*
X025352Y02003D02*
X025686D01*
X025519Y020197D02*
Y019863D01*
X02823Y017777D02*
X027897Y017443D01*
X02823D02*
X027897Y017777D01*
X02823Y01761D02*
X027897D01*
X028063Y017443D02*
Y017777D01*
D105*
X018585Y015584D02*
D03*
M02*
