G04*
G04 #@! TF.GenerationSoftware,Altium Limited,Altium Designer,21.0.8 (223)*
G04*
G04 Layer_Color=255*
%FSTAX24Y24*%
%MOIN*%
G70*
G04*
G04 #@! TF.SameCoordinates,00D354F9-114D-4BFF-AAB9-25B0FB3EDDE6*
G04*
G04*
G04 #@! TF.FilePolarity,Positive*
G04*
G01*
G75*
%ADD21R,0.0551X0.0591*%
%ADD24R,0.0591X0.0551*%
%ADD25O,0.1400X0.0591*%
%ADD26R,0.1400X0.0591*%
%ADD28R,0.0669X0.0433*%
%ADD33R,0.0472X0.0551*%
%ADD35R,0.0551X0.0472*%
%ADD36R,0.0433X0.0669*%
%ADD37R,0.0591X0.1024*%
%ADD65R,0.3965X0.3264*%
%ADD72C,0.0591*%
%ADD73R,0.0591X0.0591*%
%ADD74C,0.0600*%
%ADD75R,0.1102X0.1102*%
%ADD76C,0.1102*%
%ADD77R,0.0591X0.0591*%
%ADD78C,0.1969*%
%ADD80R,0.0294X0.1024*%
%ADD81R,0.0394X0.1024*%
%ADD82R,0.0850X0.0421*%
%ADD83R,0.0500X0.0250*%
%ADD84R,0.0315X0.1500*%
%ADD85R,0.1140X0.2130*%
%ADD86R,0.0575X0.0220*%
%ADD87R,0.0571X0.0236*%
%ADD88O,0.0591X0.1400*%
%ADD89R,0.0591X0.1400*%
%ADD90R,0.0610X0.0886*%
%ADD91R,0.0620X0.0210*%
%ADD92R,0.1024X0.0591*%
D21*
X041344Y0143D02*
D03*
X040556D02*
D03*
X028144Y01825D02*
D03*
X027356D02*
D03*
X015306Y01815D02*
D03*
X016094D02*
D03*
D24*
X02885Y022594D02*
D03*
Y021806D02*
D03*
X02325Y014444D02*
D03*
Y013656D02*
D03*
D25*
X02115Y03D02*
D03*
D26*
X01825D02*
D03*
D28*
X0208Y016119D02*
D03*
Y017182D02*
D03*
D33*
X027254Y0147D02*
D03*
X026546D02*
D03*
X026904Y01955D02*
D03*
X026196D02*
D03*
X015346Y0172D02*
D03*
X016054D02*
D03*
X015396Y0193D02*
D03*
X016104D02*
D03*
D35*
X02435Y014454D02*
D03*
Y013746D02*
D03*
X02385Y020904D02*
D03*
Y020196D02*
D03*
D36*
X014563Y02795D02*
D03*
X0135D02*
D03*
X013469Y02605D02*
D03*
X014532D02*
D03*
D37*
X028859Y01975D02*
D03*
X030041D02*
D03*
D65*
X0264Y038161D02*
D03*
X01625D02*
D03*
X0366D02*
D03*
X04675D02*
D03*
D72*
X0392Y02685D02*
D03*
X0382D02*
D03*
X0402D02*
D03*
X03265Y0175D02*
D03*
X03165D02*
D03*
X04155Y01325D02*
D03*
X04055D02*
D03*
X0369D02*
D03*
X0359D02*
D03*
X0456Y02235D02*
D03*
Y02335D02*
D03*
Y02035D02*
D03*
Y02135D02*
D03*
Y01835D02*
D03*
Y01935D02*
D03*
Y01735D02*
D03*
X0132Y0216D02*
D03*
X0321Y02015D02*
D03*
X03265Y0186D02*
D03*
X03165D02*
D03*
D73*
X0412Y02685D02*
D03*
X03365Y0175D02*
D03*
X03955Y01325D02*
D03*
X0349D02*
D03*
X0132Y0226D02*
D03*
X03365Y0186D02*
D03*
D74*
X03255Y015D02*
D03*
X030975D02*
D03*
D75*
X01375Y029541D02*
D03*
D76*
Y0311D02*
D03*
D77*
X0456Y02435D02*
D03*
X0321Y02115D02*
D03*
D78*
X0136Y04495D02*
D03*
X04935D02*
D03*
X04895Y0143D02*
D03*
X014D02*
D03*
D80*
X031488Y0288D02*
D03*
X038188D02*
D03*
X023925D02*
D03*
X030625D02*
D03*
D81*
X036037Y03115D02*
D03*
X03525D02*
D03*
X034463D02*
D03*
X033675D02*
D03*
X032888D02*
D03*
X036825D02*
D03*
X028475D02*
D03*
X027687D02*
D03*
X0269D02*
D03*
X026113D02*
D03*
X025325D02*
D03*
X029262D02*
D03*
D82*
X016381Y024791D02*
D03*
Y025461D02*
D03*
Y02613D02*
D03*
Y026799D02*
D03*
Y027469D02*
D03*
D83*
X02045Y02613D02*
D03*
D84*
X0264Y034357D02*
D03*
X0269D02*
D03*
X0274D02*
D03*
X0279D02*
D03*
X0259D02*
D03*
X0254D02*
D03*
X0249D02*
D03*
X01475D02*
D03*
X01525D02*
D03*
X01575D02*
D03*
X01775D02*
D03*
X01725D02*
D03*
X01675D02*
D03*
X01625D02*
D03*
X0351D02*
D03*
X0356D02*
D03*
X0361D02*
D03*
X0381D02*
D03*
X0376D02*
D03*
X0371D02*
D03*
X0366D02*
D03*
X04525D02*
D03*
X04575D02*
D03*
X04625D02*
D03*
X04825D02*
D03*
X04775D02*
D03*
X04725D02*
D03*
X04675D02*
D03*
D85*
X0184Y0214D02*
D03*
X0223D02*
D03*
D86*
X025577Y02045D02*
D03*
Y02095D02*
D03*
Y02145D02*
D03*
Y02195D02*
D03*
Y02245D02*
D03*
Y02295D02*
D03*
Y02345D02*
D03*
X027722D02*
D03*
Y02295D02*
D03*
Y02245D02*
D03*
Y02195D02*
D03*
Y02145D02*
D03*
Y02095D02*
D03*
Y02045D02*
D03*
D87*
X032663Y0161D02*
D03*
X031737Y016474D02*
D03*
Y015726D02*
D03*
D88*
X0186Y01495D02*
D03*
D89*
Y01785D02*
D03*
D90*
X02195Y017475D02*
D03*
Y0159D02*
D03*
X01635Y021463D02*
D03*
Y023037D02*
D03*
D91*
X025095Y0172D02*
D03*
Y0167D02*
D03*
Y0162D02*
D03*
Y0157D02*
D03*
X028005D02*
D03*
Y0162D02*
D03*
Y0167D02*
D03*
Y0172D02*
D03*
D92*
X02415Y022259D02*
D03*
Y023441D02*
D03*
M02*
