G04*
G04 #@! TF.GenerationSoftware,Altium Limited,Altium Designer,21.0.8 (223)*
G04*
G04 Layer_Color=65535*
%FSTAX24Y24*%
%MOIN*%
G70*
G04*
G04 #@! TF.SameCoordinates,00D354F9-114D-4BFF-AAB9-25B0FB3EDDE6*
G04*
G04*
G04 #@! TF.FilePolarity,Positive*
G04*
G01*
G75*
%ADD10C,0.0060*%
%ADD11C,0.0079*%
%ADD12C,0.0100*%
%ADD13C,0.0050*%
%ADD14C,0.0040*%
%ADD15R,0.0768X0.1801*%
G36*
X038789Y018751D02*
X038639D01*
Y018651D01*
X038789D01*
Y018751D01*
D02*
G37*
G36*
X037001Y02113D02*
X036901D01*
Y02098D01*
X037001D01*
Y02113D01*
D02*
G37*
G36*
X038986Y023949D02*
X038836D01*
Y024049D01*
X038986D01*
Y023949D01*
D02*
G37*
G36*
X040758Y018751D02*
X040608D01*
Y018651D01*
X040758D01*
Y018751D01*
D02*
G37*
G36*
X042199Y021327D02*
X042299D01*
Y021177D01*
X042199D01*
Y021327D01*
D02*
G37*
G36*
X040955Y023949D02*
X040805D01*
Y024049D01*
X040955D01*
Y023949D01*
D02*
G37*
D10*
X036933Y022826D02*
G03*
X036933Y022826I-00003J0D01*
G01*
X03758Y02337D02*
X037933D01*
X04162Y023017D02*
Y02337D01*
X041267Y01933D02*
X04162D01*
X03758D02*
Y019683D01*
Y023017D02*
Y02337D01*
X041267D02*
X04162D01*
Y01933D02*
Y019683D01*
X03758Y01933D02*
X037933D01*
X021686Y018025D02*
X022255D01*
Y017375D02*
Y018025D01*
X021686Y017375D02*
X022255D01*
X021745Y018895D02*
X021965D01*
X021745Y018505D02*
X021965D01*
X021745Y016895D02*
X021965D01*
X021745Y016505D02*
X021965D01*
D11*
X046944Y01267D02*
G03*
X046944Y01267I-000014J0D01*
G01*
X034541Y029269D02*
G03*
X034541Y029269I-000039J0D01*
G01*
X023739Y016186D02*
G03*
X023739Y016186I-000039J0D01*
G01*
X024989Y027536D02*
G03*
X024989Y027536I-000039J0D01*
G01*
X0454Y02715D02*
Y030221D01*
X045413Y03025D02*
X0504D01*
Y02715D02*
Y03025D01*
X045413Y02715D02*
X0504D01*
X0139Y026244D02*
Y026756D01*
X033594Y0136D02*
X034106D01*
X043694Y044006D02*
X044206D01*
X044694Y044D02*
X045206D01*
X017594Y04385D02*
X018106D01*
X018594D02*
X019106D01*
X01186Y028761D02*
Y03188D01*
X0152Y028761D02*
Y03188D01*
X01186D02*
X0152D01*
X01186Y028761D02*
X0152D01*
X036594Y0274D02*
X037106D01*
X035405Y027193D02*
Y027507D01*
X035995Y027193D02*
Y027507D01*
X031745Y026843D02*
Y027157D01*
X031155Y026843D02*
Y027157D01*
X030044Y02705D02*
X030556D01*
X030294Y0236D02*
X030806D01*
X034494Y02365D02*
X035006D01*
X039145Y016443D02*
Y016757D01*
X038555Y016443D02*
Y016757D01*
X0435Y023344D02*
Y023856D01*
X04345Y022344D02*
Y022856D01*
X035694Y02365D02*
X036206D01*
X035694Y0206D02*
X036206D01*
X03855Y017694D02*
Y018206D01*
X040644Y01765D02*
X041156D01*
X042256Y017694D02*
Y018206D01*
X035095Y020493D02*
Y020807D01*
X034505Y020493D02*
Y020807D01*
X04435Y015464D02*
Y015936D01*
X0467Y015394D02*
Y015906D01*
X0385Y024594D02*
Y025106D01*
X027794Y01485D02*
X028306D01*
X026044Y013344D02*
Y013856D01*
X046494Y02395D02*
X047006D01*
X013906Y019344D02*
Y019856D01*
X019953Y023D02*
Y023984D01*
X016547D02*
X019953D01*
X016547Y022016D02*
Y023984D01*
Y022016D02*
X019953D01*
Y023D01*
X0121Y02115D02*
X01429D01*
X0121D02*
Y02305D01*
X01429D01*
Y02115D02*
Y02305D01*
X03545Y018214D02*
Y018686D01*
Y017464D02*
Y017936D01*
X0268Y027964D02*
Y028436D01*
X023864Y02685D02*
X024336D01*
X028614Y0268D02*
X029086D01*
X020664Y03165D02*
X021136D01*
X023664Y031646D02*
X024136D01*
X019914Y03165D02*
X020386D01*
X022914D02*
X023386D01*
X019164Y031646D02*
X019636D01*
X018414D02*
X018886D01*
X021414Y03165D02*
X021886D01*
X022164D02*
X022636D01*
X041014D02*
X041486D01*
X044014D02*
X044486D01*
X040264D02*
X040736D01*
X043264D02*
X043736D01*
X039514Y031646D02*
X039986D01*
X038764D02*
X039236D01*
X041764Y03165D02*
X042236D01*
X042514D02*
X042986D01*
X013843Y028245D02*
X014157D01*
X013843Y027655D02*
X014157D01*
X013854Y020314D02*
Y020786D01*
X023785Y024031D02*
X024455D01*
X023589Y025212D02*
X023785Y025369D01*
X023589Y024188D02*
X023785Y024031D01*
X023785Y025369D02*
X024455D01*
X023589Y024188D02*
Y025212D01*
X025793Y024031D02*
Y025369D01*
X025045Y024031D02*
X025793D01*
X025045Y025369D02*
X025793D01*
X028545Y025369D02*
X029215D01*
Y024031D02*
X029411Y024188D01*
X029215Y025369D02*
X029411Y025212D01*
X028545Y024031D02*
X029215D01*
X029411Y024188D02*
Y025212D01*
X027207Y024031D02*
Y025369D01*
X027955D01*
X027207Y024031D02*
X027955D01*
D12*
X033534Y015D02*
G03*
X033534Y015I-001772J0D01*
G01*
X03765Y0274D02*
X0418D01*
Y02635D02*
Y0274D01*
X03765Y02635D02*
X0418D01*
X03765D02*
Y0274D01*
X0311Y017D02*
Y01805D01*
Y017D02*
X03425D01*
Y01805D01*
X0311D02*
X03425D01*
X03095Y0155D02*
Y0159D01*
X030725Y0157D02*
X031175D01*
X019Y0354D02*
Y04095D01*
X01345Y0354D02*
X019D01*
X0119Y03385D02*
Y04255D01*
X02065D01*
X01455Y029491D02*
X01495D01*
X01455D02*
X01475D01*
Y029291D02*
Y029491D01*
Y029291D02*
Y029691D01*
X03085Y03385D02*
Y04255D01*
X02215Y03385D02*
X03085D01*
X02215Y04255D02*
X03085D01*
X0343Y0138D02*
X03745D01*
Y01275D02*
Y0138D01*
X0343Y01275D02*
Y0138D01*
X045075Y01675D02*
Y02495D01*
X046125D01*
Y01675D02*
Y02495D01*
X045075Y01675D02*
X046125D01*
Y02495D02*
X051D01*
Y01675D02*
Y02495D01*
X046125Y01675D02*
X051D01*
X03895Y01275D02*
Y0138D01*
Y01275D02*
X0421D01*
Y0138D01*
X03895D02*
X0421D01*
X03895D02*
X039D01*
X0343Y01275D02*
X03745D01*
X043968Y035398D02*
Y040948D01*
Y035398D02*
X049518D01*
X043968Y040948D02*
X049518D01*
Y035398D02*
Y040948D01*
X042468Y033848D02*
X051168D01*
Y042548D01*
X042418Y033848D02*
Y042548D01*
X042468D02*
X051168D01*
X033868Y035398D02*
Y040948D01*
Y035398D02*
X039418D01*
X033868Y040948D02*
X039418D01*
Y035398D02*
Y040948D01*
X032368Y033848D02*
X041068D01*
Y042548D01*
X032318Y033848D02*
Y042548D01*
X032368D02*
X041068D01*
X0221Y03385D02*
Y04255D01*
X0292Y0354D02*
Y04095D01*
X02365D02*
X0292D01*
X02365Y0354D02*
X0292D01*
X02365D02*
Y04095D01*
X01345Y0354D02*
Y04095D01*
X019D01*
X01195Y03385D02*
X02065D01*
Y04255D01*
X03155Y01955D02*
X0326D01*
Y02175D01*
X03155D02*
X0326D01*
X03155Y01955D02*
Y02175D01*
X0321Y02155D02*
Y021725D01*
Y01955D02*
Y019725D01*
X0311Y0181D02*
Y01915D01*
Y0181D02*
X03425D01*
Y01915D01*
X0311D02*
X03425D01*
X036772Y024297D02*
Y023969D01*
X036838Y023903D01*
X036969D01*
X037034Y023969D01*
Y024297D01*
X037428Y023903D02*
X037166D01*
X037428Y024166D01*
Y024231D01*
X037362Y024297D01*
X037231D01*
X037166Y024231D01*
X036772Y014262D02*
X036706Y014197D01*
Y014066D01*
X036772Y014D01*
X037034D01*
X0371Y014066D01*
Y014197D01*
X037034Y014262D01*
X036903D01*
Y014131D01*
X0371Y014394D02*
X036706D01*
X0371Y014656D01*
X036706D01*
Y014787D02*
X0371D01*
Y014984D01*
X037034Y01505D01*
X036772D01*
X036706Y014984D01*
Y014787D01*
X034722Y014262D02*
X034656Y014197D01*
Y014066D01*
X034722Y014D01*
X034984D01*
X03505Y014066D01*
Y014197D01*
X034984Y014262D01*
X034788Y014459D02*
Y01459D01*
X034853Y014656D01*
X03505D01*
Y014459D01*
X034984Y014394D01*
X034919Y014459D01*
Y014656D01*
X03505Y014787D02*
X034788D01*
Y014853D01*
X034853Y014918D01*
X03505D01*
X034853D01*
X034788Y014984D01*
X034853Y01505D01*
X03505D01*
X035853Y014D02*
Y014262D01*
X035722Y014131D02*
X035984D01*
X035656Y014656D02*
Y014394D01*
X035853D01*
X035788Y014525D01*
Y01459D01*
X035853Y014656D01*
X035984D01*
X03605Y01459D01*
Y014459D01*
X035984Y014394D01*
X035656Y014787D02*
X035919D01*
X03605Y014918D01*
X035919Y01505D01*
X035656D01*
X0466Y0207D02*
Y0213D01*
X0468Y0211D01*
X047Y0213D01*
Y0207D01*
X0472D02*
Y0213D01*
X0475D01*
X0476Y0212D01*
Y021D01*
X0475Y0209D01*
X0472D01*
X0478Y0213D02*
Y0208D01*
X0479Y0207D01*
X0481D01*
X048199Y0208D01*
Y0213D01*
X048799D02*
X048599Y0212D01*
X048399Y021D01*
Y0208D01*
X048499Y0207D01*
X048699D01*
X048799Y0208D01*
Y0209D01*
X048699Y021D01*
X048399D01*
X048999Y0212D02*
X049099Y0213D01*
X049299D01*
X049399Y0212D01*
Y0208D01*
X049299Y0207D01*
X049099D01*
X048999Y0208D01*
Y0212D01*
X049999Y0213D02*
X049599D01*
Y021D01*
X049799Y0211D01*
X049899D01*
X049999Y021D01*
Y0208D01*
X049899Y0207D01*
X049699D01*
X049599Y0208D01*
X050199Y0212D02*
X050299Y0213D01*
X050499D01*
X050599Y0212D01*
Y0208D01*
X050499Y0207D01*
X050299D01*
X050199Y0208D01*
Y0212D01*
X030975Y019812D02*
Y019681D01*
Y019747D01*
X031303D01*
X031369Y019681D01*
Y019616D01*
X031303Y01955D01*
X031106Y019944D02*
X031303D01*
X031369Y020009D01*
Y020206D01*
X031106D01*
X031369Y020337D02*
X031106D01*
Y020403D01*
X031172Y020468D01*
X031369D01*
X031172D01*
X031106Y020534D01*
X031172Y0206D01*
X031369D01*
X0315Y020731D02*
X031106D01*
Y020928D01*
X031172Y020993D01*
X031303D01*
X031369Y020928D01*
Y020731D01*
Y021321D02*
Y02119D01*
X031303Y021124D01*
X031172D01*
X031106Y02119D01*
Y021321D01*
X031172Y021387D01*
X031238D01*
Y021124D01*
X031106Y021518D02*
X031369D01*
X031238D01*
X031172Y021583D01*
X031106Y021649D01*
Y021715D01*
X015662Y031278D02*
X015597Y031344D01*
X015466D01*
X0154Y031278D01*
Y031016D01*
X015466Y03095D01*
X015597D01*
X015662Y031016D01*
Y031147D01*
X015531D01*
X015794Y03095D02*
Y031344D01*
X016056Y03095D01*
Y031344D01*
X016187D02*
Y03095D01*
X016384D01*
X01645Y031016D01*
Y031278D01*
X016384Y031344D01*
X016187D01*
X014862Y022728D02*
X014797Y022794D01*
X014666D01*
X0146Y022728D01*
Y022466D01*
X014666Y0224D01*
X014797D01*
X014862Y022466D01*
Y022597D01*
X014731D01*
X014994Y0224D02*
Y022794D01*
X015256Y0224D01*
Y022794D01*
X015387D02*
Y0224D01*
X015584D01*
X01565Y022466D01*
Y022728D01*
X015584Y022794D01*
X015387D01*
X0148Y0402D02*
X014931D01*
X014866D01*
Y040594D01*
X0148Y040528D01*
X015325Y0402D02*
Y040594D01*
X015128Y040397D01*
X01539D01*
X015522Y040462D02*
X015784Y0402D01*
X015653Y040331D01*
X015784Y040462D01*
X015522Y0402D01*
X015915D02*
X016046D01*
X015981D01*
Y040594D01*
X015915Y040528D01*
X01644Y0402D02*
Y040594D01*
X016243Y040397D01*
X016505D01*
X016637Y0402D02*
Y040462D01*
X016702D01*
X016768Y040397D01*
Y0402D01*
Y040397D01*
X016833Y040462D01*
X016899Y040397D01*
Y0402D01*
X01703D02*
Y040462D01*
X017096D01*
X017161Y040397D01*
Y0402D01*
Y040397D01*
X017227Y040462D01*
X017293Y040397D01*
Y0402D01*
X01465Y036194D02*
Y0358D01*
Y035997D01*
X014912D01*
Y036194D01*
Y0358D01*
X01524D02*
X015109D01*
X015044Y035866D01*
Y035997D01*
X015109Y036062D01*
X01524D01*
X015306Y035997D01*
Y035931D01*
X015044D01*
X015503Y036062D02*
X015634D01*
X0157Y035997D01*
Y0358D01*
X015503D01*
X015437Y035866D01*
X015503Y035931D01*
X0157D01*
X015896Y036128D02*
Y036062D01*
X015831D01*
X015962D01*
X015896D01*
Y035866D01*
X015962Y0358D01*
X016552D02*
X016749D01*
X016815Y035866D01*
X016749Y035931D01*
X016618D01*
X016552Y035997D01*
X016618Y036062D01*
X016815D01*
X016946Y0358D02*
X017077D01*
X017011D01*
Y036062D01*
X016946D01*
X017274Y0358D02*
Y036062D01*
X017471D01*
X017536Y035997D01*
Y0358D01*
X017667D02*
Y036194D01*
Y035931D02*
X017864Y036062D01*
X017667Y035931D02*
X017864Y0358D01*
X02485Y036244D02*
Y03585D01*
Y036047D01*
X025112D01*
Y036244D01*
Y03585D01*
X02544D02*
X025309D01*
X025244Y035916D01*
Y036047D01*
X025309Y036112D01*
X02544D01*
X025506Y036047D01*
Y035981D01*
X025244D01*
X025703Y036112D02*
X025834D01*
X0259Y036047D01*
Y03585D01*
X025703D01*
X025637Y035916D01*
X025703Y035981D01*
X0259D01*
X026096Y036178D02*
Y036112D01*
X026031D01*
X026162D01*
X026096D01*
Y035916D01*
X026162Y03585D01*
X026752D02*
X026949D01*
X027015Y035916D01*
X026949Y035981D01*
X026818D01*
X026752Y036047D01*
X026818Y036112D01*
X027015D01*
X027146Y03585D02*
X027277D01*
X027211D01*
Y036112D01*
X027146D01*
X027474Y03585D02*
Y036112D01*
X027671D01*
X027736Y036047D01*
Y03585D01*
X027867D02*
Y036244D01*
Y035981D02*
X028064Y036112D01*
X027867Y035981D02*
X028064Y03585D01*
X03505Y036244D02*
Y03585D01*
Y036047D01*
X035312D01*
Y036244D01*
Y03585D01*
X03564D02*
X035509D01*
X035444Y035916D01*
Y036047D01*
X035509Y036112D01*
X03564D01*
X035706Y036047D01*
Y035981D01*
X035444D01*
X035903Y036112D02*
X036034D01*
X0361Y036047D01*
Y03585D01*
X035903D01*
X035837Y035916D01*
X035903Y035981D01*
X0361D01*
X036296Y036178D02*
Y036112D01*
X036231D01*
X036362D01*
X036296D01*
Y035916D01*
X036362Y03585D01*
X036952D02*
X037149D01*
X037215Y035916D01*
X037149Y035981D01*
X037018D01*
X036952Y036047D01*
X037018Y036112D01*
X037215D01*
X037346Y03585D02*
X037477D01*
X037411D01*
Y036112D01*
X037346D01*
X037674Y03585D02*
Y036112D01*
X037871D01*
X037936Y036047D01*
Y03585D01*
X038067D02*
Y036244D01*
Y035981D02*
X038264Y036112D01*
X038067Y035981D02*
X038264Y03585D01*
X0453Y036244D02*
Y03585D01*
Y036047D01*
X045562D01*
Y036244D01*
Y03585D01*
X04589D02*
X045759D01*
X045694Y035916D01*
Y036047D01*
X045759Y036112D01*
X04589D01*
X045956Y036047D01*
Y035981D01*
X045694D01*
X046153Y036112D02*
X046284D01*
X04635Y036047D01*
Y03585D01*
X046153D01*
X046087Y035916D01*
X046153Y035981D01*
X04635D01*
X046546Y036178D02*
Y036112D01*
X046481D01*
X046612D01*
X046546D01*
Y035916D01*
X046612Y03585D01*
X047202D02*
X047399D01*
X047465Y035916D01*
X047399Y035981D01*
X047268D01*
X047202Y036047D01*
X047268Y036112D01*
X047465D01*
X047596Y03585D02*
X047727D01*
X047661D01*
Y036112D01*
X047596D01*
X047924Y03585D02*
Y036112D01*
X048121D01*
X048186Y036047D01*
Y03585D01*
X048317D02*
Y036244D01*
Y035981D02*
X048514Y036112D01*
X048317Y035981D02*
X048514Y03585D01*
X014962Y0415D02*
X0147D01*
X014962Y041762D01*
Y041828D01*
X014897Y041894D01*
X014766D01*
X0147Y041828D01*
X015356Y0415D02*
X015094D01*
X015356Y041762D01*
Y041828D01*
X01529Y041894D01*
X015159D01*
X015094Y041828D01*
X015487Y041762D02*
X01575Y0415D01*
X015618Y041631D01*
X01575Y041762D01*
X015487Y0415D01*
X016143D02*
X015881D01*
X016143Y041762D01*
Y041828D01*
X016078Y041894D01*
X015946D01*
X015881Y041828D01*
X016537Y0415D02*
X016274D01*
X016537Y041762D01*
Y041828D01*
X016471Y041894D01*
X01634D01*
X016274Y041828D01*
X016668Y0415D02*
Y041762D01*
X016733D01*
X016799Y041697D01*
Y0415D01*
Y041697D01*
X016865Y041762D01*
X01693Y041697D01*
Y0415D01*
X017061D02*
Y041762D01*
X017127D01*
X017193Y041697D01*
Y0415D01*
Y041697D01*
X017258Y041762D01*
X017324Y041697D01*
Y0415D01*
X025246D02*
X024983D01*
X025246Y041762D01*
Y041828D01*
X02518Y041894D01*
X025049D01*
X024983Y041828D01*
X025639Y0415D02*
X025377D01*
X025639Y041762D01*
Y041828D01*
X025574Y041894D01*
X025443D01*
X025377Y041828D01*
X02577Y041762D02*
X026033Y0415D01*
X025902Y041631D01*
X026033Y041762D01*
X02577Y0415D01*
X026426D02*
X026164D01*
X026426Y041762D01*
Y041828D01*
X026361Y041894D01*
X02623D01*
X026164Y041828D01*
X02682Y0415D02*
X026558D01*
X02682Y041762D01*
Y041828D01*
X026754Y041894D01*
X026623D01*
X026558Y041828D01*
X026951Y0415D02*
Y041762D01*
X027017D01*
X027082Y041697D01*
Y0415D01*
Y041697D01*
X027148Y041762D01*
X027214Y041697D01*
Y0415D01*
X027345D02*
Y041762D01*
X02741D01*
X027476Y041697D01*
Y0415D01*
Y041697D01*
X027542Y041762D01*
X027607Y041697D01*
Y0415D01*
X035629D02*
X035367D01*
X035629Y041762D01*
Y041828D01*
X035563Y041894D01*
X035432D01*
X035367Y041828D01*
X036023Y0415D02*
X03576D01*
X036023Y041762D01*
Y041828D01*
X035957Y041894D01*
X035826D01*
X03576Y041828D01*
X036154Y041762D02*
X036416Y0415D01*
X036285Y041631D01*
X036416Y041762D01*
X036154Y0415D01*
X03681D02*
X036547D01*
X03681Y041762D01*
Y041828D01*
X036744Y041894D01*
X036613D01*
X036547Y041828D01*
X037203Y0415D02*
X036941D01*
X037203Y041762D01*
Y041828D01*
X037138Y041894D01*
X037007D01*
X036941Y041828D01*
X037335Y0415D02*
Y041762D01*
X0374D01*
X037466Y041697D01*
Y0415D01*
Y041697D01*
X037531Y041762D01*
X037597Y041697D01*
Y0415D01*
X037728D02*
Y041762D01*
X037794D01*
X037859Y041697D01*
Y0415D01*
Y041697D01*
X037925Y041762D01*
X03799Y041697D01*
Y0415D01*
X045612D02*
X04535D01*
X045612Y041762D01*
Y041828D01*
X045547Y041894D01*
X045416D01*
X04535Y041828D01*
X046006Y0415D02*
X045744D01*
X046006Y041762D01*
Y041828D01*
X04594Y041894D01*
X045809D01*
X045744Y041828D01*
X046137Y041762D02*
X0464Y0415D01*
X046268Y041631D01*
X0464Y041762D01*
X046137Y0415D01*
X046793D02*
X046531D01*
X046793Y041762D01*
Y041828D01*
X046728Y041894D01*
X046596D01*
X046531Y041828D01*
X047187Y0415D02*
X046924D01*
X047187Y041762D01*
Y041828D01*
X047121Y041894D01*
X04699D01*
X046924Y041828D01*
X047318Y0415D02*
Y041762D01*
X047383D01*
X047449Y041697D01*
Y0415D01*
Y041697D01*
X047515Y041762D01*
X04758Y041697D01*
Y0415D01*
X047711D02*
Y041762D01*
X047777D01*
X047843Y041697D01*
Y0415D01*
Y041697D01*
X047908Y041762D01*
X047974Y041697D01*
Y0415D01*
X02515Y0402D02*
X025281D01*
X025216D01*
Y040594D01*
X02515Y040528D01*
X025675Y0402D02*
Y040594D01*
X025478Y040397D01*
X02574D01*
X025872Y040462D02*
X026134Y0402D01*
X026003Y040331D01*
X026134Y040462D01*
X025872Y0402D01*
X026265D02*
X026396D01*
X026331D01*
Y040594D01*
X026265Y040528D01*
X02679Y0402D02*
Y040594D01*
X026593Y040397D01*
X026855D01*
X026987Y0402D02*
Y040462D01*
X027052D01*
X027118Y040397D01*
Y0402D01*
Y040397D01*
X027183Y040462D01*
X027249Y040397D01*
Y0402D01*
X02738D02*
Y040462D01*
X027446D01*
X027511Y040397D01*
Y0402D01*
Y040397D01*
X027577Y040462D01*
X027643Y040397D01*
Y0402D01*
X03535D02*
X035481D01*
X035416D01*
Y040594D01*
X03535Y040528D01*
X035875Y0402D02*
Y040594D01*
X035678Y040397D01*
X03594D01*
X036072Y040462D02*
X036334Y0402D01*
X036203Y040331D01*
X036334Y040462D01*
X036072Y0402D01*
X036465D02*
X036596D01*
X036531D01*
Y040594D01*
X036465Y040528D01*
X03699Y0402D02*
Y040594D01*
X036793Y040397D01*
X037055D01*
X037187Y0402D02*
Y040462D01*
X037252D01*
X037318Y040397D01*
Y0402D01*
Y040397D01*
X037383Y040462D01*
X037449Y040397D01*
Y0402D01*
X03758D02*
Y040462D01*
X037646D01*
X037711Y040397D01*
Y0402D01*
Y040397D01*
X037777Y040462D01*
X037843Y040397D01*
Y0402D01*
X0454D02*
X045531D01*
X045466D01*
Y040594D01*
X0454Y040528D01*
X045925Y0402D02*
Y040594D01*
X045728Y040397D01*
X04599D01*
X046122Y040462D02*
X046384Y0402D01*
X046253Y040331D01*
X046384Y040462D01*
X046122Y0402D01*
X046515D02*
X046646D01*
X046581D01*
Y040594D01*
X046515Y040528D01*
X04704Y0402D02*
Y040594D01*
X046843Y040397D01*
X047105D01*
X047237Y0402D02*
Y040462D01*
X047302D01*
X047368Y040397D01*
Y0402D01*
Y040397D01*
X047433Y040462D01*
X047499Y040397D01*
Y0402D01*
X04763D02*
Y040462D01*
X047696D01*
X047761Y040397D01*
Y0402D01*
Y040397D01*
X047827Y040462D01*
X047893Y040397D01*
Y0402D01*
X0154Y029709D02*
Y029447D01*
X015531Y029316D01*
X015662Y029447D01*
Y029709D01*
X015794Y02925D02*
X016056D01*
X01645Y029644D02*
X016384Y029709D01*
X016253D01*
X016187Y029644D01*
Y029381D01*
X016253Y029316D01*
X016384D01*
X01645Y029381D01*
X016843Y029709D02*
X016581D01*
Y029316D01*
X016843D01*
X016581Y029512D02*
X016712D01*
X016974Y029709D02*
Y029316D01*
X017237D01*
X017368Y029709D02*
Y029316D01*
X01763D01*
X039372Y014362D02*
X039306Y014297D01*
Y014166D01*
X039372Y0141D01*
X039438D01*
X039503Y014166D01*
Y014297D01*
X039569Y014362D01*
X039634D01*
X0397Y014297D01*
Y014166D01*
X039634Y0141D01*
X039372Y014559D02*
X039438D01*
Y014494D01*
Y014625D01*
Y014559D01*
X039634D01*
X0397Y014625D01*
Y015018D02*
Y014887D01*
X039634Y014822D01*
X039503D01*
X039438Y014887D01*
Y015018D01*
X039503Y015084D01*
X039569D01*
Y014822D01*
X0397Y015412D02*
Y015281D01*
X039634Y015215D01*
X039503D01*
X039438Y015281D01*
Y015412D01*
X039503Y015478D01*
X039569D01*
Y015215D01*
X039438Y015609D02*
X0397D01*
X039569D01*
X039503Y015674D01*
X039438Y01574D01*
Y015805D01*
X040503Y0141D02*
Y014362D01*
X040372Y014231D02*
X040634D01*
X040306Y014756D02*
Y014494D01*
X040503D01*
X040438Y014625D01*
Y01469D01*
X040503Y014756D01*
X040634D01*
X0407Y01469D01*
Y014559D01*
X040634Y014494D01*
X040306Y014887D02*
X040569D01*
X0407Y015018D01*
X040569Y01515D01*
X040306D01*
X041422Y014362D02*
X041356Y014297D01*
Y014166D01*
X041422Y0141D01*
X041684D01*
X04175Y014166D01*
Y014297D01*
X041684Y014362D01*
X041553D01*
Y014231D01*
X04175Y014494D02*
X041356D01*
X04175Y014756D01*
X041356D01*
Y014887D02*
X04175D01*
Y015084D01*
X041684Y01515D01*
X041422D01*
X041356Y015084D01*
Y014887D01*
X0291Y018824D02*
Y01843D01*
X029297D01*
X029362Y018496D01*
Y018561D01*
X029297Y018627D01*
X0291D01*
X029297D01*
X029362Y018692D01*
Y018758D01*
X029297Y018824D01*
X0291D01*
X02969D02*
X029559D01*
X029494Y018758D01*
Y018496D01*
X029559Y01843D01*
X02969D01*
X029756Y018496D01*
Y018758D01*
X02969Y018824D01*
X030084D02*
X029953D01*
X029887Y018758D01*
Y018496D01*
X029953Y01843D01*
X030084D01*
X03015Y018496D01*
Y018758D01*
X030084Y018824D01*
X030281D02*
X030543D01*
X030412D01*
Y01843D01*
X030674D02*
X030805D01*
X03074D01*
Y018824D01*
X030674Y018758D01*
X02905Y017724D02*
Y01733D01*
X029247D01*
X029312Y017396D01*
Y017461D01*
X029247Y017527D01*
X02905D01*
X029247D01*
X029312Y017592D01*
Y017658D01*
X029247Y017724D01*
X02905D01*
X02964D02*
X029509D01*
X029444Y017658D01*
Y017396D01*
X029509Y01733D01*
X02964D01*
X029706Y017396D01*
Y017658D01*
X02964Y017724D01*
X030034D02*
X029903D01*
X029837Y017658D01*
Y017396D01*
X029903Y01733D01*
X030034D01*
X0301Y017396D01*
Y017658D01*
X030034Y017724D01*
X030231D02*
X030493D01*
X030362D01*
Y01733D01*
X030624Y017658D02*
X03069Y017724D01*
X030821D01*
X030887Y017658D01*
Y017396D01*
X030821Y01733D01*
X03069D01*
X030624Y017396D01*
Y017658D01*
X0146Y021709D02*
Y021447D01*
X014731Y021316D01*
X014862Y021447D01*
Y021709D01*
X014994Y02125D02*
X015256D01*
X015387Y021316D02*
Y021709D01*
X01565Y021316D01*
Y021709D01*
X015781Y021316D02*
Y021578D01*
X015912Y021709D01*
X016043Y021578D01*
Y021316D01*
Y021512D01*
X015781D01*
X016174Y021316D02*
Y021709D01*
X016437Y021316D01*
Y021709D01*
X016765D02*
X016633D01*
X016568Y021644D01*
Y021381D01*
X016633Y021316D01*
X016765D01*
X01683Y021381D01*
Y021644D01*
X016765Y021709D01*
X042234Y027147D02*
X042103D01*
X042169D01*
Y026819D01*
X042103Y026753D01*
X042038D01*
X041972Y026819D01*
X042366Y027081D02*
X042431Y027147D01*
X042562D01*
X042628Y027081D01*
Y027016D01*
X042562Y02695D01*
X042497D01*
X042562D01*
X042628Y026884D01*
Y026819D01*
X042562Y026753D01*
X042431D01*
X042366Y026819D01*
X033316Y016597D02*
Y016203D01*
X033513D01*
X033578Y016269D01*
Y016334D01*
X033513Y0164D01*
X033316D01*
X033513D01*
X033578Y016466D01*
Y016531D01*
X033513Y016597D01*
X033316D01*
X033972Y016531D02*
X033906Y016597D01*
X033775D01*
X03371Y016531D01*
Y016466D01*
X033775Y0164D01*
X033906D01*
X033972Y016334D01*
Y016269D01*
X033906Y016203D01*
X033775D01*
X03371Y016269D01*
X034103Y016203D02*
X034234D01*
X034169D01*
Y016597D01*
X034103Y016531D01*
X04512Y030984D02*
Y03059D01*
Y030787D01*
X045382D01*
Y030984D01*
Y03059D01*
X045514Y030984D02*
Y03059D01*
X04571D01*
X045776Y030656D01*
Y030918D01*
X04571Y030984D01*
X045514D01*
X045907Y030918D02*
X045973Y030984D01*
X046104D01*
X04617Y030918D01*
Y030852D01*
X046104Y030787D01*
X046038D01*
X046104D01*
X04617Y030721D01*
Y030656D01*
X046104Y03059D01*
X045973D01*
X045907Y030656D01*
X031319Y0283D02*
X031253Y028234D01*
Y028103D01*
X031319Y028038D01*
X031581D01*
X031647Y028103D01*
Y028234D01*
X031581Y0283D01*
X031647Y028431D02*
Y028562D01*
Y028497D01*
X031253D01*
X031319Y028431D01*
X030169Y028284D02*
X030103Y028219D01*
Y028088D01*
X030169Y028022D01*
X030431D01*
X030497Y028088D01*
Y028219D01*
X030431Y028284D01*
X030497Y028678D02*
Y028416D01*
X030234Y028678D01*
X030169D01*
X030103Y028612D01*
Y028481D01*
X030169Y028416D01*
X035519Y028584D02*
X035453Y028519D01*
Y028388D01*
X035519Y028322D01*
X035781D01*
X035847Y028388D01*
Y028519D01*
X035781Y028584D01*
X035519Y028716D02*
X035453Y028781D01*
Y028912D01*
X035519Y028978D01*
X035584D01*
X03565Y028912D01*
Y028847D01*
Y028912D01*
X035716Y028978D01*
X035781D01*
X035847Y028912D01*
Y028781D01*
X035781Y028716D01*
X036669Y028678D02*
X036603Y028613D01*
Y028481D01*
X036669Y028416D01*
X036931D01*
X036997Y028481D01*
Y028613D01*
X036931Y028678D01*
X036997Y029006D02*
X036603D01*
X0368Y028809D01*
Y029072D01*
X039734Y017281D02*
X039669Y017347D01*
X039538D01*
X039472Y017281D01*
Y017019D01*
X039538Y016953D01*
X039669D01*
X039734Y017019D01*
X040128Y017347D02*
X039866D01*
Y01715D01*
X039997Y017216D01*
X040062D01*
X040128Y01715D01*
Y017019D01*
X040062Y016953D01*
X039931D01*
X039866Y017019D01*
X043441Y018131D02*
X043375Y018197D01*
X043244D01*
X043178Y018131D01*
Y017869D01*
X043244Y017803D01*
X043375D01*
X043441Y017869D01*
X043834Y018197D02*
X043703Y018131D01*
X043572Y018D01*
Y017869D01*
X043637Y017803D01*
X043769D01*
X043834Y017869D01*
Y017934D01*
X043769Y018D01*
X043572D01*
X043534Y024531D02*
X043469Y024597D01*
X043338D01*
X043272Y024531D01*
Y024269D01*
X043338Y024203D01*
X043469D01*
X043534Y024269D01*
X043666Y024597D02*
X043928D01*
Y024531D01*
X043666Y024269D01*
Y024203D01*
X039684Y024981D02*
X039619Y025047D01*
X039488D01*
X039422Y024981D01*
Y024719D01*
X039488Y024653D01*
X039619D01*
X039684Y024719D01*
X039816D02*
X039881Y024653D01*
X040012D01*
X040078Y024719D01*
Y024981D01*
X040012Y025047D01*
X039881D01*
X039816Y024981D01*
Y024916D01*
X039881Y02485D01*
X040078D01*
X04652Y016481D02*
X046455Y016547D01*
X046324D01*
X046258Y016481D01*
Y016219D01*
X046324Y016153D01*
X046455D01*
X04652Y016219D01*
X046652Y016153D02*
X046783D01*
X046717D01*
Y016547D01*
X046652Y016481D01*
X04698D02*
X047045Y016547D01*
X047176D01*
X047242Y016481D01*
Y016219D01*
X047176Y016153D01*
X047045D01*
X04698Y016219D01*
Y016481D01*
X04322Y021931D02*
X043155Y021997D01*
X043024D01*
X042958Y021931D01*
Y021669D01*
X043024Y021603D01*
X043155D01*
X04322Y021669D01*
X043352Y021603D02*
X043483D01*
X043417D01*
Y021997D01*
X043352Y021931D01*
X04368D02*
X043745Y021997D01*
X043876D01*
X043942Y021931D01*
Y021866D01*
X043876Y0218D01*
X043811D01*
X043876D01*
X043942Y021734D01*
Y021669D01*
X043876Y021603D01*
X043745D01*
X04368Y021669D01*
X04072Y016581D02*
X040655Y016647D01*
X040524D01*
X040458Y016581D01*
Y016319D01*
X040524Y016253D01*
X040655D01*
X04072Y016319D01*
X040852Y016253D02*
X040983D01*
X040917D01*
Y016647D01*
X040852Y016581D01*
X041376Y016253D02*
Y016647D01*
X04118Y01645D01*
X041442D01*
X035769Y02487D02*
X035703Y024805D01*
Y024674D01*
X035769Y024608D01*
X036031D01*
X036097Y024674D01*
Y024805D01*
X036031Y02487D01*
X036097Y025002D02*
Y025133D01*
Y025067D01*
X035703D01*
X035769Y025002D01*
X035703Y025592D02*
Y02533D01*
X0359D01*
X035834Y025461D01*
Y025526D01*
X0359Y025592D01*
X036031D01*
X036097Y025526D01*
Y025395D01*
X036031Y02533D01*
X018719Y04517D02*
X018653Y045105D01*
Y044974D01*
X018719Y044908D01*
X018981D01*
X019047Y044974D01*
Y045105D01*
X018981Y04517D01*
X019047Y045302D02*
Y045433D01*
Y045367D01*
X018653D01*
X018719Y045302D01*
X018653Y045892D02*
X018719Y045761D01*
X01885Y04563D01*
X018981D01*
X019047Y045695D01*
Y045826D01*
X018981Y045892D01*
X018916D01*
X01885Y045826D01*
Y04563D01*
X043819Y04527D02*
X043753Y045205D01*
Y045074D01*
X043819Y045008D01*
X044081D01*
X044147Y045074D01*
Y045205D01*
X044081Y04527D01*
X044147Y045402D02*
Y045533D01*
Y045467D01*
X043753D01*
X043819Y045402D01*
X043753Y04573D02*
Y045992D01*
X043819D01*
X044081Y04573D01*
X044147D01*
X02427Y045981D02*
X024205Y046047D01*
X024074D01*
X024008Y045981D01*
Y045719D01*
X024074Y045653D01*
X024205D01*
X02427Y045719D01*
X024402Y045653D02*
X024533D01*
X024467D01*
Y046047D01*
X024402Y045981D01*
X02473D02*
X024795Y046047D01*
X024926D01*
X024992Y045981D01*
Y045916D01*
X024926Y04585D01*
X024992Y045784D01*
Y045719D01*
X024926Y045653D01*
X024795D01*
X02473Y045719D01*
Y045784D01*
X024795Y04585D01*
X02473Y045916D01*
Y045981D01*
X024795Y04585D02*
X024926D01*
X03837Y046131D02*
X038305Y046197D01*
X038174D01*
X038108Y046131D01*
Y045869D01*
X038174Y045803D01*
X038305D01*
X03837Y045869D01*
X038502Y045803D02*
X038633D01*
X038567D01*
Y046197D01*
X038502Y046131D01*
X03883Y045869D02*
X038895Y045803D01*
X039026D01*
X039092Y045869D01*
Y046131D01*
X039026Y046197D01*
X038895D01*
X03883Y046131D01*
Y046066D01*
X038895Y046D01*
X039092D01*
X047688Y024481D02*
X047622Y024547D01*
X047491D01*
X047425Y024481D01*
Y024219D01*
X047491Y024153D01*
X047622D01*
X047688Y024219D01*
X048081Y024153D02*
X047819D01*
X048081Y024416D01*
Y024481D01*
X048016Y024547D01*
X047884D01*
X047819Y024481D01*
X048212D02*
X048278Y024547D01*
X048409D01*
X048475Y024481D01*
Y024219D01*
X048409Y024153D01*
X048278D01*
X048212Y024219D01*
Y024481D01*
X033769Y014703D02*
X033703Y014638D01*
Y014506D01*
X033769Y014441D01*
X034031D01*
X034097Y014506D01*
Y014638D01*
X034031Y014703D01*
X034097Y015097D02*
Y014834D01*
X033834Y015097D01*
X033769D01*
X033703Y015031D01*
Y0149D01*
X033769Y014834D01*
X034097Y015228D02*
Y015359D01*
Y015294D01*
X033703D01*
X033769Y015228D01*
X017719Y045188D02*
X017653Y045122D01*
Y044991D01*
X017719Y044925D01*
X017981D01*
X018047Y044991D01*
Y045122D01*
X017981Y045188D01*
X018047Y045581D02*
Y045319D01*
X017784Y045581D01*
X017719D01*
X017653Y045516D01*
Y045384D01*
X017719Y045319D01*
Y045712D02*
X017653Y045778D01*
Y045909D01*
X017719Y045975D01*
X017784D01*
X01785Y045909D01*
Y045844D01*
Y045909D01*
X017916Y045975D01*
X017981D01*
X018047Y045909D01*
Y045778D01*
X017981Y045712D01*
X044819Y045288D02*
X044753Y045222D01*
Y045091D01*
X044819Y045025D01*
X045081D01*
X045147Y045091D01*
Y045222D01*
X045081Y045288D01*
X045147Y045681D02*
Y045419D01*
X044884Y045681D01*
X044819D01*
X044753Y045616D01*
Y045484D01*
X044819Y045419D01*
X044753Y046075D02*
Y045812D01*
X04495D01*
X044884Y045944D01*
Y046009D01*
X04495Y046075D01*
X045081D01*
X045147Y046009D01*
Y045878D01*
X045081Y045812D01*
X027247Y013681D02*
X027181Y013747D01*
X02705D01*
X026985Y013681D01*
Y013419D01*
X02705Y013353D01*
X027181D01*
X027247Y013419D01*
X027378Y013681D02*
X027444Y013747D01*
X027575D01*
X02764Y013681D01*
Y013616D01*
X027575Y01355D01*
X027509D01*
X027575D01*
X02764Y013484D01*
Y013419D01*
X027575Y013353D01*
X027444D01*
X027378Y013419D01*
X027772Y013353D02*
X027903D01*
X027837D01*
Y013747D01*
X027772Y013681D01*
X028938Y015481D02*
X028872Y015547D01*
X028741D01*
X028675Y015481D01*
Y015219D01*
X028741Y015153D01*
X028872D01*
X028938Y015219D01*
X029069Y015481D02*
X029134Y015547D01*
X029266D01*
X029331Y015481D01*
Y015416D01*
X029266Y01535D01*
X0292D01*
X029266D01*
X029331Y015284D01*
Y015219D01*
X029266Y015153D01*
X029134D01*
X029069Y015219D01*
X029725Y015153D02*
X029462D01*
X029725Y015416D01*
Y015481D01*
X029659Y015547D01*
X029528D01*
X029462Y015481D01*
X030419Y024738D02*
X030353Y024672D01*
Y024541D01*
X030419Y024475D01*
X030681D01*
X030747Y024541D01*
Y024672D01*
X030681Y024738D01*
X030747Y025066D02*
X030353D01*
X03055Y024869D01*
Y025131D01*
X030419Y025262D02*
X030353Y025328D01*
Y025459D01*
X030419Y025525D01*
X030484D01*
X03055Y025459D01*
Y025394D01*
Y025459D01*
X030616Y025525D01*
X030681D01*
X030747Y025459D01*
Y025328D01*
X030681Y025262D01*
X034619Y024888D02*
X034553Y024822D01*
Y024691D01*
X034619Y024625D01*
X034881D01*
X034947Y024691D01*
Y024822D01*
X034881Y024888D01*
X034947Y025216D02*
X034553D01*
X03475Y025019D01*
Y025281D01*
X034947Y025609D02*
X034553D01*
X03475Y025412D01*
Y025675D01*
X014972Y026697D02*
Y026303D01*
X015169D01*
X015234Y026369D01*
Y026631D01*
X015169Y026697D01*
X014972D01*
X015366D02*
X015628D01*
Y026631D01*
X015366Y026369D01*
Y026303D01*
X015022Y019797D02*
Y019403D01*
X015219D01*
X015284Y019469D01*
Y019731D01*
X015219Y019797D01*
X015022D01*
X015416Y019731D02*
X015481Y019797D01*
X015612D01*
X015678Y019731D01*
Y019666D01*
X015612Y0196D01*
X015678Y019534D01*
Y019469D01*
X015612Y019403D01*
X015481D01*
X015416Y019469D01*
Y019534D01*
X015481Y0196D01*
X015416Y019666D01*
Y019731D01*
X015481Y0196D02*
X015612D01*
X01735Y024697D02*
X017088D01*
Y0245D01*
X017219D01*
X017088D01*
Y024303D01*
X017481D02*
X017612D01*
X017547D01*
Y024697D01*
X017481Y024631D01*
X01215Y023794D02*
Y0234D01*
Y023597D01*
X012412D01*
Y023794D01*
Y0234D01*
X012544Y023794D02*
Y0234D01*
X01274D01*
X012806Y023466D01*
Y023728D01*
X01274Y023794D01*
X012544D01*
X012937Y0234D02*
X013068D01*
X013003D01*
Y023794D01*
X012937Y023728D01*
X011975Y032588D02*
Y032194D01*
Y032391D01*
X012238D01*
Y032588D01*
Y032194D01*
X012369Y032588D02*
Y032194D01*
X012566D01*
X012631Y03226D01*
Y032522D01*
X012566Y032588D01*
X012369D01*
X013025Y032194D02*
X012762D01*
X013025Y032457D01*
Y032522D01*
X012959Y032588D01*
X012828D01*
X012762Y032522D01*
X02245Y015369D02*
Y015631D01*
X022384Y015697D01*
X022253D01*
X022188Y015631D01*
Y015369D01*
X022253Y015303D01*
X022384D01*
X022319Y015434D02*
X02245Y015303D01*
X022384D02*
X02245Y015369D01*
X022581Y015303D02*
X022712D01*
X022647D01*
Y015697D01*
X022581Y015631D01*
X036488Y018303D02*
Y018697D01*
X036684D01*
X03675Y018631D01*
Y0185D01*
X036684Y018434D01*
X036488D01*
X036619D02*
X03675Y018303D01*
X036881D02*
X037012D01*
X036947D01*
Y018697D01*
X036881Y018631D01*
X036472Y017503D02*
Y017897D01*
X036669D01*
X036734Y017831D01*
Y0177D01*
X036669Y017634D01*
X036472D01*
X036603D02*
X036734Y017503D01*
X037128D02*
X036866D01*
X037128Y017766D01*
Y017831D01*
X037062Y017897D01*
X036931D01*
X036866Y017831D01*
X02619Y02889D02*
Y029284D01*
X026387D01*
X026452Y029218D01*
Y029087D01*
X026387Y029021D01*
X02619D01*
X026321D02*
X026452Y02889D01*
X026584Y029218D02*
X026649Y029284D01*
X02678D01*
X026846Y029218D01*
Y029152D01*
X02678Y029087D01*
X026715D01*
X02678D01*
X026846Y029021D01*
Y028956D01*
X02678Y02889D01*
X026649D01*
X026584Y028956D01*
X023772Y027703D02*
Y028097D01*
X023969D01*
X024034Y028031D01*
Y0279D01*
X023969Y027834D01*
X023772D01*
X023903D02*
X024034Y027703D01*
X024428Y028097D02*
X024166D01*
Y0279D01*
X024297Y027966D01*
X024362D01*
X024428Y0279D01*
Y027769D01*
X024362Y027703D01*
X024231D01*
X024166Y027769D01*
X028522Y027603D02*
Y027997D01*
X028719D01*
X028784Y027931D01*
Y0278D01*
X028719Y027734D01*
X028522D01*
X028653D02*
X028784Y027603D01*
X029178Y027997D02*
X029047Y027931D01*
X028916Y0278D01*
Y027669D01*
X028981Y027603D01*
X029112D01*
X029178Y027669D01*
Y027734D01*
X029112Y0278D01*
X028916D01*
X021097Y029912D02*
X020703D01*
Y030109D01*
X020769Y030175D01*
X0209D01*
X020966Y030109D01*
Y029912D01*
Y030044D02*
X021097Y030175D01*
Y030306D02*
Y030437D01*
Y030372D01*
X020703D01*
X020769Y030306D01*
X021097Y030896D02*
Y030634D01*
X020834Y030896D01*
X020769D01*
X020703Y030831D01*
Y0307D01*
X020769Y030634D01*
X024097Y029904D02*
X023703D01*
Y0301D01*
X023769Y030166D01*
X0239D01*
X023966Y0301D01*
Y029904D01*
Y030035D02*
X024097Y030166D01*
Y030297D02*
Y030428D01*
Y030363D01*
X023703D01*
X023769Y030297D01*
Y030625D02*
X023703Y030691D01*
Y030822D01*
X023769Y030888D01*
X023834D01*
X0239Y030822D01*
Y030756D01*
Y030822D01*
X023966Y030888D01*
X024031D01*
X024097Y030822D01*
Y030691D01*
X024031Y030625D01*
X020347Y029912D02*
X019953D01*
Y030109D01*
X020019Y030175D01*
X02015D01*
X020216Y030109D01*
Y029912D01*
Y030044D02*
X020347Y030175D01*
Y030306D02*
Y030437D01*
Y030372D01*
X019953D01*
X020019Y030306D01*
X020347Y030831D02*
X019953D01*
X02015Y030634D01*
Y030896D01*
X023347Y029912D02*
X022953D01*
Y030109D01*
X023019Y030175D01*
X02315D01*
X023216Y030109D01*
Y029912D01*
Y030044D02*
X023347Y030175D01*
Y030306D02*
Y030437D01*
Y030372D01*
X022953D01*
X023019Y030306D01*
X022953Y030896D02*
Y030634D01*
X02315D01*
X023084Y030765D01*
Y030831D01*
X02315Y030896D01*
X023281D01*
X023347Y030831D01*
Y0307D01*
X023281Y030634D01*
X019547Y029899D02*
X019153D01*
Y030096D01*
X019219Y030162D01*
X01935D01*
X019416Y030096D01*
Y029899D01*
Y030031D02*
X019547Y030162D01*
Y030293D02*
Y030424D01*
Y030359D01*
X019153D01*
X019219Y030293D01*
X019153Y030883D02*
X019219Y030752D01*
X01935Y030621D01*
X019481D01*
X019547Y030687D01*
Y030818D01*
X019481Y030883D01*
X019416D01*
X01935Y030818D01*
Y030621D01*
X018847Y029904D02*
X018453D01*
Y0301D01*
X018519Y030166D01*
X01865D01*
X018716Y0301D01*
Y029904D01*
Y030035D02*
X018847Y030166D01*
Y030297D02*
Y030428D01*
Y030363D01*
X018453D01*
X018519Y030297D01*
X018453Y030625D02*
Y030888D01*
X018519D01*
X018781Y030625D01*
X018847D01*
X021847Y029908D02*
X021453D01*
Y030105D01*
X021519Y03017D01*
X02165D01*
X021716Y030105D01*
Y029908D01*
Y030039D02*
X021847Y03017D01*
Y030302D02*
Y030433D01*
Y030367D01*
X021453D01*
X021519Y030302D01*
Y03063D02*
X021453Y030695D01*
Y030826D01*
X021519Y030892D01*
X021584D01*
X02165Y030826D01*
X021716Y030892D01*
X021781D01*
X021847Y030826D01*
Y030695D01*
X021781Y03063D01*
X021716D01*
X02165Y030695D01*
X021584Y03063D01*
X021519D01*
X02165Y030695D02*
Y030826D01*
X022597Y029908D02*
X022203D01*
Y030105D01*
X022269Y03017D01*
X0224D01*
X022466Y030105D01*
Y029908D01*
Y030039D02*
X022597Y03017D01*
Y030302D02*
Y030433D01*
Y030367D01*
X022203D01*
X022269Y030302D01*
X022531Y03063D02*
X022597Y030695D01*
Y030826D01*
X022531Y030892D01*
X022269D01*
X022203Y030826D01*
Y030695D01*
X022269Y03063D01*
X022334D01*
X0224Y030695D01*
Y030892D01*
X041447Y029825D02*
X041053D01*
Y030022D01*
X041119Y030088D01*
X04125D01*
X041316Y030022D01*
Y029825D01*
Y029956D02*
X041447Y030088D01*
Y030481D02*
Y030219D01*
X041184Y030481D01*
X041119D01*
X041053Y030416D01*
Y030284D01*
X041119Y030219D01*
Y030612D02*
X041053Y030678D01*
Y030809D01*
X041119Y030875D01*
X041381D01*
X041447Y030809D01*
Y030678D01*
X041381Y030612D01*
X041119D01*
X044447Y029836D02*
X044053D01*
Y030033D01*
X044119Y030099D01*
X04425D01*
X044316Y030033D01*
Y029836D01*
Y029968D02*
X044447Y030099D01*
Y030492D02*
Y03023D01*
X044184Y030492D01*
X044119D01*
X044053Y030427D01*
Y030296D01*
X044119Y03023D01*
X044447Y030624D02*
Y030755D01*
Y030689D01*
X044053D01*
X044119Y030624D01*
X040697Y029825D02*
X040303D01*
Y030022D01*
X040369Y030088D01*
X0405D01*
X040566Y030022D01*
Y029825D01*
Y029956D02*
X040697Y030088D01*
Y030481D02*
Y030219D01*
X040434Y030481D01*
X040369D01*
X040303Y030416D01*
Y030284D01*
X040369Y030219D01*
X040697Y030875D02*
Y030612D01*
X040434Y030875D01*
X040369D01*
X040303Y030809D01*
Y030678D01*
X040369Y030612D01*
X043747Y029825D02*
X043353D01*
Y030022D01*
X043419Y030088D01*
X04355D01*
X043616Y030022D01*
Y029825D01*
Y029956D02*
X043747Y030088D01*
Y030481D02*
Y030219D01*
X043484Y030481D01*
X043419D01*
X043353Y030416D01*
Y030284D01*
X043419Y030219D01*
Y030612D02*
X043353Y030678D01*
Y030809D01*
X043419Y030875D01*
X043484D01*
X04355Y030809D01*
Y030744D01*
Y030809D01*
X043616Y030875D01*
X043681D01*
X043747Y030809D01*
Y030678D01*
X043681Y030612D01*
X039947Y029821D02*
X039553D01*
Y030018D01*
X039619Y030083D01*
X03975D01*
X039816Y030018D01*
Y029821D01*
Y029952D02*
X039947Y030083D01*
Y030477D02*
Y030214D01*
X039684Y030477D01*
X039619D01*
X039553Y030411D01*
Y03028D01*
X039619Y030214D01*
X039947Y030805D02*
X039553D01*
X03975Y030608D01*
Y03087D01*
X039197Y029821D02*
X038803D01*
Y030018D01*
X038869Y030083D01*
X039D01*
X039066Y030018D01*
Y029821D01*
Y029952D02*
X039197Y030083D01*
Y030477D02*
Y030214D01*
X038934Y030477D01*
X038869D01*
X038803Y030411D01*
Y03028D01*
X038869Y030214D01*
X038803Y03087D02*
Y030608D01*
X039D01*
X038934Y030739D01*
Y030805D01*
X039Y03087D01*
X039131D01*
X039197Y030805D01*
Y030674D01*
X039131Y030608D01*
X042247Y029825D02*
X041853D01*
Y030022D01*
X041919Y030088D01*
X04205D01*
X042116Y030022D01*
Y029825D01*
Y029956D02*
X042247Y030088D01*
Y030481D02*
Y030219D01*
X041984Y030481D01*
X041919D01*
X041853Y030416D01*
Y030284D01*
X041919Y030219D01*
X041853Y030875D02*
X041919Y030744D01*
X04205Y030612D01*
X042181D01*
X042247Y030678D01*
Y030809D01*
X042181Y030875D01*
X042116D01*
X04205Y030809D01*
Y030612D01*
X042997Y029825D02*
X042603D01*
Y030022D01*
X042669Y030088D01*
X0428D01*
X042866Y030022D01*
Y029825D01*
Y029956D02*
X042997Y030088D01*
Y030481D02*
Y030219D01*
X042734Y030481D01*
X042669D01*
X042603Y030416D01*
Y030284D01*
X042669Y030219D01*
X042603Y030612D02*
Y030875D01*
X042669D01*
X042931Y030612D01*
X042997D01*
X015025Y027753D02*
Y028147D01*
X015222D01*
X015288Y028081D01*
Y02795D01*
X015222Y027884D01*
X015025D01*
X015156D02*
X015288Y027753D01*
X015681D02*
X015419D01*
X015681Y028016D01*
Y028081D01*
X015616Y028147D01*
X015484D01*
X015419Y028081D01*
X015812D02*
X015878Y028147D01*
X016009D01*
X016075Y028081D01*
Y028016D01*
X016009Y02795D01*
X016075Y027884D01*
Y027819D01*
X016009Y027753D01*
X015878D01*
X015812Y027819D01*
Y027884D01*
X015878Y02795D01*
X015812Y028016D01*
Y028081D01*
X015878Y02795D02*
X016009D01*
X01503Y020353D02*
Y020747D01*
X015226D01*
X015292Y020681D01*
Y02055D01*
X015226Y020484D01*
X01503D01*
X015161D02*
X015292Y020353D01*
X015686D02*
X015423D01*
X015686Y020616D01*
Y020681D01*
X01562Y020747D01*
X015489D01*
X015423Y020681D01*
X015817Y020419D02*
X015882Y020353D01*
X016013D01*
X016079Y020419D01*
Y020681D01*
X016013Y020747D01*
X015882D01*
X015817Y020681D01*
Y020616D01*
X015882Y02055D01*
X016079D01*
X045453Y014031D02*
X045388Y014097D01*
X045256D01*
X045191Y014031D01*
Y013966D01*
X045256Y0139D01*
X045388D01*
X045453Y013834D01*
Y013769D01*
X045388Y013703D01*
X045256D01*
X045191Y013769D01*
X045584Y014097D02*
Y013703D01*
X045716Y013834D01*
X045847Y013703D01*
Y014097D01*
X045978Y013703D02*
X046109D01*
X046044D01*
Y014097D01*
X045978Y014031D01*
X032288Y029597D02*
Y029269D01*
X032353Y029203D01*
X032484D01*
X03255Y029269D01*
Y029597D01*
X032681Y029203D02*
X032812D01*
X032747D01*
Y029597D01*
X032681Y029531D01*
X031403Y025288D02*
X031797Y02555D01*
X031403D02*
X031797Y025288D01*
Y025681D02*
Y025812D01*
Y025747D01*
X031403D01*
X031469Y025681D01*
X043825Y016203D02*
Y016597D01*
X044022D01*
X044088Y016531D01*
Y0164D01*
X044022Y016334D01*
X043825D01*
X043956D02*
X044088Y016203D01*
X044219Y016531D02*
X044284Y016597D01*
X044416D01*
X044481Y016531D01*
Y016466D01*
X044416Y0164D01*
X04435D01*
X044416D01*
X044481Y016334D01*
Y016269D01*
X044416Y016203D01*
X044284D01*
X044219Y016269D01*
X044612Y016531D02*
X044678Y016597D01*
X044809D01*
X044875Y016531D01*
Y016269D01*
X044809Y016203D01*
X044678D01*
X044612Y016269D01*
Y016531D01*
X0484Y0221D02*
X0482D01*
X0483D01*
Y0216D01*
X0482Y0215D01*
X0481D01*
X048Y0216D01*
X049Y0221D02*
X0488Y022D01*
X0486Y0218D01*
Y0216D01*
X0487Y0215D01*
X0489D01*
X049Y0216D01*
Y0217D01*
X0489Y0218D01*
X0486D01*
X039734Y018081D02*
X039669Y018147D01*
X039538D01*
X039472Y018081D01*
Y017819D01*
X039538Y017753D01*
X039669D01*
X039734Y017819D01*
X039866Y018081D02*
X039931Y018147D01*
X040062D01*
X040128Y018081D01*
Y018016D01*
X040062Y01795D01*
X040128Y017884D01*
Y017819D01*
X040062Y017753D01*
X039931D01*
X039866Y017819D01*
Y017884D01*
X039931Y01795D01*
X039866Y018016D01*
Y018081D01*
X039931Y01795D02*
X040062D01*
X034669Y021836D02*
X034603Y02177D01*
Y021639D01*
X034669Y021574D01*
X034931D01*
X034997Y021639D01*
Y02177D01*
X034931Y021836D01*
X034997Y021967D02*
Y022098D01*
Y022033D01*
X034603D01*
X034669Y021967D01*
X034997Y022295D02*
Y022426D01*
Y022361D01*
X034603D01*
X034669Y022295D01*
X035819Y02182D02*
X035753Y021755D01*
Y021624D01*
X035819Y021558D01*
X036081D01*
X036147Y021624D01*
Y021755D01*
X036081Y02182D01*
X036147Y021952D02*
Y022083D01*
Y022017D01*
X035753D01*
X035819Y021952D01*
X036147Y022542D02*
Y02228D01*
X035884Y022542D01*
X035819D01*
X035753Y022476D01*
Y022345D01*
X035819Y02228D01*
X023622Y025897D02*
Y025503D01*
X023819D01*
X023884Y025569D01*
Y025831D01*
X023819Y025897D01*
X023622D01*
X024016Y025831D02*
X024081Y025897D01*
X024212D01*
X024278Y025831D01*
Y025766D01*
X024212Y0257D01*
X024147D01*
X024212D01*
X024278Y025634D01*
Y025569D01*
X024212Y025503D01*
X024081D01*
X024016Y025569D01*
X029022Y025947D02*
Y025553D01*
X029219D01*
X029284Y025619D01*
Y025881D01*
X029219Y025947D01*
X029022D01*
X029612Y025553D02*
Y025947D01*
X029416Y02575D01*
X029678D01*
X024022Y016797D02*
Y016469D01*
X024088Y016403D01*
X024219D01*
X024284Y016469D01*
Y016797D01*
X024678D02*
X024416D01*
Y0166D01*
X024547Y016666D01*
X024612D01*
X024678Y0166D01*
Y016469D01*
X024612Y016403D01*
X024481D01*
X024416Y016469D01*
X025072Y028247D02*
Y027919D01*
X025138Y027853D01*
X025269D01*
X025334Y027919D01*
Y028247D01*
X025662Y027853D02*
Y028247D01*
X025466Y02805D01*
X025728D01*
D13*
X042554Y0444D02*
G03*
X042554Y0444I-001604J0D01*
G01*
X039346D02*
G03*
X039346Y04439I001604J0D01*
G01*
X023354Y0444D02*
G03*
X023354Y0444I-001604J0D01*
G01*
D02*
G03*
X023354Y04441I-001604J0D01*
G01*
X032548Y024936D02*
G03*
X032942Y024936I000197J0D01*
G01*
X044455Y012755D02*
Y015145D01*
X046845D01*
Y012755D02*
Y015145D01*
X044455Y012755D02*
X046845D01*
X032319Y02799D02*
X034881D01*
X032319Y02661D02*
Y02799D01*
Y02661D02*
X034881D01*
Y02799D01*
X03908Y044705D02*
X039346D01*
X03908Y044095D02*
X039346D01*
X042613Y044705D02*
X042869D01*
X042613Y0444D02*
Y045443D01*
X04221Y046034D02*
X042604Y04564D01*
X042613Y044095D02*
X042869D01*
X042613Y0444D02*
Y045699D01*
X042613Y045699D01*
X042613Y0444D02*
Y046034D01*
X039346D02*
X042613D01*
X039346Y04441D02*
Y046034D01*
Y04441D02*
X039346Y04441D01*
X042613Y043357D02*
Y0444D01*
X04221Y042766D02*
X042604Y04316D01*
X042613Y043101D02*
Y0444D01*
Y043101D02*
X042613Y043101D01*
X042613Y042766D02*
Y0444D01*
X039346Y042766D02*
X042613D01*
X039346D02*
Y04439D01*
X039346Y04439D01*
X023354Y044095D02*
X02362D01*
X023354Y044705D02*
X02362D01*
X019831Y044095D02*
X020087D01*
Y043357D02*
Y0444D01*
X020096Y04316D02*
X02049Y042766D01*
X019831Y044705D02*
X020087D01*
Y043101D02*
Y0444D01*
X020087Y043101D02*
X020087Y043101D01*
Y042766D02*
Y0444D01*
Y042766D02*
X023354D01*
Y04439D01*
X023354Y04439D02*
X023354Y04439D01*
X020087Y0444D02*
Y045443D01*
X020096Y04564D02*
X02049Y046034D01*
X020087Y0444D02*
Y045699D01*
X020087Y045699D02*
X020087Y045699D01*
Y0444D02*
Y046034D01*
X023354D01*
Y04441D02*
Y046034D01*
X023354Y04441D02*
X023354Y04441D01*
X024663Y016194D02*
X026237D01*
X024663Y014206D02*
X026237D01*
X031879Y024936D02*
X033611D01*
Y022417D02*
Y024936D01*
X031879Y022417D02*
X033611D01*
X031879D02*
Y024936D01*
X031761Y025054D02*
X033729D01*
Y022298D02*
Y025054D01*
X031761Y022298D02*
X033729D01*
X031761D02*
Y025054D01*
X033139Y023361D02*
Y02344D01*
Y023361D02*
X033493D01*
Y023204D02*
Y023361D01*
X033139Y023204D02*
X033493D01*
X033139Y023046D02*
Y023204D01*
Y023046D02*
X033493D01*
Y022968D02*
Y023046D01*
X034162Y02218D02*
Y025172D01*
X031328Y02218D02*
X034162D01*
X031328D02*
Y023322D01*
Y025172D01*
X034162D01*
X031446D02*
X031524D01*
X031328Y024976D02*
X031524Y025172D01*
X031328Y024936D02*
Y024976D01*
X025913Y027544D02*
X027487D01*
X025913Y025556D02*
X027487D01*
D14*
X04222Y043871D02*
X041986D01*
X042103Y043754D02*
Y043987D01*
X02048Y044929D02*
X020714D01*
X020597Y045046D02*
Y044813D01*
D15*
X040084Y044385D02*
D03*
X022616Y044415D02*
D03*
M02*
