G04*
G04 #@! TF.GenerationSoftware,Altium Limited,Altium Designer,21.0.8 (223)*
G04*
G04 Layer_Color=128*
%FSTAX24Y24*%
%MOIN*%
G70*
G04*
G04 #@! TF.SameCoordinates,00D354F9-114D-4BFF-AAB9-25B0FB3EDDE6*
G04*
G04*
G04 #@! TF.FilePolarity,Positive*
G04*
G01*
G75*
%ADD21R,0.0551X0.0591*%
%ADD24R,0.0591X0.0551*%
%ADD25O,0.1400X0.0591*%
%ADD26R,0.1400X0.0591*%
%ADD28R,0.0669X0.0433*%
%ADD33R,0.0472X0.0551*%
%ADD35R,0.0551X0.0472*%
%ADD36R,0.0433X0.0669*%
%ADD37R,0.0591X0.1024*%
%ADD80R,0.0294X0.1024*%
%ADD81R,0.0394X0.1024*%
%ADD82R,0.0850X0.0421*%
%ADD84R,0.0315X0.1500*%
%ADD85R,0.1140X0.2130*%
%ADD86R,0.0575X0.0220*%
%ADD87R,0.0571X0.0236*%
%ADD88O,0.0591X0.1400*%
%ADD89R,0.0591X0.1400*%
%ADD90R,0.0610X0.0886*%
%ADD91R,0.0620X0.0210*%
%ADD92R,0.1024X0.0591*%
G36*
X048606Y038922D02*
X048075D01*
Y039572D01*
X048606D01*
Y038922D01*
D02*
G37*
G36*
X047811D02*
X04728D01*
Y039572D01*
X047811D01*
Y038922D01*
D02*
G37*
G36*
X047016D02*
X046484D01*
Y039572D01*
X047016D01*
Y038922D01*
D02*
G37*
G36*
X04622D02*
X045689D01*
Y039572D01*
X04622D01*
Y038922D01*
D02*
G37*
G36*
X045425D02*
X044894D01*
Y039572D01*
X045425D01*
Y038922D01*
D02*
G37*
G36*
X038456D02*
X037925D01*
Y039572D01*
X038456D01*
Y038922D01*
D02*
G37*
G36*
X037661D02*
X03713D01*
Y039572D01*
X037661D01*
Y038922D01*
D02*
G37*
G36*
X036866D02*
X036334D01*
Y039572D01*
X036866D01*
Y038922D01*
D02*
G37*
G36*
X03607D02*
X035539D01*
Y039572D01*
X03607D01*
Y038922D01*
D02*
G37*
G36*
X035275D02*
X034744D01*
Y039572D01*
X035275D01*
Y038922D01*
D02*
G37*
G36*
X028256D02*
X027725D01*
Y039572D01*
X028256D01*
Y038922D01*
D02*
G37*
G36*
X027461D02*
X02693D01*
Y039572D01*
X027461D01*
Y038922D01*
D02*
G37*
G36*
X026666D02*
X026134D01*
Y039572D01*
X026666D01*
Y038922D01*
D02*
G37*
G36*
X02587D02*
X025339D01*
Y039572D01*
X02587D01*
Y038922D01*
D02*
G37*
G36*
X025075D02*
X024544D01*
Y039572D01*
X025075D01*
Y038922D01*
D02*
G37*
G36*
X018106D02*
X017575D01*
Y039572D01*
X018106D01*
Y038922D01*
D02*
G37*
G36*
X017311D02*
X01678D01*
Y039572D01*
X017311D01*
Y038922D01*
D02*
G37*
G36*
X016516D02*
X015984D01*
Y039572D01*
X016516D01*
Y038922D01*
D02*
G37*
G36*
X01572D02*
X015189D01*
Y039572D01*
X01572D01*
Y038922D01*
D02*
G37*
G36*
X014925D02*
X014394D01*
Y039572D01*
X014925D01*
Y038922D01*
D02*
G37*
G36*
X048606Y037836D02*
X048075D01*
Y038485D01*
X048606D01*
Y037836D01*
D02*
G37*
G36*
X047811D02*
X04728D01*
Y038485D01*
X047811D01*
Y037836D01*
D02*
G37*
G36*
X047016D02*
X046484D01*
Y038485D01*
X047016D01*
Y037836D01*
D02*
G37*
G36*
X04622D02*
X045689D01*
Y038485D01*
X04622D01*
Y037836D01*
D02*
G37*
G36*
X045425D02*
X044894D01*
Y038485D01*
X045425D01*
Y037836D01*
D02*
G37*
G36*
X038456D02*
X037925D01*
Y038485D01*
X038456D01*
Y037836D01*
D02*
G37*
G36*
X037661D02*
X03713D01*
Y038485D01*
X037661D01*
Y037836D01*
D02*
G37*
G36*
X036866D02*
X036334D01*
Y038485D01*
X036866D01*
Y037836D01*
D02*
G37*
G36*
X03607D02*
X035539D01*
Y038485D01*
X03607D01*
Y037836D01*
D02*
G37*
G36*
X035275D02*
X034744D01*
Y038485D01*
X035275D01*
Y037836D01*
D02*
G37*
G36*
X028256D02*
X027725D01*
Y038485D01*
X028256D01*
Y037836D01*
D02*
G37*
G36*
X027461D02*
X02693D01*
Y038485D01*
X027461D01*
Y037836D01*
D02*
G37*
G36*
X026666D02*
X026134D01*
Y038485D01*
X026666D01*
Y037836D01*
D02*
G37*
G36*
X02587D02*
X025339D01*
Y038485D01*
X02587D01*
Y037836D01*
D02*
G37*
G36*
X025075D02*
X024544D01*
Y038485D01*
X025075D01*
Y037836D01*
D02*
G37*
G36*
X018106D02*
X017575D01*
Y038485D01*
X018106D01*
Y037836D01*
D02*
G37*
G36*
X017311D02*
X01678D01*
Y038485D01*
X017311D01*
Y037836D01*
D02*
G37*
G36*
X016516D02*
X015984D01*
Y038485D01*
X016516D01*
Y037836D01*
D02*
G37*
G36*
X01572D02*
X015189D01*
Y038485D01*
X01572D01*
Y037836D01*
D02*
G37*
G36*
X014925D02*
X014394D01*
Y038485D01*
X014925D01*
Y037836D01*
D02*
G37*
G36*
X048606Y036749D02*
X048075D01*
Y037399D01*
X048606D01*
Y036749D01*
D02*
G37*
G36*
X047811D02*
X04728D01*
Y037399D01*
X047811D01*
Y036749D01*
D02*
G37*
G36*
X047016D02*
X046484D01*
Y037399D01*
X047016D01*
Y036749D01*
D02*
G37*
G36*
X04622D02*
X045689D01*
Y037399D01*
X04622D01*
Y036749D01*
D02*
G37*
G36*
X045425D02*
X044894D01*
Y037399D01*
X045425D01*
Y036749D01*
D02*
G37*
G36*
X038456D02*
X037925D01*
Y037399D01*
X038456D01*
Y036749D01*
D02*
G37*
G36*
X037661D02*
X03713D01*
Y037399D01*
X037661D01*
Y036749D01*
D02*
G37*
G36*
X036866D02*
X036334D01*
Y037399D01*
X036866D01*
Y036749D01*
D02*
G37*
G36*
X03607D02*
X035539D01*
Y037399D01*
X03607D01*
Y036749D01*
D02*
G37*
G36*
X035275D02*
X034744D01*
Y037399D01*
X035275D01*
Y036749D01*
D02*
G37*
G36*
X028256D02*
X027725D01*
Y037399D01*
X028256D01*
Y036749D01*
D02*
G37*
G36*
X027461D02*
X02693D01*
Y037399D01*
X027461D01*
Y036749D01*
D02*
G37*
G36*
X026666D02*
X026134D01*
Y037399D01*
X026666D01*
Y036749D01*
D02*
G37*
G36*
X02587D02*
X025339D01*
Y037399D01*
X02587D01*
Y036749D01*
D02*
G37*
G36*
X025075D02*
X024544D01*
Y037399D01*
X025075D01*
Y036749D01*
D02*
G37*
G36*
X018106D02*
X017575D01*
Y037399D01*
X018106D01*
Y036749D01*
D02*
G37*
G36*
X017311D02*
X01678D01*
Y037399D01*
X017311D01*
Y036749D01*
D02*
G37*
G36*
X016516D02*
X015984D01*
Y037399D01*
X016516D01*
Y036749D01*
D02*
G37*
G36*
X01572D02*
X015189D01*
Y037399D01*
X01572D01*
Y036749D01*
D02*
G37*
G36*
X014925D02*
X014394D01*
Y037399D01*
X014925D01*
Y036749D01*
D02*
G37*
G36*
X02171Y026476D02*
X020686D01*
Y0275D01*
X02171D01*
Y026476D01*
D02*
G37*
G36*
X020214D02*
X01919D01*
Y0275D01*
X020214D01*
Y026476D01*
D02*
G37*
G36*
X02171Y02476D02*
X020686D01*
Y025784D01*
X02171D01*
Y02476D01*
D02*
G37*
G36*
X020214D02*
X01919D01*
Y025784D01*
X020214D01*
Y02476D01*
D02*
G37*
D21*
X041344Y0143D02*
D03*
X040556D02*
D03*
X028144Y01825D02*
D03*
X027356D02*
D03*
X015306Y01815D02*
D03*
X016094D02*
D03*
D24*
X02885Y022594D02*
D03*
Y021806D02*
D03*
X02325Y014444D02*
D03*
Y013656D02*
D03*
D25*
X02115Y03D02*
D03*
D26*
X01825D02*
D03*
D28*
X0208Y016119D02*
D03*
Y017182D02*
D03*
D33*
X027254Y0147D02*
D03*
X026546D02*
D03*
X026904Y01955D02*
D03*
X026196D02*
D03*
X015346Y0172D02*
D03*
X016054D02*
D03*
X015396Y0193D02*
D03*
X016104D02*
D03*
D35*
X02435Y014454D02*
D03*
Y013746D02*
D03*
X02385Y020904D02*
D03*
Y020196D02*
D03*
D36*
X014563Y02795D02*
D03*
X0135D02*
D03*
X013469Y02605D02*
D03*
X014532D02*
D03*
D37*
X028859Y01975D02*
D03*
X030041D02*
D03*
D80*
X031488Y0288D02*
D03*
X038188D02*
D03*
X023925D02*
D03*
X030625D02*
D03*
D81*
X036037Y03115D02*
D03*
X03525D02*
D03*
X034463D02*
D03*
X033675D02*
D03*
X032888D02*
D03*
X036825D02*
D03*
X028475D02*
D03*
X027687D02*
D03*
X0269D02*
D03*
X026113D02*
D03*
X025325D02*
D03*
X029262D02*
D03*
D82*
X016381Y024791D02*
D03*
Y025461D02*
D03*
Y02613D02*
D03*
Y026799D02*
D03*
Y027469D02*
D03*
D84*
X0264Y034357D02*
D03*
X0269D02*
D03*
X0274D02*
D03*
X0279D02*
D03*
X0259D02*
D03*
X0254D02*
D03*
X0249D02*
D03*
X01475D02*
D03*
X01525D02*
D03*
X01575D02*
D03*
X01775D02*
D03*
X01725D02*
D03*
X01675D02*
D03*
X01625D02*
D03*
X0351D02*
D03*
X0356D02*
D03*
X0361D02*
D03*
X0381D02*
D03*
X0376D02*
D03*
X0371D02*
D03*
X0366D02*
D03*
X04525D02*
D03*
X04575D02*
D03*
X04625D02*
D03*
X04825D02*
D03*
X04775D02*
D03*
X04725D02*
D03*
X04675D02*
D03*
D85*
X0184Y0214D02*
D03*
X0223D02*
D03*
D86*
X025577Y02045D02*
D03*
Y02095D02*
D03*
Y02145D02*
D03*
Y02195D02*
D03*
Y02245D02*
D03*
Y02295D02*
D03*
Y02345D02*
D03*
X027722D02*
D03*
Y02295D02*
D03*
Y02245D02*
D03*
Y02195D02*
D03*
Y02145D02*
D03*
Y02095D02*
D03*
Y02045D02*
D03*
D87*
X032663Y0161D02*
D03*
X031737Y016474D02*
D03*
Y015726D02*
D03*
D88*
X0186Y01495D02*
D03*
D89*
Y01785D02*
D03*
D90*
X02195Y017475D02*
D03*
Y0159D02*
D03*
X01635Y021463D02*
D03*
Y023037D02*
D03*
D91*
X025095Y0172D02*
D03*
Y0167D02*
D03*
Y0162D02*
D03*
Y0157D02*
D03*
X028005D02*
D03*
Y0162D02*
D03*
Y0167D02*
D03*
Y0172D02*
D03*
D92*
X02415Y022259D02*
D03*
Y023441D02*
D03*
M02*
