G04*
G04 #@! TF.GenerationSoftware,Altium Limited,Altium Designer,21.0.8 (223)*
G04*
G04 Layer_Color=2752767*
%FSTAX24Y24*%
%MOIN*%
G70*
G04*
G04 #@! TF.SameCoordinates,00D354F9-114D-4BFF-AAB9-25B0FB3EDDE6*
G04*
G04*
G04 #@! TF.FilePolarity,Positive*
G04*
G01*
G75*
%ADD106C,0.0020*%
%ADD107C,0.0027*%
D106*
X03912Y02677D02*
Y02693D01*
X03928D01*
Y02677D01*
X03912D01*
X03812D02*
Y02693D01*
X03828D01*
Y02677D01*
X03812D01*
X04112D02*
Y02693D01*
X04128D01*
Y02677D01*
X04112D01*
X04012D02*
Y02693D01*
X04028D01*
Y02677D01*
X04012D01*
X03257Y01742D02*
Y01758D01*
X03273D01*
Y01742D01*
X03257D01*
X03357D02*
Y01758D01*
X03373D01*
Y01742D01*
X03357D01*
X03157D02*
Y01758D01*
X03173D01*
Y01742D01*
X03157D01*
X01375Y029461D02*
X01367Y029621D01*
X01383D01*
X01375Y029461D01*
Y03102D02*
X01367Y03118D01*
X01383D01*
X01375Y03102D01*
X04147Y01317D02*
Y01333D01*
X04163D01*
Y01317D01*
X04147D01*
X03947D02*
Y01333D01*
X03963D01*
Y01317D01*
X03947D01*
X04047D02*
Y01333D01*
X04063D01*
Y01317D01*
X04047D01*
X03682D02*
Y01333D01*
X03698D01*
Y01317D01*
X03682D01*
X03482D02*
Y01333D01*
X03498D01*
Y01317D01*
X03482D01*
X03582D02*
Y01333D01*
X03598D01*
Y01317D01*
X03582D01*
X04552Y02227D02*
Y02243D01*
X04568D01*
Y02227D01*
X04552D01*
Y02327D02*
Y02343D01*
X04568D01*
Y02327D01*
X04552D01*
Y02427D02*
Y02443D01*
X04568D01*
Y02427D01*
X04552D01*
Y02027D02*
Y02043D01*
X04568D01*
Y02027D01*
X04552D01*
Y02127D02*
Y02143D01*
X04568D01*
Y02127D01*
X04552D01*
Y01827D02*
Y01843D01*
X04568D01*
Y01827D01*
X04552D01*
Y01927D02*
Y01943D01*
X04568D01*
Y01927D01*
X04552D01*
Y01727D02*
Y01743D01*
X04568D01*
Y01727D01*
X04552D01*
X0132Y02252D02*
X01324Y02256D01*
X01328D01*
X01324Y0226D01*
X01328Y02264D01*
X01324D01*
X0132Y02268D01*
X01316Y02264D01*
X01312D01*
X01316Y0226D01*
X01312Y02256D01*
X01316D01*
X0132Y02252D01*
Y02152D02*
X01324Y02156D01*
X01328D01*
X01324Y0216D01*
X01328Y02164D01*
X01324D01*
X0132Y02168D01*
X01316Y02164D01*
X01312D01*
X01316Y0216D01*
X01312Y02156D01*
X01316D01*
X0132Y02152D01*
X03202Y02007D02*
Y02023D01*
X03218D01*
Y02007D01*
X03202D01*
Y02107D02*
Y02123D01*
X03218D01*
Y02107D01*
X03202D01*
X03257Y01852D02*
Y01868D01*
X03273D01*
Y01852D01*
X03257D01*
X03357D02*
Y01868D01*
X03373D01*
Y01852D01*
X03357D01*
X03157D02*
Y01868D01*
X03173D01*
Y01852D01*
X03157D01*
X01352Y04487D02*
X01356Y04495D01*
X01352Y04503D01*
X0136Y04499D01*
X01368Y04503D01*
X01364Y04495D01*
X01368Y04487D01*
X0136Y04491D01*
X01352Y04487D01*
X04927D02*
X04931Y04495D01*
X04927Y04503D01*
X04935Y04499D01*
X04943Y04503D01*
X04939Y04495D01*
X04943Y04487D01*
X04935Y04491D01*
X04927Y04487D01*
X04887Y01422D02*
X04891Y0143D01*
X04887Y01438D01*
X04895Y01434D01*
X04903Y01438D01*
X04899Y0143D01*
X04903Y01422D01*
X04895Y01426D01*
X04887Y01422D01*
X01392D02*
X01396Y0143D01*
X01392Y01438D01*
X014Y01434D01*
X01408Y01438D01*
X01404Y0143D01*
X01408Y01422D01*
X014Y01426D01*
X01392Y01422D01*
X04046Y030717D02*
Y030677D01*
X04054D01*
Y030717D01*
X04058D01*
Y030797D01*
X04054D01*
Y030837D01*
X04046D01*
Y030797D01*
X04042D01*
Y030717D01*
X04046D01*
X03366Y030027D02*
Y029987D01*
X03374D01*
Y030027D01*
X03378D01*
Y030107D01*
X03374D01*
Y030147D01*
X03366D01*
Y030107D01*
X03362D01*
Y030027D01*
X03366D01*
X03441D02*
Y029987D01*
X03449D01*
Y030027D01*
X03453D01*
Y030107D01*
X03449D01*
Y030147D01*
X03441D01*
Y030107D01*
X03437D01*
Y030027D01*
X03441D01*
X02466Y02973D02*
Y02969D01*
X02474D01*
Y02973D01*
X02478D01*
Y02981D01*
X02474D01*
Y02985D01*
X02466D01*
Y02981D01*
X02462D01*
Y02973D01*
X02466D01*
X03521Y030027D02*
Y029987D01*
X03529D01*
Y030027D01*
X03533D01*
Y030107D01*
X03529D01*
Y030147D01*
X03521D01*
Y030107D01*
X03517D01*
Y030027D01*
X03521D01*
X04116Y03066D02*
Y03062D01*
X04124D01*
Y03066D01*
X04128D01*
Y03074D01*
X04124D01*
Y03078D01*
X04116D01*
Y03074D01*
X04112D01*
Y03066D01*
X04116D01*
X04271Y03076D02*
Y03072D01*
X04279D01*
Y03076D01*
X04283D01*
Y03084D01*
X04279D01*
Y03088D01*
X04271D01*
Y03084D01*
X04267D01*
Y03076D01*
X04271D01*
X04196D02*
Y03072D01*
X04204D01*
Y03076D01*
X04208D01*
Y03084D01*
X04204D01*
Y03088D01*
X04196D01*
Y03084D01*
X04192D01*
Y03076D01*
X04196D01*
X04511Y03946D02*
Y03942D01*
X04519D01*
Y03946D01*
X04523D01*
Y03954D01*
X04519D01*
Y03958D01*
X04511D01*
Y03954D01*
X04507D01*
Y03946D01*
X04511D01*
X04556D02*
Y03942D01*
X04564D01*
Y03946D01*
X04568D01*
Y03954D01*
X04564D01*
Y03958D01*
X04556D01*
Y03954D01*
X04552D01*
Y03946D01*
X04556D01*
X04601D02*
Y03942D01*
X04609D01*
Y03946D01*
X04613D01*
Y03954D01*
X04609D01*
Y03958D01*
X04601D01*
Y03954D01*
X04597D01*
Y03946D01*
X04601D01*
X04646D02*
Y03942D01*
X04654D01*
Y03946D01*
X04658D01*
Y03954D01*
X04654D01*
Y03958D01*
X04646D01*
Y03954D01*
X04642D01*
Y03946D01*
X04646D01*
X04831D02*
Y03942D01*
X04839D01*
Y03946D01*
X04843D01*
Y03954D01*
X04839D01*
Y03958D01*
X04831D01*
Y03954D01*
X04827D01*
Y03946D01*
X04831D01*
X04786D02*
Y03942D01*
X04794D01*
Y03946D01*
X04798D01*
Y03954D01*
X04794D01*
Y03958D01*
X04786D01*
Y03954D01*
X04782D01*
Y03946D01*
X04786D01*
X04741D02*
Y03942D01*
X04749D01*
Y03946D01*
X04753D01*
Y03954D01*
X04749D01*
Y03958D01*
X04741D01*
Y03954D01*
X04737D01*
Y03946D01*
X04741D01*
X04696D02*
Y03942D01*
X04704D01*
Y03946D01*
X04708D01*
Y03954D01*
X04704D01*
Y03958D01*
X04696D01*
Y03954D01*
X04692D01*
Y03946D01*
X04696D01*
X04646Y03906D02*
Y03902D01*
X04654D01*
Y03906D01*
X04658D01*
Y03914D01*
X04654D01*
Y03918D01*
X04646D01*
Y03914D01*
X04642D01*
Y03906D01*
X04646D01*
X04601D02*
Y03902D01*
X04609D01*
Y03906D01*
X04613D01*
Y03914D01*
X04609D01*
Y03918D01*
X04601D01*
Y03914D01*
X04597D01*
Y03906D01*
X04601D01*
X04556D02*
Y03902D01*
X04564D01*
Y03906D01*
X04568D01*
Y03914D01*
X04564D01*
Y03918D01*
X04556D01*
Y03914D01*
X04552D01*
Y03906D01*
X04556D01*
X04511D02*
Y03902D01*
X04519D01*
Y03906D01*
X04523D01*
Y03914D01*
X04519D01*
Y03918D01*
X04511D01*
Y03914D01*
X04507D01*
Y03906D01*
X04511D01*
X04831D02*
Y03902D01*
X04839D01*
Y03906D01*
X04843D01*
Y03914D01*
X04839D01*
Y03918D01*
X04831D01*
Y03914D01*
X04827D01*
Y03906D01*
X04831D01*
X04786D02*
Y03902D01*
X04794D01*
Y03906D01*
X04798D01*
Y03914D01*
X04794D01*
Y03918D01*
X04786D01*
Y03914D01*
X04782D01*
Y03906D01*
X04786D01*
X04741D02*
Y03902D01*
X04749D01*
Y03906D01*
X04753D01*
Y03914D01*
X04749D01*
Y03918D01*
X04741D01*
Y03914D01*
X04737D01*
Y03906D01*
X04741D01*
X04696D02*
Y03902D01*
X04704D01*
Y03906D01*
X04708D01*
Y03914D01*
X04704D01*
Y03918D01*
X04696D01*
Y03914D01*
X04692D01*
Y03906D01*
X04696D01*
X04831Y03866D02*
Y03862D01*
X04839D01*
Y03866D01*
X04843D01*
Y03874D01*
X04839D01*
Y03878D01*
X04831D01*
Y03874D01*
X04827D01*
Y03866D01*
X04831D01*
X04786D02*
Y03862D01*
X04794D01*
Y03866D01*
X04798D01*
Y03874D01*
X04794D01*
Y03878D01*
X04786D01*
Y03874D01*
X04782D01*
Y03866D01*
X04786D01*
X04741D02*
Y03862D01*
X04749D01*
Y03866D01*
X04753D01*
Y03874D01*
X04749D01*
Y03878D01*
X04741D01*
Y03874D01*
X04737D01*
Y03866D01*
X04741D01*
X04696D02*
Y03862D01*
X04704D01*
Y03866D01*
X04708D01*
Y03874D01*
X04704D01*
Y03878D01*
X04696D01*
Y03874D01*
X04692D01*
Y03866D01*
X04696D01*
X04646D02*
Y03862D01*
X04654D01*
Y03866D01*
X04658D01*
Y03874D01*
X04654D01*
Y03878D01*
X04646D01*
Y03874D01*
X04642D01*
Y03866D01*
X04646D01*
X04601D02*
Y03862D01*
X04609D01*
Y03866D01*
X04613D01*
Y03874D01*
X04609D01*
Y03878D01*
X04601D01*
Y03874D01*
X04597D01*
Y03866D01*
X04601D01*
X04556D02*
Y03862D01*
X04564D01*
Y03866D01*
X04568D01*
Y03874D01*
X04564D01*
Y03878D01*
X04556D01*
Y03874D01*
X04552D01*
Y03866D01*
X04556D01*
X04511D02*
Y03862D01*
X04519D01*
Y03866D01*
X04523D01*
Y03874D01*
X04519D01*
Y03878D01*
X04511D01*
Y03874D01*
X04507D01*
Y03866D01*
X04511D01*
X04646Y03826D02*
Y03822D01*
X04654D01*
Y03826D01*
X04658D01*
Y03834D01*
X04654D01*
Y03838D01*
X04646D01*
Y03834D01*
X04642D01*
Y03826D01*
X04646D01*
X04601D02*
Y03822D01*
X04609D01*
Y03826D01*
X04613D01*
Y03834D01*
X04609D01*
Y03838D01*
X04601D01*
Y03834D01*
X04597D01*
Y03826D01*
X04601D01*
X04556D02*
Y03822D01*
X04564D01*
Y03826D01*
X04568D01*
Y03834D01*
X04564D01*
Y03838D01*
X04556D01*
Y03834D01*
X04552D01*
Y03826D01*
X04556D01*
X04511D02*
Y03822D01*
X04519D01*
Y03826D01*
X04523D01*
Y03834D01*
X04519D01*
Y03838D01*
X04511D01*
Y03834D01*
X04507D01*
Y03826D01*
X04511D01*
X04831D02*
Y03822D01*
X04839D01*
Y03826D01*
X04843D01*
Y03834D01*
X04839D01*
Y03838D01*
X04831D01*
Y03834D01*
X04827D01*
Y03826D01*
X04831D01*
X04786D02*
Y03822D01*
X04794D01*
Y03826D01*
X04798D01*
Y03834D01*
X04794D01*
Y03838D01*
X04786D01*
Y03834D01*
X04782D01*
Y03826D01*
X04786D01*
X04741D02*
Y03822D01*
X04749D01*
Y03826D01*
X04753D01*
Y03834D01*
X04749D01*
Y03838D01*
X04741D01*
Y03834D01*
X04737D01*
Y03826D01*
X04741D01*
X04696D02*
Y03822D01*
X04704D01*
Y03826D01*
X04708D01*
Y03834D01*
X04704D01*
Y03838D01*
X04696D01*
Y03834D01*
X04692D01*
Y03826D01*
X04696D01*
X04646Y03786D02*
Y03782D01*
X04654D01*
Y03786D01*
X04658D01*
Y03794D01*
X04654D01*
Y03798D01*
X04646D01*
Y03794D01*
X04642D01*
Y03786D01*
X04646D01*
X04601D02*
Y03782D01*
X04609D01*
Y03786D01*
X04613D01*
Y03794D01*
X04609D01*
Y03798D01*
X04601D01*
Y03794D01*
X04597D01*
Y03786D01*
X04601D01*
X04556D02*
Y03782D01*
X04564D01*
Y03786D01*
X04568D01*
Y03794D01*
X04564D01*
Y03798D01*
X04556D01*
Y03794D01*
X04552D01*
Y03786D01*
X04556D01*
X04511D02*
Y03782D01*
X04519D01*
Y03786D01*
X04523D01*
Y03794D01*
X04519D01*
Y03798D01*
X04511D01*
Y03794D01*
X04507D01*
Y03786D01*
X04511D01*
X04831D02*
Y03782D01*
X04839D01*
Y03786D01*
X04843D01*
Y03794D01*
X04839D01*
Y03798D01*
X04831D01*
Y03794D01*
X04827D01*
Y03786D01*
X04831D01*
X04786D02*
Y03782D01*
X04794D01*
Y03786D01*
X04798D01*
Y03794D01*
X04794D01*
Y03798D01*
X04786D01*
Y03794D01*
X04782D01*
Y03786D01*
X04786D01*
X04741D02*
Y03782D01*
X04749D01*
Y03786D01*
X04753D01*
Y03794D01*
X04749D01*
Y03798D01*
X04741D01*
Y03794D01*
X04737D01*
Y03786D01*
X04741D01*
X04696D02*
Y03782D01*
X04704D01*
Y03786D01*
X04708D01*
Y03794D01*
X04704D01*
Y03798D01*
X04696D01*
Y03794D01*
X04692D01*
Y03786D01*
X04696D01*
X04831Y03741D02*
Y03737D01*
X04839D01*
Y03741D01*
X04843D01*
Y03749D01*
X04839D01*
Y03753D01*
X04831D01*
Y03749D01*
X04827D01*
Y03741D01*
X04831D01*
X04786D02*
Y03737D01*
X04794D01*
Y03741D01*
X04798D01*
Y03749D01*
X04794D01*
Y03753D01*
X04786D01*
Y03749D01*
X04782D01*
Y03741D01*
X04786D01*
X04741D02*
Y03737D01*
X04749D01*
Y03741D01*
X04753D01*
Y03749D01*
X04749D01*
Y03753D01*
X04741D01*
Y03749D01*
X04737D01*
Y03741D01*
X04741D01*
X04696D02*
Y03737D01*
X04704D01*
Y03741D01*
X04708D01*
Y03749D01*
X04704D01*
Y03753D01*
X04696D01*
Y03749D01*
X04692D01*
Y03741D01*
X04696D01*
X04646D02*
Y03737D01*
X04654D01*
Y03741D01*
X04658D01*
Y03749D01*
X04654D01*
Y03753D01*
X04646D01*
Y03749D01*
X04642D01*
Y03741D01*
X04646D01*
X04601D02*
Y03737D01*
X04609D01*
Y03741D01*
X04613D01*
Y03749D01*
X04609D01*
Y03753D01*
X04601D01*
Y03749D01*
X04597D01*
Y03741D01*
X04601D01*
X04556D02*
Y03737D01*
X04564D01*
Y03741D01*
X04568D01*
Y03749D01*
X04564D01*
Y03753D01*
X04556D01*
Y03749D01*
X04552D01*
Y03741D01*
X04556D01*
X04511D02*
Y03737D01*
X04519D01*
Y03741D01*
X04523D01*
Y03749D01*
X04519D01*
Y03753D01*
X04511D01*
Y03749D01*
X04507D01*
Y03741D01*
X04511D01*
X04646Y03696D02*
Y03692D01*
X04654D01*
Y03696D01*
X04658D01*
Y03704D01*
X04654D01*
Y03708D01*
X04646D01*
Y03704D01*
X04642D01*
Y03696D01*
X04646D01*
X04601D02*
Y03692D01*
X04609D01*
Y03696D01*
X04613D01*
Y03704D01*
X04609D01*
Y03708D01*
X04601D01*
Y03704D01*
X04597D01*
Y03696D01*
X04601D01*
X04556D02*
Y03692D01*
X04564D01*
Y03696D01*
X04568D01*
Y03704D01*
X04564D01*
Y03708D01*
X04556D01*
Y03704D01*
X04552D01*
Y03696D01*
X04556D01*
X04511D02*
Y03692D01*
X04519D01*
Y03696D01*
X04523D01*
Y03704D01*
X04519D01*
Y03708D01*
X04511D01*
Y03704D01*
X04507D01*
Y03696D01*
X04511D01*
X04831D02*
Y03692D01*
X04839D01*
Y03696D01*
X04843D01*
Y03704D01*
X04839D01*
Y03708D01*
X04831D01*
Y03704D01*
X04827D01*
Y03696D01*
X04831D01*
X04786D02*
Y03692D01*
X04794D01*
Y03696D01*
X04798D01*
Y03704D01*
X04794D01*
Y03708D01*
X04786D01*
Y03704D01*
X04782D01*
Y03696D01*
X04786D01*
X04741D02*
Y03692D01*
X04749D01*
Y03696D01*
X04753D01*
Y03704D01*
X04749D01*
Y03708D01*
X04741D01*
Y03704D01*
X04737D01*
Y03696D01*
X04741D01*
X04696D02*
Y03692D01*
X04704D01*
Y03696D01*
X04708D01*
Y03704D01*
X04704D01*
Y03708D01*
X04696D01*
Y03704D01*
X04692D01*
Y03696D01*
X04696D01*
X03496Y03946D02*
Y03942D01*
X03504D01*
Y03946D01*
X03508D01*
Y03954D01*
X03504D01*
Y03958D01*
X03496D01*
Y03954D01*
X03492D01*
Y03946D01*
X03496D01*
X03541D02*
Y03942D01*
X03549D01*
Y03946D01*
X03553D01*
Y03954D01*
X03549D01*
Y03958D01*
X03541D01*
Y03954D01*
X03537D01*
Y03946D01*
X03541D01*
X03586D02*
Y03942D01*
X03594D01*
Y03946D01*
X03598D01*
Y03954D01*
X03594D01*
Y03958D01*
X03586D01*
Y03954D01*
X03582D01*
Y03946D01*
X03586D01*
X03631D02*
Y03942D01*
X03639D01*
Y03946D01*
X03643D01*
Y03954D01*
X03639D01*
Y03958D01*
X03631D01*
Y03954D01*
X03627D01*
Y03946D01*
X03631D01*
X03816D02*
Y03942D01*
X03824D01*
Y03946D01*
X03828D01*
Y03954D01*
X03824D01*
Y03958D01*
X03816D01*
Y03954D01*
X03812D01*
Y03946D01*
X03816D01*
X03771D02*
Y03942D01*
X03779D01*
Y03946D01*
X03783D01*
Y03954D01*
X03779D01*
Y03958D01*
X03771D01*
Y03954D01*
X03767D01*
Y03946D01*
X03771D01*
X03726D02*
Y03942D01*
X03734D01*
Y03946D01*
X03738D01*
Y03954D01*
X03734D01*
Y03958D01*
X03726D01*
Y03954D01*
X03722D01*
Y03946D01*
X03726D01*
X03681D02*
Y03942D01*
X03689D01*
Y03946D01*
X03693D01*
Y03954D01*
X03689D01*
Y03958D01*
X03681D01*
Y03954D01*
X03677D01*
Y03946D01*
X03681D01*
X03631Y03906D02*
Y03902D01*
X03639D01*
Y03906D01*
X03643D01*
Y03914D01*
X03639D01*
Y03918D01*
X03631D01*
Y03914D01*
X03627D01*
Y03906D01*
X03631D01*
X03586D02*
Y03902D01*
X03594D01*
Y03906D01*
X03598D01*
Y03914D01*
X03594D01*
Y03918D01*
X03586D01*
Y03914D01*
X03582D01*
Y03906D01*
X03586D01*
X03541D02*
Y03902D01*
X03549D01*
Y03906D01*
X03553D01*
Y03914D01*
X03549D01*
Y03918D01*
X03541D01*
Y03914D01*
X03537D01*
Y03906D01*
X03541D01*
X03496D02*
Y03902D01*
X03504D01*
Y03906D01*
X03508D01*
Y03914D01*
X03504D01*
Y03918D01*
X03496D01*
Y03914D01*
X03492D01*
Y03906D01*
X03496D01*
X03816D02*
Y03902D01*
X03824D01*
Y03906D01*
X03828D01*
Y03914D01*
X03824D01*
Y03918D01*
X03816D01*
Y03914D01*
X03812D01*
Y03906D01*
X03816D01*
X03771D02*
Y03902D01*
X03779D01*
Y03906D01*
X03783D01*
Y03914D01*
X03779D01*
Y03918D01*
X03771D01*
Y03914D01*
X03767D01*
Y03906D01*
X03771D01*
X03726D02*
Y03902D01*
X03734D01*
Y03906D01*
X03738D01*
Y03914D01*
X03734D01*
Y03918D01*
X03726D01*
Y03914D01*
X03722D01*
Y03906D01*
X03726D01*
X03681D02*
Y03902D01*
X03689D01*
Y03906D01*
X03693D01*
Y03914D01*
X03689D01*
Y03918D01*
X03681D01*
Y03914D01*
X03677D01*
Y03906D01*
X03681D01*
X03816Y03866D02*
Y03862D01*
X03824D01*
Y03866D01*
X03828D01*
Y03874D01*
X03824D01*
Y03878D01*
X03816D01*
Y03874D01*
X03812D01*
Y03866D01*
X03816D01*
X03771D02*
Y03862D01*
X03779D01*
Y03866D01*
X03783D01*
Y03874D01*
X03779D01*
Y03878D01*
X03771D01*
Y03874D01*
X03767D01*
Y03866D01*
X03771D01*
X03726D02*
Y03862D01*
X03734D01*
Y03866D01*
X03738D01*
Y03874D01*
X03734D01*
Y03878D01*
X03726D01*
Y03874D01*
X03722D01*
Y03866D01*
X03726D01*
X03681D02*
Y03862D01*
X03689D01*
Y03866D01*
X03693D01*
Y03874D01*
X03689D01*
Y03878D01*
X03681D01*
Y03874D01*
X03677D01*
Y03866D01*
X03681D01*
X03631D02*
Y03862D01*
X03639D01*
Y03866D01*
X03643D01*
Y03874D01*
X03639D01*
Y03878D01*
X03631D01*
Y03874D01*
X03627D01*
Y03866D01*
X03631D01*
X03586D02*
Y03862D01*
X03594D01*
Y03866D01*
X03598D01*
Y03874D01*
X03594D01*
Y03878D01*
X03586D01*
Y03874D01*
X03582D01*
Y03866D01*
X03586D01*
X03541D02*
Y03862D01*
X03549D01*
Y03866D01*
X03553D01*
Y03874D01*
X03549D01*
Y03878D01*
X03541D01*
Y03874D01*
X03537D01*
Y03866D01*
X03541D01*
X03496D02*
Y03862D01*
X03504D01*
Y03866D01*
X03508D01*
Y03874D01*
X03504D01*
Y03878D01*
X03496D01*
Y03874D01*
X03492D01*
Y03866D01*
X03496D01*
X03631Y03826D02*
Y03822D01*
X03639D01*
Y03826D01*
X03643D01*
Y03834D01*
X03639D01*
Y03838D01*
X03631D01*
Y03834D01*
X03627D01*
Y03826D01*
X03631D01*
X03586D02*
Y03822D01*
X03594D01*
Y03826D01*
X03598D01*
Y03834D01*
X03594D01*
Y03838D01*
X03586D01*
Y03834D01*
X03582D01*
Y03826D01*
X03586D01*
X03541D02*
Y03822D01*
X03549D01*
Y03826D01*
X03553D01*
Y03834D01*
X03549D01*
Y03838D01*
X03541D01*
Y03834D01*
X03537D01*
Y03826D01*
X03541D01*
X03496D02*
Y03822D01*
X03504D01*
Y03826D01*
X03508D01*
Y03834D01*
X03504D01*
Y03838D01*
X03496D01*
Y03834D01*
X03492D01*
Y03826D01*
X03496D01*
X03816D02*
Y03822D01*
X03824D01*
Y03826D01*
X03828D01*
Y03834D01*
X03824D01*
Y03838D01*
X03816D01*
Y03834D01*
X03812D01*
Y03826D01*
X03816D01*
X03771D02*
Y03822D01*
X03779D01*
Y03826D01*
X03783D01*
Y03834D01*
X03779D01*
Y03838D01*
X03771D01*
Y03834D01*
X03767D01*
Y03826D01*
X03771D01*
X03726D02*
Y03822D01*
X03734D01*
Y03826D01*
X03738D01*
Y03834D01*
X03734D01*
Y03838D01*
X03726D01*
Y03834D01*
X03722D01*
Y03826D01*
X03726D01*
X03681D02*
Y03822D01*
X03689D01*
Y03826D01*
X03693D01*
Y03834D01*
X03689D01*
Y03838D01*
X03681D01*
Y03834D01*
X03677D01*
Y03826D01*
X03681D01*
X03631Y03786D02*
Y03782D01*
X03639D01*
Y03786D01*
X03643D01*
Y03794D01*
X03639D01*
Y03798D01*
X03631D01*
Y03794D01*
X03627D01*
Y03786D01*
X03631D01*
X03586D02*
Y03782D01*
X03594D01*
Y03786D01*
X03598D01*
Y03794D01*
X03594D01*
Y03798D01*
X03586D01*
Y03794D01*
X03582D01*
Y03786D01*
X03586D01*
X03541D02*
Y03782D01*
X03549D01*
Y03786D01*
X03553D01*
Y03794D01*
X03549D01*
Y03798D01*
X03541D01*
Y03794D01*
X03537D01*
Y03786D01*
X03541D01*
X03496D02*
Y03782D01*
X03504D01*
Y03786D01*
X03508D01*
Y03794D01*
X03504D01*
Y03798D01*
X03496D01*
Y03794D01*
X03492D01*
Y03786D01*
X03496D01*
X03816D02*
Y03782D01*
X03824D01*
Y03786D01*
X03828D01*
Y03794D01*
X03824D01*
Y03798D01*
X03816D01*
Y03794D01*
X03812D01*
Y03786D01*
X03816D01*
X03771D02*
Y03782D01*
X03779D01*
Y03786D01*
X03783D01*
Y03794D01*
X03779D01*
Y03798D01*
X03771D01*
Y03794D01*
X03767D01*
Y03786D01*
X03771D01*
X03726D02*
Y03782D01*
X03734D01*
Y03786D01*
X03738D01*
Y03794D01*
X03734D01*
Y03798D01*
X03726D01*
Y03794D01*
X03722D01*
Y03786D01*
X03726D01*
X03681D02*
Y03782D01*
X03689D01*
Y03786D01*
X03693D01*
Y03794D01*
X03689D01*
Y03798D01*
X03681D01*
Y03794D01*
X03677D01*
Y03786D01*
X03681D01*
X03816Y03741D02*
Y03737D01*
X03824D01*
Y03741D01*
X03828D01*
Y03749D01*
X03824D01*
Y03753D01*
X03816D01*
Y03749D01*
X03812D01*
Y03741D01*
X03816D01*
X03771D02*
Y03737D01*
X03779D01*
Y03741D01*
X03783D01*
Y03749D01*
X03779D01*
Y03753D01*
X03771D01*
Y03749D01*
X03767D01*
Y03741D01*
X03771D01*
X03726D02*
Y03737D01*
X03734D01*
Y03741D01*
X03738D01*
Y03749D01*
X03734D01*
Y03753D01*
X03726D01*
Y03749D01*
X03722D01*
Y03741D01*
X03726D01*
X03681D02*
Y03737D01*
X03689D01*
Y03741D01*
X03693D01*
Y03749D01*
X03689D01*
Y03753D01*
X03681D01*
Y03749D01*
X03677D01*
Y03741D01*
X03681D01*
X03631D02*
Y03737D01*
X03639D01*
Y03741D01*
X03643D01*
Y03749D01*
X03639D01*
Y03753D01*
X03631D01*
Y03749D01*
X03627D01*
Y03741D01*
X03631D01*
X03586D02*
Y03737D01*
X03594D01*
Y03741D01*
X03598D01*
Y03749D01*
X03594D01*
Y03753D01*
X03586D01*
Y03749D01*
X03582D01*
Y03741D01*
X03586D01*
X03541D02*
Y03737D01*
X03549D01*
Y03741D01*
X03553D01*
Y03749D01*
X03549D01*
Y03753D01*
X03541D01*
Y03749D01*
X03537D01*
Y03741D01*
X03541D01*
X03496D02*
Y03737D01*
X03504D01*
Y03741D01*
X03508D01*
Y03749D01*
X03504D01*
Y03753D01*
X03496D01*
Y03749D01*
X03492D01*
Y03741D01*
X03496D01*
X03631Y03696D02*
Y03692D01*
X03639D01*
Y03696D01*
X03643D01*
Y03704D01*
X03639D01*
Y03708D01*
X03631D01*
Y03704D01*
X03627D01*
Y03696D01*
X03631D01*
X03586D02*
Y03692D01*
X03594D01*
Y03696D01*
X03598D01*
Y03704D01*
X03594D01*
Y03708D01*
X03586D01*
Y03704D01*
X03582D01*
Y03696D01*
X03586D01*
X03541D02*
Y03692D01*
X03549D01*
Y03696D01*
X03553D01*
Y03704D01*
X03549D01*
Y03708D01*
X03541D01*
Y03704D01*
X03537D01*
Y03696D01*
X03541D01*
X03496D02*
Y03692D01*
X03504D01*
Y03696D01*
X03508D01*
Y03704D01*
X03504D01*
Y03708D01*
X03496D01*
Y03704D01*
X03492D01*
Y03696D01*
X03496D01*
X03816D02*
Y03692D01*
X03824D01*
Y03696D01*
X03828D01*
Y03704D01*
X03824D01*
Y03708D01*
X03816D01*
Y03704D01*
X03812D01*
Y03696D01*
X03816D01*
X03771D02*
Y03692D01*
X03779D01*
Y03696D01*
X03783D01*
Y03704D01*
X03779D01*
Y03708D01*
X03771D01*
Y03704D01*
X03767D01*
Y03696D01*
X03771D01*
X03726D02*
Y03692D01*
X03734D01*
Y03696D01*
X03738D01*
Y03704D01*
X03734D01*
Y03708D01*
X03726D01*
Y03704D01*
X03722D01*
Y03696D01*
X03726D01*
X03681D02*
Y03692D01*
X03689D01*
Y03696D01*
X03693D01*
Y03704D01*
X03689D01*
Y03708D01*
X03681D01*
Y03704D01*
X03677D01*
Y03696D01*
X03681D01*
X02471Y03941D02*
Y03937D01*
X02479D01*
Y03941D01*
X02483D01*
Y03949D01*
X02479D01*
Y03953D01*
X02471D01*
Y03949D01*
X02467D01*
Y03941D01*
X02471D01*
X02516D02*
Y03937D01*
X02524D01*
Y03941D01*
X02528D01*
Y03949D01*
X02524D01*
Y03953D01*
X02516D01*
Y03949D01*
X02512D01*
Y03941D01*
X02516D01*
X02561D02*
Y03937D01*
X02569D01*
Y03941D01*
X02573D01*
Y03949D01*
X02569D01*
Y03953D01*
X02561D01*
Y03949D01*
X02557D01*
Y03941D01*
X02561D01*
X02606D02*
Y03937D01*
X02614D01*
Y03941D01*
X02618D01*
Y03949D01*
X02614D01*
Y03953D01*
X02606D01*
Y03949D01*
X02602D01*
Y03941D01*
X02606D01*
X02791D02*
Y03937D01*
X02799D01*
Y03941D01*
X02803D01*
Y03949D01*
X02799D01*
Y03953D01*
X02791D01*
Y03949D01*
X02787D01*
Y03941D01*
X02791D01*
X02746D02*
Y03937D01*
X02754D01*
Y03941D01*
X02758D01*
Y03949D01*
X02754D01*
Y03953D01*
X02746D01*
Y03949D01*
X02742D01*
Y03941D01*
X02746D01*
X02701D02*
Y03937D01*
X02709D01*
Y03941D01*
X02713D01*
Y03949D01*
X02709D01*
Y03953D01*
X02701D01*
Y03949D01*
X02697D01*
Y03941D01*
X02701D01*
X02656D02*
Y03937D01*
X02664D01*
Y03941D01*
X02668D01*
Y03949D01*
X02664D01*
Y03953D01*
X02656D01*
Y03949D01*
X02652D01*
Y03941D01*
X02656D01*
X02606Y03901D02*
Y03897D01*
X02614D01*
Y03901D01*
X02618D01*
Y03909D01*
X02614D01*
Y03913D01*
X02606D01*
Y03909D01*
X02602D01*
Y03901D01*
X02606D01*
X02561D02*
Y03897D01*
X02569D01*
Y03901D01*
X02573D01*
Y03909D01*
X02569D01*
Y03913D01*
X02561D01*
Y03909D01*
X02557D01*
Y03901D01*
X02561D01*
X02516D02*
Y03897D01*
X02524D01*
Y03901D01*
X02528D01*
Y03909D01*
X02524D01*
Y03913D01*
X02516D01*
Y03909D01*
X02512D01*
Y03901D01*
X02516D01*
X02471D02*
Y03897D01*
X02479D01*
Y03901D01*
X02483D01*
Y03909D01*
X02479D01*
Y03913D01*
X02471D01*
Y03909D01*
X02467D01*
Y03901D01*
X02471D01*
X02791D02*
Y03897D01*
X02799D01*
Y03901D01*
X02803D01*
Y03909D01*
X02799D01*
Y03913D01*
X02791D01*
Y03909D01*
X02787D01*
Y03901D01*
X02791D01*
X02746D02*
Y03897D01*
X02754D01*
Y03901D01*
X02758D01*
Y03909D01*
X02754D01*
Y03913D01*
X02746D01*
Y03909D01*
X02742D01*
Y03901D01*
X02746D01*
X02701D02*
Y03897D01*
X02709D01*
Y03901D01*
X02713D01*
Y03909D01*
X02709D01*
Y03913D01*
X02701D01*
Y03909D01*
X02697D01*
Y03901D01*
X02701D01*
X02656D02*
Y03897D01*
X02664D01*
Y03901D01*
X02668D01*
Y03909D01*
X02664D01*
Y03913D01*
X02656D01*
Y03909D01*
X02652D01*
Y03901D01*
X02656D01*
X02791Y03861D02*
Y03857D01*
X02799D01*
Y03861D01*
X02803D01*
Y03869D01*
X02799D01*
Y03873D01*
X02791D01*
Y03869D01*
X02787D01*
Y03861D01*
X02791D01*
X02746D02*
Y03857D01*
X02754D01*
Y03861D01*
X02758D01*
Y03869D01*
X02754D01*
Y03873D01*
X02746D01*
Y03869D01*
X02742D01*
Y03861D01*
X02746D01*
X02701D02*
Y03857D01*
X02709D01*
Y03861D01*
X02713D01*
Y03869D01*
X02709D01*
Y03873D01*
X02701D01*
Y03869D01*
X02697D01*
Y03861D01*
X02701D01*
X02656D02*
Y03857D01*
X02664D01*
Y03861D01*
X02668D01*
Y03869D01*
X02664D01*
Y03873D01*
X02656D01*
Y03869D01*
X02652D01*
Y03861D01*
X02656D01*
X02606D02*
Y03857D01*
X02614D01*
Y03861D01*
X02618D01*
Y03869D01*
X02614D01*
Y03873D01*
X02606D01*
Y03869D01*
X02602D01*
Y03861D01*
X02606D01*
X02561D02*
Y03857D01*
X02569D01*
Y03861D01*
X02573D01*
Y03869D01*
X02569D01*
Y03873D01*
X02561D01*
Y03869D01*
X02557D01*
Y03861D01*
X02561D01*
X02516D02*
Y03857D01*
X02524D01*
Y03861D01*
X02528D01*
Y03869D01*
X02524D01*
Y03873D01*
X02516D01*
Y03869D01*
X02512D01*
Y03861D01*
X02516D01*
X02471D02*
Y03857D01*
X02479D01*
Y03861D01*
X02483D01*
Y03869D01*
X02479D01*
Y03873D01*
X02471D01*
Y03869D01*
X02467D01*
Y03861D01*
X02471D01*
X02606Y03821D02*
Y03817D01*
X02614D01*
Y03821D01*
X02618D01*
Y03829D01*
X02614D01*
Y03833D01*
X02606D01*
Y03829D01*
X02602D01*
Y03821D01*
X02606D01*
X02561D02*
Y03817D01*
X02569D01*
Y03821D01*
X02573D01*
Y03829D01*
X02569D01*
Y03833D01*
X02561D01*
Y03829D01*
X02557D01*
Y03821D01*
X02561D01*
X02516D02*
Y03817D01*
X02524D01*
Y03821D01*
X02528D01*
Y03829D01*
X02524D01*
Y03833D01*
X02516D01*
Y03829D01*
X02512D01*
Y03821D01*
X02516D01*
X02471D02*
Y03817D01*
X02479D01*
Y03821D01*
X02483D01*
Y03829D01*
X02479D01*
Y03833D01*
X02471D01*
Y03829D01*
X02467D01*
Y03821D01*
X02471D01*
X02791D02*
Y03817D01*
X02799D01*
Y03821D01*
X02803D01*
Y03829D01*
X02799D01*
Y03833D01*
X02791D01*
Y03829D01*
X02787D01*
Y03821D01*
X02791D01*
X02746D02*
Y03817D01*
X02754D01*
Y03821D01*
X02758D01*
Y03829D01*
X02754D01*
Y03833D01*
X02746D01*
Y03829D01*
X02742D01*
Y03821D01*
X02746D01*
X02701D02*
Y03817D01*
X02709D01*
Y03821D01*
X02713D01*
Y03829D01*
X02709D01*
Y03833D01*
X02701D01*
Y03829D01*
X02697D01*
Y03821D01*
X02701D01*
X02656D02*
Y03817D01*
X02664D01*
Y03821D01*
X02668D01*
Y03829D01*
X02664D01*
Y03833D01*
X02656D01*
Y03829D01*
X02652D01*
Y03821D01*
X02656D01*
X02606Y03781D02*
Y03777D01*
X02614D01*
Y03781D01*
X02618D01*
Y03789D01*
X02614D01*
Y03793D01*
X02606D01*
Y03789D01*
X02602D01*
Y03781D01*
X02606D01*
X02561D02*
Y03777D01*
X02569D01*
Y03781D01*
X02573D01*
Y03789D01*
X02569D01*
Y03793D01*
X02561D01*
Y03789D01*
X02557D01*
Y03781D01*
X02561D01*
X02516D02*
Y03777D01*
X02524D01*
Y03781D01*
X02528D01*
Y03789D01*
X02524D01*
Y03793D01*
X02516D01*
Y03789D01*
X02512D01*
Y03781D01*
X02516D01*
X02471D02*
Y03777D01*
X02479D01*
Y03781D01*
X02483D01*
Y03789D01*
X02479D01*
Y03793D01*
X02471D01*
Y03789D01*
X02467D01*
Y03781D01*
X02471D01*
X02791D02*
Y03777D01*
X02799D01*
Y03781D01*
X02803D01*
Y03789D01*
X02799D01*
Y03793D01*
X02791D01*
Y03789D01*
X02787D01*
Y03781D01*
X02791D01*
X02746D02*
Y03777D01*
X02754D01*
Y03781D01*
X02758D01*
Y03789D01*
X02754D01*
Y03793D01*
X02746D01*
Y03789D01*
X02742D01*
Y03781D01*
X02746D01*
X02701D02*
Y03777D01*
X02709D01*
Y03781D01*
X02713D01*
Y03789D01*
X02709D01*
Y03793D01*
X02701D01*
Y03789D01*
X02697D01*
Y03781D01*
X02701D01*
X02656D02*
Y03777D01*
X02664D01*
Y03781D01*
X02668D01*
Y03789D01*
X02664D01*
Y03793D01*
X02656D01*
Y03789D01*
X02652D01*
Y03781D01*
X02656D01*
X02791Y03736D02*
Y03732D01*
X02799D01*
Y03736D01*
X02803D01*
Y03744D01*
X02799D01*
Y03748D01*
X02791D01*
Y03744D01*
X02787D01*
Y03736D01*
X02791D01*
X02746D02*
Y03732D01*
X02754D01*
Y03736D01*
X02758D01*
Y03744D01*
X02754D01*
Y03748D01*
X02746D01*
Y03744D01*
X02742D01*
Y03736D01*
X02746D01*
X02701D02*
Y03732D01*
X02709D01*
Y03736D01*
X02713D01*
Y03744D01*
X02709D01*
Y03748D01*
X02701D01*
Y03744D01*
X02697D01*
Y03736D01*
X02701D01*
X02656D02*
Y03732D01*
X02664D01*
Y03736D01*
X02668D01*
Y03744D01*
X02664D01*
Y03748D01*
X02656D01*
Y03744D01*
X02652D01*
Y03736D01*
X02656D01*
X02606D02*
Y03732D01*
X02614D01*
Y03736D01*
X02618D01*
Y03744D01*
X02614D01*
Y03748D01*
X02606D01*
Y03744D01*
X02602D01*
Y03736D01*
X02606D01*
X02561D02*
Y03732D01*
X02569D01*
Y03736D01*
X02573D01*
Y03744D01*
X02569D01*
Y03748D01*
X02561D01*
Y03744D01*
X02557D01*
Y03736D01*
X02561D01*
X02516D02*
Y03732D01*
X02524D01*
Y03736D01*
X02528D01*
Y03744D01*
X02524D01*
Y03748D01*
X02516D01*
Y03744D01*
X02512D01*
Y03736D01*
X02516D01*
X02471D02*
Y03732D01*
X02479D01*
Y03736D01*
X02483D01*
Y03744D01*
X02479D01*
Y03748D01*
X02471D01*
Y03744D01*
X02467D01*
Y03736D01*
X02471D01*
X02606Y03691D02*
Y03687D01*
X02614D01*
Y03691D01*
X02618D01*
Y03699D01*
X02614D01*
Y03703D01*
X02606D01*
Y03699D01*
X02602D01*
Y03691D01*
X02606D01*
X02561D02*
Y03687D01*
X02569D01*
Y03691D01*
X02573D01*
Y03699D01*
X02569D01*
Y03703D01*
X02561D01*
Y03699D01*
X02557D01*
Y03691D01*
X02561D01*
X02516D02*
Y03687D01*
X02524D01*
Y03691D01*
X02528D01*
Y03699D01*
X02524D01*
Y03703D01*
X02516D01*
Y03699D01*
X02512D01*
Y03691D01*
X02516D01*
X02471D02*
Y03687D01*
X02479D01*
Y03691D01*
X02483D01*
Y03699D01*
X02479D01*
Y03703D01*
X02471D01*
Y03699D01*
X02467D01*
Y03691D01*
X02471D01*
X02791D02*
Y03687D01*
X02799D01*
Y03691D01*
X02803D01*
Y03699D01*
X02799D01*
Y03703D01*
X02791D01*
Y03699D01*
X02787D01*
Y03691D01*
X02791D01*
X02746D02*
Y03687D01*
X02754D01*
Y03691D01*
X02758D01*
Y03699D01*
X02754D01*
Y03703D01*
X02746D01*
Y03699D01*
X02742D01*
Y03691D01*
X02746D01*
X02701D02*
Y03687D01*
X02709D01*
Y03691D01*
X02713D01*
Y03699D01*
X02709D01*
Y03703D01*
X02701D01*
Y03699D01*
X02697D01*
Y03691D01*
X02701D01*
X02656D02*
Y03687D01*
X02664D01*
Y03691D01*
X02668D01*
Y03699D01*
X02664D01*
Y03703D01*
X02656D01*
Y03699D01*
X02652D01*
Y03691D01*
X02656D01*
X01636Y03696D02*
Y03692D01*
X01644D01*
Y03696D01*
X01648D01*
Y03704D01*
X01644D01*
Y03708D01*
X01636D01*
Y03704D01*
X01632D01*
Y03696D01*
X01636D01*
X01681D02*
Y03692D01*
X01689D01*
Y03696D01*
X01693D01*
Y03704D01*
X01689D01*
Y03708D01*
X01681D01*
Y03704D01*
X01677D01*
Y03696D01*
X01681D01*
X01726D02*
Y03692D01*
X01734D01*
Y03696D01*
X01738D01*
Y03704D01*
X01734D01*
Y03708D01*
X01726D01*
Y03704D01*
X01722D01*
Y03696D01*
X01726D01*
X01771D02*
Y03692D01*
X01779D01*
Y03696D01*
X01783D01*
Y03704D01*
X01779D01*
Y03708D01*
X01771D01*
Y03704D01*
X01767D01*
Y03696D01*
X01771D01*
X01451D02*
Y03692D01*
X01459D01*
Y03696D01*
X01463D01*
Y03704D01*
X01459D01*
Y03708D01*
X01451D01*
Y03704D01*
X01447D01*
Y03696D01*
X01451D01*
X01496D02*
Y03692D01*
X01504D01*
Y03696D01*
X01508D01*
Y03704D01*
X01504D01*
Y03708D01*
X01496D01*
Y03704D01*
X01492D01*
Y03696D01*
X01496D01*
X01541D02*
Y03692D01*
X01549D01*
Y03696D01*
X01553D01*
Y03704D01*
X01549D01*
Y03708D01*
X01541D01*
Y03704D01*
X01537D01*
Y03696D01*
X01541D01*
X01586D02*
Y03692D01*
X01594D01*
Y03696D01*
X01598D01*
Y03704D01*
X01594D01*
Y03708D01*
X01586D01*
Y03704D01*
X01582D01*
Y03696D01*
X01586D01*
X01451Y03741D02*
Y03737D01*
X01459D01*
Y03741D01*
X01463D01*
Y03749D01*
X01459D01*
Y03753D01*
X01451D01*
Y03749D01*
X01447D01*
Y03741D01*
X01451D01*
X01496D02*
Y03737D01*
X01504D01*
Y03741D01*
X01508D01*
Y03749D01*
X01504D01*
Y03753D01*
X01496D01*
Y03749D01*
X01492D01*
Y03741D01*
X01496D01*
X01541D02*
Y03737D01*
X01549D01*
Y03741D01*
X01553D01*
Y03749D01*
X01549D01*
Y03753D01*
X01541D01*
Y03749D01*
X01537D01*
Y03741D01*
X01541D01*
X01586D02*
Y03737D01*
X01594D01*
Y03741D01*
X01598D01*
Y03749D01*
X01594D01*
Y03753D01*
X01586D01*
Y03749D01*
X01582D01*
Y03741D01*
X01586D01*
X01636D02*
Y03737D01*
X01644D01*
Y03741D01*
X01648D01*
Y03749D01*
X01644D01*
Y03753D01*
X01636D01*
Y03749D01*
X01632D01*
Y03741D01*
X01636D01*
X01681D02*
Y03737D01*
X01689D01*
Y03741D01*
X01693D01*
Y03749D01*
X01689D01*
Y03753D01*
X01681D01*
Y03749D01*
X01677D01*
Y03741D01*
X01681D01*
X01726D02*
Y03737D01*
X01734D01*
Y03741D01*
X01738D01*
Y03749D01*
X01734D01*
Y03753D01*
X01726D01*
Y03749D01*
X01722D01*
Y03741D01*
X01726D01*
X01771D02*
Y03737D01*
X01779D01*
Y03741D01*
X01783D01*
Y03749D01*
X01779D01*
Y03753D01*
X01771D01*
Y03749D01*
X01767D01*
Y03741D01*
X01771D01*
X01636Y03786D02*
Y03782D01*
X01644D01*
Y03786D01*
X01648D01*
Y03794D01*
X01644D01*
Y03798D01*
X01636D01*
Y03794D01*
X01632D01*
Y03786D01*
X01636D01*
X01681D02*
Y03782D01*
X01689D01*
Y03786D01*
X01693D01*
Y03794D01*
X01689D01*
Y03798D01*
X01681D01*
Y03794D01*
X01677D01*
Y03786D01*
X01681D01*
X01726D02*
Y03782D01*
X01734D01*
Y03786D01*
X01738D01*
Y03794D01*
X01734D01*
Y03798D01*
X01726D01*
Y03794D01*
X01722D01*
Y03786D01*
X01726D01*
X01771D02*
Y03782D01*
X01779D01*
Y03786D01*
X01783D01*
Y03794D01*
X01779D01*
Y03798D01*
X01771D01*
Y03794D01*
X01767D01*
Y03786D01*
X01771D01*
X01451D02*
Y03782D01*
X01459D01*
Y03786D01*
X01463D01*
Y03794D01*
X01459D01*
Y03798D01*
X01451D01*
Y03794D01*
X01447D01*
Y03786D01*
X01451D01*
X01496D02*
Y03782D01*
X01504D01*
Y03786D01*
X01508D01*
Y03794D01*
X01504D01*
Y03798D01*
X01496D01*
Y03794D01*
X01492D01*
Y03786D01*
X01496D01*
X01541D02*
Y03782D01*
X01549D01*
Y03786D01*
X01553D01*
Y03794D01*
X01549D01*
Y03798D01*
X01541D01*
Y03794D01*
X01537D01*
Y03786D01*
X01541D01*
X01586D02*
Y03782D01*
X01594D01*
Y03786D01*
X01598D01*
Y03794D01*
X01594D01*
Y03798D01*
X01586D01*
Y03794D01*
X01582D01*
Y03786D01*
X01586D01*
X01636Y03826D02*
Y03822D01*
X01644D01*
Y03826D01*
X01648D01*
Y03834D01*
X01644D01*
Y03838D01*
X01636D01*
Y03834D01*
X01632D01*
Y03826D01*
X01636D01*
X01681D02*
Y03822D01*
X01689D01*
Y03826D01*
X01693D01*
Y03834D01*
X01689D01*
Y03838D01*
X01681D01*
Y03834D01*
X01677D01*
Y03826D01*
X01681D01*
X01726D02*
Y03822D01*
X01734D01*
Y03826D01*
X01738D01*
Y03834D01*
X01734D01*
Y03838D01*
X01726D01*
Y03834D01*
X01722D01*
Y03826D01*
X01726D01*
X01771D02*
Y03822D01*
X01779D01*
Y03826D01*
X01783D01*
Y03834D01*
X01779D01*
Y03838D01*
X01771D01*
Y03834D01*
X01767D01*
Y03826D01*
X01771D01*
X01451D02*
Y03822D01*
X01459D01*
Y03826D01*
X01463D01*
Y03834D01*
X01459D01*
Y03838D01*
X01451D01*
Y03834D01*
X01447D01*
Y03826D01*
X01451D01*
X01496D02*
Y03822D01*
X01504D01*
Y03826D01*
X01508D01*
Y03834D01*
X01504D01*
Y03838D01*
X01496D01*
Y03834D01*
X01492D01*
Y03826D01*
X01496D01*
X01541D02*
Y03822D01*
X01549D01*
Y03826D01*
X01553D01*
Y03834D01*
X01549D01*
Y03838D01*
X01541D01*
Y03834D01*
X01537D01*
Y03826D01*
X01541D01*
X01586D02*
Y03822D01*
X01594D01*
Y03826D01*
X01598D01*
Y03834D01*
X01594D01*
Y03838D01*
X01586D01*
Y03834D01*
X01582D01*
Y03826D01*
X01586D01*
X01451Y03866D02*
Y03862D01*
X01459D01*
Y03866D01*
X01463D01*
Y03874D01*
X01459D01*
Y03878D01*
X01451D01*
Y03874D01*
X01447D01*
Y03866D01*
X01451D01*
X01496D02*
Y03862D01*
X01504D01*
Y03866D01*
X01508D01*
Y03874D01*
X01504D01*
Y03878D01*
X01496D01*
Y03874D01*
X01492D01*
Y03866D01*
X01496D01*
X01541D02*
Y03862D01*
X01549D01*
Y03866D01*
X01553D01*
Y03874D01*
X01549D01*
Y03878D01*
X01541D01*
Y03874D01*
X01537D01*
Y03866D01*
X01541D01*
X01586D02*
Y03862D01*
X01594D01*
Y03866D01*
X01598D01*
Y03874D01*
X01594D01*
Y03878D01*
X01586D01*
Y03874D01*
X01582D01*
Y03866D01*
X01586D01*
X01636D02*
Y03862D01*
X01644D01*
Y03866D01*
X01648D01*
Y03874D01*
X01644D01*
Y03878D01*
X01636D01*
Y03874D01*
X01632D01*
Y03866D01*
X01636D01*
X01681D02*
Y03862D01*
X01689D01*
Y03866D01*
X01693D01*
Y03874D01*
X01689D01*
Y03878D01*
X01681D01*
Y03874D01*
X01677D01*
Y03866D01*
X01681D01*
X01726D02*
Y03862D01*
X01734D01*
Y03866D01*
X01738D01*
Y03874D01*
X01734D01*
Y03878D01*
X01726D01*
Y03874D01*
X01722D01*
Y03866D01*
X01726D01*
X01771D02*
Y03862D01*
X01779D01*
Y03866D01*
X01783D01*
Y03874D01*
X01779D01*
Y03878D01*
X01771D01*
Y03874D01*
X01767D01*
Y03866D01*
X01771D01*
X01636Y03906D02*
Y03902D01*
X01644D01*
Y03906D01*
X01648D01*
Y03914D01*
X01644D01*
Y03918D01*
X01636D01*
Y03914D01*
X01632D01*
Y03906D01*
X01636D01*
X01681D02*
Y03902D01*
X01689D01*
Y03906D01*
X01693D01*
Y03914D01*
X01689D01*
Y03918D01*
X01681D01*
Y03914D01*
X01677D01*
Y03906D01*
X01681D01*
X01726D02*
Y03902D01*
X01734D01*
Y03906D01*
X01738D01*
Y03914D01*
X01734D01*
Y03918D01*
X01726D01*
Y03914D01*
X01722D01*
Y03906D01*
X01726D01*
X01771D02*
Y03902D01*
X01779D01*
Y03906D01*
X01783D01*
Y03914D01*
X01779D01*
Y03918D01*
X01771D01*
Y03914D01*
X01767D01*
Y03906D01*
X01771D01*
X01451D02*
Y03902D01*
X01459D01*
Y03906D01*
X01463D01*
Y03914D01*
X01459D01*
Y03918D01*
X01451D01*
Y03914D01*
X01447D01*
Y03906D01*
X01451D01*
X01496D02*
Y03902D01*
X01504D01*
Y03906D01*
X01508D01*
Y03914D01*
X01504D01*
Y03918D01*
X01496D01*
Y03914D01*
X01492D01*
Y03906D01*
X01496D01*
X01541D02*
Y03902D01*
X01549D01*
Y03906D01*
X01553D01*
Y03914D01*
X01549D01*
Y03918D01*
X01541D01*
Y03914D01*
X01537D01*
Y03906D01*
X01541D01*
X01586D02*
Y03902D01*
X01594D01*
Y03906D01*
X01598D01*
Y03914D01*
X01594D01*
Y03918D01*
X01586D01*
Y03914D01*
X01582D01*
Y03906D01*
X01586D01*
X01636Y03946D02*
Y03942D01*
X01644D01*
Y03946D01*
X01648D01*
Y03954D01*
X01644D01*
Y03958D01*
X01636D01*
Y03954D01*
X01632D01*
Y03946D01*
X01636D01*
X01681D02*
Y03942D01*
X01689D01*
Y03946D01*
X01693D01*
Y03954D01*
X01689D01*
Y03958D01*
X01681D01*
Y03954D01*
X01677D01*
Y03946D01*
X01681D01*
X01726D02*
Y03942D01*
X01734D01*
Y03946D01*
X01738D01*
Y03954D01*
X01734D01*
Y03958D01*
X01726D01*
Y03954D01*
X01722D01*
Y03946D01*
X01726D01*
X01771D02*
Y03942D01*
X01779D01*
Y03946D01*
X01783D01*
Y03954D01*
X01779D01*
Y03958D01*
X01771D01*
Y03954D01*
X01767D01*
Y03946D01*
X01771D01*
X01586D02*
Y03942D01*
X01594D01*
Y03946D01*
X01598D01*
Y03954D01*
X01594D01*
Y03958D01*
X01586D01*
Y03954D01*
X01582D01*
Y03946D01*
X01586D01*
X01541D02*
Y03942D01*
X01549D01*
Y03946D01*
X01553D01*
Y03954D01*
X01549D01*
Y03958D01*
X01541D01*
Y03954D01*
X01537D01*
Y03946D01*
X01541D01*
X01496D02*
Y03942D01*
X01504D01*
Y03946D01*
X01508D01*
Y03954D01*
X01504D01*
Y03958D01*
X01496D01*
Y03954D01*
X01492D01*
Y03946D01*
X01496D01*
X01451D02*
Y03942D01*
X01459D01*
Y03946D01*
X01463D01*
Y03954D01*
X01459D01*
Y03958D01*
X01451D01*
Y03954D01*
X01447D01*
Y03946D01*
X01451D01*
X02911Y01576D02*
Y01572D01*
X02919D01*
Y01576D01*
X02923D01*
Y01584D01*
X02919D01*
Y01588D01*
X02911D01*
Y01584D01*
X02907D01*
Y01576D01*
X02911D01*
X02861D02*
Y01572D01*
X02869D01*
Y01576D01*
X02873D01*
Y01584D01*
X02869D01*
Y01588D01*
X02861D01*
Y01584D01*
X02857D01*
Y01576D01*
X02861D01*
X02201Y02251D02*
Y02247D01*
X02209D01*
Y02251D01*
X02213D01*
Y02259D01*
X02209D01*
Y02263D01*
X02201D01*
Y02259D01*
X02197D01*
Y02251D01*
X02201D01*
X02251D02*
Y02247D01*
X02259D01*
Y02251D01*
X02263D01*
Y02259D01*
X02259D01*
Y02263D01*
X02251D01*
Y02259D01*
X02247D01*
Y02251D01*
X02251D01*
X02706Y01541D02*
Y01537D01*
X02714D01*
Y01541D01*
X02718D01*
Y01549D01*
X02714D01*
Y01553D01*
X02706D01*
Y01549D01*
X02702D01*
Y01541D01*
X02706D01*
X03806Y02161D02*
Y02157D01*
X03814D01*
Y02161D01*
X03818D01*
Y02169D01*
X03814D01*
Y02173D01*
X03806D01*
Y02169D01*
X03802D01*
Y02161D01*
X03806D01*
X04356Y02001D02*
Y01997D01*
X04364D01*
Y02001D01*
X04368D01*
Y02009D01*
X04364D01*
Y02013D01*
X04356D01*
Y02009D01*
X04352D01*
Y02001D01*
X04356D01*
X03886Y02121D02*
Y02117D01*
X03894D01*
Y02121D01*
X03898D01*
Y02129D01*
X03894D01*
Y02133D01*
X03886D01*
Y02129D01*
X03882D01*
Y02121D01*
X03886D01*
X035978Y022127D02*
Y022087D01*
X036058D01*
Y022127D01*
X036098D01*
Y022207D01*
X036058D01*
Y022247D01*
X035978D01*
Y022207D01*
X035938D01*
Y022127D01*
X035978D01*
X04276Y02046D02*
Y02042D01*
X04284D01*
Y02046D01*
X04288D01*
Y02054D01*
X04284D01*
Y02058D01*
X04276D01*
Y02054D01*
X04272D01*
Y02046D01*
X04276D01*
X04486Y02466D02*
Y02462D01*
X04494D01*
Y02466D01*
X04498D01*
Y02474D01*
X04494D01*
Y02478D01*
X04486D01*
Y02474D01*
X04482D01*
Y02466D01*
X04486D01*
X040259Y018611D02*
Y018571D01*
X040339D01*
Y018611D01*
X040379D01*
Y018691D01*
X040339D01*
Y018731D01*
X040259D01*
Y018691D01*
X040219D01*
Y018611D01*
X040259D01*
X03946Y02421D02*
Y02417D01*
X03954D01*
Y02421D01*
X03958D01*
Y02429D01*
X03954D01*
Y02433D01*
X03946D01*
Y02429D01*
X03942D01*
Y02421D01*
X03946D01*
X037717Y01901D02*
Y01897D01*
X037797D01*
Y01901D01*
X037837D01*
Y01909D01*
X037797D01*
Y01913D01*
X037717D01*
Y01909D01*
X037677D01*
Y01901D01*
X037717D01*
X039045Y024195D02*
Y024155D01*
X039125D01*
Y024195D01*
X039165D01*
Y024275D01*
X039125D01*
Y024315D01*
X039045D01*
Y024275D01*
X039005D01*
Y024195D01*
X039045D01*
X04246Y020954D02*
Y020914D01*
X04254D01*
Y020954D01*
X04258D01*
Y021034D01*
X04254D01*
Y021074D01*
X04246D01*
Y021034D01*
X04242D01*
Y020954D01*
X04246D01*
X01561Y025381D02*
Y025341D01*
X01569D01*
Y025381D01*
X01573D01*
Y025461D01*
X01569D01*
Y025501D01*
X01561D01*
Y025461D01*
X01557D01*
Y025381D01*
X01561D01*
X02031Y02606D02*
Y02602D01*
X02039D01*
Y02606D01*
X02043D01*
Y02614D01*
X02039D01*
Y02618D01*
X02031D01*
Y02614D01*
X02027D01*
Y02606D01*
X02031D01*
X02946Y02661D02*
Y02657D01*
X02954D01*
Y02661D01*
X02958D01*
Y02669D01*
X02954D01*
Y02673D01*
X02946D01*
Y02669D01*
X02942D01*
Y02661D01*
X02946D01*
Y02796D02*
Y02792D01*
X02954D01*
Y02796D01*
X02958D01*
Y02804D01*
X02954D01*
Y02808D01*
X02946D01*
Y02804D01*
X02942D01*
Y02796D01*
X02946D01*
X02121Y02916D02*
Y02912D01*
X02129D01*
Y02916D01*
X02133D01*
Y02924D01*
X02129D01*
Y02928D01*
X02121D01*
Y02924D01*
X02117D01*
Y02916D01*
X02121D01*
X03531Y02356D02*
Y02352D01*
X03539D01*
Y02356D01*
X03543D01*
Y02364D01*
X03539D01*
Y02368D01*
X03531D01*
Y02364D01*
X03527D01*
Y02356D01*
X03531D01*
X02126Y03081D02*
Y03077D01*
X02134D01*
Y03081D01*
X02138D01*
Y03089D01*
X02134D01*
Y03093D01*
X02126D01*
Y03089D01*
X02122D01*
Y03081D01*
X02126D01*
X01521Y03316D02*
Y03312D01*
X01529D01*
Y03316D01*
X01533D01*
Y03324D01*
X01529D01*
Y03328D01*
X01521D01*
Y03324D01*
X01517D01*
Y03316D01*
X01521D01*
X046855Y025367D02*
Y025327D01*
X046935D01*
Y025367D01*
X046975D01*
Y025447D01*
X046935D01*
Y025487D01*
X046855D01*
Y025447D01*
X046815D01*
Y025367D01*
X046855D01*
X04746Y02431D02*
Y02427D01*
X04754D01*
Y02431D01*
X04758D01*
Y02439D01*
X04754D01*
Y02443D01*
X04746D01*
Y02439D01*
X04742D01*
Y02431D01*
X04746D01*
X04306Y02461D02*
Y02457D01*
X04314D01*
Y02461D01*
X04318D01*
Y02469D01*
X04314D01*
Y02473D01*
X04306D01*
Y02469D01*
X04302D01*
Y02461D01*
X04306D01*
X03661Y02321D02*
Y02317D01*
X03669D01*
Y02321D01*
X03673D01*
Y02329D01*
X03669D01*
Y02333D01*
X03661D01*
Y02329D01*
X03657D01*
Y02321D01*
X03661D01*
X03476Y021547D02*
Y021507D01*
X03484D01*
Y021547D01*
X03488D01*
Y021627D01*
X03484D01*
Y021667D01*
X03476D01*
Y021627D01*
X03472D01*
Y021547D01*
X03476D01*
X03531Y01485D02*
Y01481D01*
X03539D01*
Y01485D01*
X03543D01*
Y01493D01*
X03539D01*
Y01497D01*
X03531D01*
Y01493D01*
X03527D01*
Y01485D01*
X03531D01*
X03706Y01586D02*
Y01582D01*
X03714D01*
Y01586D01*
X03718D01*
Y01594D01*
X03714D01*
Y01598D01*
X03706D01*
Y01594D01*
X03702D01*
Y01586D01*
X03706D01*
Y01561D02*
Y01557D01*
X03714D01*
Y01561D01*
X03718D01*
Y01569D01*
X03714D01*
Y01573D01*
X03706D01*
Y01569D01*
X03702D01*
Y01561D01*
X03706D01*
X03656Y01536D02*
Y01532D01*
X03664D01*
Y01536D01*
X03668D01*
Y01544D01*
X03664D01*
Y01548D01*
X03656D01*
Y01544D01*
X03652D01*
Y01536D01*
X03656D01*
X03681Y01586D02*
Y01582D01*
X03689D01*
Y01586D01*
X03693D01*
Y01594D01*
X03689D01*
Y01598D01*
X03681D01*
Y01594D01*
X03677D01*
Y01586D01*
X03681D01*
X03706Y01536D02*
Y01532D01*
X03714D01*
Y01536D01*
X03718D01*
Y01544D01*
X03714D01*
Y01548D01*
X03706D01*
Y01544D01*
X03702D01*
Y01536D01*
X03706D01*
X03681D02*
Y01532D01*
X03689D01*
Y01536D01*
X03693D01*
Y01544D01*
X03689D01*
Y01548D01*
X03681D01*
Y01544D01*
X03677D01*
Y01536D01*
X03681D01*
X03656Y01586D02*
Y01582D01*
X03664D01*
Y01586D01*
X03668D01*
Y01594D01*
X03664D01*
Y01598D01*
X03656D01*
Y01594D01*
X03652D01*
Y01586D01*
X03656D01*
X03681Y01561D02*
Y01557D01*
X03689D01*
Y01561D01*
X03693D01*
Y01569D01*
X03689D01*
Y01573D01*
X03681D01*
Y01569D01*
X03677D01*
Y01561D01*
X03681D01*
X03656D02*
Y01557D01*
X03664D01*
Y01561D01*
X03668D01*
Y01569D01*
X03664D01*
Y01573D01*
X03656D01*
Y01569D01*
X03652D01*
Y01561D01*
X03656D01*
X04336Y01481D02*
Y01477D01*
X04344D01*
Y01481D01*
X04348D01*
Y01489D01*
X04344D01*
Y01493D01*
X04336D01*
Y01489D01*
X04332D01*
Y01481D01*
X04336D01*
X02306Y030539D02*
Y030499D01*
X02314D01*
Y030539D01*
X02318D01*
Y030619D01*
X02314D01*
Y030659D01*
X02306D01*
Y030619D01*
X02302D01*
Y030539D01*
X02306D01*
X02311Y02971D02*
Y02967D01*
X02319D01*
Y02971D01*
X02323D01*
Y02979D01*
X02319D01*
Y02983D01*
X02311D01*
Y02979D01*
X02307D01*
Y02971D01*
X02311D01*
X01771Y02896D02*
Y02892D01*
X01779D01*
Y02896D01*
X01783D01*
Y02904D01*
X01779D01*
Y02908D01*
X01771D01*
Y02904D01*
X01767D01*
Y02896D01*
X01771D01*
Y02841D02*
Y02837D01*
X01779D01*
Y02841D01*
X01783D01*
Y02849D01*
X01779D01*
Y02853D01*
X01771D01*
Y02849D01*
X01767D01*
Y02841D01*
X01771D01*
X04181Y01736D02*
Y01732D01*
X04189D01*
Y01736D01*
X04193D01*
Y01744D01*
X04189D01*
Y01748D01*
X04181D01*
Y01744D01*
X04177D01*
Y01736D01*
X04181D01*
X03986Y01711D02*
Y01707D01*
X03994D01*
Y01711D01*
X03998D01*
Y01719D01*
X03994D01*
Y01723D01*
X03986D01*
Y01719D01*
X03982D01*
Y01711D01*
X03986D01*
X03746Y02481D02*
Y02477D01*
X03754D01*
Y02481D01*
X03758D01*
Y02489D01*
X03754D01*
Y02493D01*
X03746D01*
Y02489D01*
X03742D01*
Y02481D01*
X03746D01*
X03786Y027437D02*
Y027397D01*
X03794D01*
Y027437D01*
X03798D01*
Y027517D01*
X03794D01*
Y027557D01*
X03786D01*
Y027517D01*
X03782D01*
Y027437D01*
X03786D01*
X02781Y01926D02*
Y01922D01*
X02789D01*
Y01926D01*
X02793D01*
Y01934D01*
X02789D01*
Y01938D01*
X02781D01*
Y01934D01*
X02777D01*
Y01926D01*
X02781D01*
X02426Y01956D02*
Y01952D01*
X02434D01*
Y01956D01*
X02438D01*
Y01964D01*
X02434D01*
Y01968D01*
X02426D01*
Y01964D01*
X02422D01*
Y01956D01*
X02426D01*
X044216Y024319D02*
Y024279D01*
X044296D01*
Y024319D01*
X044336D01*
Y024399D01*
X044296D01*
Y024439D01*
X044216D01*
Y024399D01*
X044176D01*
Y024319D01*
X044216D01*
X03296Y02321D02*
Y02317D01*
X03304D01*
Y02321D01*
X03308D01*
Y02329D01*
X03304D01*
Y02333D01*
X03296D01*
Y02329D01*
X03292D01*
Y02321D01*
X03296D01*
Y02181D02*
Y02177D01*
X03304D01*
Y02181D01*
X03308D01*
Y02189D01*
X03304D01*
Y02193D01*
X03296D01*
Y02189D01*
X03292D01*
Y02181D01*
X03296D01*
X03676Y01766D02*
Y01762D01*
X03684D01*
Y01766D01*
X03688D01*
Y01774D01*
X03684D01*
Y01778D01*
X03676D01*
Y01774D01*
X03672D01*
Y01766D01*
X03676D01*
X03476Y01946D02*
Y01942D01*
X03484D01*
Y01946D01*
X03488D01*
Y01954D01*
X03484D01*
Y01958D01*
X03476D01*
Y01954D01*
X03472D01*
Y01946D01*
X03476D01*
X038803Y01566D02*
Y01562D01*
X038883D01*
Y01566D01*
X038923D01*
Y01574D01*
X038883D01*
Y01578D01*
X038803D01*
Y01574D01*
X038763D01*
Y01566D01*
X038803D01*
X02566Y01776D02*
Y01772D01*
X02574D01*
Y01776D01*
X02578D01*
Y01784D01*
X02574D01*
Y01788D01*
X02566D01*
Y01784D01*
X02562D01*
Y01776D01*
X02566D01*
X029743Y02176D02*
Y02172D01*
X029823D01*
Y02176D01*
X029863D01*
Y02184D01*
X029823D01*
Y02188D01*
X029743D01*
Y02184D01*
X029703D01*
Y02176D01*
X029743D01*
X02976Y02281D02*
Y02277D01*
X02984D01*
Y02281D01*
X02988D01*
Y02289D01*
X02984D01*
Y02293D01*
X02976D01*
Y02289D01*
X02972D01*
Y02281D01*
X02976D01*
X02786Y02816D02*
Y02812D01*
X02794D01*
Y02816D01*
X02798D01*
Y02824D01*
X02794D01*
Y02828D01*
X02786D01*
Y02824D01*
X02782D01*
Y02816D01*
X02786D01*
X03981Y02531D02*
Y02527D01*
X03989D01*
Y02531D01*
X03993D01*
Y02539D01*
X03989D01*
Y02543D01*
X03981D01*
Y02539D01*
X03977D01*
Y02531D01*
X03981D01*
X04306Y03011D02*
Y03007D01*
X04314D01*
Y03011D01*
X04318D01*
Y03019D01*
X04314D01*
Y03023D01*
X04306D01*
Y03019D01*
X04302D01*
Y03011D01*
X04306D01*
X03441Y029215D02*
Y029175D01*
X03449D01*
Y029215D01*
X03453D01*
Y029295D01*
X03449D01*
Y029335D01*
X03441D01*
Y029295D01*
X03437D01*
Y029215D01*
X03441D01*
X03356Y02546D02*
Y02542D01*
X03364D01*
Y02546D01*
X03368D01*
Y02554D01*
X03364D01*
Y02558D01*
X03356D01*
Y02554D01*
X03352D01*
Y02546D01*
X03356D01*
X03521Y029215D02*
Y029175D01*
X03529D01*
Y029215D01*
X03533D01*
Y029295D01*
X03529D01*
Y029335D01*
X03521D01*
Y029295D01*
X03517D01*
Y029215D01*
X03521D01*
X02441Y01281D02*
Y01277D01*
X02449D01*
Y01281D01*
X02453D01*
Y01289D01*
X02449D01*
Y01293D01*
X02441D01*
Y01289D01*
X02437D01*
Y01281D01*
X02441D01*
X02491Y01986D02*
Y01982D01*
X02499D01*
Y01986D01*
X02503D01*
Y01994D01*
X02499D01*
Y01998D01*
X02491D01*
Y01994D01*
X02487D01*
Y01986D01*
X02491D01*
X02856Y01441D02*
Y01437D01*
X02864D01*
Y01441D01*
X02868D01*
Y01449D01*
X02864D01*
Y01453D01*
X02856D01*
Y01449D01*
X02852D01*
Y01441D01*
X02856D01*
X02566Y01671D02*
Y01667D01*
X02574D01*
Y01671D01*
X02578D01*
Y01679D01*
X02574D01*
Y01683D01*
X02566D01*
Y01679D01*
X02562D01*
Y01671D01*
X02566D01*
X01771Y03126D02*
Y03122D01*
X01779D01*
Y03126D01*
X01783D01*
Y03134D01*
X01779D01*
Y03138D01*
X01771D01*
Y03134D01*
X01767D01*
Y03126D01*
X01771D01*
X01721Y033337D02*
Y033297D01*
X01729D01*
Y033337D01*
X01733D01*
Y033417D01*
X01729D01*
Y033457D01*
X01721D01*
Y033417D01*
X01717D01*
Y033337D01*
X01721D01*
X01671Y03306D02*
Y03302D01*
X01679D01*
Y03306D01*
X01683D01*
Y03314D01*
X01679D01*
Y03318D01*
X01671D01*
Y03314D01*
X01667D01*
Y03306D01*
X01671D01*
X01571Y03331D02*
Y03327D01*
X01579D01*
Y03331D01*
X01583D01*
Y03339D01*
X01579D01*
Y03343D01*
X01571D01*
Y03339D01*
X01567D01*
Y03331D01*
X01571D01*
X014613Y034699D02*
Y034659D01*
X014693D01*
Y034699D01*
X014733D01*
Y034779D01*
X014693D01*
Y034819D01*
X014613D01*
Y034779D01*
X014573D01*
Y034699D01*
X014613D01*
Y034099D02*
Y034059D01*
X014693D01*
Y034099D01*
X014733D01*
Y034179D01*
X014693D01*
Y034219D01*
X014613D01*
Y034179D01*
X014573D01*
Y034099D01*
X014613D01*
Y034399D02*
Y034359D01*
X014693D01*
Y034399D01*
X014733D01*
Y034479D01*
X014693D01*
Y034519D01*
X014613D01*
Y034479D01*
X014573D01*
Y034399D01*
X014613D01*
X02686Y02066D02*
Y02062D01*
X02694D01*
Y02066D01*
X02698D01*
Y02074D01*
X02694D01*
Y02078D01*
X02686D01*
Y02074D01*
X02682D01*
Y02066D01*
X02686D01*
X01796Y04306D02*
Y04302D01*
X01804D01*
Y04306D01*
X01808D01*
Y04314D01*
X01804D01*
Y04318D01*
X01796D01*
Y04314D01*
X01792D01*
Y04306D01*
X01796D01*
X01831D02*
Y04302D01*
X01839D01*
Y04306D01*
X01843D01*
Y04314D01*
X01839D01*
Y04318D01*
X01831D01*
Y04314D01*
X01827D01*
Y04306D01*
X01831D01*
X01866D02*
Y04302D01*
X01874D01*
Y04306D01*
X01878D01*
Y04314D01*
X01874D01*
Y04318D01*
X01866D01*
Y04314D01*
X01862D01*
Y04306D01*
X01866D01*
X018963Y036049D02*
Y036009D01*
X019043D01*
Y036049D01*
X019083D01*
Y036129D01*
X019043D01*
Y036169D01*
X018963D01*
Y036129D01*
X018923D01*
Y036049D01*
X018963D01*
Y035749D02*
Y035709D01*
X019043D01*
Y035749D01*
X019083D01*
Y035829D01*
X019043D01*
Y035869D01*
X018963D01*
Y035829D01*
X018923D01*
Y035749D01*
X018963D01*
Y035449D02*
Y035409D01*
X019043D01*
Y035449D01*
X019083D01*
Y035529D01*
X019043D01*
Y035569D01*
X018963D01*
Y035529D01*
X018923D01*
Y035449D01*
X018963D01*
X019263D02*
Y035409D01*
X019343D01*
Y035449D01*
X019383D01*
Y035529D01*
X019343D01*
Y035569D01*
X019263D01*
Y035529D01*
X019223D01*
Y035449D01*
X019263D01*
Y036049D02*
Y036009D01*
X019343D01*
Y036049D01*
X019383D01*
Y036129D01*
X019343D01*
Y036169D01*
X019263D01*
Y036129D01*
X019223D01*
Y036049D01*
X019263D01*
Y035749D02*
Y035709D01*
X019343D01*
Y035749D01*
X019383D01*
Y035829D01*
X019343D01*
Y035869D01*
X019263D01*
Y035829D01*
X019223D01*
Y035749D01*
X019263D01*
X018663D02*
Y035709D01*
X018743D01*
Y035749D01*
X018783D01*
Y035829D01*
X018743D01*
Y035869D01*
X018663D01*
Y035829D01*
X018623D01*
Y035749D01*
X018663D01*
Y035449D02*
Y035409D01*
X018743D01*
Y035449D01*
X018783D01*
Y035529D01*
X018743D01*
Y035569D01*
X018663D01*
Y035529D01*
X018623D01*
Y035449D01*
X018663D01*
Y036049D02*
Y036009D01*
X018743D01*
Y036049D01*
X018783D01*
Y036129D01*
X018743D01*
Y036169D01*
X018663D01*
Y036129D01*
X018623D01*
Y036049D01*
X018663D01*
X01426Y01886D02*
Y01882D01*
X01434D01*
Y01886D01*
X01438D01*
Y01894D01*
X01434D01*
Y01898D01*
X01426D01*
Y01894D01*
X01422D01*
Y01886D01*
X01426D01*
X02411Y01281D02*
Y01277D01*
X02419D01*
Y01281D01*
X02423D01*
Y01289D01*
X02419D01*
Y01293D01*
X02411D01*
Y01289D01*
X02407D01*
Y01281D01*
X02411D01*
X02371Y04281D02*
Y04277D01*
X02379D01*
Y04281D01*
X02383D01*
Y04289D01*
X02379D01*
Y04293D01*
X02371D01*
Y04289D01*
X02367D01*
Y04281D01*
X02371D01*
X02401D02*
Y04277D01*
X02409D01*
Y04281D01*
X02413D01*
Y04289D01*
X02409D01*
Y04293D01*
X02401D01*
Y04289D01*
X02397D01*
Y04281D01*
X02401D01*
X02431D02*
Y04277D01*
X02439D01*
Y04281D01*
X02443D01*
Y04289D01*
X02439D01*
Y04293D01*
X02431D01*
Y04289D01*
X02427D01*
Y04281D01*
X02431D01*
Y04311D02*
Y04307D01*
X02439D01*
Y04311D01*
X02443D01*
Y04319D01*
X02439D01*
Y04323D01*
X02431D01*
Y04319D01*
X02427D01*
Y04311D01*
X02431D01*
X02401D02*
Y04307D01*
X02409D01*
Y04311D01*
X02413D01*
Y04319D01*
X02409D01*
Y04323D01*
X02401D01*
Y04319D01*
X02397D01*
Y04311D01*
X02401D01*
X02371D02*
Y04307D01*
X02379D01*
Y04311D01*
X02383D01*
Y04319D01*
X02379D01*
Y04323D01*
X02371D01*
Y04319D01*
X02367D01*
Y04311D01*
X02371D01*
X02431Y04341D02*
Y04337D01*
X02439D01*
Y04341D01*
X02443D01*
Y04349D01*
X02439D01*
Y04353D01*
X02431D01*
Y04349D01*
X02427D01*
Y04341D01*
X02431D01*
X02401D02*
Y04337D01*
X02409D01*
Y04341D01*
X02413D01*
Y04349D01*
X02409D01*
Y04353D01*
X02401D01*
Y04349D01*
X02397D01*
Y04341D01*
X02401D01*
X02371D02*
Y04337D01*
X02379D01*
Y04341D01*
X02383D01*
Y04349D01*
X02379D01*
Y04353D01*
X02371D01*
Y04349D01*
X02367D01*
Y04341D01*
X02371D01*
X02461Y04281D02*
Y04277D01*
X02469D01*
Y04281D01*
X02473D01*
Y04289D01*
X02469D01*
Y04293D01*
X02461D01*
Y04289D01*
X02457D01*
Y04281D01*
X02461D01*
Y04311D02*
Y04307D01*
X02469D01*
Y04311D01*
X02473D01*
Y04319D01*
X02469D01*
Y04323D01*
X02461D01*
Y04319D01*
X02457D01*
Y04311D01*
X02461D01*
Y04341D02*
Y04337D01*
X02469D01*
Y04341D01*
X02473D01*
Y04349D01*
X02469D01*
Y04353D01*
X02461D01*
Y04349D01*
X02457D01*
Y04341D01*
X02461D01*
X03881Y04346D02*
Y04342D01*
X03889D01*
Y04346D01*
X03893D01*
Y04354D01*
X03889D01*
Y04358D01*
X03881D01*
Y04354D01*
X03877D01*
Y04346D01*
X03881D01*
Y04316D02*
Y04312D01*
X03889D01*
Y04316D01*
X03893D01*
Y04324D01*
X03889D01*
Y04328D01*
X03881D01*
Y04324D01*
X03877D01*
Y04316D01*
X03881D01*
Y04286D02*
Y04282D01*
X03889D01*
Y04286D01*
X03893D01*
Y04294D01*
X03889D01*
Y04298D01*
X03881D01*
Y04294D01*
X03877D01*
Y04286D01*
X03881D01*
X04476Y04301D02*
Y04297D01*
X04484D01*
Y04301D01*
X04488D01*
Y04309D01*
X04484D01*
Y04313D01*
X04476D01*
Y04309D01*
X04472D01*
Y04301D01*
X04476D01*
X04441D02*
Y04297D01*
X04449D01*
Y04301D01*
X04453D01*
Y04309D01*
X04449D01*
Y04313D01*
X04441D01*
Y04309D01*
X04437D01*
Y04301D01*
X04441D01*
X04406D02*
Y04297D01*
X04414D01*
Y04301D01*
X04418D01*
Y04309D01*
X04414D01*
Y04313D01*
X04406D01*
Y04309D01*
X04402D01*
Y04301D01*
X04406D01*
X03791Y04346D02*
Y04342D01*
X03799D01*
Y04346D01*
X03803D01*
Y04354D01*
X03799D01*
Y04358D01*
X03791D01*
Y04354D01*
X03787D01*
Y04346D01*
X03791D01*
X03821D02*
Y04342D01*
X03829D01*
Y04346D01*
X03833D01*
Y04354D01*
X03829D01*
Y04358D01*
X03821D01*
Y04354D01*
X03817D01*
Y04346D01*
X03821D01*
X03851D02*
Y04342D01*
X03859D01*
Y04346D01*
X03863D01*
Y04354D01*
X03859D01*
Y04358D01*
X03851D01*
Y04354D01*
X03847D01*
Y04346D01*
X03851D01*
X03791Y04316D02*
Y04312D01*
X03799D01*
Y04316D01*
X03803D01*
Y04324D01*
X03799D01*
Y04328D01*
X03791D01*
Y04324D01*
X03787D01*
Y04316D01*
X03791D01*
X03821D02*
Y04312D01*
X03829D01*
Y04316D01*
X03833D01*
Y04324D01*
X03829D01*
Y04328D01*
X03821D01*
Y04324D01*
X03817D01*
Y04316D01*
X03821D01*
X03851D02*
Y04312D01*
X03859D01*
Y04316D01*
X03863D01*
Y04324D01*
X03859D01*
Y04328D01*
X03851D01*
Y04324D01*
X03847D01*
Y04316D01*
X03851D01*
X01866Y04281D02*
Y04277D01*
X01874D01*
Y04281D01*
X01878D01*
Y04289D01*
X01874D01*
Y04293D01*
X01866D01*
Y04289D01*
X01862D01*
Y04281D01*
X01866D01*
X01831D02*
Y04277D01*
X01839D01*
Y04281D01*
X01843D01*
Y04289D01*
X01839D01*
Y04293D01*
X01831D01*
Y04289D01*
X01827D01*
Y04281D01*
X01831D01*
X01796D02*
Y04277D01*
X01804D01*
Y04281D01*
X01808D01*
Y04289D01*
X01804D01*
Y04293D01*
X01796D01*
Y04289D01*
X01792D01*
Y04281D01*
X01796D01*
X03851Y04286D02*
Y04282D01*
X03859D01*
Y04286D01*
X03863D01*
Y04294D01*
X03859D01*
Y04298D01*
X03851D01*
Y04294D01*
X03847D01*
Y04286D01*
X03851D01*
X03821D02*
Y04282D01*
X03829D01*
Y04286D01*
X03833D01*
Y04294D01*
X03829D01*
Y04298D01*
X03821D01*
Y04294D01*
X03817D01*
Y04286D01*
X03821D01*
X03791D02*
Y04282D01*
X03799D01*
Y04286D01*
X03803D01*
Y04294D01*
X03799D01*
Y04298D01*
X03791D01*
Y04294D01*
X03787D01*
Y04286D01*
X03791D01*
X03986Y03676D02*
Y03672D01*
X03994D01*
Y03676D01*
X03998D01*
Y03684D01*
X03994D01*
Y03688D01*
X03986D01*
Y03684D01*
X03982D01*
Y03676D01*
X03986D01*
X04016D02*
Y03672D01*
X04024D01*
Y03676D01*
X04028D01*
Y03684D01*
X04024D01*
Y03688D01*
X04016D01*
Y03684D01*
X04012D01*
Y03676D01*
X04016D01*
X04046D02*
Y03672D01*
X04054D01*
Y03676D01*
X04058D01*
Y03684D01*
X04054D01*
Y03688D01*
X04046D01*
Y03684D01*
X04042D01*
Y03676D01*
X04046D01*
X03986Y03646D02*
Y03642D01*
X03994D01*
Y03646D01*
X03998D01*
Y03654D01*
X03994D01*
Y03658D01*
X03986D01*
Y03654D01*
X03982D01*
Y03646D01*
X03986D01*
X04016D02*
Y03642D01*
X04024D01*
Y03646D01*
X04028D01*
Y03654D01*
X04024D01*
Y03658D01*
X04016D01*
Y03654D01*
X04012D01*
Y03646D01*
X04016D01*
X04046D02*
Y03642D01*
X04054D01*
Y03646D01*
X04058D01*
Y03654D01*
X04054D01*
Y03658D01*
X04046D01*
Y03654D01*
X04042D01*
Y03646D01*
X04046D01*
Y03616D02*
Y03612D01*
X04054D01*
Y03616D01*
X04058D01*
Y03624D01*
X04054D01*
Y03628D01*
X04046D01*
Y03624D01*
X04042D01*
Y03616D01*
X04046D01*
X04016D02*
Y03612D01*
X04024D01*
Y03616D01*
X04028D01*
Y03624D01*
X04024D01*
Y03628D01*
X04016D01*
Y03624D01*
X04012D01*
Y03616D01*
X04016D01*
X03986D02*
Y03612D01*
X03994D01*
Y03616D01*
X03998D01*
Y03624D01*
X03994D01*
Y03628D01*
X03986D01*
Y03624D01*
X03982D01*
Y03616D01*
X03986D01*
X03241Y02461D02*
Y02457D01*
X03249D01*
Y02461D01*
X03253D01*
Y02469D01*
X03249D01*
Y02473D01*
X03241D01*
Y02469D01*
X03237D01*
Y02461D01*
X03241D01*
X028263Y034849D02*
Y034809D01*
X028343D01*
Y034849D01*
X028383D01*
Y034929D01*
X028343D01*
Y034969D01*
X028263D01*
Y034929D01*
X028223D01*
Y034849D01*
X028263D01*
X028563D02*
Y034809D01*
X028643D01*
Y034849D01*
X028683D01*
Y034929D01*
X028643D01*
Y034969D01*
X028563D01*
Y034929D01*
X028523D01*
Y034849D01*
X028563D01*
X027356Y032822D02*
Y032782D01*
X027436D01*
Y032822D01*
X027476D01*
Y032902D01*
X027436D01*
Y032942D01*
X027356D01*
Y032902D01*
X027316D01*
Y032822D01*
X027356D01*
X026856Y033072D02*
Y033032D01*
X026936D01*
Y033072D01*
X026976D01*
Y033152D01*
X026936D01*
Y033192D01*
X026856D01*
Y033152D01*
X026816D01*
Y033072D01*
X026856D01*
X025863Y032949D02*
Y032909D01*
X025943D01*
Y032949D01*
X025983D01*
Y033029D01*
X025943D01*
Y033069D01*
X025863D01*
Y033029D01*
X025823D01*
Y032949D01*
X025863D01*
X025363Y033299D02*
Y033259D01*
X025443D01*
Y033299D01*
X025483D01*
Y033379D01*
X025443D01*
Y033419D01*
X025363D01*
Y033379D01*
X025323D01*
Y033299D01*
X025363D01*
X028563Y033949D02*
Y033909D01*
X028643D01*
Y033949D01*
X028683D01*
Y034029D01*
X028643D01*
Y034069D01*
X028563D01*
Y034029D01*
X028523D01*
Y033949D01*
X028563D01*
X028263D02*
Y033909D01*
X028343D01*
Y033949D01*
X028383D01*
Y034029D01*
X028343D01*
Y034069D01*
X028263D01*
Y034029D01*
X028223D01*
Y033949D01*
X028263D01*
X028563Y034249D02*
Y034209D01*
X028643D01*
Y034249D01*
X028683D01*
Y034329D01*
X028643D01*
Y034369D01*
X028563D01*
Y034329D01*
X028523D01*
Y034249D01*
X028563D01*
X028263D02*
Y034209D01*
X028343D01*
Y034249D01*
X028383D01*
Y034329D01*
X028343D01*
Y034369D01*
X028263D01*
Y034329D01*
X028223D01*
Y034249D01*
X028263D01*
X028563Y034549D02*
Y034509D01*
X028643D01*
Y034549D01*
X028683D01*
Y034629D01*
X028643D01*
Y034669D01*
X028563D01*
Y034629D01*
X028523D01*
Y034549D01*
X028563D01*
X028263D02*
Y034509D01*
X028343D01*
Y034549D01*
X028383D01*
Y034629D01*
X028343D01*
Y034669D01*
X028263D01*
Y034629D01*
X028223D01*
Y034549D01*
X028263D01*
X02411Y023427D02*
Y023387D01*
X02419D01*
Y023427D01*
X02423D01*
Y023507D01*
X02419D01*
Y023547D01*
X02411D01*
Y023507D01*
X02407D01*
Y023427D01*
X02411D01*
X01936Y03081D02*
Y03077D01*
X01944D01*
Y03081D01*
X01948D01*
Y03089D01*
X01944D01*
Y03093D01*
X01936D01*
Y03089D01*
X01932D01*
Y03081D01*
X01936D01*
X02011Y030493D02*
Y030453D01*
X02019D01*
Y030493D01*
X02023D01*
Y030573D01*
X02019D01*
Y030613D01*
X02011D01*
Y030573D01*
X02007D01*
Y030493D01*
X02011D01*
X01606Y01976D02*
Y01972D01*
X01614D01*
Y01976D01*
X01618D01*
Y01984D01*
X01614D01*
Y01988D01*
X01606D01*
Y01984D01*
X01602D01*
Y01976D01*
X01606D01*
X04421Y03026D02*
Y03022D01*
X04429D01*
Y03026D01*
X04433D01*
Y03034D01*
X04429D01*
Y03038D01*
X04421D01*
Y03034D01*
X04417D01*
Y03026D01*
X04421D01*
X03971Y03081D02*
Y03077D01*
X03979D01*
Y03081D01*
X03983D01*
Y03089D01*
X03979D01*
Y03093D01*
X03971D01*
Y03089D01*
X03967D01*
Y03081D01*
X03971D01*
X037203Y01746D02*
Y01742D01*
X037283D01*
Y01746D01*
X037323D01*
Y01754D01*
X037283D01*
Y01758D01*
X037203D01*
Y01754D01*
X037163D01*
Y01746D01*
X037203D01*
X04311Y01906D02*
Y01902D01*
X04319D01*
Y01906D01*
X04323D01*
Y01914D01*
X04319D01*
Y01918D01*
X04311D01*
Y01914D01*
X04307D01*
Y01906D01*
X04311D01*
X04421Y03466D02*
Y03462D01*
X04429D01*
Y03466D01*
X04433D01*
Y03474D01*
X04429D01*
Y03478D01*
X04421D01*
Y03474D01*
X04417D01*
Y03466D01*
X04421D01*
X04451D02*
Y03462D01*
X04459D01*
Y03466D01*
X04463D01*
Y03474D01*
X04459D01*
Y03478D01*
X04451D01*
Y03474D01*
X04447D01*
Y03466D01*
X04451D01*
X04481D02*
Y03462D01*
X04489D01*
Y03466D01*
X04493D01*
Y03474D01*
X04489D01*
Y03478D01*
X04481D01*
Y03474D01*
X04477D01*
Y03466D01*
X04481D01*
X04421Y03436D02*
Y03432D01*
X04429D01*
Y03436D01*
X04433D01*
Y03444D01*
X04429D01*
Y03448D01*
X04421D01*
Y03444D01*
X04417D01*
Y03436D01*
X04421D01*
X04451D02*
Y03432D01*
X04459D01*
Y03436D01*
X04463D01*
Y03444D01*
X04459D01*
Y03448D01*
X04451D01*
Y03444D01*
X04447D01*
Y03436D01*
X04451D01*
X04481D02*
Y03432D01*
X04489D01*
Y03436D01*
X04493D01*
Y03444D01*
X04489D01*
Y03448D01*
X04481D01*
Y03444D01*
X04477D01*
Y03436D01*
X04481D01*
Y03406D02*
Y03402D01*
X04489D01*
Y03406D01*
X04493D01*
Y03414D01*
X04489D01*
Y03418D01*
X04481D01*
Y03414D01*
X04477D01*
Y03406D01*
X04481D01*
X04451D02*
Y03402D01*
X04459D01*
Y03406D01*
X04463D01*
Y03414D01*
X04459D01*
Y03418D01*
X04451D01*
Y03414D01*
X04447D01*
Y03406D01*
X04451D01*
X04421D02*
Y03402D01*
X04429D01*
Y03406D01*
X04433D01*
Y03414D01*
X04429D01*
Y03418D01*
X04421D01*
Y03414D01*
X04417D01*
Y03406D01*
X04421D01*
X014313Y034099D02*
Y034059D01*
X014393D01*
Y034099D01*
X014433D01*
Y034179D01*
X014393D01*
Y034219D01*
X014313D01*
Y034179D01*
X014273D01*
Y034099D01*
X014313D01*
X014013D02*
Y034059D01*
X014093D01*
Y034099D01*
X014133D01*
Y034179D01*
X014093D01*
Y034219D01*
X014013D01*
Y034179D01*
X013973D01*
Y034099D01*
X014013D01*
X014313Y034399D02*
Y034359D01*
X014393D01*
Y034399D01*
X014433D01*
Y034479D01*
X014393D01*
Y034519D01*
X014313D01*
Y034479D01*
X014273D01*
Y034399D01*
X014313D01*
X014013D02*
Y034359D01*
X014093D01*
Y034399D01*
X014133D01*
Y034479D01*
X014093D01*
Y034519D01*
X014013D01*
Y034479D01*
X013973D01*
Y034399D01*
X014013D01*
X014313Y034699D02*
Y034659D01*
X014393D01*
Y034699D01*
X014433D01*
Y034779D01*
X014393D01*
Y034819D01*
X014313D01*
Y034779D01*
X014273D01*
Y034699D01*
X014313D01*
X014013D02*
Y034659D01*
X014093D01*
Y034699D01*
X014133D01*
Y034779D01*
X014093D01*
Y034819D01*
X014013D01*
Y034779D01*
X013973D01*
Y034699D01*
X014013D01*
X023763D02*
Y034659D01*
X023843D01*
Y034699D01*
X023883D01*
Y034779D01*
X023843D01*
Y034819D01*
X023763D01*
Y034779D01*
X023723D01*
Y034699D01*
X023763D01*
X024063D02*
Y034659D01*
X024143D01*
Y034699D01*
X024183D01*
Y034779D01*
X024143D01*
Y034819D01*
X024063D01*
Y034779D01*
X024023D01*
Y034699D01*
X024063D01*
X023763Y034399D02*
Y034359D01*
X023843D01*
Y034399D01*
X023883D01*
Y034479D01*
X023843D01*
Y034519D01*
X023763D01*
Y034479D01*
X023723D01*
Y034399D01*
X023763D01*
X024063D02*
Y034359D01*
X024143D01*
Y034399D01*
X024183D01*
Y034479D01*
X024143D01*
Y034519D01*
X024063D01*
Y034479D01*
X024023D01*
Y034399D01*
X024063D01*
X023763Y034099D02*
Y034059D01*
X023843D01*
Y034099D01*
X023883D01*
Y034179D01*
X023843D01*
Y034219D01*
X023763D01*
Y034179D01*
X023723D01*
Y034099D01*
X023763D01*
X024063D02*
Y034059D01*
X024143D01*
Y034099D01*
X024183D01*
Y034179D01*
X024143D01*
Y034219D01*
X024063D01*
Y034179D01*
X024023D01*
Y034099D01*
X024063D01*
X024363D02*
Y034059D01*
X024443D01*
Y034099D01*
X024483D01*
Y034179D01*
X024443D01*
Y034219D01*
X024363D01*
Y034179D01*
X024323D01*
Y034099D01*
X024363D01*
Y034699D02*
Y034659D01*
X024443D01*
Y034699D01*
X024483D01*
Y034779D01*
X024443D01*
Y034819D01*
X024363D01*
Y034779D01*
X024323D01*
Y034699D01*
X024363D01*
Y034399D02*
Y034359D01*
X024443D01*
Y034399D01*
X024483D01*
Y034479D01*
X024443D01*
Y034519D01*
X024363D01*
Y034479D01*
X024323D01*
Y034399D01*
X024363D01*
X03406Y03416D02*
Y03412D01*
X03414D01*
Y03416D01*
X03418D01*
Y03424D01*
X03414D01*
Y03428D01*
X03406D01*
Y03424D01*
X03402D01*
Y03416D01*
X03406D01*
X03436D02*
Y03412D01*
X03444D01*
Y03416D01*
X03448D01*
Y03424D01*
X03444D01*
Y03428D01*
X03436D01*
Y03424D01*
X03432D01*
Y03416D01*
X03436D01*
X03466D02*
Y03412D01*
X03474D01*
Y03416D01*
X03478D01*
Y03424D01*
X03474D01*
Y03428D01*
X03466D01*
Y03424D01*
X03462D01*
Y03416D01*
X03466D01*
Y03446D02*
Y03442D01*
X03474D01*
Y03446D01*
X03478D01*
Y03454D01*
X03474D01*
Y03458D01*
X03466D01*
Y03454D01*
X03462D01*
Y03446D01*
X03466D01*
X03436D02*
Y03442D01*
X03444D01*
Y03446D01*
X03448D01*
Y03454D01*
X03444D01*
Y03458D01*
X03436D01*
Y03454D01*
X03432D01*
Y03446D01*
X03436D01*
X03406D02*
Y03442D01*
X03414D01*
Y03446D01*
X03418D01*
Y03454D01*
X03414D01*
Y03458D01*
X03406D01*
Y03454D01*
X03402D01*
Y03446D01*
X03406D01*
X03466Y03476D02*
Y03472D01*
X03474D01*
Y03476D01*
X03478D01*
Y03484D01*
X03474D01*
Y03488D01*
X03466D01*
Y03484D01*
X03462D01*
Y03476D01*
X03466D01*
X03436D02*
Y03472D01*
X03444D01*
Y03476D01*
X03448D01*
Y03484D01*
X03444D01*
Y03488D01*
X03436D01*
Y03484D01*
X03432D01*
Y03476D01*
X03436D01*
X03406D02*
Y03472D01*
X03414D01*
Y03476D01*
X03418D01*
Y03484D01*
X03414D01*
Y03488D01*
X03406D01*
Y03484D01*
X03402D01*
Y03476D01*
X03406D01*
X02251Y02156D02*
Y02152D01*
X02259D01*
Y02156D01*
X02263D01*
Y02164D01*
X02259D01*
Y02168D01*
X02251D01*
Y02164D01*
X02247D01*
Y02156D01*
X02251D01*
Y02051D02*
Y02047D01*
X02259D01*
Y02051D01*
X02263D01*
Y02059D01*
X02259D01*
Y02063D01*
X02251D01*
Y02059D01*
X02247D01*
Y02051D01*
X02251D01*
X02201D02*
Y02047D01*
X02209D01*
Y02051D01*
X02213D01*
Y02059D01*
X02209D01*
Y02063D01*
X02201D01*
Y02059D01*
X02197D01*
Y02051D01*
X02201D01*
Y02101D02*
Y02097D01*
X02209D01*
Y02101D01*
X02213D01*
Y02109D01*
X02209D01*
Y02113D01*
X02201D01*
Y02109D01*
X02197D01*
Y02101D01*
X02201D01*
X02251Y02206D02*
Y02202D01*
X02259D01*
Y02206D01*
X02263D01*
Y02214D01*
X02259D01*
Y02218D01*
X02251D01*
Y02214D01*
X02247D01*
Y02206D01*
X02251D01*
Y02101D02*
Y02097D01*
X02259D01*
Y02101D01*
X02263D01*
Y02109D01*
X02259D01*
Y02113D01*
X02251D01*
Y02109D01*
X02247D01*
Y02101D01*
X02251D01*
X02201Y02156D02*
Y02152D01*
X02209D01*
Y02156D01*
X02213D01*
Y02164D01*
X02209D01*
Y02168D01*
X02201D01*
Y02164D01*
X02197D01*
Y02156D01*
X02201D01*
Y02206D02*
Y02202D01*
X02209D01*
Y02206D01*
X02213D01*
Y02214D01*
X02209D01*
Y02218D01*
X02201D01*
Y02214D01*
X02197D01*
Y02206D01*
X02201D01*
X026887Y02676D02*
Y02672D01*
X026967D01*
Y02676D01*
X027007D01*
Y02684D01*
X026967D01*
Y02688D01*
X026887D01*
Y02684D01*
X026847D01*
Y02676D01*
X026887D01*
X02686Y024127D02*
Y024087D01*
X02694D01*
Y024127D01*
X02698D01*
Y024207D01*
X02694D01*
Y024247D01*
X02686D01*
Y024207D01*
X02682D01*
Y024127D01*
X02686D01*
X02636Y02571D02*
Y02567D01*
X02644D01*
Y02571D01*
X02648D01*
Y02579D01*
X02644D01*
Y02583D01*
X02636D01*
Y02579D01*
X02632D01*
Y02571D01*
X02636D01*
X02321Y01571D02*
Y01567D01*
X02329D01*
Y01571D01*
X02333D01*
Y01579D01*
X02329D01*
Y01583D01*
X02321D01*
Y01579D01*
X02317D01*
Y01571D01*
X02321D01*
X02031Y02746D02*
Y02742D01*
X02039D01*
Y02746D01*
X02043D01*
Y02754D01*
X02039D01*
Y02758D01*
X02031D01*
Y02754D01*
X02027D01*
Y02746D01*
X02031D01*
X01946D02*
Y02742D01*
X01954D01*
Y02746D01*
X01958D01*
Y02754D01*
X01954D01*
Y02758D01*
X01946D01*
Y02754D01*
X01942D01*
Y02746D01*
X01946D01*
X02116D02*
Y02742D01*
X02124D01*
Y02746D01*
X02128D01*
Y02754D01*
X02124D01*
Y02758D01*
X02116D01*
Y02754D01*
X02112D01*
Y02746D01*
X02116D01*
X02031Y02681D02*
Y02677D01*
X02039D01*
Y02681D01*
X02043D01*
Y02689D01*
X02039D01*
Y02693D01*
X02031D01*
Y02689D01*
X02027D01*
Y02681D01*
X02031D01*
X02116D02*
Y02677D01*
X02124D01*
Y02681D01*
X02128D01*
Y02689D01*
X02124D01*
Y02693D01*
X02116D01*
Y02689D01*
X02112D01*
Y02681D01*
X02116D01*
X01946D02*
Y02677D01*
X01954D01*
Y02681D01*
X01958D01*
Y02689D01*
X01954D01*
Y02693D01*
X01946D01*
Y02689D01*
X01942D01*
Y02681D01*
X01946D01*
Y02606D02*
Y02602D01*
X01954D01*
Y02606D01*
X01958D01*
Y02614D01*
X01954D01*
Y02618D01*
X01946D01*
Y02614D01*
X01942D01*
Y02606D01*
X01946D01*
X02116D02*
Y02602D01*
X02124D01*
Y02606D01*
X02128D01*
Y02614D01*
X02124D01*
Y02618D01*
X02116D01*
Y02614D01*
X02112D01*
Y02606D01*
X02116D01*
Y02531D02*
Y02527D01*
X02124D01*
Y02531D01*
X02128D01*
Y02539D01*
X02124D01*
Y02543D01*
X02116D01*
Y02539D01*
X02112D01*
Y02531D01*
X02116D01*
X02031D02*
Y02527D01*
X02039D01*
Y02531D01*
X02043D01*
Y02539D01*
X02039D01*
Y02543D01*
X02031D01*
Y02539D01*
X02027D01*
Y02531D01*
X02031D01*
X01946D02*
Y02527D01*
X01954D01*
Y02531D01*
X01958D01*
Y02539D01*
X01954D01*
Y02543D01*
X01946D01*
Y02539D01*
X01942D01*
Y02531D01*
X01946D01*
Y02456D02*
Y02452D01*
X01954D01*
Y02456D01*
X01958D01*
Y02464D01*
X01954D01*
Y02468D01*
X01946D01*
Y02464D01*
X01942D01*
Y02456D01*
X01946D01*
X02116D02*
Y02452D01*
X02124D01*
Y02456D01*
X02128D01*
Y02464D01*
X02124D01*
Y02468D01*
X02116D01*
Y02464D01*
X02112D01*
Y02456D01*
X02116D01*
X02031D02*
Y02452D01*
X02039D01*
Y02456D01*
X02043D01*
Y02464D01*
X02039D01*
Y02468D01*
X02031D01*
Y02464D01*
X02027D01*
Y02456D01*
X02031D01*
X01716Y02841D02*
Y02837D01*
X01724D01*
Y02841D01*
X01728D01*
Y02849D01*
X01724D01*
Y02853D01*
X01716D01*
Y02849D01*
X01712D01*
Y02841D01*
X01716D01*
X01656D02*
Y02837D01*
X01664D01*
Y02841D01*
X01668D01*
Y02849D01*
X01664D01*
Y02853D01*
X01656D01*
Y02849D01*
X01652D01*
Y02841D01*
X01656D01*
X01601D02*
Y02837D01*
X01609D01*
Y02841D01*
X01613D01*
Y02849D01*
X01609D01*
Y02853D01*
X01601D01*
Y02849D01*
X01597D01*
Y02841D01*
X01601D01*
X01541D02*
Y02837D01*
X01549D01*
Y02841D01*
X01553D01*
Y02849D01*
X01549D01*
Y02853D01*
X01541D01*
Y02849D01*
X01537D01*
Y02841D01*
X01541D01*
Y02896D02*
Y02892D01*
X01549D01*
Y02896D01*
X01553D01*
Y02904D01*
X01549D01*
Y02908D01*
X01541D01*
Y02904D01*
X01537D01*
Y02896D01*
X01541D01*
X01716D02*
Y02892D01*
X01724D01*
Y02896D01*
X01728D01*
Y02904D01*
X01724D01*
Y02908D01*
X01716D01*
Y02904D01*
X01712D01*
Y02896D01*
X01716D01*
X01656D02*
Y02892D01*
X01664D01*
Y02896D01*
X01668D01*
Y02904D01*
X01664D01*
Y02908D01*
X01656D01*
Y02904D01*
X01652D01*
Y02896D01*
X01656D01*
X01601D02*
Y02892D01*
X01609D01*
Y02896D01*
X01613D01*
Y02904D01*
X01609D01*
Y02908D01*
X01601D01*
Y02904D01*
X01597D01*
Y02896D01*
X01601D01*
X03626Y01766D02*
Y01762D01*
X03634D01*
Y01766D01*
X03638D01*
Y01774D01*
X03634D01*
Y01778D01*
X03626D01*
Y01774D01*
X03622D01*
Y01766D01*
X03626D01*
X043804Y022067D02*
Y022027D01*
X043884D01*
Y022067D01*
X043924D01*
Y022147D01*
X043884D01*
Y022187D01*
X043804D01*
Y022147D01*
X043764D01*
Y022067D01*
X043804D01*
X04246Y02926D02*
Y02922D01*
X04254D01*
Y02926D01*
X04258D01*
Y02934D01*
X04254D01*
Y02938D01*
X04246D01*
Y02934D01*
X04242D01*
Y02926D01*
X04246D01*
X03206Y02176D02*
Y02172D01*
X03214D01*
Y02176D01*
X03218D01*
Y02184D01*
X03214D01*
Y02188D01*
X03206D01*
Y02184D01*
X03202D01*
Y02176D01*
X03206D01*
X04621Y03296D02*
Y03292D01*
X04629D01*
Y03296D01*
X04633D01*
Y03304D01*
X04629D01*
Y03308D01*
X04621D01*
Y03304D01*
X04617D01*
Y03296D01*
X04621D01*
X047706Y032672D02*
Y032632D01*
X047786D01*
Y032672D01*
X047826D01*
Y032752D01*
X047786D01*
Y032792D01*
X047706D01*
Y032752D01*
X047666D01*
Y032672D01*
X047706D01*
X04721Y03326D02*
Y03322D01*
X04729D01*
Y03326D01*
X04733D01*
Y03334D01*
X04729D01*
Y03338D01*
X04721D01*
Y03334D01*
X04717D01*
Y03326D01*
X04721D01*
X04571Y03331D02*
Y03327D01*
X04579D01*
Y03331D01*
X04583D01*
Y03339D01*
X04579D01*
Y03343D01*
X04571D01*
Y03339D01*
X04567D01*
Y03331D01*
X04571D01*
X036056Y033272D02*
Y033232D01*
X036136D01*
Y033272D01*
X036176D01*
Y033352D01*
X036136D01*
Y033392D01*
X036056D01*
Y033352D01*
X036016D01*
Y033272D01*
X036056D01*
X037556Y033322D02*
Y033282D01*
X037636D01*
Y033322D01*
X037676D01*
Y033402D01*
X037636D01*
Y033442D01*
X037556D01*
Y033402D01*
X037516D01*
Y033322D01*
X037556D01*
X03706Y03306D02*
Y03302D01*
X03714D01*
Y03306D01*
X03718D01*
Y03314D01*
X03714D01*
Y03318D01*
X03706D01*
Y03314D01*
X03702D01*
Y03306D01*
X03706D01*
X03556Y03301D02*
Y03297D01*
X03564D01*
Y03301D01*
X03568D01*
Y03309D01*
X03564D01*
Y03313D01*
X03556D01*
Y03309D01*
X03552D01*
Y03301D01*
X03556D01*
D107*
X03263Y015D02*
G03*
X03263Y015I-00008J0D01*
G01*
X031055D02*
G03*
X031055Y015I-00008J0D01*
G01*
M02*
