M48
;Layer_Color=9474304
;FILE_FORMAT=2:4
INCH,LZ
;TYPE=PLATED
T1F00S00C0.0118
T2F00S00C0.0276
T3F00S00C0.0300
T4F00S00C0.0354
T5F00S00C0.0512
T6F00S00C0.1378
%
T01
X02415Y01285
X02445
X0271Y01545
X0286Y01445
X03535Y01489
X0366Y0154
X03685
X0371
X0434Y01485
X0475Y02435
X046895Y025407
X0449Y0247
X044256Y024359
X0431Y02465
X043844Y022107
X0436Y02005
X0428Y0205
X0425Y020994
X04315Y0191
X04185Y0174
X0399Y01715
X040299Y018651
X037757Y01905
X037243Y0175
X0368Y0177
X0363Y0177
X0366Y0159
X03685
X0371
Y01565
X03685
X0366
X038843Y0157
X0389Y02125
X0381Y02165
X036018Y022167
X03665Y02325
X03535Y0236
X0348Y021587
X033Y02185
X0321Y0218
X033Y02325
X03245Y02465
X0336Y0255
X0375Y02485
X039085Y024235
X0395Y02425
X03985Y02535
X0379Y027477
X03525Y029255
X03445
Y030067
X0337
X03525
X03975Y03085
X0405Y030757
X0412Y0307
X042Y0308
X04275
X0431Y03015
X04425Y0303
X0425Y0293
X0348Y0195
X02785Y0193
X0269Y0207
X02495Y0199
X0243Y0196
X02255Y02055
X02205
Y02105
X02255
Y0216
Y0221
Y02255
X02205
Y0221
Y0216
X0212Y0246
Y02535
Y0261
Y02685
Y0275
X02035
Y02685
Y0261
Y02535
Y0246
X0195
Y02535
Y0261
Y02685
Y0275
X01775Y02845
Y029
X0172
Y02845
X0166
X01605
Y029
X0166
X01565Y025421
X0161Y0198
X02325Y01575
X0257Y01675
Y0178
X02865Y0158
X02915
X029783Y0218
X0298Y02285
X0295Y02665
Y028
X0279Y0282
X026927Y0268
X0264Y02575
X0269Y024167
X02415Y023467
X0247Y02977
X02315Y02975
X0231Y030579
X0213Y03085
X02015Y030533
X0194Y03085
X02125Y0292
X01545Y029
Y02845
X0143Y0189
X01525Y0332
X014653Y034139
Y034439
Y034739
X014353
Y034439
Y034139
X014053
Y034439
Y034739
X01455Y037
X015
X01545
Y03745
X015
X01455
Y0379
Y0383
Y0387
Y0391
Y0395
X015
Y0391
Y0387
Y0383
Y0379
X01545
Y0383
Y0387
Y0391
Y0395
X0159
Y0391
Y0387
Y0383
Y0379
Y03745
Y037
X0164
X01685
X0173
X01775
Y03745
X0173
X01685
X0164
Y0379
Y0383
Y0387
Y0391
Y0395
X01685
Y0391
Y0387
Y0383
Y0379
X0173
Y0383
Y0387
Y0391
Y0395
X01775
Y0391
Y0387
Y0383
Y0379
X018703Y036089
X019003
Y035789
Y035489
X019303
Y035789
Y036089
X018703Y035789
Y035489
X01725Y033377
X01675Y0331
X01575Y03335
X01775Y0313
X023803Y034139
Y034439
Y034739
X024103
Y034439
Y034139
X024403
Y034439
Y034739
X025403Y033339
X025903Y032989
X026896Y033112
X027396Y032862
X028303Y033989
X028603
Y034289
X028303
Y034589
Y034889
X028603
Y034589
X02795Y03695
Y0374
Y03785
Y03825
Y03865
Y03905
Y03945
X0275
Y03905
Y03865
Y03825
Y03785
X02705
Y03825
Y03865
Y03905
Y03945
X0266
Y03905
Y03865
Y03825
Y03785
Y0374
X02705
X0275
Y03695
X02705
X0266
X0261
Y0374
Y03785
Y03825
Y03865
Y03905
Y03945
X02565
Y03905
Y03865
Y03825
Y03785
X0252
Y03825
Y03865
Y03905
Y03945
X02475
Y03905
Y03865
Y03825
Y03785
Y0374
X0252
X02565
Y03695
X0252
X02475
X02465Y04285
X02435
X02405
X02375
Y04315
X02405
X02435
Y04345
X02405
X02375
X02465
Y04315
X0187Y0431
Y04285
X01835
Y0431
X018
Y04285
X03795Y0429
Y0432
Y0435
X03825
X03855
X03885
Y0432
Y0429
X03855
Y0432
X03825
Y0429
X0382Y0395
Y0391
Y0387
Y0383
Y0379
X03775
Y0383
Y0387
Y0391
Y0395
X0373
Y0391
Y0387
Y0383
Y0379
X03685
Y0383
Y0387
Y0391
Y0395
X03635
Y0391
Y0387
Y0383
Y0379
X0359
Y0383
Y0387
Y0391
Y0395
X03545
Y0391
Y0387
Y0383
Y0379
X035
Y0383
Y0387
Y0391
Y0395
Y03745
X03545
X0359
X03635
Y037
X0359
X03545
X035
X03685
Y03745
X0373
X03775
X0382
Y037
X03775
X0373
X0399Y0368
X0402
X0405
Y0365
X0402
X0399
Y0362
X0402
X0405
X04425Y0347
X04455
X04485
Y0344
X04455
X04425
Y0341
X04455
X04485
X04575Y03335
X04625Y033
X04605Y037
Y03745
Y0379
Y0383
Y0387
Y0391
Y0395
X0456
Y0391
Y0387
Y0383
Y0379
X04515
Y0383
Y0387
Y0391
Y0395
X0465
Y0391
Y0387
Y0383
Y0379
Y03745
Y037
X0456
Y03745
X04515
Y037
X0448Y04305
X04445
X0441
X037596Y033362
X0371Y0331
X036096Y033312
X0356Y03305
X0347Y0342
X0344
X0341
Y0345
X0344
X0347
Y0348
X0344
X0341
X04725Y0333
X047746Y032712
X0479Y037
Y03745
Y0379
Y0383
Y0387
Y0391
Y0395
X04835
Y0391
Y0387
Y0383
Y0379
Y03745
Y037
X04745
Y03745
Y0379
Y0383
Y0387
Y0391
Y0395
X047
Y0391
Y0387
Y0383
Y0379
Y03745
Y037
T02
X0349Y01325
X0359
X0369
X03955
X04055
X04155
X0456Y01735
Y01835
Y01935
Y02035
Y02135
Y02235
Y02335
Y02435
X0412Y02685
X0402
X0392
X0382
X0321Y02115
Y02015
X03165Y0186
X03265
X03365
Y0175
X03265
X03165
T03
X030975Y015
X03255
T04
X0132Y0216
Y0226
T05
X01375Y029541
Y0311
T06
X014Y0143
X04895
X0136Y04495
X04935
M30
