G04*
G04 #@! TF.GenerationSoftware,Altium Limited,Altium Designer,21.0.8 (223)*
G04*
G04 Layer_Color=16711935*
%FSTAX24Y24*%
%MOIN*%
G70*
G04*
G04 #@! TF.SameCoordinates,00D354F9-114D-4BFF-AAB9-25B0FB3EDDE6*
G04*
G04*
G04 #@! TF.FilePolarity,Negative*
G04*
G01*
G75*
%ADD41R,0.0631X0.0671*%
%ADD44R,0.0671X0.0631*%
%ADD45R,0.4045X0.3344*%
%ADD46O,0.1480X0.0671*%
%ADD47R,0.1480X0.0671*%
%ADD49R,0.0749X0.0513*%
%ADD52R,0.0552X0.0631*%
%ADD54R,0.0631X0.0552*%
%ADD55R,0.0513X0.0749*%
%ADD56R,0.0671X0.1104*%
%ADD57C,0.0671*%
%ADD58R,0.0671X0.0671*%
%ADD59C,0.0680*%
%ADD60R,0.1182X0.1182*%
%ADD61C,0.1182*%
%ADD62R,0.0671X0.0671*%
%ADD63C,0.2049*%
%ADD64C,0.0316*%
%ADD86R,0.0575X0.0220*%
%ADD91R,0.0620X0.0210*%
%ADD93R,0.0374X0.1104*%
%ADD94R,0.0474X0.1104*%
%ADD95R,0.0930X0.0501*%
%ADD96R,0.0395X0.1580*%
%ADD97R,0.1220X0.2210*%
%ADD98R,0.0651X0.0316*%
%ADD99O,0.0671X0.1480*%
%ADD100R,0.0671X0.1480*%
%ADD101R,0.0690X0.0966*%
%ADD102R,0.1104X0.0671*%
G36*
X021999Y028295D02*
X021342D01*
Y027882D01*
X018901D01*
Y024378D01*
X021342D01*
Y023965D01*
X021999D01*
Y028295D01*
D02*
G37*
D41*
X041344Y0143D02*
D03*
X040556D02*
D03*
X028144Y01825D02*
D03*
X027356D02*
D03*
X015306Y01815D02*
D03*
X016094D02*
D03*
D44*
X02885Y022594D02*
D03*
Y021806D02*
D03*
X02325Y014444D02*
D03*
Y013656D02*
D03*
D45*
X0264Y038161D02*
D03*
X01625D02*
D03*
X0366D02*
D03*
X04675D02*
D03*
D46*
X02115Y03D02*
D03*
D47*
X01825D02*
D03*
D49*
X0208Y016119D02*
D03*
Y017182D02*
D03*
D52*
X027254Y0147D02*
D03*
X026546D02*
D03*
X026904Y01955D02*
D03*
X026196D02*
D03*
X015346Y0172D02*
D03*
X016054D02*
D03*
X015396Y0193D02*
D03*
X016104D02*
D03*
D54*
X02435Y014454D02*
D03*
Y013746D02*
D03*
X02385Y020904D02*
D03*
Y020196D02*
D03*
D55*
X014563Y02795D02*
D03*
X0135D02*
D03*
X013469Y02605D02*
D03*
X014532D02*
D03*
D56*
X028859Y01975D02*
D03*
X030041D02*
D03*
D57*
X0392Y02685D02*
D03*
X0382D02*
D03*
X0402D02*
D03*
X03265Y0175D02*
D03*
X03165D02*
D03*
X04155Y01325D02*
D03*
X04055D02*
D03*
X0369D02*
D03*
X0359D02*
D03*
X0456Y02235D02*
D03*
Y02335D02*
D03*
Y02035D02*
D03*
Y02135D02*
D03*
Y01835D02*
D03*
Y01935D02*
D03*
Y01735D02*
D03*
X0132Y0216D02*
D03*
X0321Y02015D02*
D03*
X03265Y0186D02*
D03*
X03165D02*
D03*
D58*
X0412Y02685D02*
D03*
X03365Y0175D02*
D03*
X03955Y01325D02*
D03*
X0349D02*
D03*
X0132Y0226D02*
D03*
X03365Y0186D02*
D03*
D59*
X03255Y015D02*
D03*
X030975D02*
D03*
D60*
X01375Y029541D02*
D03*
D61*
Y0311D02*
D03*
D62*
X0456Y02435D02*
D03*
X0321Y02115D02*
D03*
D63*
X0136Y04495D02*
D03*
X04935D02*
D03*
X04895Y0143D02*
D03*
X014D02*
D03*
D64*
X0405Y030757D02*
D03*
X0337Y030067D02*
D03*
X03445D02*
D03*
X0247Y02977D02*
D03*
X03525Y030067D02*
D03*
X0412Y0307D02*
D03*
X04275Y0308D02*
D03*
X042D02*
D03*
X04515Y0395D02*
D03*
X0456D02*
D03*
X04605D02*
D03*
X0465D02*
D03*
X04835D02*
D03*
X0479D02*
D03*
X04745D02*
D03*
X047D02*
D03*
X0465Y0391D02*
D03*
X04605D02*
D03*
X0456D02*
D03*
X04515D02*
D03*
X04835D02*
D03*
X0479D02*
D03*
X04745D02*
D03*
X047D02*
D03*
X04835Y0387D02*
D03*
X0479D02*
D03*
X04745D02*
D03*
X047D02*
D03*
X0465D02*
D03*
X04605D02*
D03*
X0456D02*
D03*
X04515D02*
D03*
X0465Y0383D02*
D03*
X04605D02*
D03*
X0456D02*
D03*
X04515D02*
D03*
X04835D02*
D03*
X0479D02*
D03*
X04745D02*
D03*
X047D02*
D03*
X0465Y0379D02*
D03*
X04605D02*
D03*
X0456D02*
D03*
X04515D02*
D03*
X04835D02*
D03*
X0479D02*
D03*
X04745D02*
D03*
X047D02*
D03*
X04835Y03745D02*
D03*
X0479D02*
D03*
X04745D02*
D03*
X047D02*
D03*
X0465D02*
D03*
X04605D02*
D03*
X0456D02*
D03*
X04515D02*
D03*
X0465Y037D02*
D03*
X04605D02*
D03*
X0456D02*
D03*
X04515D02*
D03*
X04835D02*
D03*
X0479D02*
D03*
X04745D02*
D03*
X047D02*
D03*
X035Y0395D02*
D03*
X03545D02*
D03*
X0359D02*
D03*
X03635D02*
D03*
X0382D02*
D03*
X03775D02*
D03*
X0373D02*
D03*
X03685D02*
D03*
X03635Y0391D02*
D03*
X0359D02*
D03*
X03545D02*
D03*
X035D02*
D03*
X0382D02*
D03*
X03775D02*
D03*
X0373D02*
D03*
X03685D02*
D03*
X0382Y0387D02*
D03*
X03775D02*
D03*
X0373D02*
D03*
X03685D02*
D03*
X03635D02*
D03*
X0359D02*
D03*
X03545D02*
D03*
X035D02*
D03*
X03635Y0383D02*
D03*
X0359D02*
D03*
X03545D02*
D03*
X035D02*
D03*
X0382D02*
D03*
X03775D02*
D03*
X0373D02*
D03*
X03685D02*
D03*
X03635Y0379D02*
D03*
X0359D02*
D03*
X03545D02*
D03*
X035D02*
D03*
X0382D02*
D03*
X03775D02*
D03*
X0373D02*
D03*
X03685D02*
D03*
X0382Y03745D02*
D03*
X03775D02*
D03*
X0373D02*
D03*
X03685D02*
D03*
X03635D02*
D03*
X0359D02*
D03*
X03545D02*
D03*
X035D02*
D03*
X03635Y037D02*
D03*
X0359D02*
D03*
X03545D02*
D03*
X035D02*
D03*
X0382D02*
D03*
X03775D02*
D03*
X0373D02*
D03*
X03685D02*
D03*
X02475Y03945D02*
D03*
X0252D02*
D03*
X02565D02*
D03*
X0261D02*
D03*
X02795D02*
D03*
X0275D02*
D03*
X02705D02*
D03*
X0266D02*
D03*
X0261Y03905D02*
D03*
X02565D02*
D03*
X0252D02*
D03*
X02475D02*
D03*
X02795D02*
D03*
X0275D02*
D03*
X02705D02*
D03*
X0266D02*
D03*
X02795Y03865D02*
D03*
X0275D02*
D03*
X02705D02*
D03*
X0266D02*
D03*
X0261D02*
D03*
X02565D02*
D03*
X0252D02*
D03*
X02475D02*
D03*
X0261Y03825D02*
D03*
X02565D02*
D03*
X0252D02*
D03*
X02475D02*
D03*
X02795D02*
D03*
X0275D02*
D03*
X02705D02*
D03*
X0266D02*
D03*
X0261Y03785D02*
D03*
X02565D02*
D03*
X0252D02*
D03*
X02475D02*
D03*
X02795D02*
D03*
X0275D02*
D03*
X02705D02*
D03*
X0266D02*
D03*
X02795Y0374D02*
D03*
X0275D02*
D03*
X02705D02*
D03*
X0266D02*
D03*
X0261D02*
D03*
X02565D02*
D03*
X0252D02*
D03*
X02475D02*
D03*
X0261Y03695D02*
D03*
X02565D02*
D03*
X0252D02*
D03*
X02475D02*
D03*
X02795D02*
D03*
X0275D02*
D03*
X02705D02*
D03*
X0266D02*
D03*
X0164Y037D02*
D03*
X01685D02*
D03*
X0173D02*
D03*
X01775D02*
D03*
X01455D02*
D03*
X015D02*
D03*
X01545D02*
D03*
X0159D02*
D03*
X01455Y03745D02*
D03*
X015D02*
D03*
X01545D02*
D03*
X0159D02*
D03*
X0164D02*
D03*
X01685D02*
D03*
X0173D02*
D03*
X01775D02*
D03*
X0164Y0379D02*
D03*
X01685D02*
D03*
X0173D02*
D03*
X01775D02*
D03*
X01455D02*
D03*
X015D02*
D03*
X01545D02*
D03*
X0159D02*
D03*
X0164Y0383D02*
D03*
X01685D02*
D03*
X0173D02*
D03*
X01775D02*
D03*
X01455D02*
D03*
X015D02*
D03*
X01545D02*
D03*
X0159D02*
D03*
X01455Y0387D02*
D03*
X015D02*
D03*
X01545D02*
D03*
X0159D02*
D03*
X0164D02*
D03*
X01685D02*
D03*
X0173D02*
D03*
X01775D02*
D03*
X0164Y0391D02*
D03*
X01685D02*
D03*
X0173D02*
D03*
X01775D02*
D03*
X01455D02*
D03*
X015D02*
D03*
X01545D02*
D03*
X0159D02*
D03*
X0164Y0395D02*
D03*
X01685D02*
D03*
X0173D02*
D03*
X01775D02*
D03*
X0159D02*
D03*
X01545D02*
D03*
X015D02*
D03*
X01455D02*
D03*
X02915Y0158D02*
D03*
X02865D02*
D03*
X02205Y02255D02*
D03*
X02255D02*
D03*
X0271Y01545D02*
D03*
X0381Y02165D02*
D03*
X0436Y02005D02*
D03*
X0389Y02125D02*
D03*
X036018Y022167D02*
D03*
X0428Y0205D02*
D03*
X0449Y0247D02*
D03*
X040299Y018651D02*
D03*
X0395Y02425D02*
D03*
X037757Y01905D02*
D03*
X039085Y024235D02*
D03*
X0425Y020994D02*
D03*
X01565Y025421D02*
D03*
X02035Y0261D02*
D03*
X0295Y02665D02*
D03*
Y028D02*
D03*
X02125Y0292D02*
D03*
X03535Y0236D02*
D03*
X0213Y03085D02*
D03*
X01525Y0332D02*
D03*
X046895Y025407D02*
D03*
X0475Y02435D02*
D03*
X0431Y02465D02*
D03*
X03665Y02325D02*
D03*
X0348Y021587D02*
D03*
X03535Y01489D02*
D03*
X0371Y0159D02*
D03*
Y01565D02*
D03*
X0366Y0154D02*
D03*
X03685Y0159D02*
D03*
X0371Y0154D02*
D03*
X03685D02*
D03*
X0366Y0159D02*
D03*
X03685Y01565D02*
D03*
X0366D02*
D03*
X0434Y01485D02*
D03*
X0231Y030579D02*
D03*
X02315Y02975D02*
D03*
X01775Y029D02*
D03*
Y02845D02*
D03*
X04185Y0174D02*
D03*
X0399Y01715D02*
D03*
X0375Y02485D02*
D03*
X0379Y027477D02*
D03*
X02785Y0193D02*
D03*
X0243Y0196D02*
D03*
X044256Y024359D02*
D03*
X033Y02325D02*
D03*
Y02185D02*
D03*
X0368Y0177D02*
D03*
X0348Y0195D02*
D03*
X038843Y0157D02*
D03*
X0257Y0178D02*
D03*
X029783Y0218D02*
D03*
X0298Y02285D02*
D03*
X0279Y0282D02*
D03*
X03985Y02535D02*
D03*
X0431Y03015D02*
D03*
X03445Y029255D02*
D03*
X0336Y0255D02*
D03*
X03525Y029255D02*
D03*
X02445Y01285D02*
D03*
X02495Y0199D02*
D03*
X0286Y01445D02*
D03*
X0257Y01675D02*
D03*
X01775Y0313D02*
D03*
X01725Y033377D02*
D03*
X01675Y0331D02*
D03*
X01575Y03335D02*
D03*
X014653Y034739D02*
D03*
Y034139D02*
D03*
Y034439D02*
D03*
X0269Y0207D02*
D03*
X018Y0431D02*
D03*
X01835D02*
D03*
X0187D02*
D03*
X019003Y036089D02*
D03*
Y035789D02*
D03*
Y035489D02*
D03*
X019303D02*
D03*
Y036089D02*
D03*
Y035789D02*
D03*
X018703D02*
D03*
Y035489D02*
D03*
Y036089D02*
D03*
X0143Y0189D02*
D03*
X02415Y01285D02*
D03*
X02375Y04285D02*
D03*
X02405D02*
D03*
X02435D02*
D03*
Y04315D02*
D03*
X02405D02*
D03*
X02375D02*
D03*
X02435Y04345D02*
D03*
X02405D02*
D03*
X02375D02*
D03*
X02465Y04285D02*
D03*
Y04315D02*
D03*
Y04345D02*
D03*
X03885Y0435D02*
D03*
Y0432D02*
D03*
Y0429D02*
D03*
X0448Y04305D02*
D03*
X04445D02*
D03*
X0441D02*
D03*
X03795Y0435D02*
D03*
X03825D02*
D03*
X03855D02*
D03*
X03795Y0432D02*
D03*
X03825D02*
D03*
X03855D02*
D03*
X0187Y04285D02*
D03*
X01835D02*
D03*
X018D02*
D03*
X03855Y0429D02*
D03*
X03825D02*
D03*
X03795D02*
D03*
X0399Y0368D02*
D03*
X0402D02*
D03*
X0405D02*
D03*
X0399Y0365D02*
D03*
X0402D02*
D03*
X0405D02*
D03*
Y0362D02*
D03*
X0402D02*
D03*
X0399D02*
D03*
X03245Y02465D02*
D03*
X028303Y034889D02*
D03*
X028603D02*
D03*
X027396Y032862D02*
D03*
X026896Y033112D02*
D03*
X025903Y032989D02*
D03*
X025403Y033339D02*
D03*
X028603Y033989D02*
D03*
X028303D02*
D03*
X028603Y034289D02*
D03*
X028303D02*
D03*
X028603Y034589D02*
D03*
X028303D02*
D03*
X02415Y023467D02*
D03*
X0194Y03085D02*
D03*
X02015Y030533D02*
D03*
X0161Y0198D02*
D03*
X04425Y0303D02*
D03*
X03975Y03085D02*
D03*
X037243Y0175D02*
D03*
X04315Y0191D02*
D03*
X04425Y0347D02*
D03*
X04455D02*
D03*
X04485D02*
D03*
X04425Y0344D02*
D03*
X04455D02*
D03*
X04485D02*
D03*
Y0341D02*
D03*
X04455D02*
D03*
X04425D02*
D03*
X014353Y034139D02*
D03*
X014053D02*
D03*
X014353Y034439D02*
D03*
X014053D02*
D03*
X014353Y034739D02*
D03*
X014053D02*
D03*
X023803D02*
D03*
X024103D02*
D03*
X023803Y034439D02*
D03*
X024103D02*
D03*
X023803Y034139D02*
D03*
X024103D02*
D03*
X024403D02*
D03*
Y034739D02*
D03*
Y034439D02*
D03*
X0341Y0342D02*
D03*
X0344D02*
D03*
X0347D02*
D03*
Y0345D02*
D03*
X0344D02*
D03*
X0341D02*
D03*
X0347Y0348D02*
D03*
X0344D02*
D03*
X0341D02*
D03*
X02255Y0216D02*
D03*
Y02055D02*
D03*
X02205D02*
D03*
Y02105D02*
D03*
X02255Y0221D02*
D03*
Y02105D02*
D03*
X02205Y0216D02*
D03*
Y0221D02*
D03*
X026927Y0268D02*
D03*
X0269Y024167D02*
D03*
X0264Y02575D02*
D03*
X02325Y01575D02*
D03*
X02035Y0275D02*
D03*
X0195D02*
D03*
X0212D02*
D03*
X02035Y02685D02*
D03*
X0212D02*
D03*
X0195D02*
D03*
Y0261D02*
D03*
X0212D02*
D03*
Y02535D02*
D03*
X02035D02*
D03*
X0195D02*
D03*
Y0246D02*
D03*
X0212D02*
D03*
X02035D02*
D03*
X0172Y02845D02*
D03*
X0166D02*
D03*
X01605D02*
D03*
X01545D02*
D03*
Y029D02*
D03*
X0172D02*
D03*
X0166D02*
D03*
X01605D02*
D03*
X0363Y0177D02*
D03*
X043844Y022107D02*
D03*
X0425Y0293D02*
D03*
X0321Y0218D02*
D03*
X04625Y033D02*
D03*
X047746Y032712D02*
D03*
X04725Y0333D02*
D03*
X04575Y03335D02*
D03*
X036096Y033312D02*
D03*
X037596Y033362D02*
D03*
X0371Y0331D02*
D03*
X0356Y03305D02*
D03*
D86*
X025577Y02045D02*
D03*
Y02095D02*
D03*
Y02145D02*
D03*
Y02195D02*
D03*
Y02245D02*
D03*
Y02295D02*
D03*
Y02345D02*
D03*
X027722D02*
D03*
Y02295D02*
D03*
Y02245D02*
D03*
Y02195D02*
D03*
Y02145D02*
D03*
Y02095D02*
D03*
Y02045D02*
D03*
D91*
X025095Y0172D02*
D03*
Y0167D02*
D03*
Y0162D02*
D03*
Y0157D02*
D03*
X028005D02*
D03*
Y0162D02*
D03*
Y0167D02*
D03*
Y0172D02*
D03*
D93*
X031488Y0288D02*
D03*
X038188D02*
D03*
X023925D02*
D03*
X030625D02*
D03*
D94*
X036037Y03115D02*
D03*
X03525D02*
D03*
X034463D02*
D03*
X033675D02*
D03*
X032888D02*
D03*
X036825D02*
D03*
X028475D02*
D03*
X027687D02*
D03*
X0269D02*
D03*
X026113D02*
D03*
X025325D02*
D03*
X029262D02*
D03*
D95*
X016381Y024791D02*
D03*
Y025461D02*
D03*
Y02613D02*
D03*
Y026799D02*
D03*
Y027469D02*
D03*
D96*
X0264Y034357D02*
D03*
X0269D02*
D03*
X0274D02*
D03*
X0279D02*
D03*
X0259D02*
D03*
X0254D02*
D03*
X0249D02*
D03*
X01475D02*
D03*
X01525D02*
D03*
X01575D02*
D03*
X01775D02*
D03*
X01725D02*
D03*
X01675D02*
D03*
X01625D02*
D03*
X0351D02*
D03*
X0356D02*
D03*
X0361D02*
D03*
X0381D02*
D03*
X0376D02*
D03*
X0371D02*
D03*
X0366D02*
D03*
X04525D02*
D03*
X04575D02*
D03*
X04625D02*
D03*
X04825D02*
D03*
X04775D02*
D03*
X04725D02*
D03*
X04675D02*
D03*
D97*
X0184Y0214D02*
D03*
X0223D02*
D03*
D98*
X032663Y0161D02*
D03*
X031737Y016474D02*
D03*
Y015726D02*
D03*
D99*
X0186Y01495D02*
D03*
D100*
Y01785D02*
D03*
D101*
X02195Y017475D02*
D03*
Y0159D02*
D03*
X01635Y021463D02*
D03*
Y023037D02*
D03*
D102*
X02415Y022259D02*
D03*
Y023441D02*
D03*
M02*
