G04*
G04 #@! TF.GenerationSoftware,Altium Limited,Altium Designer,21.0.8 (223)*
G04*
G04 Layer_Physical_Order=2*
G04 Layer_Color=16711680*
%FSTAX24Y24*%
%MOIN*%
G70*
G04*
G04 #@! TF.SameCoordinates,00D354F9-114D-4BFF-AAB9-25B0FB3EDDE6*
G04*
G04*
G04 #@! TF.FilePolarity,Positive*
G04*
G01*
G75*
%ADD11C,0.0079*%
%ADD12C,0.0100*%
%ADD21R,0.0551X0.0591*%
%ADD24R,0.0591X0.0551*%
%ADD25O,0.1400X0.0591*%
%ADD26R,0.1400X0.0591*%
%ADD28R,0.0669X0.0433*%
%ADD33R,0.0472X0.0551*%
%ADD35R,0.0551X0.0472*%
%ADD36R,0.0433X0.0669*%
%ADD37R,0.0591X0.1024*%
%ADD65R,0.3965X0.3264*%
%ADD66C,0.0197*%
%ADD68C,0.0787*%
%ADD69C,0.0118*%
%ADD70C,0.0591*%
%ADD71C,0.0984*%
%ADD72C,0.0591*%
%ADD73R,0.0591X0.0591*%
%ADD74C,0.0600*%
%ADD75R,0.1102X0.1102*%
%ADD76C,0.1102*%
%ADD77R,0.0591X0.0591*%
%ADD78C,0.1969*%
%ADD79C,0.0236*%
%ADD80R,0.0294X0.1024*%
%ADD81R,0.0394X0.1024*%
%ADD82R,0.0850X0.0421*%
%ADD83R,0.0500X0.0250*%
%ADD84R,0.0315X0.1500*%
%ADD85R,0.1140X0.2130*%
%ADD86R,0.0575X0.0220*%
%ADD87R,0.0571X0.0236*%
%ADD88O,0.0591X0.1400*%
%ADD89R,0.0591X0.1400*%
%ADD90R,0.0610X0.0886*%
%ADD91R,0.0620X0.0210*%
%ADD92R,0.1024X0.0591*%
G36*
X0257Y04205D02*
X02425D01*
X022846Y040646D01*
X022825Y040655D01*
Y04065D01*
X0137D01*
X0137Y033029D01*
X01465Y032D01*
X01465Y03055D01*
X013Y03055D01*
Y02845D01*
X01375D01*
Y02755D01*
X013D01*
Y0253D01*
X01525Y0253D01*
Y025D01*
X0168D01*
Y0225D01*
X0156D01*
Y01905D01*
X0147D01*
Y01635D01*
X02235D01*
Y01395D01*
X02465D01*
Y0127D01*
X02235D01*
X011962Y0127D01*
Y02225D01*
Y03075D01*
X011953D01*
Y04065D01*
Y0407D01*
Y0433D01*
X01435Y0433D01*
X01485Y0438D01*
X0228Y0438D01*
D01*
X0257D01*
Y04205D01*
D02*
G37*
G36*
X01955Y033625D02*
X01775Y033625D01*
Y035075D01*
X01845Y035075D01*
X01845Y03625D01*
X01955Y03625D01*
X01955Y033625D01*
D02*
G37*
G36*
X04075Y033725D02*
X0381D01*
Y035075D01*
X0396Y035075D01*
X0396Y037075D01*
X04075Y037075D01*
X04075Y033725D01*
D02*
G37*
G36*
X051047Y04315D02*
D01*
X051047Y0337D01*
X048226D01*
X048226Y03555D01*
X049326D01*
X049326Y04165D01*
X0389D01*
X03765Y0429D01*
Y04375D01*
X051047D01*
Y04315D01*
D02*
G37*
G36*
X04515Y03365D02*
X04395D01*
Y0351D01*
X04515D01*
Y03365D01*
D02*
G37*
G36*
X0148D02*
X0139D01*
Y0351D01*
X0148D01*
Y03365D01*
D02*
G37*
G36*
X03505Y0336D02*
X03385D01*
Y0351D01*
X03505D01*
Y0336D01*
D02*
G37*
G36*
X02475D02*
X02355D01*
Y0351D01*
X02475D01*
Y0336D01*
D02*
G37*
G36*
X028875Y0335D02*
X027925D01*
X027925Y03525D01*
X028875D01*
X028875Y0335D01*
D02*
G37*
G36*
X0215Y031024D02*
Y030698D01*
X020294D01*
X020274Y030718D01*
X020193Y030752D01*
X020107D01*
X020026Y030718D01*
X019965Y030657D01*
X019932Y030577D01*
Y03055D01*
Y03049D01*
X019965Y03041D01*
X020026Y030349D01*
X020107Y030315D01*
X020193D01*
X020274Y030349D01*
X020335Y03041D01*
X020337Y030414D01*
X0215D01*
Y0289D01*
X0194Y0289D01*
Y03055D01*
X01465D01*
Y032D01*
X020435D01*
X0215Y031024D01*
D02*
G37*
G36*
X03465Y039669D02*
X034809Y039773D01*
X034855Y039752D01*
X035147Y036637D01*
X035113Y0366D01*
X0331Y0366D01*
X0331Y030675D01*
X033054Y030656D01*
X0328Y030903D01*
X0328Y03065D01*
X03255D01*
X03155Y03165D01*
Y032119D01*
X03155Y032119D01*
X03155Y03755D01*
X03155D01*
X03155Y0381D01*
X03325Y0398D01*
X03465D01*
Y039669D01*
D02*
G37*
G36*
X0309Y0382D02*
Y037064D01*
X0309Y037064D01*
Y032152D01*
D01*
X0309Y03165D01*
X0299Y03065D01*
X0294Y03065D01*
Y03094D01*
X029245Y030816D01*
X0292Y030838D01*
Y03655D01*
X027221D01*
X027191Y03659D01*
X028188Y039763D01*
X028201Y039767D01*
X028215Y0398D01*
X0293D01*
X0309Y0382D01*
D02*
G37*
G36*
X045004Y039754D02*
X0448Y03955D01*
Y0366D01*
X04475Y03655D01*
X0435D01*
Y03155D01*
X0386D01*
X03765Y0306D01*
X0366D01*
Y0317D01*
X03775Y03285D01*
X0416D01*
Y036415D01*
X0416Y036415D01*
X0416Y03825D01*
X04315Y0398D01*
X044985Y0398D01*
X045004Y039754D01*
D02*
G37*
G36*
X0223Y03875D02*
Y035369D01*
D01*
Y0335D01*
X02345Y03235D01*
X0248D01*
X02543Y03172D01*
X025429Y03172D01*
X0255Y0317D01*
Y03083D01*
Y0306D01*
X0238D01*
X02357Y03083D01*
X022253D01*
X020292Y032792D01*
X0203Y032803D01*
Y03655D01*
X01815D01*
Y0398D01*
X02125D01*
X0223Y03875D01*
D02*
G37*
G36*
X018404Y030146D02*
X018385Y0301D01*
X01555D01*
X01885Y0301D01*
X01885Y028732D01*
X0176Y027876D01*
X0176Y02725D01*
X01545Y02725D01*
X0148Y0266D01*
X0137D01*
Y02595D01*
X01325D01*
X01325Y0273D01*
X014035D01*
X014033Y027433D01*
X014Y030064D01*
X014036Y0301D01*
X01505D01*
Y0303D01*
X01825D01*
X018404Y030146D01*
D02*
G37*
G36*
X02196Y024004D02*
X02161D01*
X0197Y02195D01*
Y02025D01*
X0197D01*
Y0199D01*
X017029Y0199D01*
X016Y02085D01*
Y0212D01*
Y02215D01*
X01725Y02215D01*
X01725Y0259D01*
X01635Y0259D01*
X01635Y02635D01*
X017986Y02635D01*
X01894Y02721D01*
Y027843D01*
X021381D01*
Y028256D01*
X02196D01*
Y024004D01*
D02*
G37*
G36*
X02295Y02275D02*
Y02255D01*
X02295D01*
Y01875D01*
X02295D01*
Y01855D01*
X022925D01*
Y0169D01*
X015975D01*
Y01846D01*
X017475Y0189D01*
X0214D01*
Y02275D01*
X02295Y02275D01*
D02*
G37*
G36*
X0294Y0156D02*
X0283D01*
Y015995D01*
X028415D01*
Y016D01*
X0294D01*
Y0156D01*
D02*
G37*
G36*
X0372Y01515D02*
X0363D01*
Y016099D01*
X036301Y0161D01*
X0372D01*
Y01515D01*
D02*
G37*
%LPC*%
G36*
X013364Y021995D02*
X013036D01*
X012805Y021764D01*
Y021436D01*
X013036Y021205D01*
X013364D01*
X013595Y021436D01*
Y021764D01*
X013364Y021995D01*
D02*
G37*
G36*
X014449Y015384D02*
X013551D01*
X012916Y014749D01*
Y013851D01*
X013551Y013216D01*
X014449D01*
X015084Y013851D01*
Y014749D01*
X014449Y015384D01*
D02*
G37*
%LPD*%
D11*
X03445Y030067D02*
Y031137D01*
X034463Y03115D01*
X03525Y030067D02*
Y03115D01*
X0412Y03069D02*
X04139Y0305D01*
X0412Y03069D02*
Y0307D01*
X04139Y0305D02*
X0421D01*
X03245Y0228D02*
Y02465D01*
Y0228D02*
X0331Y02215D01*
X036001D01*
X040543Y030757D02*
X04145Y02985D01*
X04195D02*
X0425Y0293D01*
X04145Y02985D02*
X04195D01*
X0405Y030757D02*
X040543D01*
X0421Y0305D02*
X0428Y0298D01*
X039259Y029512D02*
X040466Y030719D01*
X0405D01*
X0363Y01815D02*
X0389Y02075D01*
Y021264D01*
X0381Y02165D02*
X0394D01*
X0434Y01765D01*
X0363Y0177D02*
Y01815D01*
X024489Y029512D02*
X039259D01*
X023422Y030579D02*
X024489Y029512D01*
X045607Y025407D02*
X046895D01*
X036001Y02215D02*
X036018Y022167D01*
X0349Y01445D02*
X03534Y01489D01*
X03535D01*
X020173Y030556D02*
X023077D01*
X0231Y030579D01*
X023129D02*
X023422D01*
X02015Y030533D02*
X020173Y030556D01*
X0449Y0247D02*
X045607Y025407D01*
X04425Y0207D02*
Y024354D01*
X044256Y024359D01*
X0428Y020562D02*
Y0298D01*
X0425Y020994D02*
Y0293D01*
X0368Y0177D02*
Y018093D01*
X037757Y01905D01*
X0434Y01485D02*
Y01765D01*
X04325Y0303D02*
X04425D01*
X0431Y03015D02*
X04325Y0303D01*
X0349Y01325D02*
Y01445D01*
X04361Y02006D02*
X04425Y0207D01*
D12*
X0271Y01545D02*
Y0169D01*
X03525Y02785D02*
Y029255D01*
Y02785D02*
X037387Y025712D01*
X038588D01*
X0395Y0248D01*
Y02425D02*
Y0248D01*
X039085Y024235D02*
Y024615D01*
X037189Y025261D02*
X038439D01*
X039085Y024615D01*
X03445Y028D02*
X037189Y025261D01*
X03445Y028D02*
Y029255D01*
X02405Y0196D02*
X0243D01*
X02385Y0198D02*
Y020196D01*
Y0198D02*
X02405Y0196D01*
X0257Y0178D02*
Y0186D01*
X0269Y0196D02*
X028859D01*
X026875D02*
X0269D01*
X02495Y0199D02*
Y0203D01*
X02455Y01975D02*
X0257Y0186D01*
X02455Y01975D02*
Y02105D01*
X02495Y02145D01*
X028859Y0196D02*
X028859Y0196D01*
X02495Y02145D02*
X025577D01*
X0251Y02045D02*
X02555D01*
X02495Y0203D02*
X0251Y02045D01*
X02385Y021D02*
Y0215D01*
X02415Y0218D01*
Y022259D01*
X0257Y0164D02*
Y01675D01*
X0255Y0162D02*
X0257Y0164D01*
X025095Y0162D02*
X0255D01*
X026196Y01925D02*
Y020704D01*
X025577Y02095D02*
X02595D01*
X026196Y020704D01*
X0275Y01405D02*
X029139D01*
X030815Y015726D01*
X027254Y014296D02*
X0275Y01405D01*
X027254Y014296D02*
Y0147D01*
X030815Y015726D02*
X031726D01*
X026914Y02418D02*
Y026786D01*
X026927Y0268D01*
X0269Y024167D02*
X026914Y02418D01*
X0271Y0169D02*
X0274Y0172D01*
X028005D01*
X02655Y0147D02*
Y0153D01*
X02615Y0157D02*
X02655Y0153D01*
X025095Y0157D02*
X02615D01*
D21*
X041344Y0143D02*
D03*
X040556D02*
D03*
X028144Y01825D02*
D03*
X027356D02*
D03*
X015306Y01815D02*
D03*
X016094D02*
D03*
D24*
X02885Y022594D02*
D03*
Y021806D02*
D03*
X02325Y014444D02*
D03*
Y013656D02*
D03*
D25*
X02115Y03D02*
D03*
D26*
X01825D02*
D03*
D28*
X0208Y016119D02*
D03*
Y017182D02*
D03*
D33*
X027254Y0147D02*
D03*
X026546D02*
D03*
X026904Y01955D02*
D03*
X026196D02*
D03*
X015346Y0172D02*
D03*
X016054D02*
D03*
X015396Y0193D02*
D03*
X016104D02*
D03*
D35*
X02435Y014454D02*
D03*
Y013746D02*
D03*
X02385Y020904D02*
D03*
Y020196D02*
D03*
D36*
X014563Y02795D02*
D03*
X0135D02*
D03*
X013469Y02605D02*
D03*
X014532D02*
D03*
D37*
X028859Y01975D02*
D03*
X030041D02*
D03*
D65*
X0264Y038161D02*
D03*
X01625D02*
D03*
X0366D02*
D03*
X04675D02*
D03*
D66*
X033675Y030102D02*
Y03115D01*
X03171Y02977D02*
X03173Y02975D01*
X036037Y03115D02*
X036044Y031144D01*
X033675Y030102D02*
X0337Y030077D01*
Y030067D02*
Y030077D01*
X0356Y02975D02*
X036044Y030194D01*
X0247Y02977D02*
X03171D01*
X03173Y02975D02*
X0356D01*
X036044Y030194D02*
Y031144D01*
X04275Y0308D02*
X04468D01*
X04473Y03075D01*
X04665D01*
X041992Y030808D02*
X042Y0308D01*
X041682Y030808D02*
X041992D01*
X041415Y031074D02*
X041682Y030808D01*
X040369Y031074D02*
X041415D01*
X0286Y01445D02*
Y014461D01*
X02865Y014511D01*
Y0158D01*
X043836Y0221D02*
X04385D01*
X03Y01985D02*
X0301Y01975D01*
X028175Y017775D02*
X02915Y0168D01*
Y0158D02*
Y0168D01*
X0321Y0197D02*
X03235Y01945D01*
X03325D01*
X0321Y0197D02*
Y02015D01*
X033625Y018625D02*
X03365Y0186D01*
X03325Y01945D02*
X033625Y019075D01*
Y018625D02*
Y019075D01*
X039758Y030858D02*
X040152D01*
X040369Y031074D01*
X0295Y0267D02*
Y028D01*
X03535Y0236D02*
X0369D01*
X03335D02*
X03535D01*
X04375Y02575D02*
X047D01*
X0431Y0251D02*
X04375Y02575D01*
X0431Y02465D02*
Y0251D01*
X0475Y0244D02*
Y02525D01*
X047Y02575D02*
X0475Y02525D01*
X03665Y0222D02*
Y02325D01*
X0363Y02185D02*
X03665Y0222D01*
X035063Y02185D02*
X0363D01*
X0348Y021587D02*
X035063Y02185D01*
X0369Y0236D02*
X0375Y0242D01*
X033Y02325D02*
X03335Y0236D01*
X022772Y022322D02*
Y029372D01*
X02315Y02975D01*
X023158Y029742D02*
X023922D01*
X02315Y02975D02*
X023158Y029742D01*
X023922D02*
X024864Y0288D01*
X02755D01*
X04015Y0174D02*
X04185D01*
X03445Y01715D02*
X0399D01*
X04015Y0174D01*
X0375Y0242D02*
Y02485D01*
X041175Y026875D02*
X0412Y02685D01*
X03825Y0278D02*
X0407D01*
X041175Y026875D02*
Y027325D01*
X0407Y0278D02*
X041175Y027325D01*
X03795Y0275D02*
X03825Y0278D01*
X027356Y01825D02*
Y018806D01*
X02785Y0193D01*
X033Y02105D02*
Y02185D01*
X0321Y02015D02*
X033Y02105D01*
X034125Y017475D02*
X03445Y01715D01*
X033675Y017475D02*
X034125D01*
X03365Y0175D02*
X033675Y017475D01*
X03165Y01655D02*
Y0175D01*
X03365D02*
Y0186D01*
X0348Y0193D02*
Y0195D01*
X0337Y01865D02*
X03415D01*
X0348Y0193D01*
X03365Y0186D02*
X0337Y01865D01*
X028144Y018735D02*
X028259Y01885D01*
X029985D01*
X028144Y01825D02*
Y018735D01*
X0301Y018965D02*
Y019691D01*
X029985Y01885D02*
X0301Y018965D01*
X03165Y0186D02*
Y0191D01*
X031Y01975D02*
X03165Y0191D01*
X0301Y01975D02*
X031D01*
X0269Y01825D02*
X02735D01*
X02585Y0172D02*
X0269Y01825D01*
X025095Y0172D02*
X02585D01*
X028853Y021803D02*
X02978D01*
X029783Y0218D01*
X02885Y021806D02*
X028853Y021803D01*
X0279Y0252D02*
Y0282D01*
Y0252D02*
X029808Y023292D01*
Y022858D02*
Y023292D01*
X0298Y02285D02*
X029808Y022858D01*
X029556Y022594D02*
X0301Y02205D01*
X02885Y022594D02*
X029556D01*
X0301Y01995D02*
Y02205D01*
X0279Y0282D02*
Y02845D01*
X02755Y0288D02*
X0279Y02845D01*
X0402Y0257D02*
Y02685D01*
X03985Y02535D02*
X0402Y0257D01*
X03975Y03085D02*
X039758Y030858D01*
X02255Y0221D02*
X022772Y022322D01*
X041497Y013303D02*
X04155Y01325D01*
X030041Y01975D02*
X0301Y019691D01*
X028175Y017775D02*
Y018225D01*
X02815Y01825D02*
X028175Y018225D01*
X03Y01985D02*
X0301Y01995D01*
X02885Y02265D02*
Y0233D01*
X0283Y02385D02*
X02885Y0233D01*
X0267Y02385D02*
X0283D01*
X03165Y0175D02*
Y0186D01*
X0321Y0218D02*
Y025157D01*
X032443Y0255D01*
X024259Y02345D02*
X025577D01*
X04665Y03075D02*
X04825Y03235D01*
Y034357D01*
X0432Y021464D02*
X043836Y0221D01*
X04315Y0191D02*
Y019111D01*
X0432Y019161D01*
Y021464D01*
X0263Y02345D02*
X0267Y02385D01*
X02885Y02105D02*
Y0218D01*
X02825Y02045D02*
X02885Y02105D01*
X027722Y02045D02*
X02825D01*
X025577Y02345D02*
X0263D01*
X032443Y0255D02*
X0336D01*
X0405Y0133D02*
X04055Y01325D01*
D68*
X04155Y0143D02*
Y015138D01*
X03705Y0157D02*
X038843D01*
X0415Y01425D02*
X04155Y0142D01*
X038843Y0157D02*
X040988D01*
X04155Y015138D01*
Y01325D02*
Y0142D01*
D69*
X025934Y0249D02*
X0264Y025366D01*
X02335Y02435D02*
X0239Y0249D01*
X025934D01*
X01565Y025421D02*
X015689Y025461D01*
X016381D01*
X01525Y0332D02*
Y034357D01*
X0149Y02605D02*
X0152Y02635D01*
X014532Y02605D02*
X0149D01*
X0152Y02635D02*
Y02635D01*
X015649Y026799D01*
X0269Y0196D02*
Y0207D01*
Y019554D02*
Y0196D01*
X023541Y022259D02*
X02415D01*
X01725Y033377D02*
Y034357D01*
X01675Y0331D02*
Y034357D01*
X01575Y03335D02*
Y034357D01*
X03265Y015D02*
X032663Y015013D01*
Y0161D01*
X0269Y019554D02*
X026904Y01955D01*
X025402Y033341D02*
Y034356D01*
X026896Y033112D02*
X026898Y033114D01*
X025902Y032991D02*
Y034356D01*
X027396Y032862D02*
X027398Y032864D01*
X025902Y032991D02*
X025903Y032989D01*
X026898Y034356D02*
X0269Y034357D01*
X026898Y033114D02*
Y034356D01*
X027398Y032864D02*
Y034356D01*
X0274Y034357D01*
X0259D02*
X025902Y034356D01*
X025402Y033341D02*
X025403Y033339D01*
X0254Y034357D02*
X025402Y034356D01*
X0161Y0198D02*
X016104Y019796D01*
Y0193D02*
Y019796D01*
X037243Y0175D02*
X0396D01*
X040299Y018199D01*
X01525Y017296D02*
X015346Y0172D01*
X01525Y018094D02*
X015306Y01815D01*
X01525Y017296D02*
Y018094D01*
X025577Y02045D02*
X0256D01*
X0264Y025366D02*
Y02575D01*
X02325Y014444D02*
X024394D01*
X02325Y01445D02*
Y01575D01*
X02435Y01445D02*
X0244Y0145D01*
X024394Y014444D02*
X0244Y01445D01*
Y0145D02*
Y0165D01*
X0246Y0167D01*
X025095D01*
X02335Y02245D02*
Y02435D01*
Y02245D02*
X023541Y022259D01*
X0159Y0187D02*
X016104Y018904D01*
Y0193D01*
X01545Y0187D02*
X0159D01*
X015306Y018556D02*
X01545Y0187D01*
X015306Y01815D02*
Y018556D01*
X015649Y026799D02*
X016381D01*
X040299Y018199D02*
Y018651D01*
X047748Y032714D02*
Y034356D01*
X04775Y034357D01*
X047746Y032712D02*
X047748Y032714D01*
X04725Y0333D02*
Y034357D01*
X04625Y033D02*
Y034357D01*
X04575Y03335D02*
Y034357D01*
X037598Y034356D02*
X0376Y034357D01*
X037598Y033364D02*
Y034356D01*
X037596Y033362D02*
X037598Y033364D01*
X0371Y0331D02*
Y034357D01*
X036098Y033314D02*
Y034356D01*
X036096Y033312D02*
X036098Y033314D01*
Y034356D02*
X0361Y034357D01*
X0356Y03305D02*
Y034357D01*
D70*
X040154Y014346D02*
X0405Y014D01*
X036696Y014346D02*
X040154D01*
X0359Y01325D02*
Y01355D01*
X036696Y014346D01*
X0405Y0133D02*
Y014D01*
D71*
X02285Y0132D02*
X0323D01*
X0347Y0156D02*
X03655D01*
X0323Y0132D02*
X0347Y0156D01*
D72*
X0392Y02685D02*
D03*
X0382D02*
D03*
X0402D02*
D03*
X03265Y0175D02*
D03*
X03165D02*
D03*
X04155Y01325D02*
D03*
X04055D02*
D03*
X0369D02*
D03*
X0359D02*
D03*
X0456Y02235D02*
D03*
Y02335D02*
D03*
Y02035D02*
D03*
Y02135D02*
D03*
Y01835D02*
D03*
Y01935D02*
D03*
Y01735D02*
D03*
X0132Y0216D02*
D03*
X0321Y02015D02*
D03*
X03265Y0186D02*
D03*
X03165D02*
D03*
D73*
X0412Y02685D02*
D03*
X03365Y0175D02*
D03*
X03955Y01325D02*
D03*
X0349D02*
D03*
X0132Y0226D02*
D03*
X03365Y0186D02*
D03*
D74*
X03255Y015D02*
D03*
X030975D02*
D03*
D75*
X01375Y029541D02*
D03*
D76*
Y0311D02*
D03*
D77*
X0456Y02435D02*
D03*
X0321Y02115D02*
D03*
D78*
X0136Y04495D02*
D03*
X04935D02*
D03*
X04895Y0143D02*
D03*
X014D02*
D03*
D79*
X0405Y030757D02*
D03*
X0337Y030067D02*
D03*
X03445D02*
D03*
X0247Y02977D02*
D03*
X03525Y030067D02*
D03*
X0412Y0307D02*
D03*
X04275Y0308D02*
D03*
X042D02*
D03*
X04515Y0395D02*
D03*
X0456D02*
D03*
X04605D02*
D03*
X0465D02*
D03*
X04835D02*
D03*
X0479D02*
D03*
X04745D02*
D03*
X047D02*
D03*
X0465Y0391D02*
D03*
X04605D02*
D03*
X0456D02*
D03*
X04515D02*
D03*
X04835D02*
D03*
X0479D02*
D03*
X04745D02*
D03*
X047D02*
D03*
X04835Y0387D02*
D03*
X0479D02*
D03*
X04745D02*
D03*
X047D02*
D03*
X0465D02*
D03*
X04605D02*
D03*
X0456D02*
D03*
X04515D02*
D03*
X0465Y0383D02*
D03*
X04605D02*
D03*
X0456D02*
D03*
X04515D02*
D03*
X04835D02*
D03*
X0479D02*
D03*
X04745D02*
D03*
X047D02*
D03*
X0465Y0379D02*
D03*
X04605D02*
D03*
X0456D02*
D03*
X04515D02*
D03*
X04835D02*
D03*
X0479D02*
D03*
X04745D02*
D03*
X047D02*
D03*
X04835Y03745D02*
D03*
X0479D02*
D03*
X04745D02*
D03*
X047D02*
D03*
X0465D02*
D03*
X04605D02*
D03*
X0456D02*
D03*
X04515D02*
D03*
X0465Y037D02*
D03*
X04605D02*
D03*
X0456D02*
D03*
X04515D02*
D03*
X04835D02*
D03*
X0479D02*
D03*
X04745D02*
D03*
X047D02*
D03*
X035Y0395D02*
D03*
X03545D02*
D03*
X0359D02*
D03*
X03635D02*
D03*
X0382D02*
D03*
X03775D02*
D03*
X0373D02*
D03*
X03685D02*
D03*
X03635Y0391D02*
D03*
X0359D02*
D03*
X03545D02*
D03*
X035D02*
D03*
X0382D02*
D03*
X03775D02*
D03*
X0373D02*
D03*
X03685D02*
D03*
X0382Y0387D02*
D03*
X03775D02*
D03*
X0373D02*
D03*
X03685D02*
D03*
X03635D02*
D03*
X0359D02*
D03*
X03545D02*
D03*
X035D02*
D03*
X03635Y0383D02*
D03*
X0359D02*
D03*
X03545D02*
D03*
X035D02*
D03*
X0382D02*
D03*
X03775D02*
D03*
X0373D02*
D03*
X03685D02*
D03*
X03635Y0379D02*
D03*
X0359D02*
D03*
X03545D02*
D03*
X035D02*
D03*
X0382D02*
D03*
X03775D02*
D03*
X0373D02*
D03*
X03685D02*
D03*
X0382Y03745D02*
D03*
X03775D02*
D03*
X0373D02*
D03*
X03685D02*
D03*
X03635D02*
D03*
X0359D02*
D03*
X03545D02*
D03*
X035D02*
D03*
X03635Y037D02*
D03*
X0359D02*
D03*
X03545D02*
D03*
X035D02*
D03*
X0382D02*
D03*
X03775D02*
D03*
X0373D02*
D03*
X03685D02*
D03*
X02475Y03945D02*
D03*
X0252D02*
D03*
X02565D02*
D03*
X0261D02*
D03*
X02795D02*
D03*
X0275D02*
D03*
X02705D02*
D03*
X0266D02*
D03*
X0261Y03905D02*
D03*
X02565D02*
D03*
X0252D02*
D03*
X02475D02*
D03*
X02795D02*
D03*
X0275D02*
D03*
X02705D02*
D03*
X0266D02*
D03*
X02795Y03865D02*
D03*
X0275D02*
D03*
X02705D02*
D03*
X0266D02*
D03*
X0261D02*
D03*
X02565D02*
D03*
X0252D02*
D03*
X02475D02*
D03*
X0261Y03825D02*
D03*
X02565D02*
D03*
X0252D02*
D03*
X02475D02*
D03*
X02795D02*
D03*
X0275D02*
D03*
X02705D02*
D03*
X0266D02*
D03*
X0261Y03785D02*
D03*
X02565D02*
D03*
X0252D02*
D03*
X02475D02*
D03*
X02795D02*
D03*
X0275D02*
D03*
X02705D02*
D03*
X0266D02*
D03*
X02795Y0374D02*
D03*
X0275D02*
D03*
X02705D02*
D03*
X0266D02*
D03*
X0261D02*
D03*
X02565D02*
D03*
X0252D02*
D03*
X02475D02*
D03*
X0261Y03695D02*
D03*
X02565D02*
D03*
X0252D02*
D03*
X02475D02*
D03*
X02795D02*
D03*
X0275D02*
D03*
X02705D02*
D03*
X0266D02*
D03*
X0164Y037D02*
D03*
X01685D02*
D03*
X0173D02*
D03*
X01775D02*
D03*
X01455D02*
D03*
X015D02*
D03*
X01545D02*
D03*
X0159D02*
D03*
X01455Y03745D02*
D03*
X015D02*
D03*
X01545D02*
D03*
X0159D02*
D03*
X0164D02*
D03*
X01685D02*
D03*
X0173D02*
D03*
X01775D02*
D03*
X0164Y0379D02*
D03*
X01685D02*
D03*
X0173D02*
D03*
X01775D02*
D03*
X01455D02*
D03*
X015D02*
D03*
X01545D02*
D03*
X0159D02*
D03*
X0164Y0383D02*
D03*
X01685D02*
D03*
X0173D02*
D03*
X01775D02*
D03*
X01455D02*
D03*
X015D02*
D03*
X01545D02*
D03*
X0159D02*
D03*
X01455Y0387D02*
D03*
X015D02*
D03*
X01545D02*
D03*
X0159D02*
D03*
X0164D02*
D03*
X01685D02*
D03*
X0173D02*
D03*
X01775D02*
D03*
X0164Y0391D02*
D03*
X01685D02*
D03*
X0173D02*
D03*
X01775D02*
D03*
X01455D02*
D03*
X015D02*
D03*
X01545D02*
D03*
X0159D02*
D03*
X0164Y0395D02*
D03*
X01685D02*
D03*
X0173D02*
D03*
X01775D02*
D03*
X0159D02*
D03*
X01545D02*
D03*
X015D02*
D03*
X01455D02*
D03*
X02915Y0158D02*
D03*
X02865D02*
D03*
X02205Y02255D02*
D03*
X02255D02*
D03*
X0271Y01545D02*
D03*
X0381Y02165D02*
D03*
X0436Y02005D02*
D03*
X0389Y02125D02*
D03*
X036018Y022167D02*
D03*
X0428Y0205D02*
D03*
X0449Y0247D02*
D03*
X040299Y018651D02*
D03*
X0395Y02425D02*
D03*
X037757Y01905D02*
D03*
X039085Y024235D02*
D03*
X0425Y020994D02*
D03*
X01565Y025421D02*
D03*
X02035Y0261D02*
D03*
X0295Y02665D02*
D03*
Y028D02*
D03*
X02125Y0292D02*
D03*
X03535Y0236D02*
D03*
X0213Y03085D02*
D03*
X01525Y0332D02*
D03*
X046895Y025407D02*
D03*
X0475Y02435D02*
D03*
X0431Y02465D02*
D03*
X03665Y02325D02*
D03*
X0348Y021587D02*
D03*
X03535Y01489D02*
D03*
X0371Y0159D02*
D03*
Y01565D02*
D03*
X0366Y0154D02*
D03*
X03685Y0159D02*
D03*
X0371Y0154D02*
D03*
X03685D02*
D03*
X0366Y0159D02*
D03*
X03685Y01565D02*
D03*
X0366D02*
D03*
X0434Y01485D02*
D03*
X0231Y030579D02*
D03*
X02315Y02975D02*
D03*
X01775Y029D02*
D03*
Y02845D02*
D03*
X04185Y0174D02*
D03*
X0399Y01715D02*
D03*
X0375Y02485D02*
D03*
X0379Y027477D02*
D03*
X02785Y0193D02*
D03*
X0243Y0196D02*
D03*
X044256Y024359D02*
D03*
X033Y02325D02*
D03*
Y02185D02*
D03*
X0368Y0177D02*
D03*
X0348Y0195D02*
D03*
X038843Y0157D02*
D03*
X0257Y0178D02*
D03*
X029783Y0218D02*
D03*
X0298Y02285D02*
D03*
X0279Y0282D02*
D03*
X03985Y02535D02*
D03*
X0431Y03015D02*
D03*
X03445Y029255D02*
D03*
X0336Y0255D02*
D03*
X03525Y029255D02*
D03*
X02445Y01285D02*
D03*
X02495Y0199D02*
D03*
X0286Y01445D02*
D03*
X0257Y01675D02*
D03*
X01775Y0313D02*
D03*
X01725Y033377D02*
D03*
X01675Y0331D02*
D03*
X01575Y03335D02*
D03*
X014653Y034739D02*
D03*
Y034139D02*
D03*
Y034439D02*
D03*
X0269Y0207D02*
D03*
X018Y0431D02*
D03*
X01835D02*
D03*
X0187D02*
D03*
X019003Y036089D02*
D03*
Y035789D02*
D03*
Y035489D02*
D03*
X019303D02*
D03*
Y036089D02*
D03*
Y035789D02*
D03*
X018703D02*
D03*
Y035489D02*
D03*
Y036089D02*
D03*
X0143Y0189D02*
D03*
X02415Y01285D02*
D03*
X02375Y04285D02*
D03*
X02405D02*
D03*
X02435D02*
D03*
Y04315D02*
D03*
X02405D02*
D03*
X02375D02*
D03*
X02435Y04345D02*
D03*
X02405D02*
D03*
X02375D02*
D03*
X02465Y04285D02*
D03*
Y04315D02*
D03*
Y04345D02*
D03*
X03885Y0435D02*
D03*
Y0432D02*
D03*
Y0429D02*
D03*
X0448Y04305D02*
D03*
X04445D02*
D03*
X0441D02*
D03*
X03795Y0435D02*
D03*
X03825D02*
D03*
X03855D02*
D03*
X03795Y0432D02*
D03*
X03825D02*
D03*
X03855D02*
D03*
X0187Y04285D02*
D03*
X01835D02*
D03*
X018D02*
D03*
X03855Y0429D02*
D03*
X03825D02*
D03*
X03795D02*
D03*
X0399Y0368D02*
D03*
X0402D02*
D03*
X0405D02*
D03*
X0399Y0365D02*
D03*
X0402D02*
D03*
X0405D02*
D03*
Y0362D02*
D03*
X0402D02*
D03*
X0399D02*
D03*
X03245Y02465D02*
D03*
X028303Y034889D02*
D03*
X028603D02*
D03*
X027396Y032862D02*
D03*
X026896Y033112D02*
D03*
X025903Y032989D02*
D03*
X025403Y033339D02*
D03*
X028603Y033989D02*
D03*
X028303D02*
D03*
X028603Y034289D02*
D03*
X028303D02*
D03*
X028603Y034589D02*
D03*
X028303D02*
D03*
X02415Y023467D02*
D03*
X0194Y03085D02*
D03*
X02015Y030533D02*
D03*
X0161Y0198D02*
D03*
X04425Y0303D02*
D03*
X03975Y03085D02*
D03*
X037243Y0175D02*
D03*
X04315Y0191D02*
D03*
X04425Y0347D02*
D03*
X04455D02*
D03*
X04485D02*
D03*
X04425Y0344D02*
D03*
X04455D02*
D03*
X04485D02*
D03*
Y0341D02*
D03*
X04455D02*
D03*
X04425D02*
D03*
X014353Y034139D02*
D03*
X014053D02*
D03*
X014353Y034439D02*
D03*
X014053D02*
D03*
X014353Y034739D02*
D03*
X014053D02*
D03*
X023803D02*
D03*
X024103D02*
D03*
X023803Y034439D02*
D03*
X024103D02*
D03*
X023803Y034139D02*
D03*
X024103D02*
D03*
X024403D02*
D03*
Y034739D02*
D03*
Y034439D02*
D03*
X0341Y0342D02*
D03*
X0344D02*
D03*
X0347D02*
D03*
Y0345D02*
D03*
X0344D02*
D03*
X0341D02*
D03*
X0347Y0348D02*
D03*
X0344D02*
D03*
X0341D02*
D03*
X02255Y0216D02*
D03*
Y02055D02*
D03*
X02205D02*
D03*
Y02105D02*
D03*
X02255Y0221D02*
D03*
Y02105D02*
D03*
X02205Y0216D02*
D03*
Y0221D02*
D03*
X026927Y0268D02*
D03*
X0269Y024167D02*
D03*
X0264Y02575D02*
D03*
X02325Y01575D02*
D03*
X02035Y0275D02*
D03*
X0195D02*
D03*
X0212D02*
D03*
X02035Y02685D02*
D03*
X0212D02*
D03*
X0195D02*
D03*
Y0261D02*
D03*
X0212D02*
D03*
Y02535D02*
D03*
X02035D02*
D03*
X0195D02*
D03*
Y0246D02*
D03*
X0212D02*
D03*
X02035D02*
D03*
X0172Y02845D02*
D03*
X0166D02*
D03*
X01605D02*
D03*
X01545D02*
D03*
Y029D02*
D03*
X0172D02*
D03*
X0166D02*
D03*
X01605D02*
D03*
X0363Y0177D02*
D03*
X043844Y022107D02*
D03*
X0425Y0293D02*
D03*
X0321Y0218D02*
D03*
X04625Y033D02*
D03*
X047746Y032712D02*
D03*
X04725Y0333D02*
D03*
X04575Y03335D02*
D03*
X036096Y033312D02*
D03*
X037596Y033362D02*
D03*
X0371Y0331D02*
D03*
X0356Y03305D02*
D03*
D80*
X031488Y0288D02*
D03*
X038188D02*
D03*
X023925D02*
D03*
X030625D02*
D03*
D81*
X036037Y03115D02*
D03*
X03525D02*
D03*
X034463D02*
D03*
X033675D02*
D03*
X032888D02*
D03*
X036825D02*
D03*
X028475D02*
D03*
X027687D02*
D03*
X0269D02*
D03*
X026113D02*
D03*
X025325D02*
D03*
X029262D02*
D03*
D82*
X016381Y024791D02*
D03*
Y025461D02*
D03*
Y02613D02*
D03*
Y026799D02*
D03*
Y027469D02*
D03*
D83*
X02045Y02613D02*
D03*
D84*
X0264Y034357D02*
D03*
X0269D02*
D03*
X0274D02*
D03*
X0279D02*
D03*
X0259D02*
D03*
X0254D02*
D03*
X0249D02*
D03*
X01475D02*
D03*
X01525D02*
D03*
X01575D02*
D03*
X01775D02*
D03*
X01725D02*
D03*
X01675D02*
D03*
X01625D02*
D03*
X0351D02*
D03*
X0356D02*
D03*
X0361D02*
D03*
X0381D02*
D03*
X0376D02*
D03*
X0371D02*
D03*
X0366D02*
D03*
X04525D02*
D03*
X04575D02*
D03*
X04625D02*
D03*
X04825D02*
D03*
X04775D02*
D03*
X04725D02*
D03*
X04675D02*
D03*
D85*
X0184Y0214D02*
D03*
X0223D02*
D03*
D86*
X025577Y02045D02*
D03*
Y02095D02*
D03*
Y02145D02*
D03*
Y02195D02*
D03*
Y02245D02*
D03*
Y02295D02*
D03*
Y02345D02*
D03*
X027722D02*
D03*
Y02295D02*
D03*
Y02245D02*
D03*
Y02195D02*
D03*
Y02145D02*
D03*
Y02095D02*
D03*
Y02045D02*
D03*
D87*
X032663Y0161D02*
D03*
X031737Y016474D02*
D03*
Y015726D02*
D03*
D88*
X0186Y01495D02*
D03*
D89*
Y01785D02*
D03*
D90*
X02195Y017475D02*
D03*
Y0159D02*
D03*
X01635Y021463D02*
D03*
Y023037D02*
D03*
D91*
X025095Y0172D02*
D03*
Y0167D02*
D03*
Y0162D02*
D03*
Y0157D02*
D03*
X028005D02*
D03*
Y0162D02*
D03*
Y0167D02*
D03*
Y0172D02*
D03*
D92*
X02415Y022259D02*
D03*
Y023441D02*
D03*
M02*
