G04*
G04 #@! TF.GenerationSoftware,Altium Limited,Altium Designer,21.0.8 (223)*
G04*
G04 Layer_Color=65535*
%FSLAX43Y43*%
%MOMM*%
G71*
G04*
G04 #@! TF.SameCoordinates,5A3F30AB-55E7-4A3F-9E9B-6293D66C37A6*
G04*
G04*
G04 #@! TF.FilePolarity,Positive*
G04*
G01*
G75*
%ADD10C,0.152*%
%ADD11C,0.200*%
%ADD12C,0.254*%
%ADD13C,0.127*%
%ADD14C,0.102*%
%ADD15R,1.950X4.575*%
G36*
X98524Y47628D02*
X98144D01*
Y47374D01*
X98524D01*
Y47628D01*
D02*
G37*
G36*
X93983Y53669D02*
X93729D01*
Y53289D01*
X93983D01*
Y53669D01*
D02*
G37*
G36*
X99024Y60830D02*
X98644D01*
Y61084D01*
X99024D01*
Y60830D01*
D02*
G37*
G36*
X103524Y47628D02*
X103144D01*
Y47374D01*
X103524D01*
Y47628D01*
D02*
G37*
G36*
X107185Y54169D02*
X107439D01*
Y53789D01*
X107185D01*
Y54169D01*
D02*
G37*
G36*
X104024Y60830D02*
X103644D01*
Y61084D01*
X104024D01*
Y60830D01*
D02*
G37*
D10*
X93809Y57979D02*
G03*
X93809Y57979I-76J0D01*
G01*
X95453Y59360D02*
X96350D01*
X105715Y58463D02*
Y59360D01*
X104818Y49098D02*
X105715D01*
X95453D02*
Y49995D01*
Y58463D02*
Y59360D01*
X104818D02*
X105715D01*
Y49098D02*
Y49995D01*
X95453Y49098D02*
X96350D01*
X55082Y45784D02*
X56528D01*
Y44132D02*
Y45784D01*
X55082Y44132D02*
X56528D01*
X55232Y47993D02*
X55791D01*
X55232Y47003D02*
X55791D01*
X55232Y42913D02*
X55791D01*
X55232Y41923D02*
X55791D01*
D11*
X119237Y32183D02*
G03*
X119237Y32183I-36J0D01*
G01*
X87734Y74342D02*
G03*
X87734Y74342I-100J0D01*
G01*
X60298Y41113D02*
G03*
X60298Y41113I-100J0D01*
G01*
X63473Y69942D02*
G03*
X63473Y69942I-100J0D01*
G01*
X115316Y68961D02*
Y76761D01*
X115349Y76835D02*
X128016D01*
Y68961D02*
Y76835D01*
X115349Y68961D02*
X128016D01*
X35306Y66660D02*
Y67960D01*
X85329Y34544D02*
X86629D01*
X110983Y111776D02*
X112283D01*
X113523Y111760D02*
X114823D01*
X44689Y111379D02*
X45989D01*
X47229D02*
X48529D01*
X30125Y73054D02*
Y80974D01*
X38608Y73054D02*
Y80974D01*
X30125D02*
X38608D01*
X30125Y73054D02*
X38608D01*
X92949Y69596D02*
X94249D01*
X89928Y69069D02*
Y69869D01*
X91428Y69069D02*
Y69869D01*
X80633Y68180D02*
Y68980D01*
X79133Y68180D02*
Y68980D01*
X76312Y68707D02*
X77612D01*
X76947Y59944D02*
X78247D01*
X87615Y60071D02*
X88915D01*
X99429Y41764D02*
Y42564D01*
X97929Y41764D02*
Y42564D01*
X110490Y59294D02*
Y60594D01*
X110363Y56754D02*
Y58054D01*
X90663Y60071D02*
X91963D01*
X90663Y52324D02*
X91963D01*
X97917Y44943D02*
Y46243D01*
X103236Y44831D02*
X104536D01*
X107331Y44943D02*
Y46243D01*
X89142Y52051D02*
Y52851D01*
X87642Y52051D02*
Y52851D01*
X112649Y39278D02*
Y40478D01*
X118618Y39101D02*
Y40401D01*
X97790Y62469D02*
Y63769D01*
X70597Y37719D02*
X71897D01*
X66151Y33894D02*
Y35194D01*
X118095Y60833D02*
X119395D01*
X35322Y49134D02*
Y50434D01*
X50680Y58420D02*
Y60920D01*
X42030D02*
X50680D01*
X42030Y55920D02*
Y60920D01*
Y55920D02*
X50680D01*
Y58420D01*
X30734Y53721D02*
X36297D01*
X30734D02*
Y58547D01*
X36297D01*
Y53721D02*
Y58547D01*
X90043Y46263D02*
Y47463D01*
Y44358D02*
Y45558D01*
X68072Y71028D02*
Y72228D01*
X60614Y68199D02*
X61814D01*
X72679Y68072D02*
X73879D01*
X52486Y80391D02*
X53686D01*
X60106Y80380D02*
X61306D01*
X50581Y80391D02*
X51781D01*
X58201D02*
X59401D01*
X48676Y80380D02*
X49876D01*
X46771D02*
X47971D01*
X54391Y80391D02*
X55591D01*
X56296D02*
X57496D01*
X104175D02*
X105375D01*
X111795D02*
X112995D01*
X102270D02*
X103470D01*
X109890D02*
X111090D01*
X100365Y80380D02*
X101565D01*
X98460D02*
X99660D01*
X106080Y80391D02*
X107280D01*
X107985D02*
X109185D01*
X35160Y71743D02*
X35960D01*
X35160Y70243D02*
X35960D01*
X35190Y51597D02*
Y52797D01*
X60415Y61038D02*
X62115D01*
X59915Y64038D02*
X60415Y64438D01*
X59915Y61438D02*
X60415Y61038D01*
X60415Y64438D02*
X62115D01*
X59915Y61438D02*
Y64038D01*
X65515Y61038D02*
Y64438D01*
X63615Y61038D02*
X65515D01*
X63615Y64438D02*
X65515D01*
X72505Y64438D02*
X74205D01*
Y61038D02*
X74705Y61438D01*
X74205Y64438D02*
X74705Y64038D01*
X72505Y61038D02*
X74205D01*
X74705Y61438D02*
Y64038D01*
X69105Y61038D02*
Y64438D01*
X71005D01*
X69105Y61038D02*
X71005D01*
D12*
X85177Y38100D02*
G03*
X85177Y38100I-4500J0D01*
G01*
X95631Y69596D02*
X106172D01*
Y66929D02*
Y69596D01*
X95631Y66929D02*
X106172D01*
X95631D02*
Y69596D01*
X78994Y43180D02*
Y45847D01*
Y43180D02*
X86995D01*
Y45847D01*
X78994D02*
X86995D01*
X78613Y39370D02*
Y40386D01*
X78042Y39878D02*
X79185D01*
X48260Y89916D02*
Y104013D01*
X34163Y89916D02*
X48260D01*
X30226Y85979D02*
Y108077D01*
X52451D01*
X36957Y74907D02*
X37973D01*
X36957D02*
X37465D01*
Y74399D02*
Y74907D01*
Y74399D02*
Y75415D01*
X78359Y85979D02*
Y108077D01*
X56261Y85979D02*
X78359D01*
X56261Y108077D02*
X78359D01*
X87122Y35052D02*
X95123D01*
Y32385D02*
Y35052D01*
X87122Y32385D02*
Y35052D01*
X114491Y42545D02*
Y63373D01*
X117158D01*
Y42545D02*
Y63373D01*
X114491Y42545D02*
X117158D01*
Y63373D02*
X129540D01*
Y42545D02*
Y63373D01*
X117158Y42545D02*
X129540D01*
X98933Y32385D02*
Y35052D01*
Y32385D02*
X106934D01*
Y35052D01*
X98933D02*
X106934D01*
X98933D02*
X99060D01*
X87122Y32385D02*
X95123D01*
X111680Y89911D02*
Y104008D01*
Y89911D02*
X125777D01*
X111680Y104008D02*
X125777D01*
Y89911D02*
Y104008D01*
X107870Y85974D02*
X129968D01*
Y108072D01*
X107743Y85974D02*
Y108072D01*
X107870D02*
X129968D01*
X86026Y89911D02*
Y104008D01*
Y89911D02*
X100123D01*
X86026Y104008D02*
X100123D01*
Y89911D02*
Y104008D01*
X82216Y85974D02*
X104314D01*
Y108072D01*
X82089Y85974D02*
Y108072D01*
X82216D02*
X104314D01*
X56134Y85979D02*
Y108077D01*
X74168Y89916D02*
Y104013D01*
X60071D02*
X74168D01*
X60071Y89916D02*
X74168D01*
X60071D02*
Y104013D01*
X34163Y89916D02*
Y104013D01*
X48260D01*
X30353Y85979D02*
X52451D01*
Y108077D01*
X80137Y49657D02*
X82804D01*
Y55245D01*
X80137D02*
X82804D01*
X80137Y49657D02*
Y55245D01*
X81534Y54737D02*
Y55181D01*
Y49657D02*
Y50102D01*
X78994Y45974D02*
Y48641D01*
Y45974D02*
X86995D01*
Y48641D01*
X78994D02*
X86995D01*
X93401Y36226D02*
X93234Y36060D01*
Y35727D01*
X93401Y35560D01*
X94067D01*
X94234Y35727D01*
Y36060D01*
X94067Y36226D01*
X93734D01*
Y35893D01*
X94234Y36560D02*
X93234D01*
X94234Y37226D01*
X93234D01*
Y37559D02*
X94234D01*
Y38059D01*
X94067Y38226D01*
X93401D01*
X93234Y38059D01*
Y37559D01*
X88194Y36226D02*
X88027Y36060D01*
Y35727D01*
X88194Y35560D01*
X88860D01*
X89027Y35727D01*
Y36060D01*
X88860Y36226D01*
X88361Y36726D02*
Y37060D01*
X88527Y37226D01*
X89027D01*
Y36726D01*
X88860Y36560D01*
X88694Y36726D01*
Y37226D01*
X89027Y37559D02*
X88361D01*
Y37726D01*
X88527Y37893D01*
X89027D01*
X88527D01*
X88361Y38059D01*
X88527Y38226D01*
X89027D01*
X91067Y35560D02*
Y36226D01*
X90734Y35893D02*
X91400D01*
X90567Y37226D02*
Y36560D01*
X91067D01*
X90901Y36893D01*
Y37060D01*
X91067Y37226D01*
X91400D01*
X91567Y37060D01*
Y36726D01*
X91400Y36560D01*
X90567Y37559D02*
X91234D01*
X91567Y37893D01*
X91234Y38226D01*
X90567D01*
X118364Y52578D02*
Y54102D01*
X118872Y53594D01*
X119380Y54102D01*
Y52578D01*
X119888D02*
Y54102D01*
X120649D01*
X120903Y53848D01*
Y53340D01*
X120649Y53086D01*
X119888D01*
X121411Y54102D02*
Y52832D01*
X121665Y52578D01*
X122173D01*
X122427Y52832D01*
Y54102D01*
X123950D02*
X123442Y53848D01*
X122935Y53340D01*
Y52832D01*
X123188Y52578D01*
X123696D01*
X123950Y52832D01*
Y53086D01*
X123696Y53340D01*
X122935D01*
X124458Y53848D02*
X124712Y54102D01*
X125220D01*
X125474Y53848D01*
Y52832D01*
X125220Y52578D01*
X124712D01*
X124458Y52832D01*
Y53848D01*
X126997Y54102D02*
X125982D01*
Y53340D01*
X126489Y53594D01*
X126743D01*
X126997Y53340D01*
Y52832D01*
X126743Y52578D01*
X126235D01*
X125982Y52832D01*
X127505Y53848D02*
X127759Y54102D01*
X128267D01*
X128521Y53848D01*
Y52832D01*
X128267Y52578D01*
X127759D01*
X127505Y52832D01*
Y53848D01*
X78677Y50323D02*
Y49990D01*
Y50157D01*
X79510D01*
X79677Y49990D01*
Y49824D01*
X79510Y49657D01*
X79010Y50657D02*
X79510D01*
X79677Y50823D01*
Y51323D01*
X79010D01*
X79677Y51656D02*
X79010D01*
Y51823D01*
X79177Y51990D01*
X79677D01*
X79177D01*
X79010Y52156D01*
X79177Y52323D01*
X79677D01*
X80010Y52656D02*
X79010D01*
Y53156D01*
X79177Y53322D01*
X79510D01*
X79677Y53156D01*
Y52656D01*
Y54156D02*
Y53822D01*
X79510Y53656D01*
X79177D01*
X79010Y53822D01*
Y54156D01*
X79177Y54322D01*
X79344D01*
Y53656D01*
X79010Y54655D02*
X79677D01*
X79344D01*
X79177Y54822D01*
X79010Y54989D01*
Y55155D01*
X39782Y79446D02*
X39616Y79613D01*
X39283D01*
X39116Y79446D01*
Y78780D01*
X39283Y78613D01*
X39616D01*
X39782Y78780D01*
Y79113D01*
X39449D01*
X40116Y78613D02*
Y79613D01*
X40782Y78613D01*
Y79613D01*
X41115D02*
Y78613D01*
X41615D01*
X41782Y78780D01*
Y79446D01*
X41615Y79613D01*
X41115D01*
X37750Y57729D02*
X37584Y57896D01*
X37251D01*
X37084Y57729D01*
Y57063D01*
X37251Y56896D01*
X37584D01*
X37750Y57063D01*
Y57396D01*
X37417D01*
X38084Y56896D02*
Y57896D01*
X38750Y56896D01*
Y57896D01*
X39083D02*
Y56896D01*
X39583D01*
X39750Y57063D01*
Y57729D01*
X39583Y57896D01*
X39083D01*
X37592Y102108D02*
X37925D01*
X37759D01*
Y103108D01*
X37592Y102941D01*
X38925Y102108D02*
Y103108D01*
X38425Y102608D01*
X39092D01*
X39425Y102774D02*
X40091Y102108D01*
X39758Y102441D01*
X40091Y102774D01*
X39425Y102108D01*
X40424D02*
X40758D01*
X40591D01*
Y103108D01*
X40424Y102941D01*
X41757Y102108D02*
Y103108D01*
X41257Y102608D01*
X41924D01*
X42257Y102108D02*
Y102774D01*
X42424D01*
X42590Y102608D01*
Y102108D01*
Y102608D01*
X42757Y102774D01*
X42924Y102608D01*
Y102108D01*
X43257D02*
Y102774D01*
X43423D01*
X43590Y102608D01*
Y102108D01*
Y102608D01*
X43757Y102774D01*
X43923Y102608D01*
Y102108D01*
X37211Y91932D02*
Y90932D01*
Y91432D01*
X37877D01*
Y91932D01*
Y90932D01*
X38711D02*
X38377D01*
X38211Y91099D01*
Y91432D01*
X38377Y91598D01*
X38711D01*
X38877Y91432D01*
Y91265D01*
X38211D01*
X39377Y91598D02*
X39710D01*
X39877Y91432D01*
Y90932D01*
X39377D01*
X39210Y91099D01*
X39377Y91265D01*
X39877D01*
X40377Y91765D02*
Y91598D01*
X40210D01*
X40543D01*
X40377D01*
Y91099D01*
X40543Y90932D01*
X42043D02*
X42543D01*
X42709Y91099D01*
X42543Y91265D01*
X42209D01*
X42043Y91432D01*
X42209Y91598D01*
X42709D01*
X43042Y90932D02*
X43376D01*
X43209D01*
Y91598D01*
X43042D01*
X43876Y90932D02*
Y91598D01*
X44375D01*
X44542Y91432D01*
Y90932D01*
X44875D02*
Y91932D01*
Y91265D02*
X45375Y91598D01*
X44875Y91265D02*
X45375Y90932D01*
X63119Y92059D02*
Y91059D01*
Y91559D01*
X63785D01*
Y92059D01*
Y91059D01*
X64619D02*
X64285D01*
X64119Y91226D01*
Y91559D01*
X64285Y91725D01*
X64619D01*
X64785Y91559D01*
Y91392D01*
X64119D01*
X65285Y91725D02*
X65618D01*
X65785Y91559D01*
Y91059D01*
X65285D01*
X65118Y91226D01*
X65285Y91392D01*
X65785D01*
X66285Y91892D02*
Y91725D01*
X66118D01*
X66451D01*
X66285D01*
Y91226D01*
X66451Y91059D01*
X67951D02*
X68451D01*
X68617Y91226D01*
X68451Y91392D01*
X68117D01*
X67951Y91559D01*
X68117Y91725D01*
X68617D01*
X68950Y91059D02*
X69284D01*
X69117D01*
Y91725D01*
X68950D01*
X69784Y91059D02*
Y91725D01*
X70283D01*
X70450Y91559D01*
Y91059D01*
X70783D02*
Y92059D01*
Y91392D02*
X71283Y91725D01*
X70783Y91392D02*
X71283Y91059D01*
X89027Y92059D02*
Y91059D01*
Y91559D01*
X89693D01*
Y92059D01*
Y91059D01*
X90527D02*
X90193D01*
X90027Y91226D01*
Y91559D01*
X90193Y91725D01*
X90527D01*
X90693Y91559D01*
Y91392D01*
X90027D01*
X91193Y91725D02*
X91526D01*
X91693Y91559D01*
Y91059D01*
X91193D01*
X91026Y91226D01*
X91193Y91392D01*
X91693D01*
X92193Y91892D02*
Y91725D01*
X92026D01*
X92359D01*
X92193D01*
Y91226D01*
X92359Y91059D01*
X93859D02*
X94359D01*
X94525Y91226D01*
X94359Y91392D01*
X94025D01*
X93859Y91559D01*
X94025Y91725D01*
X94525D01*
X94858Y91059D02*
X95192D01*
X95025D01*
Y91725D01*
X94858D01*
X95692Y91059D02*
Y91725D01*
X96191D01*
X96358Y91559D01*
Y91059D01*
X96691D02*
Y92059D01*
Y91392D02*
X97191Y91725D01*
X96691Y91392D02*
X97191Y91059D01*
X115062Y92059D02*
Y91059D01*
Y91559D01*
X115728D01*
Y92059D01*
Y91059D01*
X116562D02*
X116228D01*
X116062Y91226D01*
Y91559D01*
X116228Y91725D01*
X116562D01*
X116728Y91559D01*
Y91392D01*
X116062D01*
X117228Y91725D02*
X117561D01*
X117728Y91559D01*
Y91059D01*
X117228D01*
X117061Y91226D01*
X117228Y91392D01*
X117728D01*
X118228Y91892D02*
Y91725D01*
X118061D01*
X118394D01*
X118228D01*
Y91226D01*
X118394Y91059D01*
X119894D02*
X120394D01*
X120560Y91226D01*
X120394Y91392D01*
X120060D01*
X119894Y91559D01*
X120060Y91725D01*
X120560D01*
X120893Y91059D02*
X121227D01*
X121060D01*
Y91725D01*
X120893D01*
X121727Y91059D02*
Y91725D01*
X122226D01*
X122393Y91559D01*
Y91059D01*
X122726D02*
Y92059D01*
Y91392D02*
X123226Y91725D01*
X122726Y91392D02*
X123226Y91059D01*
X38004Y105410D02*
X37338D01*
X38004Y106076D01*
Y106243D01*
X37838Y106410D01*
X37505D01*
X37338Y106243D01*
X39004Y105410D02*
X38338D01*
X39004Y106076D01*
Y106243D01*
X38838Y106410D01*
X38504D01*
X38338Y106243D01*
X39337Y106076D02*
X40004Y105410D01*
X39671Y105743D01*
X40004Y106076D01*
X39337Y105410D01*
X41003D02*
X40337D01*
X41003Y106076D01*
Y106243D01*
X40837Y106410D01*
X40504D01*
X40337Y106243D01*
X42003Y105410D02*
X41337D01*
X42003Y106076D01*
Y106243D01*
X41837Y106410D01*
X41503D01*
X41337Y106243D01*
X42336Y105410D02*
Y106076D01*
X42503D01*
X42670Y105910D01*
Y105410D01*
Y105910D01*
X42836Y106076D01*
X43003Y105910D01*
Y105410D01*
X43336D02*
Y106076D01*
X43503D01*
X43669Y105910D01*
Y105410D01*
Y105910D01*
X43836Y106076D01*
X44003Y105910D01*
Y105410D01*
X64124D02*
X63458D01*
X64124Y106076D01*
Y106243D01*
X63958Y106410D01*
X63624D01*
X63458Y106243D01*
X65124Y105410D02*
X64457D01*
X65124Y106076D01*
Y106243D01*
X64957Y106410D01*
X64624D01*
X64457Y106243D01*
X65457Y106076D02*
X66123Y105410D01*
X65790Y105743D01*
X66123Y106076D01*
X65457Y105410D01*
X67123D02*
X66457D01*
X67123Y106076D01*
Y106243D01*
X66957Y106410D01*
X66623D01*
X66457Y106243D01*
X68123Y105410D02*
X67456D01*
X68123Y106076D01*
Y106243D01*
X67956Y106410D01*
X67623D01*
X67456Y106243D01*
X68456Y105410D02*
Y106076D01*
X68623D01*
X68789Y105910D01*
Y105410D01*
Y105910D01*
X68956Y106076D01*
X69123Y105910D01*
Y105410D01*
X69456D02*
Y106076D01*
X69622D01*
X69789Y105910D01*
Y105410D01*
Y105910D01*
X69956Y106076D01*
X70122Y105910D01*
Y105410D01*
X90498D02*
X89831D01*
X90498Y106076D01*
Y106243D01*
X90331Y106410D01*
X89998D01*
X89831Y106243D01*
X91497Y105410D02*
X90831D01*
X91497Y106076D01*
Y106243D01*
X91331Y106410D01*
X90998D01*
X90831Y106243D01*
X91831Y106076D02*
X92497Y105410D01*
X92164Y105743D01*
X92497Y106076D01*
X91831Y105410D01*
X93497D02*
X92830D01*
X93497Y106076D01*
Y106243D01*
X93330Y106410D01*
X92997D01*
X92830Y106243D01*
X94496Y105410D02*
X93830D01*
X94496Y106076D01*
Y106243D01*
X94330Y106410D01*
X93997D01*
X93830Y106243D01*
X94830Y105410D02*
Y106076D01*
X94996D01*
X95163Y105910D01*
Y105410D01*
Y105910D01*
X95330Y106076D01*
X95496Y105910D01*
Y105410D01*
X95829D02*
Y106076D01*
X95996D01*
X96163Y105910D01*
Y105410D01*
Y105910D01*
X96329Y106076D01*
X96496Y105910D01*
Y105410D01*
X115855D02*
X115189D01*
X115855Y106076D01*
Y106243D01*
X115689Y106410D01*
X115356D01*
X115189Y106243D01*
X116855Y105410D02*
X116189D01*
X116855Y106076D01*
Y106243D01*
X116689Y106410D01*
X116355D01*
X116189Y106243D01*
X117188Y106076D02*
X117855Y105410D01*
X117522Y105743D01*
X117855Y106076D01*
X117188Y105410D01*
X118854D02*
X118188D01*
X118854Y106076D01*
Y106243D01*
X118688Y106410D01*
X118355D01*
X118188Y106243D01*
X119854Y105410D02*
X119188D01*
X119854Y106076D01*
Y106243D01*
X119688Y106410D01*
X119354D01*
X119188Y106243D01*
X120187Y105410D02*
Y106076D01*
X120354D01*
X120521Y105910D01*
Y105410D01*
Y105910D01*
X120687Y106076D01*
X120854Y105910D01*
Y105410D01*
X121187D02*
Y106076D01*
X121354D01*
X121520Y105910D01*
Y105410D01*
Y105910D01*
X121687Y106076D01*
X121854Y105910D01*
Y105410D01*
X63881Y102108D02*
X64214D01*
X64048D01*
Y103108D01*
X63881Y102941D01*
X65214Y102108D02*
Y103108D01*
X64714Y102608D01*
X65381D01*
X65714Y102774D02*
X66380Y102108D01*
X66047Y102441D01*
X66380Y102774D01*
X65714Y102108D01*
X66713D02*
X67047D01*
X66880D01*
Y103108D01*
X66713Y102941D01*
X68046Y102108D02*
Y103108D01*
X67546Y102608D01*
X68213D01*
X68546Y102108D02*
Y102774D01*
X68713D01*
X68879Y102608D01*
Y102108D01*
Y102608D01*
X69046Y102774D01*
X69213Y102608D01*
Y102108D01*
X69546D02*
Y102774D01*
X69712D01*
X69879Y102608D01*
Y102108D01*
Y102608D01*
X70046Y102774D01*
X70212Y102608D01*
Y102108D01*
X89789D02*
X90122D01*
X89956D01*
Y103108D01*
X89789Y102941D01*
X91122Y102108D02*
Y103108D01*
X90622Y102608D01*
X91289D01*
X91622Y102774D02*
X92288Y102108D01*
X91955Y102441D01*
X92288Y102774D01*
X91622Y102108D01*
X92621D02*
X92955D01*
X92788D01*
Y103108D01*
X92621Y102941D01*
X93954Y102108D02*
Y103108D01*
X93454Y102608D01*
X94121D01*
X94454Y102108D02*
Y102774D01*
X94621D01*
X94787Y102608D01*
Y102108D01*
Y102608D01*
X94954Y102774D01*
X95121Y102608D01*
Y102108D01*
X95454D02*
Y102774D01*
X95620D01*
X95787Y102608D01*
Y102108D01*
Y102608D01*
X95954Y102774D01*
X96120Y102608D01*
Y102108D01*
X115316D02*
X115649D01*
X115483D01*
Y103108D01*
X115316Y102941D01*
X116649Y102108D02*
Y103108D01*
X116149Y102608D01*
X116816D01*
X117149Y102774D02*
X117815Y102108D01*
X117482Y102441D01*
X117815Y102774D01*
X117149Y102108D01*
X118148D02*
X118482D01*
X118315D01*
Y103108D01*
X118148Y102941D01*
X119481Y102108D02*
Y103108D01*
X118981Y102608D01*
X119648D01*
X119981Y102108D02*
Y102774D01*
X120148D01*
X120314Y102608D01*
Y102108D01*
Y102608D01*
X120481Y102774D01*
X120648Y102608D01*
Y102108D01*
X120981D02*
Y102774D01*
X121147D01*
X121314Y102608D01*
Y102108D01*
Y102608D01*
X121481Y102774D01*
X121647Y102608D01*
Y102108D01*
X39116Y75461D02*
Y74795D01*
X39449Y74462D01*
X39782Y74795D01*
Y75461D01*
X40116Y74295D02*
X40782D01*
X41782Y75295D02*
X41615Y75461D01*
X41282D01*
X41115Y75295D01*
Y74628D01*
X41282Y74462D01*
X41615D01*
X41782Y74628D01*
X42781Y75461D02*
X42115D01*
Y74462D01*
X42781D01*
X42115Y74961D02*
X42448D01*
X43115Y75461D02*
Y74462D01*
X43781D01*
X44114Y75461D02*
Y74462D01*
X44781D01*
X100005Y36480D02*
X99838Y36314D01*
Y35981D01*
X100005Y35814D01*
X100172D01*
X100338Y35981D01*
Y36314D01*
X100505Y36480D01*
X100671D01*
X100838Y36314D01*
Y35981D01*
X100671Y35814D01*
X100005Y36980D02*
X100172D01*
Y36814D01*
Y37147D01*
Y36980D01*
X100671D01*
X100838Y37147D01*
Y38147D02*
Y37813D01*
X100671Y37647D01*
X100338D01*
X100172Y37813D01*
Y38147D01*
X100338Y38313D01*
X100505D01*
Y37647D01*
X100838Y39146D02*
Y38813D01*
X100671Y38646D01*
X100338D01*
X100172Y38813D01*
Y39146D01*
X100338Y39313D01*
X100505D01*
Y38646D01*
X100172Y39646D02*
X100838D01*
X100505D01*
X100338Y39813D01*
X100172Y39979D01*
Y40146D01*
X102878Y35814D02*
Y36480D01*
X102545Y36147D02*
X103211D01*
X102378Y37480D02*
Y36814D01*
X102878D01*
X102712Y37147D01*
Y37314D01*
X102878Y37480D01*
X103211D01*
X103378Y37314D01*
Y36980D01*
X103211Y36814D01*
X102378Y37813D02*
X103045D01*
X103378Y38147D01*
X103045Y38480D01*
X102378D01*
X105212Y36480D02*
X105045Y36314D01*
Y35981D01*
X105212Y35814D01*
X105878D01*
X106045Y35981D01*
Y36314D01*
X105878Y36480D01*
X105545D01*
Y36147D01*
X106045Y36814D02*
X105045D01*
X106045Y37480D01*
X105045D01*
Y37813D02*
X106045D01*
Y38313D01*
X105878Y38480D01*
X105212D01*
X105045Y38313D01*
Y37813D01*
X73914Y47812D02*
Y46812D01*
X74414D01*
X74580Y46979D01*
Y47145D01*
X74414Y47312D01*
X73914D01*
X74414D01*
X74580Y47479D01*
Y47645D01*
X74414Y47812D01*
X73914D01*
X75414D02*
X75080D01*
X74914Y47645D01*
Y46979D01*
X75080Y46812D01*
X75414D01*
X75580Y46979D01*
Y47645D01*
X75414Y47812D01*
X76413D02*
X76080D01*
X75913Y47645D01*
Y46979D01*
X76080Y46812D01*
X76413D01*
X76580Y46979D01*
Y47645D01*
X76413Y47812D01*
X76913D02*
X77579D01*
X77246D01*
Y46812D01*
X77913D02*
X78246D01*
X78079D01*
Y47812D01*
X77913Y47645D01*
X73787Y45018D02*
Y44018D01*
X74287D01*
X74453Y44185D01*
Y44351D01*
X74287Y44518D01*
X73787D01*
X74287D01*
X74453Y44685D01*
Y44851D01*
X74287Y45018D01*
X73787D01*
X75287D02*
X74953D01*
X74787Y44851D01*
Y44185D01*
X74953Y44018D01*
X75287D01*
X75453Y44185D01*
Y44851D01*
X75287Y45018D01*
X76286D02*
X75953D01*
X75786Y44851D01*
Y44185D01*
X75953Y44018D01*
X76286D01*
X76453Y44185D01*
Y44851D01*
X76286Y45018D01*
X76786D02*
X77452D01*
X77119D01*
Y44018D01*
X77786Y44851D02*
X77952Y45018D01*
X78286D01*
X78452Y44851D01*
Y44185D01*
X78286Y44018D01*
X77952D01*
X77786Y44185D01*
Y44851D01*
X37084Y55141D02*
Y54475D01*
X37417Y54142D01*
X37750Y54475D01*
Y55141D01*
X38084Y53975D02*
X38750D01*
X39083Y54142D02*
Y55141D01*
X39750Y54142D01*
Y55141D01*
X40083Y54142D02*
Y54808D01*
X40416Y55141D01*
X40749Y54808D01*
Y54142D01*
Y54641D01*
X40083D01*
X41083Y54142D02*
Y55141D01*
X41749Y54142D01*
Y55141D01*
X42582D02*
X42249D01*
X42082Y54975D01*
Y54308D01*
X42249Y54142D01*
X42582D01*
X42749Y54308D01*
Y54975D01*
X42582Y55141D01*
X107275Y68953D02*
X106942D01*
X107109D01*
Y68120D01*
X106942Y67953D01*
X106776D01*
X106609Y68120D01*
X107609Y68786D02*
X107775Y68953D01*
X108108D01*
X108275Y68786D01*
Y68620D01*
X108108Y68453D01*
X107942D01*
X108108D01*
X108275Y68286D01*
Y68120D01*
X108108Y67953D01*
X107775D01*
X107609Y68120D01*
X84623Y42156D02*
Y41156D01*
X85123D01*
X85289Y41323D01*
Y41489D01*
X85123Y41656D01*
X84623D01*
X85123D01*
X85289Y41823D01*
Y41989D01*
X85123Y42156D01*
X84623D01*
X86289Y41989D02*
X86122Y42156D01*
X85789D01*
X85622Y41989D01*
Y41823D01*
X85789Y41656D01*
X86122D01*
X86289Y41489D01*
Y41323D01*
X86122Y41156D01*
X85789D01*
X85622Y41323D01*
X86622Y41156D02*
X86955D01*
X86789D01*
Y42156D01*
X86622Y41989D01*
X114605Y78698D02*
Y77699D01*
Y78198D01*
X115271D01*
Y78698D01*
Y77699D01*
X115604Y78698D02*
Y77699D01*
X116104D01*
X116271Y77865D01*
Y78532D01*
X116104Y78698D01*
X115604D01*
X116604Y78532D02*
X116771Y78698D01*
X117104D01*
X117271Y78532D01*
Y78365D01*
X117104Y78198D01*
X116937D01*
X117104D01*
X117271Y78032D01*
Y77865D01*
X117104Y77699D01*
X116771D01*
X116604Y77865D01*
X93401Y61714D02*
Y60881D01*
X93568Y60714D01*
X93901D01*
X94067Y60881D01*
Y61714D01*
X95067Y60714D02*
X94401D01*
X95067Y61381D01*
Y61547D01*
X94900Y61714D01*
X94567D01*
X94401Y61547D01*
X79550Y71882D02*
X79383Y71715D01*
Y71382D01*
X79550Y71216D01*
X80216D01*
X80383Y71382D01*
Y71715D01*
X80216Y71882D01*
X80383Y72215D02*
Y72548D01*
Y72382D01*
X79383D01*
X79550Y72215D01*
X76629Y71842D02*
X76462Y71676D01*
Y71343D01*
X76629Y71176D01*
X77295D01*
X77462Y71343D01*
Y71676D01*
X77295Y71842D01*
X77462Y72842D02*
Y72176D01*
X76795Y72842D01*
X76629D01*
X76462Y72675D01*
Y72342D01*
X76629Y72176D01*
X90218Y72604D02*
X90051Y72438D01*
Y72105D01*
X90218Y71938D01*
X90884D01*
X91051Y72105D01*
Y72438D01*
X90884Y72604D01*
X90218Y72938D02*
X90051Y73104D01*
Y73437D01*
X90218Y73604D01*
X90384D01*
X90551Y73437D01*
Y73271D01*
Y73437D01*
X90718Y73604D01*
X90884D01*
X91051Y73437D01*
Y73104D01*
X90884Y72938D01*
X93139Y72842D02*
X92972Y72676D01*
Y72343D01*
X93139Y72176D01*
X93805D01*
X93972Y72343D01*
Y72676D01*
X93805Y72842D01*
X93972Y73675D02*
X92972D01*
X93472Y73176D01*
Y73842D01*
X100925Y43894D02*
X100759Y44061D01*
X100426D01*
X100259Y43894D01*
Y43228D01*
X100426Y43061D01*
X100759D01*
X100925Y43228D01*
X101925Y44061D02*
X101259D01*
Y43561D01*
X101592Y43728D01*
X101758D01*
X101925Y43561D01*
Y43228D01*
X101758Y43061D01*
X101425D01*
X101259Y43228D01*
X110339Y46053D02*
X110173Y46220D01*
X109840D01*
X109673Y46053D01*
Y45387D01*
X109840Y45220D01*
X110173D01*
X110339Y45387D01*
X111339Y46220D02*
X111006Y46053D01*
X110673Y45720D01*
Y45387D01*
X110839Y45220D01*
X111172D01*
X111339Y45387D01*
Y45553D01*
X111172Y45720D01*
X110673D01*
X110577Y62309D02*
X110411Y62476D01*
X110078D01*
X109911Y62309D01*
Y61643D01*
X110078Y61476D01*
X110411D01*
X110577Y61643D01*
X110911Y62476D02*
X111577D01*
Y62309D01*
X110911Y61643D01*
Y61476D01*
X100798Y63452D02*
X100632Y63619D01*
X100299D01*
X100132Y63452D01*
Y62786D01*
X100299Y62619D01*
X100632D01*
X100798Y62786D01*
X101132D02*
X101298Y62619D01*
X101631D01*
X101798Y62786D01*
Y63452D01*
X101631Y63619D01*
X101298D01*
X101132Y63452D01*
Y63286D01*
X101298Y63119D01*
X101798D01*
X118162Y41862D02*
X117995Y42029D01*
X117662D01*
X117495Y41862D01*
Y41196D01*
X117662Y41029D01*
X117995D01*
X118162Y41196D01*
X118495Y41029D02*
X118828D01*
X118662D01*
Y42029D01*
X118495Y41862D01*
X119328D02*
X119495Y42029D01*
X119828D01*
X119995Y41862D01*
Y41196D01*
X119828Y41029D01*
X119495D01*
X119328Y41196D01*
Y41862D01*
X109780Y55705D02*
X109613Y55872D01*
X109280D01*
X109113Y55705D01*
Y55039D01*
X109280Y54872D01*
X109613D01*
X109780Y55039D01*
X110113Y54872D02*
X110446D01*
X110280D01*
Y55872D01*
X110113Y55705D01*
X110946D02*
X111113Y55872D01*
X111446D01*
X111613Y55705D01*
Y55539D01*
X111446Y55372D01*
X111279D01*
X111446D01*
X111613Y55205D01*
Y55039D01*
X111446Y54872D01*
X111113D01*
X110946Y55039D01*
X103430Y42116D02*
X103263Y42283D01*
X102930D01*
X102763Y42116D01*
Y41450D01*
X102930Y41283D01*
X103263D01*
X103430Y41450D01*
X103763Y41283D02*
X104096D01*
X103930D01*
Y42283D01*
X103763Y42116D01*
X105096Y41283D02*
Y42283D01*
X104596Y41783D01*
X105263D01*
X90853Y63171D02*
X90686Y63004D01*
Y62671D01*
X90853Y62504D01*
X91519D01*
X91686Y62671D01*
Y63004D01*
X91519Y63171D01*
X91686Y63504D02*
Y63837D01*
Y63671D01*
X90686D01*
X90853Y63504D01*
X90686Y65004D02*
Y64337D01*
X91186D01*
X91019Y64670D01*
Y64837D01*
X91186Y65004D01*
X91519D01*
X91686Y64837D01*
Y64504D01*
X91519Y64337D01*
X47546Y114733D02*
X47379Y114566D01*
Y114233D01*
X47546Y114066D01*
X48212D01*
X48379Y114233D01*
Y114566D01*
X48212Y114733D01*
X48379Y115066D02*
Y115399D01*
Y115233D01*
X47379D01*
X47546Y115066D01*
X47379Y116566D02*
X47546Y116232D01*
X47879Y115899D01*
X48212D01*
X48379Y116066D01*
Y116399D01*
X48212Y116566D01*
X48046D01*
X47879Y116399D01*
Y115899D01*
X111300Y114987D02*
X111133Y114820D01*
Y114487D01*
X111300Y114320D01*
X111966D01*
X112133Y114487D01*
Y114820D01*
X111966Y114987D01*
X112133Y115320D02*
Y115653D01*
Y115487D01*
X111133D01*
X111300Y115320D01*
X111133Y116153D02*
Y116820D01*
X111300D01*
X111966Y116153D01*
X112133D01*
X61647Y116792D02*
X61480Y116959D01*
X61147D01*
X60980Y116792D01*
Y116126D01*
X61147Y115959D01*
X61480D01*
X61647Y116126D01*
X61980Y115959D02*
X62313D01*
X62147D01*
Y116959D01*
X61980Y116792D01*
X62813D02*
X62980Y116959D01*
X63313D01*
X63480Y116792D01*
Y116626D01*
X63313Y116459D01*
X63480Y116292D01*
Y116126D01*
X63313Y115959D01*
X62980D01*
X62813Y116126D01*
Y116292D01*
X62980Y116459D01*
X62813Y116626D01*
Y116792D01*
X62980Y116459D02*
X63313D01*
X97461Y117173D02*
X97294Y117340D01*
X96961D01*
X96794Y117173D01*
Y116507D01*
X96961Y116340D01*
X97294D01*
X97461Y116507D01*
X97794Y116340D02*
X98127D01*
X97961D01*
Y117340D01*
X97794Y117173D01*
X98627Y116507D02*
X98794Y116340D01*
X99127D01*
X99294Y116507D01*
Y117173D01*
X99127Y117340D01*
X98794D01*
X98627Y117173D01*
Y117007D01*
X98794Y116840D01*
X99294D01*
X121127Y62182D02*
X120960Y62349D01*
X120627D01*
X120460Y62182D01*
Y61516D01*
X120627Y61349D01*
X120960D01*
X121127Y61516D01*
X122126Y61349D02*
X121460D01*
X122126Y62016D01*
Y62182D01*
X121960Y62349D01*
X121626D01*
X121460Y62182D01*
X122459D02*
X122626Y62349D01*
X122959D01*
X123126Y62182D01*
Y61516D01*
X122959Y61349D01*
X122626D01*
X122459Y61516D01*
Y62182D01*
X85773Y37346D02*
X85606Y37180D01*
Y36846D01*
X85773Y36680D01*
X86439D01*
X86606Y36846D01*
Y37180D01*
X86439Y37346D01*
X86606Y38346D02*
Y37679D01*
X85939Y38346D01*
X85773D01*
X85606Y38179D01*
Y37846D01*
X85773Y37679D01*
X86606Y38679D02*
Y39012D01*
Y38846D01*
X85606D01*
X85773Y38679D01*
X45006Y114777D02*
X44839Y114610D01*
Y114277D01*
X45006Y114110D01*
X45672D01*
X45839Y114277D01*
Y114610D01*
X45672Y114777D01*
X45839Y115776D02*
Y115110D01*
X45172Y115776D01*
X45006D01*
X44839Y115610D01*
Y115276D01*
X45006Y115110D01*
Y116109D02*
X44839Y116276D01*
Y116609D01*
X45006Y116776D01*
X45172D01*
X45339Y116609D01*
Y116443D01*
Y116609D01*
X45506Y116776D01*
X45672D01*
X45839Y116609D01*
Y116276D01*
X45672Y116109D01*
X113840Y115031D02*
X113673Y114864D01*
Y114531D01*
X113840Y114364D01*
X114506D01*
X114673Y114531D01*
Y114864D01*
X114506Y115031D01*
X114673Y116030D02*
Y115364D01*
X114006Y116030D01*
X113840D01*
X113673Y115864D01*
Y115530D01*
X113840Y115364D01*
X113673Y117030D02*
Y116363D01*
X114173D01*
X114006Y116697D01*
Y116863D01*
X114173Y117030D01*
X114506D01*
X114673Y116863D01*
Y116530D01*
X114506Y116363D01*
X69207Y34750D02*
X69041Y34917D01*
X68707D01*
X68541Y34750D01*
Y34084D01*
X68707Y33917D01*
X69041D01*
X69207Y34084D01*
X69540Y34750D02*
X69707Y34917D01*
X70040D01*
X70207Y34750D01*
Y34584D01*
X70040Y34417D01*
X69874D01*
X70040D01*
X70207Y34250D01*
Y34084D01*
X70040Y33917D01*
X69707D01*
X69540Y34084D01*
X70540Y33917D02*
X70873D01*
X70707D01*
Y34917D01*
X70540Y34750D01*
X73502Y39322D02*
X73335Y39489D01*
X73002D01*
X72835Y39322D01*
Y38656D01*
X73002Y38489D01*
X73335D01*
X73502Y38656D01*
X73835Y39322D02*
X74001Y39489D01*
X74335D01*
X74501Y39322D01*
Y39156D01*
X74335Y38989D01*
X74168D01*
X74335D01*
X74501Y38822D01*
Y38656D01*
X74335Y38489D01*
X74001D01*
X73835Y38656D01*
X75501Y38489D02*
X74834D01*
X75501Y39156D01*
Y39322D01*
X75334Y39489D01*
X75001D01*
X74834Y39322D01*
X77264Y62834D02*
X77097Y62667D01*
Y62334D01*
X77264Y62167D01*
X77930D01*
X78097Y62334D01*
Y62667D01*
X77930Y62834D01*
X78097Y63667D02*
X77097D01*
X77597Y63167D01*
Y63833D01*
X77264Y64166D02*
X77097Y64333D01*
Y64666D01*
X77264Y64833D01*
X77430D01*
X77597Y64666D01*
Y64500D01*
Y64666D01*
X77764Y64833D01*
X77930D01*
X78097Y64666D01*
Y64333D01*
X77930Y64166D01*
X87932Y63215D02*
X87765Y63048D01*
Y62715D01*
X87932Y62548D01*
X88598D01*
X88765Y62715D01*
Y63048D01*
X88598Y63215D01*
X88765Y64048D02*
X87765D01*
X88265Y63548D01*
Y64214D01*
X88765Y65047D02*
X87765D01*
X88265Y64547D01*
Y65214D01*
X38029Y67810D02*
Y66810D01*
X38529D01*
X38695Y66977D01*
Y67643D01*
X38529Y67810D01*
X38029D01*
X39029D02*
X39695D01*
Y67643D01*
X39029Y66977D01*
Y66810D01*
X38156Y50284D02*
Y49284D01*
X38656D01*
X38822Y49451D01*
Y50117D01*
X38656Y50284D01*
X38156D01*
X39156Y50117D02*
X39322Y50284D01*
X39655D01*
X39822Y50117D01*
Y49951D01*
X39655Y49784D01*
X39822Y49617D01*
Y49451D01*
X39655Y49284D01*
X39322D01*
X39156Y49451D01*
Y49617D01*
X39322Y49784D01*
X39156Y49951D01*
Y50117D01*
X39322Y49784D02*
X39655D01*
X44069Y62730D02*
X43403D01*
Y62230D01*
X43736D01*
X43403D01*
Y61730D01*
X44402D02*
X44735D01*
X44569D01*
Y62730D01*
X44402Y62563D01*
X30861Y60436D02*
Y59436D01*
Y59936D01*
X31527D01*
Y60436D01*
Y59436D01*
X31861Y60436D02*
Y59436D01*
X32361D01*
X32527Y59603D01*
Y60269D01*
X32361Y60436D01*
X31861D01*
X32860Y59436D02*
X33194D01*
X33027D01*
Y60436D01*
X32860Y60269D01*
X30417Y82773D02*
Y81773D01*
Y82273D01*
X31084D01*
Y82773D01*
Y81773D01*
X31417Y82773D02*
Y81773D01*
X31917D01*
X32083Y81940D01*
Y82606D01*
X31917Y82773D01*
X31417D01*
X33083Y81773D02*
X32416D01*
X33083Y82440D01*
Y82606D01*
X32916Y82773D01*
X32583D01*
X32416Y82606D01*
X57023Y39037D02*
Y39703D01*
X56856Y39870D01*
X56523D01*
X56357Y39703D01*
Y39037D01*
X56523Y38870D01*
X56856D01*
X56690Y39203D02*
X57023Y38870D01*
X56856D02*
X57023Y39037D01*
X57356Y38870D02*
X57689D01*
X57523D01*
Y39870D01*
X57356Y39703D01*
X92679Y46490D02*
Y47490D01*
X93178D01*
X93345Y47323D01*
Y46990D01*
X93178Y46823D01*
X92679D01*
X93012D02*
X93345Y46490D01*
X93678D02*
X94011D01*
X93845D01*
Y47490D01*
X93678Y47323D01*
X92639Y44458D02*
Y45458D01*
X93139D01*
X93305Y45291D01*
Y44958D01*
X93139Y44791D01*
X92639D01*
X92972D02*
X93305Y44458D01*
X94305D02*
X93639D01*
X94305Y45125D01*
Y45291D01*
X94138Y45458D01*
X93805D01*
X93639Y45291D01*
X66523Y73381D02*
Y74380D01*
X67022D01*
X67189Y74214D01*
Y73880D01*
X67022Y73714D01*
X66523D01*
X66856D02*
X67189Y73381D01*
X67522Y74214D02*
X67689Y74380D01*
X68022D01*
X68189Y74214D01*
Y74047D01*
X68022Y73880D01*
X67855D01*
X68022D01*
X68189Y73714D01*
Y73547D01*
X68022Y73381D01*
X67689D01*
X67522Y73547D01*
X60381Y70366D02*
Y71366D01*
X60881D01*
X61047Y71199D01*
Y70866D01*
X60881Y70699D01*
X60381D01*
X60714D02*
X61047Y70366D01*
X62047Y71366D02*
X61381D01*
Y70866D01*
X61714Y71033D01*
X61880D01*
X62047Y70866D01*
Y70533D01*
X61880Y70366D01*
X61547D01*
X61381Y70533D01*
X72446Y70112D02*
Y71112D01*
X72946D01*
X73112Y70945D01*
Y70612D01*
X72946Y70445D01*
X72446D01*
X72779D02*
X73112Y70112D01*
X74112Y71112D02*
X73779Y70945D01*
X73446Y70612D01*
Y70279D01*
X73612Y70112D01*
X73945D01*
X74112Y70279D01*
Y70445D01*
X73945Y70612D01*
X73446D01*
X53586Y75977D02*
X52586D01*
Y76477D01*
X52753Y76644D01*
X53086D01*
X53253Y76477D01*
Y75977D01*
Y76311D02*
X53586Y76644D01*
Y76977D02*
Y77310D01*
Y77144D01*
X52586D01*
X52753Y76977D01*
X53586Y78477D02*
Y77810D01*
X52919Y78477D01*
X52753D01*
X52586Y78310D01*
Y77977D01*
X52753Y77810D01*
X61206Y75955D02*
X60206D01*
Y76455D01*
X60373Y76622D01*
X60706D01*
X60873Y76455D01*
Y75955D01*
Y76289D02*
X61206Y76622D01*
Y76955D02*
Y77288D01*
Y77122D01*
X60206D01*
X60373Y76955D01*
Y77788D02*
X60206Y77955D01*
Y78288D01*
X60373Y78455D01*
X60539D01*
X60706Y78288D01*
Y78121D01*
Y78288D01*
X60873Y78455D01*
X61039D01*
X61206Y78288D01*
Y77955D01*
X61039Y77788D01*
X51681Y75977D02*
X50681D01*
Y76477D01*
X50848Y76644D01*
X51181D01*
X51348Y76477D01*
Y75977D01*
Y76311D02*
X51681Y76644D01*
Y76977D02*
Y77310D01*
Y77144D01*
X50681D01*
X50848Y76977D01*
X51681Y78310D02*
X50681D01*
X51181Y77810D01*
Y78477D01*
X59301Y75977D02*
X58301D01*
Y76477D01*
X58468Y76644D01*
X58801D01*
X58968Y76477D01*
Y75977D01*
Y76311D02*
X59301Y76644D01*
Y76977D02*
Y77310D01*
Y77144D01*
X58301D01*
X58468Y76977D01*
X58301Y78477D02*
Y77810D01*
X58801D01*
X58634Y78143D01*
Y78310D01*
X58801Y78477D01*
X59134D01*
X59301Y78310D01*
Y77977D01*
X59134Y77810D01*
X49649Y75944D02*
X48649D01*
Y76444D01*
X48816Y76611D01*
X49149D01*
X49316Y76444D01*
Y75944D01*
Y76278D02*
X49649Y76611D01*
Y76944D02*
Y77277D01*
Y77111D01*
X48649D01*
X48816Y76944D01*
X48649Y78444D02*
X48816Y78110D01*
X49149Y77777D01*
X49482D01*
X49649Y77944D01*
Y78277D01*
X49482Y78444D01*
X49316D01*
X49149Y78277D01*
Y77777D01*
X47871Y75955D02*
X46871D01*
Y76455D01*
X47038Y76622D01*
X47371D01*
X47538Y76455D01*
Y75955D01*
Y76289D02*
X47871Y76622D01*
Y76955D02*
Y77288D01*
Y77122D01*
X46871D01*
X47038Y76955D01*
X46871Y77788D02*
Y78455D01*
X47038D01*
X47704Y77788D01*
X47871D01*
X55491Y75966D02*
X54491D01*
Y76466D01*
X54658Y76633D01*
X54991D01*
X55158Y76466D01*
Y75966D01*
Y76300D02*
X55491Y76633D01*
Y76966D02*
Y77299D01*
Y77133D01*
X54491D01*
X54658Y76966D01*
Y77799D02*
X54491Y77966D01*
Y78299D01*
X54658Y78466D01*
X54824D01*
X54991Y78299D01*
X55158Y78466D01*
X55324D01*
X55491Y78299D01*
Y77966D01*
X55324Y77799D01*
X55158D01*
X54991Y77966D01*
X54824Y77799D01*
X54658D01*
X54991Y77966D02*
Y78299D01*
X57396Y75966D02*
X56396D01*
Y76466D01*
X56563Y76633D01*
X56896D01*
X57063Y76466D01*
Y75966D01*
Y76300D02*
X57396Y76633D01*
Y76966D02*
Y77299D01*
Y77133D01*
X56396D01*
X56563Y76966D01*
X57229Y77799D02*
X57396Y77966D01*
Y78299D01*
X57229Y78466D01*
X56563D01*
X56396Y78299D01*
Y77966D01*
X56563Y77799D01*
X56729D01*
X56896Y77966D01*
Y78466D01*
X105275Y75756D02*
X104275D01*
Y76256D01*
X104442Y76423D01*
X104775D01*
X104942Y76256D01*
Y75756D01*
Y76089D02*
X105275Y76423D01*
Y77422D02*
Y76756D01*
X104608Y77422D01*
X104442D01*
X104275Y77256D01*
Y76922D01*
X104442Y76756D01*
Y77755D02*
X104275Y77922D01*
Y78255D01*
X104442Y78422D01*
X105108D01*
X105275Y78255D01*
Y77922D01*
X105108Y77755D01*
X104442D01*
X112895Y75785D02*
X111895D01*
Y76285D01*
X112062Y76451D01*
X112395D01*
X112562Y76285D01*
Y75785D01*
Y76118D02*
X112895Y76451D01*
Y77451D02*
Y76784D01*
X112228Y77451D01*
X112062D01*
X111895Y77284D01*
Y76951D01*
X112062Y76784D01*
X112895Y77784D02*
Y78117D01*
Y77951D01*
X111895D01*
X112062Y77784D01*
X103370Y75756D02*
X102370D01*
Y76256D01*
X102537Y76423D01*
X102870D01*
X103037Y76256D01*
Y75756D01*
Y76089D02*
X103370Y76423D01*
Y77422D02*
Y76756D01*
X102703Y77422D01*
X102537D01*
X102370Y77256D01*
Y76922D01*
X102537Y76756D01*
X103370Y78422D02*
Y77755D01*
X102703Y78422D01*
X102537D01*
X102370Y78255D01*
Y77922D01*
X102537Y77755D01*
X111117Y75756D02*
X110117D01*
Y76256D01*
X110284Y76423D01*
X110617D01*
X110784Y76256D01*
Y75756D01*
Y76089D02*
X111117Y76423D01*
Y77422D02*
Y76756D01*
X110450Y77422D01*
X110284D01*
X110117Y77256D01*
Y76922D01*
X110284Y76756D01*
Y77755D02*
X110117Y77922D01*
Y78255D01*
X110284Y78422D01*
X110450D01*
X110617Y78255D01*
Y78089D01*
Y78255D01*
X110784Y78422D01*
X110950D01*
X111117Y78255D01*
Y77922D01*
X110950Y77755D01*
X101465Y75745D02*
X100465D01*
Y76245D01*
X100632Y76412D01*
X100965D01*
X101132Y76245D01*
Y75745D01*
Y76078D02*
X101465Y76412D01*
Y77411D02*
Y76745D01*
X100798Y77411D01*
X100632D01*
X100465Y77245D01*
Y76911D01*
X100632Y76745D01*
X101465Y78244D02*
X100465D01*
X100965Y77744D01*
Y78411D01*
X99560Y75745D02*
X98560D01*
Y76245D01*
X98727Y76412D01*
X99060D01*
X99227Y76245D01*
Y75745D01*
Y76078D02*
X99560Y76412D01*
Y77411D02*
Y76745D01*
X98893Y77411D01*
X98727D01*
X98560Y77245D01*
Y76911D01*
X98727Y76745D01*
X98560Y78411D02*
Y77744D01*
X99060D01*
X98893Y78078D01*
Y78244D01*
X99060Y78411D01*
X99393D01*
X99560Y78244D01*
Y77911D01*
X99393Y77744D01*
X107307Y75756D02*
X106307D01*
Y76256D01*
X106474Y76423D01*
X106807D01*
X106974Y76256D01*
Y75756D01*
Y76089D02*
X107307Y76423D01*
Y77422D02*
Y76756D01*
X106640Y77422D01*
X106474D01*
X106307Y77256D01*
Y76922D01*
X106474Y76756D01*
X106307Y78422D02*
X106474Y78089D01*
X106807Y77755D01*
X107140D01*
X107307Y77922D01*
Y78255D01*
X107140Y78422D01*
X106974D01*
X106807Y78255D01*
Y77755D01*
X109212Y75756D02*
X108212D01*
Y76256D01*
X108379Y76423D01*
X108712D01*
X108879Y76256D01*
Y75756D01*
Y76089D02*
X109212Y76423D01*
Y77422D02*
Y76756D01*
X108545Y77422D01*
X108379D01*
X108212Y77256D01*
Y76922D01*
X108379Y76756D01*
X108212Y77755D02*
Y78422D01*
X108379D01*
X109045Y77755D01*
X109212D01*
X38164Y70493D02*
Y71493D01*
X38664D01*
X38831Y71326D01*
Y70993D01*
X38664Y70826D01*
X38164D01*
X38497D02*
X38831Y70493D01*
X39830D02*
X39164D01*
X39830Y71160D01*
Y71326D01*
X39664Y71493D01*
X39330D01*
X39164Y71326D01*
X40163D02*
X40330Y71493D01*
X40663D01*
X40830Y71326D01*
Y71160D01*
X40663Y70993D01*
X40830Y70826D01*
Y70660D01*
X40663Y70493D01*
X40330D01*
X40163Y70660D01*
Y70826D01*
X40330Y70993D01*
X40163Y71160D01*
Y71326D01*
X40330Y70993D02*
X40663D01*
X38175Y51697D02*
Y52697D01*
X38675D01*
X38842Y52530D01*
Y52197D01*
X38675Y52030D01*
X38175D01*
X38508D02*
X38842Y51697D01*
X39841D02*
X39175D01*
X39841Y52364D01*
Y52530D01*
X39675Y52697D01*
X39341D01*
X39175Y52530D01*
X40174Y51864D02*
X40341Y51697D01*
X40674D01*
X40841Y51864D01*
Y52530D01*
X40674Y52697D01*
X40341D01*
X40174Y52530D01*
Y52364D01*
X40341Y52197D01*
X40841D01*
X115451Y35639D02*
X115285Y35806D01*
X114951D01*
X114785Y35639D01*
Y35473D01*
X114951Y35306D01*
X115285D01*
X115451Y35139D01*
Y34973D01*
X115285Y34806D01*
X114951D01*
X114785Y34973D01*
X115784Y35806D02*
Y34806D01*
X116118Y35139D01*
X116451Y34806D01*
Y35806D01*
X116784Y34806D02*
X117117D01*
X116951D01*
Y35806D01*
X116784Y35639D01*
X82011Y75176D02*
Y74343D01*
X82177Y74176D01*
X82510D01*
X82677Y74343D01*
Y75176D01*
X83010Y74176D02*
X83343D01*
X83177D01*
Y75176D01*
X83010Y75009D01*
X79764Y64231D02*
X80764Y64897D01*
X79764D02*
X80764Y64231D01*
Y65230D02*
Y65563D01*
Y65397D01*
X79764D01*
X79931Y65230D01*
X111316Y41156D02*
Y42156D01*
X111816D01*
X111983Y41989D01*
Y41656D01*
X111816Y41489D01*
X111316D01*
X111649D02*
X111983Y41156D01*
X112316Y41989D02*
X112482Y42156D01*
X112816D01*
X112982Y41989D01*
Y41823D01*
X112816Y41656D01*
X112649D01*
X112816D01*
X112982Y41489D01*
Y41323D01*
X112816Y41156D01*
X112482D01*
X112316Y41323D01*
X113315Y41989D02*
X113482Y42156D01*
X113815D01*
X113982Y41989D01*
Y41323D01*
X113815Y41156D01*
X113482D01*
X113315Y41323D01*
Y41989D01*
X122936Y56134D02*
X122428D01*
X122682D01*
Y54864D01*
X122428Y54610D01*
X122174D01*
X121920Y54864D01*
X124460Y56134D02*
X123952Y55880D01*
X123444Y55372D01*
Y54864D01*
X123698Y54610D01*
X124206D01*
X124460Y54864D01*
Y55118D01*
X124206Y55372D01*
X123444D01*
X100925Y45926D02*
X100759Y46093D01*
X100426D01*
X100259Y45926D01*
Y45260D01*
X100426Y45093D01*
X100759D01*
X100925Y45260D01*
X101259Y45926D02*
X101425Y46093D01*
X101758D01*
X101925Y45926D01*
Y45760D01*
X101758Y45593D01*
X101925Y45426D01*
Y45260D01*
X101758Y45093D01*
X101425D01*
X101259Y45260D01*
Y45426D01*
X101425Y45593D01*
X101259Y45760D01*
Y45926D01*
X101425Y45593D02*
X101758D01*
X88059Y55463D02*
X87892Y55297D01*
Y54964D01*
X88059Y54797D01*
X88725D01*
X88892Y54964D01*
Y55297D01*
X88725Y55463D01*
X88892Y55797D02*
Y56130D01*
Y55963D01*
X87892D01*
X88059Y55797D01*
X88892Y56630D02*
Y56963D01*
Y56796D01*
X87892D01*
X88059Y56630D01*
X90980Y55424D02*
X90813Y55257D01*
Y54924D01*
X90980Y54757D01*
X91646D01*
X91813Y54924D01*
Y55257D01*
X91646Y55424D01*
X91813Y55757D02*
Y56090D01*
Y55924D01*
X90813D01*
X90980Y55757D01*
X91813Y57257D02*
Y56590D01*
X91146Y57257D01*
X90980D01*
X90813Y57090D01*
Y56757D01*
X90980Y56590D01*
X60000Y65778D02*
Y64778D01*
X60500D01*
X60666Y64945D01*
Y65611D01*
X60500Y65778D01*
X60000D01*
X61000Y65611D02*
X61166Y65778D01*
X61499D01*
X61666Y65611D01*
Y65445D01*
X61499Y65278D01*
X61333D01*
X61499D01*
X61666Y65111D01*
Y64945D01*
X61499Y64778D01*
X61166D01*
X61000Y64945D01*
X73716Y65905D02*
Y64905D01*
X74216D01*
X74382Y65072D01*
Y65738D01*
X74216Y65905D01*
X73716D01*
X75215Y64905D02*
Y65905D01*
X74716Y65405D01*
X75382D01*
X61016Y42664D02*
Y41831D01*
X61183Y41664D01*
X61516D01*
X61682Y41831D01*
Y42664D01*
X62682D02*
X62016D01*
Y42164D01*
X62349Y42331D01*
X62515D01*
X62682Y42164D01*
Y41831D01*
X62515Y41664D01*
X62182D01*
X62016Y41831D01*
X63683Y71747D02*
Y70914D01*
X63850Y70747D01*
X64183D01*
X64349Y70914D01*
Y71747D01*
X65182Y70747D02*
Y71747D01*
X64683Y71247D01*
X65349D01*
D13*
X108088Y112776D02*
G03*
X108088Y112776I-4075J0D01*
G01*
X99938D02*
G03*
X99938Y112751I4075J0D01*
G01*
X59320Y112776D02*
G03*
X59320Y112776I-4075J0D01*
G01*
D02*
G03*
X59320Y112801I-4075J0D01*
G01*
X82672Y63338D02*
G03*
X83672Y63338I500J0D01*
G01*
X112914Y32396D02*
Y38470D01*
X118988D01*
Y32396D02*
Y38470D01*
X112914Y32396D02*
X118988D01*
X82091Y71094D02*
X88596D01*
X82091Y67590D02*
Y71094D01*
Y67590D02*
X88596D01*
Y71094D01*
X99263Y113551D02*
X99938D01*
X99263Y112001D02*
X99938D01*
X108238Y113551D02*
X108888D01*
X108238Y112776D02*
Y115426D01*
X107213Y116926D02*
X108213Y115926D01*
X108238Y112001D02*
X108888D01*
X108238Y112776D02*
Y116076D01*
X108238Y116076D01*
X108238Y112776D02*
Y116926D01*
X99938D02*
X108238D01*
X99938Y112801D02*
Y116926D01*
Y112801D02*
X99938Y112801D01*
X108238Y110126D02*
Y112776D01*
X107213Y108626D02*
X108213Y109626D01*
X108238Y109476D02*
Y112776D01*
Y109476D02*
X108238Y109476D01*
X108238Y108626D02*
Y112776D01*
X99938Y108626D02*
X108238D01*
X99938D02*
Y112751D01*
X99938Y112751D01*
X59320Y112001D02*
X59995D01*
X59320Y113551D02*
X59995D01*
X50370Y112001D02*
X51020D01*
Y110126D02*
Y112776D01*
X51045Y109626D02*
X52045Y108626D01*
X50370Y113551D02*
X51020D01*
Y109476D02*
Y112776D01*
X51020Y109476D02*
X51020Y109476D01*
Y108626D02*
Y112776D01*
Y108626D02*
X59320D01*
Y112751D01*
X59320Y112751D02*
X59320Y112751D01*
X51020Y112776D02*
Y115426D01*
X51045Y115926D02*
X52045Y116926D01*
X51020Y112776D02*
Y116076D01*
X51020Y116076D02*
X51020Y116076D01*
Y112776D02*
Y116926D01*
X59320D01*
Y112801D02*
Y116926D01*
X59320Y112801D02*
X59320Y112801D01*
X62643Y41133D02*
X66643D01*
X62643Y36083D02*
X66643D01*
X80972Y63338D02*
X85372D01*
Y56938D02*
Y63338D01*
X80972Y56938D02*
X85372D01*
X80972D02*
Y63338D01*
X80672Y63638D02*
X85672D01*
Y56638D02*
Y63638D01*
X80672Y56638D02*
X85672D01*
X80672D02*
Y63638D01*
X84172Y59338D02*
Y59538D01*
Y59338D02*
X85072D01*
Y58938D02*
Y59338D01*
X84172Y58938D02*
X85072D01*
X84172Y58538D02*
Y58938D01*
Y58538D02*
X85072D01*
Y58338D02*
Y58538D01*
X86772Y56338D02*
Y63938D01*
X79572Y56338D02*
X86772D01*
X79572D02*
Y59238D01*
Y63938D01*
X86772D01*
X79872D02*
X80072D01*
X79572Y63438D02*
X80072Y63938D01*
X79572Y63338D02*
Y63438D01*
X65818Y69962D02*
X69818D01*
X65818Y64912D02*
X69818D01*
D14*
X107238Y111432D02*
X106646D01*
X106942Y111135D02*
Y111728D01*
X52020Y114120D02*
X52612D01*
X52316Y114417D02*
Y113824D01*
D15*
X101814Y112739D02*
D03*
X57445Y112813D02*
D03*
M02*
