G04*
G04 #@! TF.GenerationSoftware,Altium Limited,Altium Designer,21.0.8 (223)*
G04*
G04 Layer_Color=32768*
%FSLAX43Y43*%
%MOMM*%
G71*
G04*
G04 #@! TF.SameCoordinates,5A3F30AB-55E7-4A3F-9E9B-6293D66C37A6*
G04*
G04*
G04 #@! TF.FilePolarity,Positive*
G04*
G01*
G75*
%ADD10C,0.152*%
%ADD13C,0.127*%
%ADD106C,0.100*%
%ADD109C,0.050*%
G36*
X69939Y60096D02*
X71399D01*
Y51410D01*
X69939D01*
Y51130D01*
X65443D01*
Y51410D01*
X63983D01*
Y60096D01*
X65443D01*
Y60376D01*
X69939D01*
Y60096D01*
D02*
G37*
G36*
X104842Y59487D02*
X105842D01*
Y58487D01*
X107439D01*
Y49971D01*
X105842D01*
Y48971D01*
X104842D01*
Y47374D01*
X96326D01*
Y48971D01*
X95326D01*
Y49971D01*
X93729D01*
Y58487D01*
X95326D01*
Y59487D01*
X96326D01*
Y61084D01*
X104842D01*
Y59487D01*
D02*
G37*
G36*
X54724Y48095D02*
X59449D01*
Y41821D01*
X54724D01*
Y39522D01*
X42939D01*
Y50394D01*
X54724D01*
Y48095D01*
D02*
G37*
G36*
X70396Y44209D02*
X72174D01*
Y39357D01*
X70396D01*
Y38849D01*
X64478D01*
Y39357D01*
X62700D01*
Y44209D01*
X64478D01*
Y44717D01*
X70396D01*
Y44209D01*
D02*
G37*
D10*
X95326Y48971D02*
X96326D01*
Y47374D02*
Y48971D01*
Y47374D02*
X104842D01*
Y48971D01*
X105842D01*
Y49971D01*
X107439D01*
Y58487D01*
X105842D02*
X107439D01*
X105842D02*
Y59487D01*
X104842D02*
X105842D01*
X104842D02*
Y61084D01*
X96326D02*
X104842D01*
X96326Y59487D02*
Y61084D01*
X95326Y59487D02*
X96326D01*
X95326Y58487D02*
Y59487D01*
X93729Y58487D02*
X95326D01*
X93729Y49971D02*
Y58487D01*
Y49971D02*
X95326D01*
Y48971D02*
Y49971D01*
X63983Y51410D02*
Y60096D01*
Y51410D02*
X65443D01*
Y51130D02*
Y51410D01*
Y51130D02*
X69939D01*
Y51410D01*
X71399D01*
Y60096D01*
X69939D02*
X71399D01*
X69939D02*
Y60376D01*
X65443D02*
X69939D01*
X65443Y60096D02*
Y60376D01*
X63983Y60096D02*
X65443D01*
X54724Y39522D02*
Y41821D01*
X59449D01*
Y48095D01*
X54724D02*
X59449D01*
X54724D02*
Y50394D01*
X44869D02*
X54724D01*
X42939D02*
X44869D01*
X42939Y39522D02*
Y50394D01*
Y39522D02*
X44869D01*
X54724D01*
X70396Y39357D02*
X72174D01*
X70396Y38849D02*
Y39357D01*
X64478Y38849D02*
X70396D01*
X64478D02*
Y39357D01*
X62700D02*
X64478D01*
X62700D02*
Y44209D01*
X64478D01*
Y44717D01*
X70396D01*
Y44209D02*
Y44717D01*
Y44209D02*
X72174D01*
Y39357D02*
Y44209D01*
D13*
X110951Y32283D02*
X120951D01*
Y38583D01*
X110951D02*
X120951D01*
X110951Y32283D02*
Y38583D01*
D106*
X33106Y66060D02*
Y68560D01*
X37506Y66060D02*
Y68560D01*
X33106D02*
X37506D01*
X33106Y66060D02*
X37506D01*
X34806Y67310D02*
X35806D01*
X35306Y66810D02*
Y67810D01*
X84729Y36744D02*
X87229D01*
X84729Y32344D02*
X87229D01*
Y36744D01*
X84729Y32344D02*
Y36744D01*
X85979Y34044D02*
Y35044D01*
X85479Y34544D02*
X86479D01*
X70076Y36388D02*
Y38288D01*
X66576Y36388D02*
Y38288D01*
X70076D01*
X66576Y36388D02*
X70076D01*
X67826Y37338D02*
X68826D01*
X68326Y36838D02*
Y37838D01*
X35640Y70493D02*
Y71493D01*
X35140Y70993D02*
X36140D01*
X33640Y71943D02*
X37640D01*
X33640Y70043D02*
X37640D01*
Y71943D01*
X33640Y70043D02*
Y71943D01*
X110383Y113976D02*
X112883D01*
X110383Y109576D02*
X112883D01*
Y113976D01*
X110383Y109576D02*
Y113976D01*
X111633Y111276D02*
Y112276D01*
X111133Y111776D02*
X112133D01*
X112923Y113960D02*
X115423D01*
X112923Y109560D02*
X115423D01*
Y113960D01*
X112923Y109560D02*
Y113960D01*
X114173Y111260D02*
Y112260D01*
X113673Y111760D02*
X114673D01*
X44089Y113579D02*
X46589D01*
X44089Y109179D02*
X46589D01*
Y113579D01*
X44089Y109179D02*
Y113579D01*
X45339Y110879D02*
Y111879D01*
X44839Y111379D02*
X45839D01*
X47379D02*
X48379D01*
X47879Y110879D02*
Y111879D01*
X46629Y109179D02*
Y113579D01*
X49129Y109179D02*
Y113579D01*
X46629Y109179D02*
X49129D01*
X46629Y113579D02*
X49129D01*
X104013Y35822D02*
Y36822D01*
X103513Y36322D02*
X104513D01*
X101813Y37572D02*
X106213D01*
X101813Y35072D02*
X106213D01*
Y37572D01*
X101813Y35072D02*
Y37572D01*
X72779Y56388D02*
X73779D01*
X73279Y55888D02*
Y56888D01*
X72029Y54188D02*
Y58588D01*
X74529Y54188D02*
Y58588D01*
X72029D02*
X74529D01*
X72029Y54188D02*
X74529D01*
X81788Y40394D02*
Y41394D01*
X81288Y40894D02*
X82288D01*
X79388Y42894D02*
X84188D01*
X79388Y38894D02*
X84188D01*
Y42894D01*
X79388Y38894D02*
Y42894D01*
X92349Y67396D02*
X94849D01*
X92349Y71796D02*
X94849D01*
X92349Y67396D02*
Y71796D01*
X94849Y67396D02*
Y71796D01*
X93599Y69096D02*
Y70096D01*
X93099Y69596D02*
X94099D01*
X89728Y67469D02*
X91628D01*
X89728Y71469D02*
X91628D01*
X89728Y67469D02*
Y71469D01*
X91628Y67469D02*
Y71469D01*
X90678Y68969D02*
Y69969D01*
X90178Y69469D02*
X91178D01*
X78933Y70580D02*
X80833D01*
X78933Y66580D02*
X80833D01*
Y70580D01*
X78933Y66580D02*
Y70580D01*
X79883Y68080D02*
Y69080D01*
X79383Y68580D02*
X80383D01*
X75712Y70907D02*
X78212D01*
X75712Y66507D02*
X78212D01*
Y70907D01*
X75712Y66507D02*
Y70907D01*
X76962Y68207D02*
Y69207D01*
X76462Y68707D02*
X77462D01*
X57805Y37887D02*
X60305D01*
X57805Y33487D02*
X60305D01*
X57805D02*
Y37887D01*
X60305Y33487D02*
Y37887D01*
X59055Y35187D02*
Y36187D01*
X58555Y35687D02*
X59555D01*
X61349Y35814D02*
X62349D01*
X61849Y35314D02*
Y36314D01*
X60899Y34064D02*
Y37564D01*
X62799Y34064D02*
Y37564D01*
X60899D02*
X62799D01*
X60899Y34064D02*
X62799D01*
X35560Y65667D02*
Y66667D01*
X35060Y66167D02*
X36060D01*
X33560Y65217D02*
X37560D01*
X33560Y67117D02*
X37560D01*
X33560Y65217D02*
Y67117D01*
X37560Y65217D02*
Y67117D01*
X76347Y57744D02*
X78847D01*
X76347Y62144D02*
X78847D01*
X76347Y57744D02*
Y62144D01*
X78847Y57744D02*
Y62144D01*
X77597Y59444D02*
Y60444D01*
X77097Y59944D02*
X78097D01*
X87765Y60071D02*
X88765D01*
X88265Y59571D02*
Y60571D01*
X89515Y57871D02*
Y62271D01*
X87015Y57871D02*
Y62271D01*
X89515D01*
X87015Y57871D02*
X89515D01*
X97729Y44164D02*
X99629D01*
X97729Y40164D02*
X99629D01*
Y44164D01*
X97729Y40164D02*
Y44164D01*
X98679Y41664D02*
Y42664D01*
X98179Y42164D02*
X99179D01*
X108290Y58694D02*
Y61194D01*
X112690Y58694D02*
Y61194D01*
X108290D02*
X112690D01*
X108290Y58694D02*
X112690D01*
X109990Y59944D02*
X110990D01*
X110490Y59444D02*
Y60444D01*
X108163Y56154D02*
Y58654D01*
X112563Y56154D02*
Y58654D01*
X108163D02*
X112563D01*
X108163Y56154D02*
X112563D01*
X109863Y57404D02*
X110863D01*
X110363Y56904D02*
Y57904D01*
X70485Y45855D02*
Y46855D01*
X69985Y46355D02*
X70985D01*
X68285Y47605D02*
X72685D01*
X68285Y45105D02*
X72685D01*
Y47605D01*
X68285Y45105D02*
Y47605D01*
X90063Y57871D02*
X92563D01*
X90063Y62271D02*
X92563D01*
X90063Y57871D02*
Y62271D01*
X92563Y57871D02*
Y62271D01*
X91313Y59571D02*
Y60571D01*
X90813Y60071D02*
X91813D01*
X90813Y52324D02*
X91813D01*
X91313Y51824D02*
Y52824D01*
X92563Y50124D02*
Y54524D01*
X90063Y50124D02*
Y54524D01*
X92563D01*
X90063Y50124D02*
X92563D01*
X97917Y45093D02*
Y46093D01*
X97417Y45593D02*
X98417D01*
X95717Y46843D02*
X100117D01*
X95717Y44343D02*
X100117D01*
X95717D02*
Y46843D01*
X100117Y44343D02*
Y46843D01*
X103386Y44831D02*
X104386D01*
X103886Y44331D02*
Y45331D01*
X102636Y42631D02*
Y47031D01*
X105136Y42631D02*
Y47031D01*
X102636Y42631D02*
X105136D01*
X102636Y47031D02*
X105136D01*
X107331Y45093D02*
Y46093D01*
X106831Y45593D02*
X107831D01*
X105131Y44343D02*
X109531D01*
X105131Y46843D02*
X109531D01*
Y44343D02*
Y46843D01*
X105131Y44343D02*
Y46843D01*
X87892Y52451D02*
X88892D01*
X88392Y51951D02*
Y52951D01*
X89342Y50451D02*
Y54451D01*
X87442Y50451D02*
Y54451D01*
X89342D01*
X87442Y50451D02*
X89342D01*
X112649Y39378D02*
Y40378D01*
X112149Y39878D02*
X113149D01*
X110899Y40828D02*
X114399D01*
X110899Y38928D02*
X114399D01*
X110899D02*
Y40828D01*
X114399Y38928D02*
Y40828D01*
X120818Y38501D02*
Y41001D01*
X116418Y38501D02*
Y41001D01*
Y38501D02*
X120818D01*
X116418Y41001D02*
X120818D01*
X118118Y39751D02*
X119118D01*
X118618Y39251D02*
Y40251D01*
X95590Y61869D02*
Y64369D01*
X99990Y61869D02*
Y64369D01*
X95590D02*
X99990D01*
X95590Y61869D02*
X99990D01*
X97290Y63119D02*
X98290D01*
X97790Y62619D02*
Y63619D01*
X51882Y40291D02*
X53782D01*
X51882Y44291D02*
X53782D01*
Y40291D02*
Y44291D01*
X51882Y40291D02*
Y44291D01*
X52832Y41791D02*
Y42791D01*
X52332Y42291D02*
X53332D01*
X69997Y39919D02*
X72497D01*
X69997Y35519D02*
X72497D01*
Y39919D01*
X69997Y35519D02*
Y39919D01*
X71247Y37219D02*
Y38219D01*
X70747Y37719D02*
X71747D01*
X63951Y33294D02*
Y35794D01*
X68351Y33294D02*
Y35794D01*
X63951D02*
X68351D01*
X63951Y33294D02*
X68351D01*
X65651Y34544D02*
X66651D01*
X66151Y34044D02*
Y35044D01*
X67437Y49157D02*
Y50157D01*
X66937Y49657D02*
X67937D01*
X65687Y50607D02*
X69187D01*
X65687Y48707D02*
X69187D01*
Y50607D01*
X65687Y48707D02*
Y50607D01*
X60079Y52197D02*
X61079D01*
X60579Y51697D02*
Y52697D01*
X59629Y50447D02*
Y53947D01*
X61529Y50447D02*
Y53947D01*
X59629D02*
X61529D01*
X59629Y50447D02*
X61529D01*
X117495Y63033D02*
X119995D01*
X117495Y58633D02*
X119995D01*
Y63033D01*
X117495Y58633D02*
Y63033D01*
X118745Y60333D02*
Y61333D01*
X118245Y60833D02*
X119245D01*
X37678Y44851D02*
Y47351D01*
X42078Y44851D02*
Y47351D01*
X37678Y44851D02*
X42078D01*
X37678Y47351D02*
X42078D01*
X39378Y46101D02*
X40378D01*
X39878Y45601D02*
Y46601D01*
X35322Y49284D02*
Y50284D01*
X34822Y49784D02*
X35822D01*
X33122Y48534D02*
X37522D01*
X33122Y51034D02*
X37522D01*
Y48534D02*
Y51034D01*
X33122Y48534D02*
Y51034D01*
X88293Y45913D02*
Y47813D01*
X91793Y45913D02*
Y47813D01*
X88293D02*
X91793D01*
X88293Y45913D02*
X91793D01*
X89543Y46863D02*
X90543D01*
X90043Y46363D02*
Y47363D01*
X88293Y44008D02*
Y45908D01*
X91793Y44008D02*
Y45908D01*
X88293D02*
X91793D01*
X88293Y44008D02*
X91793D01*
X89543Y44958D02*
X90543D01*
X90043Y44458D02*
Y45458D01*
X68072Y71128D02*
Y72128D01*
X67572Y71628D02*
X68572D01*
X66322Y70678D02*
X69822D01*
X66322Y72578D02*
X69822D01*
Y70678D02*
Y72578D01*
X66322Y70678D02*
Y72578D01*
X60264Y66449D02*
X62164D01*
X60264Y69949D02*
X62164D01*
X60264Y66449D02*
Y69949D01*
X62164Y66449D02*
Y69949D01*
X61214Y67699D02*
Y68699D01*
X60714Y68199D02*
X61714D01*
X72329Y66322D02*
X74229D01*
X72329Y69822D02*
X74229D01*
X72329Y66322D02*
Y69822D01*
X74229Y66322D02*
Y69822D01*
X73279Y67572D02*
Y68572D01*
X72779Y68072D02*
X73779D01*
X39878Y43188D02*
Y44188D01*
X39378Y43688D02*
X40378D01*
X38128Y42738D02*
X41628D01*
X38128Y44638D02*
X41628D01*
X38128Y42738D02*
Y44638D01*
X41628Y42738D02*
Y44638D01*
X40005Y48522D02*
Y49522D01*
X39505Y49022D02*
X40505D01*
X38255Y48072D02*
X41755D01*
X38255Y49972D02*
X41755D01*
X38255Y48072D02*
Y49972D01*
X41755Y48072D02*
Y49972D01*
X52586Y80391D02*
X53586D01*
X53086Y79891D02*
Y80891D01*
X54036Y78641D02*
Y82141D01*
X52136Y78641D02*
Y82141D01*
X54036D01*
X52136Y78641D02*
X54036D01*
X60206Y80380D02*
X61206D01*
X60706Y79880D02*
Y80880D01*
X59756Y78630D02*
Y82130D01*
X61656Y78630D02*
Y82130D01*
X59756Y78630D02*
X61656D01*
X59756Y82130D02*
X61656D01*
X50681Y80391D02*
X51681D01*
X51181Y79891D02*
Y80891D01*
X52131Y78641D02*
Y82141D01*
X50231Y78641D02*
Y82141D01*
X52131D01*
X50231Y78641D02*
X52131D01*
X58301Y80391D02*
X59301D01*
X58801Y79891D02*
Y80891D01*
X57851Y78641D02*
Y82141D01*
X59751Y78641D02*
Y82141D01*
X57851Y78641D02*
X59751D01*
X57851Y82141D02*
X59751D01*
X48776Y80380D02*
X49776D01*
X49276Y79880D02*
Y80880D01*
X48326Y78630D02*
Y82130D01*
X50226Y78630D02*
Y82130D01*
X48326Y78630D02*
X50226D01*
X48326Y82130D02*
X50226D01*
X46871Y80380D02*
X47871D01*
X47371Y79880D02*
Y80880D01*
X46421Y78630D02*
Y82130D01*
X48321Y78630D02*
Y82130D01*
X46421Y78630D02*
X48321D01*
X46421Y82130D02*
X48321D01*
X54491Y80391D02*
X55491D01*
X54991Y79891D02*
Y80891D01*
X54041Y78641D02*
Y82141D01*
X55941Y78641D02*
Y82141D01*
X54041Y78641D02*
X55941D01*
X54041Y82141D02*
X55941D01*
X56396Y80391D02*
X57396D01*
X56896Y79891D02*
Y80891D01*
X55946Y78641D02*
Y82141D01*
X57846Y78641D02*
Y82141D01*
X55946Y78641D02*
X57846D01*
X55946Y82141D02*
X57846D01*
X104275Y80391D02*
X105275D01*
X104775Y79891D02*
Y80891D01*
X105725Y78641D02*
Y82141D01*
X103825Y78641D02*
Y82141D01*
X105725D01*
X103825Y78641D02*
X105725D01*
X111895Y80391D02*
X112895D01*
X112395Y79891D02*
Y80891D01*
X111445Y78641D02*
Y82141D01*
X113345Y78641D02*
Y82141D01*
X111445Y78641D02*
X113345D01*
X111445Y82141D02*
X113345D01*
X102370Y80391D02*
X103370D01*
X102870Y79891D02*
Y80891D01*
X103820Y78641D02*
Y82141D01*
X101920Y78641D02*
Y82141D01*
X103820D01*
X101920Y78641D02*
X103820D01*
X109990Y80391D02*
X110990D01*
X110490Y79891D02*
Y80891D01*
X109540Y78641D02*
Y82141D01*
X111440Y78641D02*
Y82141D01*
X109540Y78641D02*
X111440D01*
X109540Y82141D02*
X111440D01*
X100465Y80380D02*
X101465D01*
X100965Y79880D02*
Y80880D01*
X100015Y78630D02*
Y82130D01*
X101915Y78630D02*
Y82130D01*
X100015Y78630D02*
X101915D01*
X100015Y82130D02*
X101915D01*
X98560Y80380D02*
X99560D01*
X99060Y79880D02*
Y80880D01*
X98110Y78630D02*
Y82130D01*
X100010Y78630D02*
Y82130D01*
X98110Y78630D02*
X100010D01*
X98110Y82130D02*
X100010D01*
X106180Y80391D02*
X107180D01*
X106680Y79891D02*
Y80891D01*
X105730Y78641D02*
Y82141D01*
X107630Y78641D02*
Y82141D01*
X105730Y78641D02*
X107630D01*
X105730Y82141D02*
X107630D01*
X108085Y80391D02*
X109085D01*
X108585Y79891D02*
Y80891D01*
X107635Y78641D02*
Y82141D01*
X109535Y78641D02*
Y82141D01*
X107635Y78641D02*
X109535D01*
X107635Y82141D02*
X109535D01*
X33560Y70043D02*
Y71943D01*
X37560Y70043D02*
Y71943D01*
X33560D02*
X37560D01*
X33560Y70043D02*
X37560D01*
X35060Y70993D02*
X36060D01*
X35560Y70493D02*
Y71493D01*
X35190Y51697D02*
Y52697D01*
X34690Y52197D02*
X35690D01*
X33440Y53147D02*
X36940D01*
X33440Y51247D02*
X36940D01*
X33440D02*
Y53147D01*
X36940Y51247D02*
Y53147D01*
D109*
X40278Y62185D02*
Y70555D01*
X45558D01*
Y71700D01*
X54063D01*
X45558Y61040D02*
X54063D01*
X45558D02*
Y62185D01*
X40278D02*
X45558D01*
X56028Y60720D02*
Y72020D01*
X54063Y60720D02*
Y61040D01*
Y60720D02*
X56028D01*
X54063Y72020D02*
X56028D01*
X54063Y71700D02*
Y72020D01*
X81841Y65092D02*
X88846D01*
X81841D02*
Y73592D01*
X88846D01*
Y65092D02*
Y73592D01*
X61766Y101328D02*
X72346D01*
X61766Y90278D02*
Y101328D01*
Y90278D02*
X62596D01*
Y85108D02*
Y90278D01*
Y85108D02*
X71516D01*
Y90278D01*
X72346D01*
Y101328D01*
X46565Y90278D02*
Y101328D01*
X45735Y90278D02*
X46565D01*
X45735Y85108D02*
Y90278D01*
X36815Y85108D02*
X45735D01*
X36815D02*
Y90278D01*
X35985D02*
X36815D01*
X35985D02*
Y101328D01*
X46565D01*
X60933Y41358D02*
X68353D01*
X60933Y35858D02*
X68353D01*
X60933D02*
Y41358D01*
X68353Y35858D02*
Y41358D01*
X98254Y90278D02*
Y101328D01*
X97424Y90278D02*
X98254D01*
X97424Y85108D02*
Y90278D01*
X88504Y85108D02*
X97424D01*
X88504D02*
Y90278D01*
X87674D02*
X88504D01*
X87674D02*
Y101328D01*
X98254D01*
X124035Y90278D02*
Y101328D01*
X123205Y90278D02*
X124035D01*
X123205Y85108D02*
Y90278D01*
X114285Y85108D02*
X123205D01*
X114285D02*
Y90278D01*
X113455D02*
X114285D01*
X113455D02*
Y101328D01*
X124035D01*
X64108Y70187D02*
X71528D01*
X64108Y64687D02*
X71528D01*
X64108D02*
Y70187D01*
X71528Y64687D02*
Y70187D01*
M02*
