G04*
G04 #@! TF.GenerationSoftware,Altium Limited,Altium Designer,21.0.8 (223)*
G04*
G04 Layer_Color=128*
%FSLAX43Y43*%
%MOMM*%
G71*
G04*
G04 #@! TF.SameCoordinates,5A3F30AB-55E7-4A3F-9E9B-6293D66C37A6*
G04*
G04*
G04 #@! TF.FilePolarity,Positive*
G04*
G01*
G75*
%ADD21R,1.400X1.500*%
%ADD24R,1.500X1.400*%
%ADD25O,3.556X1.500*%
%ADD26R,3.556X1.500*%
%ADD28R,1.700X1.100*%
%ADD33R,1.200X1.400*%
%ADD35R,1.400X1.200*%
%ADD36R,1.100X1.700*%
%ADD37R,1.500X2.600*%
%ADD80R,0.746X2.600*%
%ADD81R,1.000X2.600*%
%ADD82R,2.160X1.070*%
%ADD84R,0.800X3.810*%
%ADD85R,2.896X5.410*%
%ADD86R,1.461X0.559*%
%ADD87R,1.450X0.600*%
%ADD88O,1.500X3.556*%
%ADD89R,1.500X3.556*%
%ADD90R,1.550X2.250*%
%ADD91R,1.575X0.533*%
%ADD92R,2.600X1.500*%
G36*
X123460Y98863D02*
X122110D01*
Y100513D01*
X123460D01*
Y98863D01*
D02*
G37*
G36*
X121440D02*
X120090D01*
Y100513D01*
X121440D01*
Y98863D01*
D02*
G37*
G36*
X119420D02*
X118070D01*
Y100513D01*
X119420D01*
Y98863D01*
D02*
G37*
G36*
X117400D02*
X116050D01*
Y100513D01*
X117400D01*
Y98863D01*
D02*
G37*
G36*
X115380D02*
X114030D01*
Y100513D01*
X115380D01*
Y98863D01*
D02*
G37*
G36*
X97679D02*
X96329D01*
Y100513D01*
X97679D01*
Y98863D01*
D02*
G37*
G36*
X95659D02*
X94309D01*
Y100513D01*
X95659D01*
Y98863D01*
D02*
G37*
G36*
X93639D02*
X92289D01*
Y100513D01*
X93639D01*
Y98863D01*
D02*
G37*
G36*
X91619D02*
X90269D01*
Y100513D01*
X91619D01*
Y98863D01*
D02*
G37*
G36*
X89599D02*
X88249D01*
Y100513D01*
X89599D01*
Y98863D01*
D02*
G37*
G36*
X71771D02*
X70421D01*
Y100513D01*
X71771D01*
Y98863D01*
D02*
G37*
G36*
X69751D02*
X68401D01*
Y100513D01*
X69751D01*
Y98863D01*
D02*
G37*
G36*
X67731D02*
X66381D01*
Y100513D01*
X67731D01*
Y98863D01*
D02*
G37*
G36*
X65711D02*
X64361D01*
Y100513D01*
X65711D01*
Y98863D01*
D02*
G37*
G36*
X63691D02*
X62341D01*
Y100513D01*
X63691D01*
Y98863D01*
D02*
G37*
G36*
X45990D02*
X44640D01*
Y100513D01*
X45990D01*
Y98863D01*
D02*
G37*
G36*
X43970D02*
X42620D01*
Y100513D01*
X43970D01*
Y98863D01*
D02*
G37*
G36*
X41950D02*
X40600D01*
Y100513D01*
X41950D01*
Y98863D01*
D02*
G37*
G36*
X39930D02*
X38580D01*
Y100513D01*
X39930D01*
Y98863D01*
D02*
G37*
G36*
X37910D02*
X36560D01*
Y100513D01*
X37910D01*
Y98863D01*
D02*
G37*
G36*
X123460Y96103D02*
X122110D01*
Y97753D01*
X123460D01*
Y96103D01*
D02*
G37*
G36*
X121440D02*
X120090D01*
Y97753D01*
X121440D01*
Y96103D01*
D02*
G37*
G36*
X119420D02*
X118070D01*
Y97753D01*
X119420D01*
Y96103D01*
D02*
G37*
G36*
X117400D02*
X116050D01*
Y97753D01*
X117400D01*
Y96103D01*
D02*
G37*
G36*
X115380D02*
X114030D01*
Y97753D01*
X115380D01*
Y96103D01*
D02*
G37*
G36*
X97679D02*
X96329D01*
Y97753D01*
X97679D01*
Y96103D01*
D02*
G37*
G36*
X95659D02*
X94309D01*
Y97753D01*
X95659D01*
Y96103D01*
D02*
G37*
G36*
X93639D02*
X92289D01*
Y97753D01*
X93639D01*
Y96103D01*
D02*
G37*
G36*
X91619D02*
X90269D01*
Y97753D01*
X91619D01*
Y96103D01*
D02*
G37*
G36*
X89599D02*
X88249D01*
Y97753D01*
X89599D01*
Y96103D01*
D02*
G37*
G36*
X71771D02*
X70421D01*
Y97753D01*
X71771D01*
Y96103D01*
D02*
G37*
G36*
X69751D02*
X68401D01*
Y97753D01*
X69751D01*
Y96103D01*
D02*
G37*
G36*
X67731D02*
X66381D01*
Y97753D01*
X67731D01*
Y96103D01*
D02*
G37*
G36*
X65711D02*
X64361D01*
Y97753D01*
X65711D01*
Y96103D01*
D02*
G37*
G36*
X63691D02*
X62341D01*
Y97753D01*
X63691D01*
Y96103D01*
D02*
G37*
G36*
X45990D02*
X44640D01*
Y97753D01*
X45990D01*
Y96103D01*
D02*
G37*
G36*
X43970D02*
X42620D01*
Y97753D01*
X43970D01*
Y96103D01*
D02*
G37*
G36*
X41950D02*
X40600D01*
Y97753D01*
X41950D01*
Y96103D01*
D02*
G37*
G36*
X39930D02*
X38580D01*
Y97753D01*
X39930D01*
Y96103D01*
D02*
G37*
G36*
X37910D02*
X36560D01*
Y97753D01*
X37910D01*
Y96103D01*
D02*
G37*
G36*
X123460Y93343D02*
X122110D01*
Y94993D01*
X123460D01*
Y93343D01*
D02*
G37*
G36*
X121440D02*
X120090D01*
Y94993D01*
X121440D01*
Y93343D01*
D02*
G37*
G36*
X119420D02*
X118070D01*
Y94993D01*
X119420D01*
Y93343D01*
D02*
G37*
G36*
X117400D02*
X116050D01*
Y94993D01*
X117400D01*
Y93343D01*
D02*
G37*
G36*
X115380D02*
X114030D01*
Y94993D01*
X115380D01*
Y93343D01*
D02*
G37*
G36*
X97679D02*
X96329D01*
Y94993D01*
X97679D01*
Y93343D01*
D02*
G37*
G36*
X95659D02*
X94309D01*
Y94993D01*
X95659D01*
Y93343D01*
D02*
G37*
G36*
X93639D02*
X92289D01*
Y94993D01*
X93639D01*
Y93343D01*
D02*
G37*
G36*
X91619D02*
X90269D01*
Y94993D01*
X91619D01*
Y93343D01*
D02*
G37*
G36*
X89599D02*
X88249D01*
Y94993D01*
X89599D01*
Y93343D01*
D02*
G37*
G36*
X71771D02*
X70421D01*
Y94993D01*
X71771D01*
Y93343D01*
D02*
G37*
G36*
X69751D02*
X68401D01*
Y94993D01*
X69751D01*
Y93343D01*
D02*
G37*
G36*
X67731D02*
X66381D01*
Y94993D01*
X67731D01*
Y93343D01*
D02*
G37*
G36*
X65711D02*
X64361D01*
Y94993D01*
X65711D01*
Y93343D01*
D02*
G37*
G36*
X63691D02*
X62341D01*
Y94993D01*
X63691D01*
Y93343D01*
D02*
G37*
G36*
X45990D02*
X44640D01*
Y94993D01*
X45990D01*
Y93343D01*
D02*
G37*
G36*
X43970D02*
X42620D01*
Y94993D01*
X43970D01*
Y93343D01*
D02*
G37*
G36*
X41950D02*
X40600D01*
Y94993D01*
X41950D01*
Y93343D01*
D02*
G37*
G36*
X39930D02*
X38580D01*
Y94993D01*
X39930D01*
Y93343D01*
D02*
G37*
G36*
X37910D02*
X36560D01*
Y94993D01*
X37910D01*
Y93343D01*
D02*
G37*
G36*
X55143Y67250D02*
X52543D01*
Y69850D01*
X55143D01*
Y67250D01*
D02*
G37*
G36*
X51343D02*
X48743D01*
Y69850D01*
X51343D01*
Y67250D01*
D02*
G37*
G36*
X55143Y62890D02*
X52543D01*
Y65490D01*
X55143D01*
Y62890D01*
D02*
G37*
G36*
X51343D02*
X48743D01*
Y65490D01*
X51343D01*
Y62890D01*
D02*
G37*
D21*
X105013Y36322D02*
D03*
X103013D02*
D03*
X71485Y46355D02*
D03*
X69485D02*
D03*
X38878Y46101D02*
D03*
X40878D02*
D03*
D24*
X73279Y57388D02*
D03*
Y55388D02*
D03*
X59055Y36687D02*
D03*
Y34687D02*
D03*
D25*
X53721Y76200D02*
D03*
D26*
X46355D02*
D03*
D28*
X52832Y40941D02*
D03*
Y43641D02*
D03*
D33*
X69226Y37338D02*
D03*
X67426D02*
D03*
X68337Y49657D02*
D03*
X66537D02*
D03*
X38978Y43688D02*
D03*
X40778D02*
D03*
X39105Y49022D02*
D03*
X40905D02*
D03*
D35*
X61849Y36714D02*
D03*
Y34914D02*
D03*
X60579Y53097D02*
D03*
Y51297D02*
D03*
D36*
X36990Y70993D02*
D03*
X34290D02*
D03*
X34210Y66167D02*
D03*
X36910D02*
D03*
D37*
X73303Y50165D02*
D03*
X76303D02*
D03*
D80*
X79979Y73152D02*
D03*
X96997D02*
D03*
X60770D02*
D03*
X77788D02*
D03*
D81*
X91535Y79121D02*
D03*
X89535D02*
D03*
X87535D02*
D03*
X85535D02*
D03*
X83535D02*
D03*
X93535D02*
D03*
X72326D02*
D03*
X70326D02*
D03*
X68326D02*
D03*
X66326D02*
D03*
X64326D02*
D03*
X74326D02*
D03*
D82*
X41608Y62970D02*
D03*
Y64670D02*
D03*
Y66370D02*
D03*
Y68070D02*
D03*
Y69770D02*
D03*
D84*
X67056Y87268D02*
D03*
X68326D02*
D03*
X69596D02*
D03*
X70866D02*
D03*
X65786D02*
D03*
X64516D02*
D03*
X63246D02*
D03*
X37465D02*
D03*
X38735D02*
D03*
X40005D02*
D03*
X45085D02*
D03*
X43815D02*
D03*
X42545D02*
D03*
X41275D02*
D03*
X89154D02*
D03*
X90424D02*
D03*
X91694D02*
D03*
X96774D02*
D03*
X95504D02*
D03*
X94234D02*
D03*
X92964D02*
D03*
X114935D02*
D03*
X116205D02*
D03*
X117475D02*
D03*
X122555D02*
D03*
X121285D02*
D03*
X120015D02*
D03*
X118745D02*
D03*
D85*
X46736Y54356D02*
D03*
X56642D02*
D03*
D86*
X64967Y51943D02*
D03*
Y53213D02*
D03*
Y54483D02*
D03*
Y55753D02*
D03*
Y57023D02*
D03*
Y58293D02*
D03*
Y59563D02*
D03*
X70415D02*
D03*
Y58293D02*
D03*
Y57023D02*
D03*
Y55753D02*
D03*
Y54483D02*
D03*
Y53213D02*
D03*
Y51943D02*
D03*
D87*
X82963Y40894D02*
D03*
X80613Y41844D02*
D03*
Y39944D02*
D03*
D88*
X47244Y37973D02*
D03*
D89*
Y45339D02*
D03*
D90*
X55753Y44386D02*
D03*
Y40386D02*
D03*
X41529Y54515D02*
D03*
Y58515D02*
D03*
D91*
X63741Y43688D02*
D03*
Y42418D02*
D03*
Y41148D02*
D03*
Y39878D02*
D03*
X71133D02*
D03*
Y41148D02*
D03*
Y42418D02*
D03*
Y43688D02*
D03*
D92*
X61341Y56539D02*
D03*
Y59539D02*
D03*
M02*
