G04*
G04 #@! TF.GenerationSoftware,Altium Limited,Altium Designer,21.0.8 (223)*
G04*
G04 Layer_Color=16711935*
%FSLAX43Y43*%
%MOMM*%
G71*
G04*
G04 #@! TF.SameCoordinates,5A3F30AB-55E7-4A3F-9E9B-6293D66C37A6*
G04*
G04*
G04 #@! TF.FilePolarity,Positive*
G04*
G01*
G75*
%ADD10C,0.152*%
%ADD11C,0.200*%
%ADD13C,0.127*%
%ADD104C,0.076*%
%ADD106C,0.100*%
%ADD107C,0.000*%
%ADD108C,0.025*%
D10*
X45542Y60503D02*
X57836D01*
Y48209D02*
Y60503D01*
X45542Y48209D02*
X57836D01*
X45542D02*
Y54356D01*
Y60503D01*
D11*
X39843Y62970D02*
G03*
X39843Y62970I-100J0D01*
G01*
X87734Y74342D02*
G03*
X87734Y74342I-100J0D01*
G01*
X71056Y84718D02*
G03*
X71056Y84718I-100J0D01*
G01*
X45275D02*
G03*
X45275Y84718I-100J0D01*
G01*
X60298Y41113D02*
G03*
X60298Y41113I-100J0D01*
G01*
X96964Y84718D02*
G03*
X96964Y84718I-100J0D01*
G01*
X122745D02*
G03*
X122745Y84718I-100J0D01*
G01*
X63473Y69942D02*
G03*
X63473Y69942I-100J0D01*
G01*
D13*
X45808Y61290D02*
Y71450D01*
Y61290D02*
X55778D01*
Y71450D01*
X45808D02*
X55778D01*
X82091Y71094D02*
X88596D01*
X82091Y67590D02*
Y71094D01*
Y67590D02*
X88596D01*
Y71094D01*
X62106Y99928D02*
X72006D01*
X62106Y90528D02*
Y99928D01*
Y90528D02*
X72006D01*
Y99928D01*
X46225Y90528D02*
Y99928D01*
X36325Y90528D02*
X46225D01*
X36325D02*
Y99928D01*
X46225D01*
X62643Y41108D02*
X66643D01*
X62643Y36108D02*
X66643D01*
X62643D02*
Y41108D01*
X66643Y36108D02*
Y41108D01*
X97914Y90528D02*
Y99928D01*
X88014Y90528D02*
X97914D01*
X88014D02*
Y99928D01*
X97914D01*
X123695Y90528D02*
Y99928D01*
X113795Y90528D02*
X123695D01*
X113795D02*
Y99928D01*
X123695D01*
X65818Y69937D02*
X69818D01*
X65818Y64937D02*
X69818D01*
X65818D02*
Y69937D01*
X69818Y64937D02*
Y69937D01*
D104*
X65761Y51672D02*
X66607Y52519D01*
X65761D02*
X66607Y51672D01*
X65761Y52096D02*
X66607D01*
X66184Y52519D02*
Y51672D01*
X53946Y42100D02*
X54792Y42947D01*
Y42100D02*
X53946Y42947D01*
X54369Y42100D02*
Y42947D01*
X54792Y42524D02*
X53946D01*
X70079Y44174D02*
X69232Y43328D01*
X70079D02*
X69232Y44174D01*
X70079Y43751D02*
X69232D01*
X69655Y43328D02*
Y44174D01*
D106*
X34231Y66610D02*
Y68010D01*
X36381Y66610D02*
Y68010D01*
X34231D02*
X36381D01*
X34231Y66610D02*
X36381D01*
X85279Y35619D02*
X86679D01*
X85279Y33469D02*
X86679D01*
Y35619D01*
X85279Y33469D02*
Y35619D01*
X69401Y36638D02*
Y38038D01*
X67251Y36638D02*
Y38038D01*
X69401D01*
X67251Y36638D02*
X69401D01*
X33940Y71893D02*
X37340D01*
X33940Y70093D02*
X37340D01*
Y71893D01*
X33940Y70093D02*
Y71893D01*
X110933Y112851D02*
X112333D01*
X110933Y110701D02*
X112333D01*
Y112851D01*
X110933Y110701D02*
Y112851D01*
X113473Y112835D02*
X114873D01*
X113473Y110685D02*
X114873D01*
Y112835D01*
X113473Y110685D02*
Y112835D01*
X44639Y112454D02*
X46039D01*
X44639Y110304D02*
X46039D01*
Y112454D01*
X44639Y110304D02*
Y112454D01*
X47179Y110304D02*
Y112454D01*
X48579Y110304D02*
Y112454D01*
X47179Y110304D02*
X48579D01*
X47179Y112454D02*
X48579D01*
X102938Y37022D02*
X105088D01*
X102938Y35622D02*
X105088D01*
Y37022D01*
X102938Y35622D02*
Y37022D01*
X72579Y55313D02*
Y57463D01*
X73979Y55313D02*
Y57463D01*
X72579D02*
X73979D01*
X72579Y55313D02*
X73979D01*
X81088Y42394D02*
X82488D01*
X81088Y39394D02*
X82488D01*
Y42394D01*
X81088Y39394D02*
Y42394D01*
X92899Y68521D02*
X94299D01*
X92899Y70671D02*
X94299D01*
X92899Y68521D02*
Y70671D01*
X94299Y68521D02*
Y70671D01*
X89778Y67769D02*
X91578D01*
X89778Y71169D02*
X91578D01*
X89778Y67769D02*
Y71169D01*
X91578Y67769D02*
Y71169D01*
X78983Y70280D02*
X80783D01*
X78983Y66880D02*
X80783D01*
Y70280D01*
X78983Y66880D02*
Y70280D01*
X76262Y69782D02*
X77662D01*
X76262Y67632D02*
X77662D01*
Y69782D01*
X76262Y67632D02*
Y69782D01*
X58355Y36762D02*
X59755D01*
X58355Y34612D02*
X59755D01*
X58355D02*
Y36762D01*
X59755Y34612D02*
Y36762D01*
X61149Y34739D02*
Y36889D01*
X62549Y34739D02*
Y36889D01*
X61149D02*
X62549D01*
X61149Y34739D02*
X62549D01*
X33860Y65267D02*
X37260D01*
X33860Y67067D02*
X37260D01*
X33860Y65267D02*
Y67067D01*
X37260Y65267D02*
Y67067D01*
X54503Y39911D02*
Y44861D01*
Y39911D02*
X57003D01*
Y44861D01*
X54503D02*
X57003D01*
X54503Y44086D02*
X55278Y44861D01*
X42779Y54040D02*
Y58990D01*
X40279D02*
X42779D01*
X40279Y54040D02*
Y58990D01*
Y54040D02*
X42779D01*
X42004D02*
X42779Y54815D01*
X76897Y58869D02*
X78297D01*
X76897Y61019D02*
X78297D01*
X76897Y58869D02*
Y61019D01*
X78297Y58869D02*
Y61019D01*
X88965Y58996D02*
Y61146D01*
X87565Y58996D02*
Y61146D01*
X88965D01*
X87565Y58996D02*
X88965D01*
X97779Y43864D02*
X99579D01*
X97779Y40464D02*
X99579D01*
Y43864D01*
X97779Y40464D02*
Y43864D01*
X109415Y59244D02*
X109415Y60644D01*
X111565Y59244D02*
Y60644D01*
X109415D02*
X111565D01*
X109415Y59244D02*
X111565D01*
X109288Y56704D02*
Y58104D01*
X111438Y56704D02*
Y58104D01*
X109288D02*
X111438D01*
X109288Y56704D02*
X111438D01*
X69410Y47055D02*
X71560D01*
X69410Y45655D02*
X71560D01*
Y47055D01*
X69410Y45655D02*
Y47055D01*
X90613Y58996D02*
X92013D01*
X90613Y61146D02*
X92013D01*
X90613Y58996D02*
Y61146D01*
X92013Y58996D02*
Y61146D01*
Y51249D02*
Y53399D01*
X90613Y51249D02*
Y53399D01*
X92013D01*
X90613Y51249D02*
X92013D01*
X96842Y46293D02*
X98992D01*
X96842Y44893D02*
X98992D01*
X96842D02*
Y46293D01*
X98992Y44893D02*
Y46293D01*
X103186Y43756D02*
Y45906D01*
X104586Y43756D02*
Y45906D01*
X103186Y43756D02*
X104586D01*
X103186Y45906D02*
X104586D01*
X106256Y44893D02*
X108406D01*
X106256Y46293D02*
X108406D01*
Y44893D02*
Y46293D01*
X106256Y44893D02*
X106256Y46293D01*
X89292Y50751D02*
Y54151D01*
X87492Y50751D02*
Y54151D01*
X89292D01*
X87492Y50751D02*
X89292D01*
X111574Y40578D02*
X113724D01*
X111574Y39178D02*
X113724D01*
X111574D02*
Y40578D01*
X113724Y39178D02*
Y40578D01*
X119693Y39051D02*
Y40451D01*
X117543Y39051D02*
Y40451D01*
Y39051D02*
X119693D01*
X117543Y40451D02*
X119693D01*
X96715Y62419D02*
Y63819D01*
X98865Y62419D02*
Y63819D01*
X96715D02*
X98865D01*
X96715Y62419D02*
X98865D01*
X51932Y40591D02*
X53732D01*
X51932Y43991D02*
X53732D01*
Y40591D02*
Y43991D01*
X51932Y40591D02*
Y43991D01*
X70547Y38794D02*
X71947D01*
X70547Y36644D02*
X71947D01*
Y38794D01*
X70547Y36644D02*
Y38794D01*
X65076Y33844D02*
Y35244D01*
X67226Y33844D02*
Y35244D01*
X65076D02*
X67226D01*
X65076Y33844D02*
X67226D01*
X66362Y50357D02*
X68512D01*
X66362Y48957D02*
X68512D01*
Y50357D01*
X66362Y48957D02*
Y50357D01*
X59879Y51122D02*
Y53272D01*
X61279Y51122D02*
Y53272D01*
X59879D02*
X61279D01*
X59879Y51122D02*
X61279D01*
X118045Y61908D02*
X119445D01*
X118045Y59758D02*
X119445D01*
Y61908D01*
X118045Y59758D02*
Y61908D01*
X38803Y45401D02*
Y46801D01*
X40953Y45401D02*
Y46801D01*
X38803Y45401D02*
X40953D01*
X38803Y46801D02*
X40953D01*
X34247Y49084D02*
X36397D01*
X34247Y50484D02*
X36397D01*
Y49084D02*
Y50484D01*
X34247Y49084D02*
Y50484D01*
X88968Y46163D02*
Y47563D01*
X91118Y46163D02*
Y47563D01*
X88968D02*
X91118D01*
X88968Y46163D02*
X91118D01*
X88968Y44258D02*
Y45658D01*
X91118Y44258D02*
Y45658D01*
X88968D02*
X91118D01*
X88968Y44258D02*
X91118D01*
X66997Y70928D02*
X69147D01*
X66997Y72328D02*
X69147D01*
Y70928D02*
Y72328D01*
X66997Y70928D02*
Y72328D01*
X60514Y67124D02*
X61914D01*
X60514Y69274D02*
X61914D01*
X60514Y67124D02*
Y69274D01*
X61914Y67124D02*
Y69274D01*
X72579Y66997D02*
X73979D01*
X72579Y69147D02*
X73979D01*
X72579Y66997D02*
Y69147D01*
X73979Y66997D02*
Y69147D01*
X38803Y42988D02*
X40953D01*
X38803Y44388D02*
X40953D01*
X38803Y42988D02*
Y44388D01*
X40953Y42988D02*
Y44388D01*
X38930Y48322D02*
X41080D01*
X38930Y49722D02*
X41080D01*
X38930Y48322D02*
Y49722D01*
X41080Y48322D02*
Y49722D01*
X53786Y79316D02*
Y81466D01*
X52386Y79316D02*
Y81466D01*
X53786D01*
X52386Y79316D02*
X53786D01*
X60006Y79305D02*
Y81455D01*
X61406Y79305D02*
Y81455D01*
X60006Y79305D02*
X61406D01*
X60006Y81455D02*
X61406D01*
X51881Y79316D02*
Y81466D01*
X50481Y79316D02*
Y81466D01*
X51881D01*
X50481Y79316D02*
X51881D01*
X58101Y79316D02*
Y81466D01*
X59501Y79316D02*
Y81466D01*
X58101Y79316D02*
X59501D01*
X58101Y81466D02*
X59501D01*
X48576Y79305D02*
Y81455D01*
X49976Y79305D02*
Y81455D01*
X48576Y79305D02*
X49976D01*
X48576Y81455D02*
X49976D01*
X46671Y79305D02*
Y81455D01*
X48071Y79305D02*
Y81455D01*
X46671Y79305D02*
X48071D01*
X46671Y81455D02*
X48071D01*
X54291Y79316D02*
Y81466D01*
X55691Y79316D02*
Y81466D01*
X54291Y79316D02*
X55691D01*
X54291Y81466D02*
X55691D01*
X56196Y79316D02*
Y81466D01*
X57596Y79316D02*
Y81466D01*
X56196Y79316D02*
X57596D01*
X56196Y81466D02*
X57596D01*
X105475Y79316D02*
Y81466D01*
X104075Y79316D02*
Y81466D01*
X105475D01*
X104075Y79316D02*
X105475D01*
X111695Y79316D02*
Y81466D01*
X113095Y79316D02*
Y81466D01*
X111695Y79316D02*
X113095D01*
X111695Y81466D02*
X113095D01*
X103570Y79316D02*
Y81466D01*
X102170Y79316D02*
Y81466D01*
X103570D01*
X102170Y79316D02*
X103570D01*
X109790Y79316D02*
Y81466D01*
X111190Y79316D02*
Y81466D01*
X109790Y79316D02*
X111190D01*
X109790Y81466D02*
X111190D01*
X100265Y79305D02*
Y81455D01*
X101665Y79305D02*
Y81455D01*
X100265Y79305D02*
X101665D01*
X100265Y81455D02*
X101665D01*
X98360Y79305D02*
Y81455D01*
X99760Y79305D02*
Y81455D01*
X98360Y79305D02*
X99760D01*
X98360Y81455D02*
X99760D01*
X105980Y79316D02*
Y81466D01*
X107380Y79316D02*
Y81466D01*
X105980Y79316D02*
X107380D01*
X105980Y81466D02*
X107380D01*
X107885Y79316D02*
Y81466D01*
X109285Y79316D02*
Y81466D01*
X107885Y79316D02*
X109285D01*
X107885Y81466D02*
X109285D01*
X33860Y70093D02*
Y71893D01*
X37260Y70093D02*
Y71893D01*
X33860D02*
X37260D01*
X33860Y70093D02*
X37260D01*
X34115Y52897D02*
X36265D01*
X34115Y51497D02*
X36265D01*
X34115D02*
Y52897D01*
X36265Y51497D02*
Y52897D01*
D107*
X96142Y57979D02*
G03*
X96142Y57979I-76J0D01*
G01*
X45695Y54356D02*
G03*
X45542Y54356I-76J0D01*
G01*
D02*
G03*
X45695Y54356I76J0D01*
G01*
X67996Y51384D02*
G03*
X67386Y51384I-305J0D01*
G01*
D108*
X95580Y49225D02*
Y59233D01*
X105588D01*
Y49225D02*
Y59233D01*
X95580Y49225D02*
X105588D01*
X95580Y57963D02*
X96850Y59233D01*
X65697Y51689D02*
Y52197D01*
X64592Y51689D02*
X65697D01*
X64592D02*
Y52197D01*
X65697D01*
Y52959D02*
Y53467D01*
X64592Y52959D02*
X65697D01*
X64592D02*
Y53467D01*
X65697D01*
Y54229D02*
Y54737D01*
X64592Y54229D02*
X65697D01*
X64592D02*
Y54737D01*
X65697D01*
Y55499D02*
Y56007D01*
X64592Y55499D02*
X65697D01*
X64592D02*
Y56007D01*
X65697D01*
Y56769D02*
Y57277D01*
X64592Y56769D02*
X65697D01*
X64592D02*
Y57277D01*
X65697D01*
Y58039D02*
Y58547D01*
X64592Y58039D02*
X65697D01*
X64592D02*
Y58547D01*
X65697D01*
Y59309D02*
Y59817D01*
X64592Y59309D02*
X65697D01*
X64592D02*
Y59817D01*
X65697D01*
X69685Y59309D02*
Y59817D01*
X70790D01*
Y59309D02*
Y59817D01*
X69685Y59309D02*
X70790D01*
X69685Y58039D02*
Y58547D01*
X70790D01*
Y58039D02*
Y58547D01*
X69685Y58039D02*
X70790D01*
X69685Y56769D02*
Y57277D01*
X70790D01*
Y56769D02*
Y57277D01*
X69685Y56769D02*
X70790D01*
X69685Y55499D02*
Y56007D01*
X70790D01*
Y55499D02*
Y56007D01*
X69685Y55499D02*
X70790D01*
X69685Y54229D02*
Y54737D01*
X70790D01*
Y54229D02*
Y54737D01*
X69685Y54229D02*
X70790D01*
X69685Y52959D02*
Y53467D01*
X70790D01*
Y52959D02*
Y53467D01*
X69685Y52959D02*
X70790D01*
X69685Y51689D02*
Y52197D01*
X70790D01*
Y51689D02*
Y52197D01*
X69685Y51689D02*
X70790D01*
X65697Y60122D02*
X69685D01*
Y51384D02*
Y60122D01*
X65697Y51384D02*
X69685D01*
X65697D02*
Y60122D01*
X44971Y39624D02*
X54623D01*
X44971D02*
Y50292D01*
X54623D01*
Y39624D02*
Y50292D01*
Y45657D02*
X56401D01*
Y44259D02*
Y45657D01*
X54623Y44259D02*
X56401D01*
X54623D02*
Y45657D01*
Y47993D02*
X59195D01*
Y47003D02*
Y47993D01*
X54623Y47003D02*
X59195D01*
X54623D02*
Y47993D01*
Y42913D02*
X59195D01*
Y41923D02*
Y42913D01*
X54623Y41923D02*
X59195D01*
X54623D02*
Y42913D01*
X67437Y44158D02*
X67742Y44463D01*
X67132D02*
X67437Y44158D01*
X70142Y39103D02*
Y44463D01*
X64732D02*
X70142D01*
X64732Y39103D02*
Y44463D01*
Y39103D02*
X70142D01*
X63310Y43929D02*
X64732D01*
X63310Y43447D02*
Y43929D01*
Y43447D02*
X64732D01*
Y43929D01*
X63310Y42659D02*
X64732D01*
X63310Y42177D02*
Y42659D01*
Y42177D02*
X64732D01*
Y42659D01*
X63310Y41389D02*
X64732D01*
X63310Y40907D02*
Y41389D01*
Y40907D02*
X64732D01*
Y41389D01*
X63310Y40119D02*
X64732D01*
X63310Y39637D02*
Y40119D01*
Y39637D02*
X64732D01*
Y40119D01*
X70142Y39637D02*
X71564D01*
Y40119D01*
X70142D02*
X71564D01*
X70142Y39637D02*
Y40119D01*
Y40907D02*
X71564D01*
Y41389D01*
X70142D02*
X71564D01*
X70142Y40907D02*
Y41389D01*
Y42177D02*
X71564D01*
Y42659D01*
X70142D02*
X71564D01*
X70142Y42177D02*
Y42659D01*
Y43447D02*
X71564D01*
Y43929D01*
X70142D02*
X71564D01*
X70142Y43447D02*
Y43929D01*
M02*
