G04*
G04 #@! TF.GenerationSoftware,Altium Limited,Altium Designer,21.0.8 (223)*
G04*
G04 Layer_Color=2752767*
%FSLAX43Y43*%
%MOMM*%
G71*
G04*
G04 #@! TF.SameCoordinates,5A3F30AB-55E7-4A3F-9E9B-6293D66C37A6*
G04*
G04*
G04 #@! TF.FilePolarity,Positive*
G04*
G01*
G75*
%ADD110C,0.051*%
%ADD111C,0.068*%
D110*
X99365Y67996D02*
Y68402D01*
X99771D01*
Y67996D01*
X99365D01*
X96825D02*
Y68402D01*
X97231D01*
Y67996D01*
X96825D01*
X104445D02*
Y68402D01*
X104851D01*
Y67996D01*
X104445D01*
X101905D02*
Y68402D01*
X102311D01*
Y67996D01*
X101905D01*
X82728Y44247D02*
Y44653D01*
X83134D01*
Y44247D01*
X82728D01*
X85268D02*
Y44653D01*
X85674D01*
Y44247D01*
X85268D01*
X80188D02*
Y44653D01*
X80594D01*
Y44247D01*
X80188D01*
X34925Y74831D02*
X34722Y75237D01*
X35128D01*
X34925Y74831D01*
Y78791D02*
X34722Y79197D01*
X35128D01*
X34925Y78791D01*
X105334Y33452D02*
Y33858D01*
X105740D01*
Y33452D01*
X105334D01*
X100254D02*
Y33858D01*
X100660D01*
Y33452D01*
X100254D01*
X102794D02*
Y33858D01*
X103200D01*
Y33452D01*
X102794D01*
X93523D02*
Y33858D01*
X93929D01*
Y33452D01*
X93523D01*
X88443D02*
Y33858D01*
X88849D01*
Y33452D01*
X88443D01*
X90983D02*
Y33858D01*
X91389D01*
Y33452D01*
X90983D01*
X115621Y56566D02*
Y56972D01*
X116027D01*
Y56566D01*
X115621D01*
Y59106D02*
Y59512D01*
X116027D01*
Y59106D01*
X115621D01*
Y61646D02*
Y62052D01*
X116027D01*
Y61646D01*
X115621D01*
Y51486D02*
Y51892D01*
X116027D01*
Y51486D01*
X115621D01*
Y54026D02*
Y54432D01*
X116027D01*
Y54026D01*
X115621D01*
Y46406D02*
Y46812D01*
X116027D01*
Y46406D01*
X115621D01*
Y48946D02*
Y49352D01*
X116027D01*
Y48946D01*
X115621D01*
Y43866D02*
Y44272D01*
X116027D01*
Y43866D01*
X115621D01*
X33528Y57201D02*
X33630Y57302D01*
X33731D01*
X33630Y57404D01*
X33731Y57506D01*
X33630D01*
X33528Y57607D01*
X33426Y57506D01*
X33325D01*
X33426Y57404D01*
X33325Y57302D01*
X33426D01*
X33528Y57201D01*
Y54661D02*
X33630Y54762D01*
X33731D01*
X33630Y54864D01*
X33731Y54966D01*
X33630D01*
X33528Y55067D01*
X33426Y54966D01*
X33325D01*
X33426Y54864D01*
X33325Y54762D01*
X33426D01*
X33528Y54661D01*
X81331Y50978D02*
Y51384D01*
X81737D01*
Y50978D01*
X81331D01*
Y53518D02*
Y53924D01*
X81737D01*
Y53518D01*
X81331D01*
X82728Y47041D02*
Y47447D01*
X83134D01*
Y47041D01*
X82728D01*
X85268D02*
Y47447D01*
X85674D01*
Y47041D01*
X85268D01*
X80188D02*
Y47447D01*
X80594D01*
Y47041D01*
X80188D01*
X34341Y113970D02*
X34442Y114173D01*
X34341Y114376D01*
X34544Y114275D01*
X34747Y114376D01*
X34646Y114173D01*
X34747Y113970D01*
X34544Y114071D01*
X34341Y113970D01*
X125146D02*
X125247Y114173D01*
X125146Y114376D01*
X125349Y114275D01*
X125552Y114376D01*
X125451Y114173D01*
X125552Y113970D01*
X125349Y114071D01*
X125146Y113970D01*
X124130Y36119D02*
X124231Y36322D01*
X124130Y36525D01*
X124333Y36424D01*
X124536Y36525D01*
X124435Y36322D01*
X124536Y36119D01*
X124333Y36220D01*
X124130Y36119D01*
X35357D02*
X35458Y36322D01*
X35357Y36525D01*
X35560Y36424D01*
X35763Y36525D01*
X35662Y36322D01*
X35763Y36119D01*
X35560Y36220D01*
X35357Y36119D01*
X37490Y63271D02*
Y63170D01*
X37694D01*
Y63271D01*
X37795D01*
Y63475D01*
X37694D01*
Y63576D01*
X37490D01*
Y63475D01*
X37389D01*
Y63271D01*
X37490D01*
Y62255D02*
Y62154D01*
X37694D01*
Y62255D01*
X37795D01*
Y62459D01*
X37694D01*
Y62560D01*
X37490D01*
Y62459D01*
X37389D01*
Y62255D01*
X37490D01*
Y61239D02*
Y61138D01*
X37694D01*
Y61239D01*
X37795D01*
Y61443D01*
X37694D01*
Y61544D01*
X37490D01*
Y61443D01*
X37389D01*
Y61239D01*
X37490D01*
X35331Y63271D02*
Y63170D01*
X35535D01*
Y63271D01*
X35636D01*
Y63475D01*
X35535D01*
Y63576D01*
X35331D01*
Y63475D01*
X35230D01*
Y63271D01*
X35331D01*
X33299D02*
Y63170D01*
X33503D01*
Y63271D01*
X33604D01*
Y63475D01*
X33503D01*
Y63576D01*
X33299D01*
Y63475D01*
X33198D01*
Y63271D01*
X33299D01*
X31394D02*
Y63170D01*
X31598D01*
Y63271D01*
X31699D01*
Y63475D01*
X31598D01*
Y63576D01*
X31394D01*
Y63475D01*
X31293D01*
Y63271D01*
X31394D01*
X35331Y62255D02*
Y62154D01*
X35535D01*
Y62255D01*
X35636D01*
Y62459D01*
X35535D01*
Y62560D01*
X35331D01*
Y62459D01*
X35230D01*
Y62255D01*
X35331D01*
X33299D02*
Y62154D01*
X33503D01*
Y62255D01*
X33604D01*
Y62459D01*
X33503D01*
Y62560D01*
X33299D01*
Y62459D01*
X33198D01*
Y62255D01*
X33299D01*
X31394D02*
Y62154D01*
X31598D01*
Y62255D01*
X31699D01*
Y62459D01*
X31598D01*
Y62560D01*
X31394D01*
Y62459D01*
X31293D01*
Y62255D01*
X31394D01*
X35331Y61239D02*
Y61138D01*
X35535D01*
Y61239D01*
X35636D01*
Y61443D01*
X35535D01*
Y61544D01*
X35331D01*
Y61443D01*
X35230D01*
Y61239D01*
X35331D01*
X33299D02*
Y61138D01*
X33503D01*
Y61239D01*
X33604D01*
Y61443D01*
X33503D01*
Y61544D01*
X33299D01*
Y61443D01*
X33198D01*
Y61239D01*
X33299D01*
X31394D02*
Y61138D01*
X31598D01*
Y61239D01*
X31699D01*
Y61443D01*
X31598D01*
Y61544D01*
X31394D01*
Y61443D01*
X31293D01*
Y61239D01*
X31394D01*
X102768Y78022D02*
Y77921D01*
X102972D01*
Y78022D01*
X103073D01*
Y78226D01*
X102972D01*
Y78327D01*
X102768D01*
Y78226D01*
X102667D01*
Y78022D01*
X102768D01*
X85496Y76267D02*
Y76166D01*
X85700D01*
Y76267D01*
X85801D01*
Y76471D01*
X85700D01*
Y76572D01*
X85496D01*
Y76471D01*
X85395D01*
Y76267D01*
X85496D01*
X87401D02*
Y76166D01*
X87605D01*
Y76267D01*
X87706D01*
Y76471D01*
X87605D01*
Y76572D01*
X87401D01*
Y76471D01*
X87300D01*
Y76267D01*
X87401D01*
X62636Y75513D02*
Y75412D01*
X62840D01*
Y75513D01*
X62941D01*
Y75717D01*
X62840D01*
Y75818D01*
X62636D01*
Y75717D01*
X62535D01*
Y75513D01*
X62636D01*
X89433Y76267D02*
Y76166D01*
X89637D01*
Y76267D01*
X89738D01*
Y76471D01*
X89637D01*
Y76572D01*
X89433D01*
Y76471D01*
X89332D01*
Y76267D01*
X89433D01*
X104546Y77876D02*
Y77775D01*
X104750D01*
Y77876D01*
X104851D01*
Y78080D01*
X104750D01*
Y78181D01*
X104546D01*
Y78080D01*
X104445D01*
Y77876D01*
X104546D01*
X108483Y78130D02*
Y78029D01*
X108687D01*
Y78130D01*
X108788D01*
Y78334D01*
X108687D01*
Y78435D01*
X108483D01*
Y78334D01*
X108382D01*
Y78130D01*
X108483D01*
X106578D02*
Y78029D01*
X106782D01*
Y78130D01*
X106883D01*
Y78334D01*
X106782D01*
Y78435D01*
X106578D01*
Y78334D01*
X106477D01*
Y78130D01*
X106578D01*
X114579Y100228D02*
Y100127D01*
X114783D01*
Y100228D01*
X114884D01*
Y100432D01*
X114783D01*
Y100533D01*
X114579D01*
Y100432D01*
X114478D01*
Y100228D01*
X114579D01*
X115722D02*
Y100127D01*
X115926D01*
Y100228D01*
X116027D01*
Y100432D01*
X115926D01*
Y100533D01*
X115722D01*
Y100432D01*
X115621D01*
Y100228D01*
X115722D01*
X116865D02*
Y100127D01*
X117069D01*
Y100228D01*
X117170D01*
Y100432D01*
X117069D01*
Y100533D01*
X116865D01*
Y100432D01*
X116764D01*
Y100228D01*
X116865D01*
X118008D02*
Y100127D01*
X118212D01*
Y100228D01*
X118313D01*
Y100432D01*
X118212D01*
Y100533D01*
X118008D01*
Y100432D01*
X117907D01*
Y100228D01*
X118008D01*
X122707D02*
Y100127D01*
X122911D01*
Y100228D01*
X123012D01*
Y100432D01*
X122911D01*
Y100533D01*
X122707D01*
Y100432D01*
X122606D01*
Y100228D01*
X122707D01*
X121564D02*
Y100127D01*
X121768D01*
Y100228D01*
X121869D01*
Y100432D01*
X121768D01*
Y100533D01*
X121564D01*
Y100432D01*
X121463D01*
Y100228D01*
X121564D01*
X120421D02*
Y100127D01*
X120625D01*
Y100228D01*
X120726D01*
Y100432D01*
X120625D01*
Y100533D01*
X120421D01*
Y100432D01*
X120320D01*
Y100228D01*
X120421D01*
X119278D02*
Y100127D01*
X119482D01*
Y100228D01*
X119583D01*
Y100432D01*
X119482D01*
Y100533D01*
X119278D01*
Y100432D01*
X119177D01*
Y100228D01*
X119278D01*
X118008Y99212D02*
Y99111D01*
X118212D01*
Y99212D01*
X118313D01*
Y99416D01*
X118212D01*
Y99517D01*
X118008D01*
Y99416D01*
X117907D01*
Y99212D01*
X118008D01*
X116865D02*
Y99111D01*
X117069D01*
Y99212D01*
X117170D01*
Y99416D01*
X117069D01*
Y99517D01*
X116865D01*
Y99416D01*
X116764D01*
Y99212D01*
X116865D01*
X115722D02*
Y99111D01*
X115926D01*
Y99212D01*
X116027D01*
Y99416D01*
X115926D01*
Y99517D01*
X115722D01*
Y99416D01*
X115621D01*
Y99212D01*
X115722D01*
X114579D02*
Y99111D01*
X114783D01*
Y99212D01*
X114884D01*
Y99416D01*
X114783D01*
Y99517D01*
X114579D01*
Y99416D01*
X114478D01*
Y99212D01*
X114579D01*
X122707D02*
Y99111D01*
X122911D01*
Y99212D01*
X123012D01*
Y99416D01*
X122911D01*
Y99517D01*
X122707D01*
Y99416D01*
X122606D01*
Y99212D01*
X122707D01*
X121564D02*
Y99111D01*
X121768D01*
Y99212D01*
X121869D01*
Y99416D01*
X121768D01*
Y99517D01*
X121564D01*
Y99416D01*
X121463D01*
Y99212D01*
X121564D01*
X120421D02*
Y99111D01*
X120625D01*
Y99212D01*
X120726D01*
Y99416D01*
X120625D01*
Y99517D01*
X120421D01*
Y99416D01*
X120320D01*
Y99212D01*
X120421D01*
X119278D02*
Y99111D01*
X119482D01*
Y99212D01*
X119583D01*
Y99416D01*
X119482D01*
Y99517D01*
X119278D01*
Y99416D01*
X119177D01*
Y99212D01*
X119278D01*
X122707Y98196D02*
Y98095D01*
X122911D01*
Y98196D01*
X123012D01*
Y98400D01*
X122911D01*
Y98501D01*
X122707D01*
Y98400D01*
X122606D01*
Y98196D01*
X122707D01*
X121564D02*
Y98095D01*
X121768D01*
Y98196D01*
X121869D01*
Y98400D01*
X121768D01*
Y98501D01*
X121564D01*
Y98400D01*
X121463D01*
Y98196D01*
X121564D01*
X120421D02*
Y98095D01*
X120625D01*
Y98196D01*
X120726D01*
Y98400D01*
X120625D01*
Y98501D01*
X120421D01*
Y98400D01*
X120320D01*
Y98196D01*
X120421D01*
X119278D02*
Y98095D01*
X119482D01*
Y98196D01*
X119583D01*
Y98400D01*
X119482D01*
Y98501D01*
X119278D01*
Y98400D01*
X119177D01*
Y98196D01*
X119278D01*
X118008D02*
Y98095D01*
X118212D01*
Y98196D01*
X118313D01*
Y98400D01*
X118212D01*
Y98501D01*
X118008D01*
Y98400D01*
X117907D01*
Y98196D01*
X118008D01*
X116865D02*
Y98095D01*
X117069D01*
Y98196D01*
X117170D01*
Y98400D01*
X117069D01*
Y98501D01*
X116865D01*
Y98400D01*
X116764D01*
Y98196D01*
X116865D01*
X115722D02*
Y98095D01*
X115926D01*
Y98196D01*
X116027D01*
Y98400D01*
X115926D01*
Y98501D01*
X115722D01*
Y98400D01*
X115621D01*
Y98196D01*
X115722D01*
X114579D02*
Y98095D01*
X114783D01*
Y98196D01*
X114884D01*
Y98400D01*
X114783D01*
Y98501D01*
X114579D01*
Y98400D01*
X114478D01*
Y98196D01*
X114579D01*
X118008Y97180D02*
Y97079D01*
X118212D01*
Y97180D01*
X118313D01*
Y97384D01*
X118212D01*
Y97485D01*
X118008D01*
Y97384D01*
X117907D01*
Y97180D01*
X118008D01*
X116865D02*
Y97079D01*
X117069D01*
Y97180D01*
X117170D01*
Y97384D01*
X117069D01*
Y97485D01*
X116865D01*
Y97384D01*
X116764D01*
Y97180D01*
X116865D01*
X115722D02*
Y97079D01*
X115926D01*
Y97180D01*
X116027D01*
Y97384D01*
X115926D01*
Y97485D01*
X115722D01*
Y97384D01*
X115621D01*
Y97180D01*
X115722D01*
X114579D02*
Y97079D01*
X114783D01*
Y97180D01*
X114884D01*
Y97384D01*
X114783D01*
Y97485D01*
X114579D01*
Y97384D01*
X114478D01*
Y97180D01*
X114579D01*
X122707D02*
Y97079D01*
X122911D01*
Y97180D01*
X123012D01*
Y97384D01*
X122911D01*
Y97485D01*
X122707D01*
Y97384D01*
X122606D01*
Y97180D01*
X122707D01*
X121564D02*
Y97079D01*
X121768D01*
Y97180D01*
X121869D01*
Y97384D01*
X121768D01*
Y97485D01*
X121564D01*
Y97384D01*
X121463D01*
Y97180D01*
X121564D01*
X120421D02*
Y97079D01*
X120625D01*
Y97180D01*
X120726D01*
Y97384D01*
X120625D01*
Y97485D01*
X120421D01*
Y97384D01*
X120320D01*
Y97180D01*
X120421D01*
X119278D02*
Y97079D01*
X119482D01*
Y97180D01*
X119583D01*
Y97384D01*
X119482D01*
Y97485D01*
X119278D01*
Y97384D01*
X119177D01*
Y97180D01*
X119278D01*
X118008Y96164D02*
Y96063D01*
X118212D01*
Y96164D01*
X118313D01*
Y96368D01*
X118212D01*
Y96469D01*
X118008D01*
Y96368D01*
X117907D01*
Y96164D01*
X118008D01*
X116865D02*
Y96063D01*
X117069D01*
Y96164D01*
X117170D01*
Y96368D01*
X117069D01*
Y96469D01*
X116865D01*
Y96368D01*
X116764D01*
Y96164D01*
X116865D01*
X115722D02*
Y96063D01*
X115926D01*
Y96164D01*
X116027D01*
Y96368D01*
X115926D01*
Y96469D01*
X115722D01*
Y96368D01*
X115621D01*
Y96164D01*
X115722D01*
X114579D02*
Y96063D01*
X114783D01*
Y96164D01*
X114884D01*
Y96368D01*
X114783D01*
Y96469D01*
X114579D01*
Y96368D01*
X114478D01*
Y96164D01*
X114579D01*
X122707D02*
Y96063D01*
X122911D01*
Y96164D01*
X123012D01*
Y96368D01*
X122911D01*
Y96469D01*
X122707D01*
Y96368D01*
X122606D01*
Y96164D01*
X122707D01*
X121564D02*
Y96063D01*
X121768D01*
Y96164D01*
X121869D01*
Y96368D01*
X121768D01*
Y96469D01*
X121564D01*
Y96368D01*
X121463D01*
Y96164D01*
X121564D01*
X120421D02*
Y96063D01*
X120625D01*
Y96164D01*
X120726D01*
Y96368D01*
X120625D01*
Y96469D01*
X120421D01*
Y96368D01*
X120320D01*
Y96164D01*
X120421D01*
X119278D02*
Y96063D01*
X119482D01*
Y96164D01*
X119583D01*
Y96368D01*
X119482D01*
Y96469D01*
X119278D01*
Y96368D01*
X119177D01*
Y96164D01*
X119278D01*
X122707Y95021D02*
Y94920D01*
X122911D01*
Y95021D01*
X123012D01*
Y95225D01*
X122911D01*
Y95326D01*
X122707D01*
Y95225D01*
X122606D01*
Y95021D01*
X122707D01*
X121564D02*
Y94920D01*
X121768D01*
Y95021D01*
X121869D01*
Y95225D01*
X121768D01*
Y95326D01*
X121564D01*
Y95225D01*
X121463D01*
Y95021D01*
X121564D01*
X120421D02*
Y94920D01*
X120625D01*
Y95021D01*
X120726D01*
Y95225D01*
X120625D01*
Y95326D01*
X120421D01*
Y95225D01*
X120320D01*
Y95021D01*
X120421D01*
X119278D02*
Y94920D01*
X119482D01*
Y95021D01*
X119583D01*
Y95225D01*
X119482D01*
Y95326D01*
X119278D01*
Y95225D01*
X119177D01*
Y95021D01*
X119278D01*
X118008D02*
Y94920D01*
X118212D01*
Y95021D01*
X118313D01*
Y95225D01*
X118212D01*
Y95326D01*
X118008D01*
Y95225D01*
X117907D01*
Y95021D01*
X118008D01*
X116865D02*
Y94920D01*
X117069D01*
Y95021D01*
X117170D01*
Y95225D01*
X117069D01*
Y95326D01*
X116865D01*
Y95225D01*
X116764D01*
Y95021D01*
X116865D01*
X115722D02*
Y94920D01*
X115926D01*
Y95021D01*
X116027D01*
Y95225D01*
X115926D01*
Y95326D01*
X115722D01*
Y95225D01*
X115621D01*
Y95021D01*
X115722D01*
X114579D02*
Y94920D01*
X114783D01*
Y95021D01*
X114884D01*
Y95225D01*
X114783D01*
Y95326D01*
X114579D01*
Y95225D01*
X114478D01*
Y95021D01*
X114579D01*
X118008Y93878D02*
Y93777D01*
X118212D01*
Y93878D01*
X118313D01*
Y94082D01*
X118212D01*
Y94183D01*
X118008D01*
Y94082D01*
X117907D01*
Y93878D01*
X118008D01*
X116865D02*
Y93777D01*
X117069D01*
Y93878D01*
X117170D01*
Y94082D01*
X117069D01*
Y94183D01*
X116865D01*
Y94082D01*
X116764D01*
Y93878D01*
X116865D01*
X115722D02*
Y93777D01*
X115926D01*
Y93878D01*
X116027D01*
Y94082D01*
X115926D01*
Y94183D01*
X115722D01*
Y94082D01*
X115621D01*
Y93878D01*
X115722D01*
X114579D02*
Y93777D01*
X114783D01*
Y93878D01*
X114884D01*
Y94082D01*
X114783D01*
Y94183D01*
X114579D01*
Y94082D01*
X114478D01*
Y93878D01*
X114579D01*
X122707D02*
Y93777D01*
X122911D01*
Y93878D01*
X123012D01*
Y94082D01*
X122911D01*
Y94183D01*
X122707D01*
Y94082D01*
X122606D01*
Y93878D01*
X122707D01*
X121564D02*
Y93777D01*
X121768D01*
Y93878D01*
X121869D01*
Y94082D01*
X121768D01*
Y94183D01*
X121564D01*
Y94082D01*
X121463D01*
Y93878D01*
X121564D01*
X120421D02*
Y93777D01*
X120625D01*
Y93878D01*
X120726D01*
Y94082D01*
X120625D01*
Y94183D01*
X120421D01*
Y94082D01*
X120320D01*
Y93878D01*
X120421D01*
X119278D02*
Y93777D01*
X119482D01*
Y93878D01*
X119583D01*
Y94082D01*
X119482D01*
Y94183D01*
X119278D01*
Y94082D01*
X119177D01*
Y93878D01*
X119278D01*
X88798Y100228D02*
Y100127D01*
X89002D01*
Y100228D01*
X89103D01*
Y100432D01*
X89002D01*
Y100533D01*
X88798D01*
Y100432D01*
X88697D01*
Y100228D01*
X88798D01*
X89941D02*
Y100127D01*
X90145D01*
Y100228D01*
X90246D01*
Y100432D01*
X90145D01*
Y100533D01*
X89941D01*
Y100432D01*
X89840D01*
Y100228D01*
X89941D01*
X91084D02*
Y100127D01*
X91288D01*
Y100228D01*
X91389D01*
Y100432D01*
X91288D01*
Y100533D01*
X91084D01*
Y100432D01*
X90983D01*
Y100228D01*
X91084D01*
X92227D02*
Y100127D01*
X92431D01*
Y100228D01*
X92532D01*
Y100432D01*
X92431D01*
Y100533D01*
X92227D01*
Y100432D01*
X92126D01*
Y100228D01*
X92227D01*
X96926D02*
Y100127D01*
X97130D01*
Y100228D01*
X97231D01*
Y100432D01*
X97130D01*
Y100533D01*
X96926D01*
Y100432D01*
X96825D01*
Y100228D01*
X96926D01*
X95783D02*
Y100127D01*
X95987D01*
Y100228D01*
X96088D01*
Y100432D01*
X95987D01*
Y100533D01*
X95783D01*
Y100432D01*
X95682D01*
Y100228D01*
X95783D01*
X94640D02*
Y100127D01*
X94844D01*
Y100228D01*
X94945D01*
Y100432D01*
X94844D01*
Y100533D01*
X94640D01*
Y100432D01*
X94539D01*
Y100228D01*
X94640D01*
X93497D02*
Y100127D01*
X93701D01*
Y100228D01*
X93802D01*
Y100432D01*
X93701D01*
Y100533D01*
X93497D01*
Y100432D01*
X93396D01*
Y100228D01*
X93497D01*
X92227Y99212D02*
Y99111D01*
X92431D01*
Y99212D01*
X92532D01*
Y99416D01*
X92431D01*
Y99517D01*
X92227D01*
Y99416D01*
X92126D01*
Y99212D01*
X92227D01*
X91084D02*
Y99111D01*
X91288D01*
Y99212D01*
X91389D01*
Y99416D01*
X91288D01*
Y99517D01*
X91084D01*
Y99416D01*
X90983D01*
Y99212D01*
X91084D01*
X89941D02*
Y99111D01*
X90145D01*
Y99212D01*
X90246D01*
Y99416D01*
X90145D01*
Y99517D01*
X89941D01*
Y99416D01*
X89840D01*
Y99212D01*
X89941D01*
X88798D02*
Y99111D01*
X89002D01*
Y99212D01*
X89103D01*
Y99416D01*
X89002D01*
Y99517D01*
X88798D01*
Y99416D01*
X88697D01*
Y99212D01*
X88798D01*
X96926D02*
Y99111D01*
X97130D01*
Y99212D01*
X97231D01*
Y99416D01*
X97130D01*
Y99517D01*
X96926D01*
Y99416D01*
X96825D01*
Y99212D01*
X96926D01*
X95783D02*
Y99111D01*
X95987D01*
Y99212D01*
X96088D01*
Y99416D01*
X95987D01*
Y99517D01*
X95783D01*
Y99416D01*
X95682D01*
Y99212D01*
X95783D01*
X94640D02*
Y99111D01*
X94844D01*
Y99212D01*
X94945D01*
Y99416D01*
X94844D01*
Y99517D01*
X94640D01*
Y99416D01*
X94539D01*
Y99212D01*
X94640D01*
X93497D02*
Y99111D01*
X93701D01*
Y99212D01*
X93802D01*
Y99416D01*
X93701D01*
Y99517D01*
X93497D01*
Y99416D01*
X93396D01*
Y99212D01*
X93497D01*
X96926Y98196D02*
Y98095D01*
X97130D01*
Y98196D01*
X97231D01*
Y98400D01*
X97130D01*
Y98501D01*
X96926D01*
Y98400D01*
X96825D01*
Y98196D01*
X96926D01*
X95783D02*
Y98095D01*
X95987D01*
Y98196D01*
X96088D01*
Y98400D01*
X95987D01*
Y98501D01*
X95783D01*
Y98400D01*
X95682D01*
Y98196D01*
X95783D01*
X94640D02*
Y98095D01*
X94844D01*
Y98196D01*
X94945D01*
Y98400D01*
X94844D01*
Y98501D01*
X94640D01*
Y98400D01*
X94539D01*
Y98196D01*
X94640D01*
X93497D02*
Y98095D01*
X93701D01*
Y98196D01*
X93802D01*
Y98400D01*
X93701D01*
Y98501D01*
X93497D01*
Y98400D01*
X93396D01*
Y98196D01*
X93497D01*
X92227D02*
Y98095D01*
X92431D01*
Y98196D01*
X92532D01*
Y98400D01*
X92431D01*
Y98501D01*
X92227D01*
Y98400D01*
X92126D01*
Y98196D01*
X92227D01*
X91084D02*
Y98095D01*
X91288D01*
Y98196D01*
X91389D01*
Y98400D01*
X91288D01*
Y98501D01*
X91084D01*
Y98400D01*
X90983D01*
Y98196D01*
X91084D01*
X89941D02*
Y98095D01*
X90145D01*
Y98196D01*
X90246D01*
Y98400D01*
X90145D01*
Y98501D01*
X89941D01*
Y98400D01*
X89840D01*
Y98196D01*
X89941D01*
X88798D02*
Y98095D01*
X89002D01*
Y98196D01*
X89103D01*
Y98400D01*
X89002D01*
Y98501D01*
X88798D01*
Y98400D01*
X88697D01*
Y98196D01*
X88798D01*
X92227Y97180D02*
Y97079D01*
X92431D01*
Y97180D01*
X92532D01*
Y97384D01*
X92431D01*
Y97485D01*
X92227D01*
Y97384D01*
X92126D01*
Y97180D01*
X92227D01*
X91084D02*
Y97079D01*
X91288D01*
Y97180D01*
X91389D01*
Y97384D01*
X91288D01*
Y97485D01*
X91084D01*
Y97384D01*
X90983D01*
Y97180D01*
X91084D01*
X89941D02*
Y97079D01*
X90145D01*
Y97180D01*
X90246D01*
Y97384D01*
X90145D01*
Y97485D01*
X89941D01*
Y97384D01*
X89840D01*
Y97180D01*
X89941D01*
X88798D02*
Y97079D01*
X89002D01*
Y97180D01*
X89103D01*
Y97384D01*
X89002D01*
Y97485D01*
X88798D01*
Y97384D01*
X88697D01*
Y97180D01*
X88798D01*
X96926D02*
Y97079D01*
X97130D01*
Y97180D01*
X97231D01*
Y97384D01*
X97130D01*
Y97485D01*
X96926D01*
Y97384D01*
X96825D01*
Y97180D01*
X96926D01*
X95783D02*
Y97079D01*
X95987D01*
Y97180D01*
X96088D01*
Y97384D01*
X95987D01*
Y97485D01*
X95783D01*
Y97384D01*
X95682D01*
Y97180D01*
X95783D01*
X94640D02*
Y97079D01*
X94844D01*
Y97180D01*
X94945D01*
Y97384D01*
X94844D01*
Y97485D01*
X94640D01*
Y97384D01*
X94539D01*
Y97180D01*
X94640D01*
X93497D02*
Y97079D01*
X93701D01*
Y97180D01*
X93802D01*
Y97384D01*
X93701D01*
Y97485D01*
X93497D01*
Y97384D01*
X93396D01*
Y97180D01*
X93497D01*
X92227Y96164D02*
Y96063D01*
X92431D01*
Y96164D01*
X92532D01*
Y96368D01*
X92431D01*
Y96469D01*
X92227D01*
Y96368D01*
X92126D01*
Y96164D01*
X92227D01*
X91084D02*
Y96063D01*
X91288D01*
Y96164D01*
X91389D01*
Y96368D01*
X91288D01*
Y96469D01*
X91084D01*
Y96368D01*
X90983D01*
Y96164D01*
X91084D01*
X89941D02*
Y96063D01*
X90145D01*
Y96164D01*
X90246D01*
Y96368D01*
X90145D01*
Y96469D01*
X89941D01*
Y96368D01*
X89840D01*
Y96164D01*
X89941D01*
X88798D02*
Y96063D01*
X89002D01*
Y96164D01*
X89103D01*
Y96368D01*
X89002D01*
Y96469D01*
X88798D01*
Y96368D01*
X88697D01*
Y96164D01*
X88798D01*
X96926D02*
Y96063D01*
X97130D01*
Y96164D01*
X97231D01*
Y96368D01*
X97130D01*
Y96469D01*
X96926D01*
Y96368D01*
X96825D01*
Y96164D01*
X96926D01*
X95783D02*
Y96063D01*
X95987D01*
Y96164D01*
X96088D01*
Y96368D01*
X95987D01*
Y96469D01*
X95783D01*
Y96368D01*
X95682D01*
Y96164D01*
X95783D01*
X94640D02*
Y96063D01*
X94844D01*
Y96164D01*
X94945D01*
Y96368D01*
X94844D01*
Y96469D01*
X94640D01*
Y96368D01*
X94539D01*
Y96164D01*
X94640D01*
X93497D02*
Y96063D01*
X93701D01*
Y96164D01*
X93802D01*
Y96368D01*
X93701D01*
Y96469D01*
X93497D01*
Y96368D01*
X93396D01*
Y96164D01*
X93497D01*
X96926Y95021D02*
Y94920D01*
X97130D01*
Y95021D01*
X97231D01*
Y95225D01*
X97130D01*
Y95326D01*
X96926D01*
Y95225D01*
X96825D01*
Y95021D01*
X96926D01*
X95783D02*
Y94920D01*
X95987D01*
Y95021D01*
X96088D01*
Y95225D01*
X95987D01*
Y95326D01*
X95783D01*
Y95225D01*
X95682D01*
Y95021D01*
X95783D01*
X94640D02*
Y94920D01*
X94844D01*
Y95021D01*
X94945D01*
Y95225D01*
X94844D01*
Y95326D01*
X94640D01*
Y95225D01*
X94539D01*
Y95021D01*
X94640D01*
X93497D02*
Y94920D01*
X93701D01*
Y95021D01*
X93802D01*
Y95225D01*
X93701D01*
Y95326D01*
X93497D01*
Y95225D01*
X93396D01*
Y95021D01*
X93497D01*
X92227D02*
Y94920D01*
X92431D01*
Y95021D01*
X92532D01*
Y95225D01*
X92431D01*
Y95326D01*
X92227D01*
Y95225D01*
X92126D01*
Y95021D01*
X92227D01*
X91084D02*
Y94920D01*
X91288D01*
Y95021D01*
X91389D01*
Y95225D01*
X91288D01*
Y95326D01*
X91084D01*
Y95225D01*
X90983D01*
Y95021D01*
X91084D01*
X89941D02*
Y94920D01*
X90145D01*
Y95021D01*
X90246D01*
Y95225D01*
X90145D01*
Y95326D01*
X89941D01*
Y95225D01*
X89840D01*
Y95021D01*
X89941D01*
X88798D02*
Y94920D01*
X89002D01*
Y95021D01*
X89103D01*
Y95225D01*
X89002D01*
Y95326D01*
X88798D01*
Y95225D01*
X88697D01*
Y95021D01*
X88798D01*
X92227Y93878D02*
Y93777D01*
X92431D01*
Y93878D01*
X92532D01*
Y94082D01*
X92431D01*
Y94183D01*
X92227D01*
Y94082D01*
X92126D01*
Y93878D01*
X92227D01*
X91084D02*
Y93777D01*
X91288D01*
Y93878D01*
X91389D01*
Y94082D01*
X91288D01*
Y94183D01*
X91084D01*
Y94082D01*
X90983D01*
Y93878D01*
X91084D01*
X89941D02*
Y93777D01*
X90145D01*
Y93878D01*
X90246D01*
Y94082D01*
X90145D01*
Y94183D01*
X89941D01*
Y94082D01*
X89840D01*
Y93878D01*
X89941D01*
X88798D02*
Y93777D01*
X89002D01*
Y93878D01*
X89103D01*
Y94082D01*
X89002D01*
Y94183D01*
X88798D01*
Y94082D01*
X88697D01*
Y93878D01*
X88798D01*
X96926D02*
Y93777D01*
X97130D01*
Y93878D01*
X97231D01*
Y94082D01*
X97130D01*
Y94183D01*
X96926D01*
Y94082D01*
X96825D01*
Y93878D01*
X96926D01*
X95783D02*
Y93777D01*
X95987D01*
Y93878D01*
X96088D01*
Y94082D01*
X95987D01*
Y94183D01*
X95783D01*
Y94082D01*
X95682D01*
Y93878D01*
X95783D01*
X94640D02*
Y93777D01*
X94844D01*
Y93878D01*
X94945D01*
Y94082D01*
X94844D01*
Y94183D01*
X94640D01*
Y94082D01*
X94539D01*
Y93878D01*
X94640D01*
X93497D02*
Y93777D01*
X93701D01*
Y93878D01*
X93802D01*
Y94082D01*
X93701D01*
Y94183D01*
X93497D01*
Y94082D01*
X93396D01*
Y93878D01*
X93497D01*
X62763Y100101D02*
Y100000D01*
X62967D01*
Y100101D01*
X63068D01*
Y100305D01*
X62967D01*
Y100406D01*
X62763D01*
Y100305D01*
X62662D01*
Y100101D01*
X62763D01*
X63906D02*
Y100000D01*
X64110D01*
Y100101D01*
X64211D01*
Y100305D01*
X64110D01*
Y100406D01*
X63906D01*
Y100305D01*
X63805D01*
Y100101D01*
X63906D01*
X65049D02*
Y100000D01*
X65253D01*
Y100101D01*
X65354D01*
Y100305D01*
X65253D01*
Y100406D01*
X65049D01*
Y100305D01*
X64948D01*
Y100101D01*
X65049D01*
X66192D02*
Y100000D01*
X66396D01*
Y100101D01*
X66497D01*
Y100305D01*
X66396D01*
Y100406D01*
X66192D01*
Y100305D01*
X66091D01*
Y100101D01*
X66192D01*
X70891D02*
Y100000D01*
X71095D01*
Y100101D01*
X71196D01*
Y100305D01*
X71095D01*
Y100406D01*
X70891D01*
Y100305D01*
X70790D01*
Y100101D01*
X70891D01*
X69748D02*
Y100000D01*
X69952D01*
Y100101D01*
X70053D01*
Y100305D01*
X69952D01*
Y100406D01*
X69748D01*
Y100305D01*
X69647D01*
Y100101D01*
X69748D01*
X68605D02*
Y100000D01*
X68809D01*
Y100101D01*
X68910D01*
Y100305D01*
X68809D01*
Y100406D01*
X68605D01*
Y100305D01*
X68504D01*
Y100101D01*
X68605D01*
X67462D02*
Y100000D01*
X67666D01*
Y100101D01*
X67767D01*
Y100305D01*
X67666D01*
Y100406D01*
X67462D01*
Y100305D01*
X67361D01*
Y100101D01*
X67462D01*
X66192Y99085D02*
Y98984D01*
X66396D01*
Y99085D01*
X66497D01*
Y99289D01*
X66396D01*
Y99390D01*
X66192D01*
Y99289D01*
X66091D01*
Y99085D01*
X66192D01*
X65049D02*
Y98984D01*
X65253D01*
Y99085D01*
X65354D01*
Y99289D01*
X65253D01*
Y99390D01*
X65049D01*
Y99289D01*
X64948D01*
Y99085D01*
X65049D01*
X63906D02*
Y98984D01*
X64110D01*
Y99085D01*
X64211D01*
Y99289D01*
X64110D01*
Y99390D01*
X63906D01*
Y99289D01*
X63805D01*
Y99085D01*
X63906D01*
X62763D02*
Y98984D01*
X62967D01*
Y99085D01*
X63068D01*
Y99289D01*
X62967D01*
Y99390D01*
X62763D01*
Y99289D01*
X62662D01*
Y99085D01*
X62763D01*
X70891D02*
Y98984D01*
X71095D01*
Y99085D01*
X71196D01*
Y99289D01*
X71095D01*
Y99390D01*
X70891D01*
Y99289D01*
X70790D01*
Y99085D01*
X70891D01*
X69748D02*
Y98984D01*
X69952D01*
Y99085D01*
X70053D01*
Y99289D01*
X69952D01*
Y99390D01*
X69748D01*
Y99289D01*
X69647D01*
Y99085D01*
X69748D01*
X68605D02*
Y98984D01*
X68809D01*
Y99085D01*
X68910D01*
Y99289D01*
X68809D01*
Y99390D01*
X68605D01*
Y99289D01*
X68504D01*
Y99085D01*
X68605D01*
X67462D02*
Y98984D01*
X67666D01*
Y99085D01*
X67767D01*
Y99289D01*
X67666D01*
Y99390D01*
X67462D01*
Y99289D01*
X67361D01*
Y99085D01*
X67462D01*
X70891Y98069D02*
Y97968D01*
X71095D01*
Y98069D01*
X71196D01*
Y98273D01*
X71095D01*
Y98374D01*
X70891D01*
Y98273D01*
X70790D01*
Y98069D01*
X70891D01*
X69748D02*
Y97968D01*
X69952D01*
Y98069D01*
X70053D01*
Y98273D01*
X69952D01*
Y98374D01*
X69748D01*
Y98273D01*
X69647D01*
Y98069D01*
X69748D01*
X68605D02*
Y97968D01*
X68809D01*
Y98069D01*
X68910D01*
Y98273D01*
X68809D01*
Y98374D01*
X68605D01*
Y98273D01*
X68504D01*
Y98069D01*
X68605D01*
X67462D02*
Y97968D01*
X67666D01*
Y98069D01*
X67767D01*
Y98273D01*
X67666D01*
Y98374D01*
X67462D01*
Y98273D01*
X67361D01*
Y98069D01*
X67462D01*
X66192D02*
Y97968D01*
X66396D01*
Y98069D01*
X66497D01*
Y98273D01*
X66396D01*
Y98374D01*
X66192D01*
Y98273D01*
X66091D01*
Y98069D01*
X66192D01*
X65049D02*
Y97968D01*
X65253D01*
Y98069D01*
X65354D01*
Y98273D01*
X65253D01*
Y98374D01*
X65049D01*
Y98273D01*
X64948D01*
Y98069D01*
X65049D01*
X63906D02*
Y97968D01*
X64110D01*
Y98069D01*
X64211D01*
Y98273D01*
X64110D01*
Y98374D01*
X63906D01*
Y98273D01*
X63805D01*
Y98069D01*
X63906D01*
X62763D02*
Y97968D01*
X62967D01*
Y98069D01*
X63068D01*
Y98273D01*
X62967D01*
Y98374D01*
X62763D01*
Y98273D01*
X62662D01*
Y98069D01*
X62763D01*
X66192Y97053D02*
Y96952D01*
X66396D01*
Y97053D01*
X66497D01*
Y97257D01*
X66396D01*
Y97358D01*
X66192D01*
Y97257D01*
X66091D01*
Y97053D01*
X66192D01*
X65049D02*
Y96952D01*
X65253D01*
Y97053D01*
X65354D01*
Y97257D01*
X65253D01*
Y97358D01*
X65049D01*
Y97257D01*
X64948D01*
Y97053D01*
X65049D01*
X63906D02*
Y96952D01*
X64110D01*
Y97053D01*
X64211D01*
Y97257D01*
X64110D01*
Y97358D01*
X63906D01*
Y97257D01*
X63805D01*
Y97053D01*
X63906D01*
X62763D02*
Y96952D01*
X62967D01*
Y97053D01*
X63068D01*
Y97257D01*
X62967D01*
Y97358D01*
X62763D01*
Y97257D01*
X62662D01*
Y97053D01*
X62763D01*
X70891D02*
Y96952D01*
X71095D01*
Y97053D01*
X71196D01*
Y97257D01*
X71095D01*
Y97358D01*
X70891D01*
Y97257D01*
X70790D01*
Y97053D01*
X70891D01*
X69748D02*
Y96952D01*
X69952D01*
Y97053D01*
X70053D01*
Y97257D01*
X69952D01*
Y97358D01*
X69748D01*
Y97257D01*
X69647D01*
Y97053D01*
X69748D01*
X68605D02*
Y96952D01*
X68809D01*
Y97053D01*
X68910D01*
Y97257D01*
X68809D01*
Y97358D01*
X68605D01*
Y97257D01*
X68504D01*
Y97053D01*
X68605D01*
X67462D02*
Y96952D01*
X67666D01*
Y97053D01*
X67767D01*
Y97257D01*
X67666D01*
Y97358D01*
X67462D01*
Y97257D01*
X67361D01*
Y97053D01*
X67462D01*
X66192Y96037D02*
Y95936D01*
X66396D01*
Y96037D01*
X66497D01*
Y96241D01*
X66396D01*
Y96342D01*
X66192D01*
Y96241D01*
X66091D01*
Y96037D01*
X66192D01*
X65049D02*
Y95936D01*
X65253D01*
Y96037D01*
X65354D01*
Y96241D01*
X65253D01*
Y96342D01*
X65049D01*
Y96241D01*
X64948D01*
Y96037D01*
X65049D01*
X63906D02*
Y95936D01*
X64110D01*
Y96037D01*
X64211D01*
Y96241D01*
X64110D01*
Y96342D01*
X63906D01*
Y96241D01*
X63805D01*
Y96037D01*
X63906D01*
X62763D02*
Y95936D01*
X62967D01*
Y96037D01*
X63068D01*
Y96241D01*
X62967D01*
Y96342D01*
X62763D01*
Y96241D01*
X62662D01*
Y96037D01*
X62763D01*
X70891D02*
Y95936D01*
X71095D01*
Y96037D01*
X71196D01*
Y96241D01*
X71095D01*
Y96342D01*
X70891D01*
Y96241D01*
X70790D01*
Y96037D01*
X70891D01*
X69748D02*
Y95936D01*
X69952D01*
Y96037D01*
X70053D01*
Y96241D01*
X69952D01*
Y96342D01*
X69748D01*
Y96241D01*
X69647D01*
Y96037D01*
X69748D01*
X68605D02*
Y95936D01*
X68809D01*
Y96037D01*
X68910D01*
Y96241D01*
X68809D01*
Y96342D01*
X68605D01*
Y96241D01*
X68504D01*
Y96037D01*
X68605D01*
X67462D02*
Y95936D01*
X67666D01*
Y96037D01*
X67767D01*
Y96241D01*
X67666D01*
Y96342D01*
X67462D01*
Y96241D01*
X67361D01*
Y96037D01*
X67462D01*
X70891Y94894D02*
Y94793D01*
X71095D01*
Y94894D01*
X71196D01*
Y95098D01*
X71095D01*
Y95199D01*
X70891D01*
Y95098D01*
X70790D01*
Y94894D01*
X70891D01*
X69748D02*
Y94793D01*
X69952D01*
Y94894D01*
X70053D01*
Y95098D01*
X69952D01*
Y95199D01*
X69748D01*
Y95098D01*
X69647D01*
Y94894D01*
X69748D01*
X68605D02*
Y94793D01*
X68809D01*
Y94894D01*
X68910D01*
Y95098D01*
X68809D01*
Y95199D01*
X68605D01*
Y95098D01*
X68504D01*
Y94894D01*
X68605D01*
X67462D02*
Y94793D01*
X67666D01*
Y94894D01*
X67767D01*
Y95098D01*
X67666D01*
Y95199D01*
X67462D01*
Y95098D01*
X67361D01*
Y94894D01*
X67462D01*
X66192D02*
Y94793D01*
X66396D01*
Y94894D01*
X66497D01*
Y95098D01*
X66396D01*
Y95199D01*
X66192D01*
Y95098D01*
X66091D01*
Y94894D01*
X66192D01*
X65049D02*
Y94793D01*
X65253D01*
Y94894D01*
X65354D01*
Y95098D01*
X65253D01*
Y95199D01*
X65049D01*
Y95098D01*
X64948D01*
Y94894D01*
X65049D01*
X63906D02*
Y94793D01*
X64110D01*
Y94894D01*
X64211D01*
Y95098D01*
X64110D01*
Y95199D01*
X63906D01*
Y95098D01*
X63805D01*
Y94894D01*
X63906D01*
X62763D02*
Y94793D01*
X62967D01*
Y94894D01*
X63068D01*
Y95098D01*
X62967D01*
Y95199D01*
X62763D01*
Y95098D01*
X62662D01*
Y94894D01*
X62763D01*
X66192Y93751D02*
Y93650D01*
X66396D01*
Y93751D01*
X66497D01*
Y93955D01*
X66396D01*
Y94056D01*
X66192D01*
Y93955D01*
X66091D01*
Y93751D01*
X66192D01*
X65049D02*
Y93650D01*
X65253D01*
Y93751D01*
X65354D01*
Y93955D01*
X65253D01*
Y94056D01*
X65049D01*
Y93955D01*
X64948D01*
Y93751D01*
X65049D01*
X63906D02*
Y93650D01*
X64110D01*
Y93751D01*
X64211D01*
Y93955D01*
X64110D01*
Y94056D01*
X63906D01*
Y93955D01*
X63805D01*
Y93751D01*
X63906D01*
X62763D02*
Y93650D01*
X62967D01*
Y93751D01*
X63068D01*
Y93955D01*
X62967D01*
Y94056D01*
X62763D01*
Y93955D01*
X62662D01*
Y93751D01*
X62763D01*
X70891D02*
Y93650D01*
X71095D01*
Y93751D01*
X71196D01*
Y93955D01*
X71095D01*
Y94056D01*
X70891D01*
Y93955D01*
X70790D01*
Y93751D01*
X70891D01*
X69748D02*
Y93650D01*
X69952D01*
Y93751D01*
X70053D01*
Y93955D01*
X69952D01*
Y94056D01*
X69748D01*
Y93955D01*
X69647D01*
Y93751D01*
X69748D01*
X68605D02*
Y93650D01*
X68809D01*
Y93751D01*
X68910D01*
Y93955D01*
X68809D01*
Y94056D01*
X68605D01*
Y93955D01*
X68504D01*
Y93751D01*
X68605D01*
X67462D02*
Y93650D01*
X67666D01*
Y93751D01*
X67767D01*
Y93955D01*
X67666D01*
Y94056D01*
X67462D01*
Y93955D01*
X67361D01*
Y93751D01*
X67462D01*
X41554Y93878D02*
Y93777D01*
X41758D01*
Y93878D01*
X41859D01*
Y94082D01*
X41758D01*
Y94183D01*
X41554D01*
Y94082D01*
X41453D01*
Y93878D01*
X41554D01*
X42697D02*
Y93777D01*
X42901D01*
Y93878D01*
X43002D01*
Y94082D01*
X42901D01*
Y94183D01*
X42697D01*
Y94082D01*
X42596D01*
Y93878D01*
X42697D01*
X43840D02*
Y93777D01*
X44044D01*
Y93878D01*
X44145D01*
Y94082D01*
X44044D01*
Y94183D01*
X43840D01*
Y94082D01*
X43739D01*
Y93878D01*
X43840D01*
X44983D02*
Y93777D01*
X45187D01*
Y93878D01*
X45288D01*
Y94082D01*
X45187D01*
Y94183D01*
X44983D01*
Y94082D01*
X44882D01*
Y93878D01*
X44983D01*
X36855D02*
Y93777D01*
X37059D01*
Y93878D01*
X37160D01*
Y94082D01*
X37059D01*
Y94183D01*
X36855D01*
Y94082D01*
X36754D01*
Y93878D01*
X36855D01*
X37998D02*
Y93777D01*
X38202D01*
Y93878D01*
X38303D01*
Y94082D01*
X38202D01*
Y94183D01*
X37998D01*
Y94082D01*
X37897D01*
Y93878D01*
X37998D01*
X39141D02*
Y93777D01*
X39345D01*
Y93878D01*
X39446D01*
Y94082D01*
X39345D01*
Y94183D01*
X39141D01*
Y94082D01*
X39040D01*
Y93878D01*
X39141D01*
X40284D02*
Y93777D01*
X40488D01*
Y93878D01*
X40589D01*
Y94082D01*
X40488D01*
Y94183D01*
X40284D01*
Y94082D01*
X40183D01*
Y93878D01*
X40284D01*
X36855Y95021D02*
Y94920D01*
X37059D01*
Y95021D01*
X37160D01*
Y95225D01*
X37059D01*
Y95326D01*
X36855D01*
Y95225D01*
X36754D01*
Y95021D01*
X36855D01*
X37998D02*
Y94920D01*
X38202D01*
Y95021D01*
X38303D01*
Y95225D01*
X38202D01*
Y95326D01*
X37998D01*
Y95225D01*
X37897D01*
Y95021D01*
X37998D01*
X39141D02*
Y94920D01*
X39345D01*
Y95021D01*
X39446D01*
Y95225D01*
X39345D01*
Y95326D01*
X39141D01*
Y95225D01*
X39040D01*
Y95021D01*
X39141D01*
X40284D02*
Y94920D01*
X40488D01*
Y95021D01*
X40589D01*
Y95225D01*
X40488D01*
Y95326D01*
X40284D01*
Y95225D01*
X40183D01*
Y95021D01*
X40284D01*
X41554D02*
Y94920D01*
X41758D01*
Y95021D01*
X41859D01*
Y95225D01*
X41758D01*
Y95326D01*
X41554D01*
Y95225D01*
X41453D01*
Y95021D01*
X41554D01*
X42697D02*
Y94920D01*
X42901D01*
Y95021D01*
X43002D01*
Y95225D01*
X42901D01*
Y95326D01*
X42697D01*
Y95225D01*
X42596D01*
Y95021D01*
X42697D01*
X43840D02*
Y94920D01*
X44044D01*
Y95021D01*
X44145D01*
Y95225D01*
X44044D01*
Y95326D01*
X43840D01*
Y95225D01*
X43739D01*
Y95021D01*
X43840D01*
X44983D02*
Y94920D01*
X45187D01*
Y95021D01*
X45288D01*
Y95225D01*
X45187D01*
Y95326D01*
X44983D01*
Y95225D01*
X44882D01*
Y95021D01*
X44983D01*
X41554Y96164D02*
Y96063D01*
X41758D01*
Y96164D01*
X41859D01*
Y96368D01*
X41758D01*
Y96469D01*
X41554D01*
Y96368D01*
X41453D01*
Y96164D01*
X41554D01*
X42697D02*
Y96063D01*
X42901D01*
Y96164D01*
X43002D01*
Y96368D01*
X42901D01*
Y96469D01*
X42697D01*
Y96368D01*
X42596D01*
Y96164D01*
X42697D01*
X43840D02*
Y96063D01*
X44044D01*
Y96164D01*
X44145D01*
Y96368D01*
X44044D01*
Y96469D01*
X43840D01*
Y96368D01*
X43739D01*
Y96164D01*
X43840D01*
X44983D02*
Y96063D01*
X45187D01*
Y96164D01*
X45288D01*
Y96368D01*
X45187D01*
Y96469D01*
X44983D01*
Y96368D01*
X44882D01*
Y96164D01*
X44983D01*
X36855D02*
Y96063D01*
X37059D01*
Y96164D01*
X37160D01*
Y96368D01*
X37059D01*
Y96469D01*
X36855D01*
Y96368D01*
X36754D01*
Y96164D01*
X36855D01*
X37998D02*
Y96063D01*
X38202D01*
Y96164D01*
X38303D01*
Y96368D01*
X38202D01*
Y96469D01*
X37998D01*
Y96368D01*
X37897D01*
Y96164D01*
X37998D01*
X39141D02*
Y96063D01*
X39345D01*
Y96164D01*
X39446D01*
Y96368D01*
X39345D01*
Y96469D01*
X39141D01*
Y96368D01*
X39040D01*
Y96164D01*
X39141D01*
X40284D02*
Y96063D01*
X40488D01*
Y96164D01*
X40589D01*
Y96368D01*
X40488D01*
Y96469D01*
X40284D01*
Y96368D01*
X40183D01*
Y96164D01*
X40284D01*
X41554Y97180D02*
Y97079D01*
X41758D01*
Y97180D01*
X41859D01*
Y97384D01*
X41758D01*
Y97485D01*
X41554D01*
Y97384D01*
X41453D01*
Y97180D01*
X41554D01*
X42697D02*
Y97079D01*
X42901D01*
Y97180D01*
X43002D01*
Y97384D01*
X42901D01*
Y97485D01*
X42697D01*
Y97384D01*
X42596D01*
Y97180D01*
X42697D01*
X43840D02*
Y97079D01*
X44044D01*
Y97180D01*
X44145D01*
Y97384D01*
X44044D01*
Y97485D01*
X43840D01*
Y97384D01*
X43739D01*
Y97180D01*
X43840D01*
X44983D02*
Y97079D01*
X45187D01*
Y97180D01*
X45288D01*
Y97384D01*
X45187D01*
Y97485D01*
X44983D01*
Y97384D01*
X44882D01*
Y97180D01*
X44983D01*
X36855D02*
Y97079D01*
X37059D01*
Y97180D01*
X37160D01*
Y97384D01*
X37059D01*
Y97485D01*
X36855D01*
Y97384D01*
X36754D01*
Y97180D01*
X36855D01*
X37998D02*
Y97079D01*
X38202D01*
Y97180D01*
X38303D01*
Y97384D01*
X38202D01*
Y97485D01*
X37998D01*
Y97384D01*
X37897D01*
Y97180D01*
X37998D01*
X39141D02*
Y97079D01*
X39345D01*
Y97180D01*
X39446D01*
Y97384D01*
X39345D01*
Y97485D01*
X39141D01*
Y97384D01*
X39040D01*
Y97180D01*
X39141D01*
X40284D02*
Y97079D01*
X40488D01*
Y97180D01*
X40589D01*
Y97384D01*
X40488D01*
Y97485D01*
X40284D01*
Y97384D01*
X40183D01*
Y97180D01*
X40284D01*
X36855Y98196D02*
Y98095D01*
X37059D01*
Y98196D01*
X37160D01*
Y98400D01*
X37059D01*
Y98501D01*
X36855D01*
Y98400D01*
X36754D01*
Y98196D01*
X36855D01*
X37998D02*
Y98095D01*
X38202D01*
Y98196D01*
X38303D01*
Y98400D01*
X38202D01*
Y98501D01*
X37998D01*
Y98400D01*
X37897D01*
Y98196D01*
X37998D01*
X39141D02*
Y98095D01*
X39345D01*
Y98196D01*
X39446D01*
Y98400D01*
X39345D01*
Y98501D01*
X39141D01*
Y98400D01*
X39040D01*
Y98196D01*
X39141D01*
X40284D02*
Y98095D01*
X40488D01*
Y98196D01*
X40589D01*
Y98400D01*
X40488D01*
Y98501D01*
X40284D01*
Y98400D01*
X40183D01*
Y98196D01*
X40284D01*
X41554D02*
Y98095D01*
X41758D01*
Y98196D01*
X41859D01*
Y98400D01*
X41758D01*
Y98501D01*
X41554D01*
Y98400D01*
X41453D01*
Y98196D01*
X41554D01*
X42697D02*
Y98095D01*
X42901D01*
Y98196D01*
X43002D01*
Y98400D01*
X42901D01*
Y98501D01*
X42697D01*
Y98400D01*
X42596D01*
Y98196D01*
X42697D01*
X43840D02*
Y98095D01*
X44044D01*
Y98196D01*
X44145D01*
Y98400D01*
X44044D01*
Y98501D01*
X43840D01*
Y98400D01*
X43739D01*
Y98196D01*
X43840D01*
X44983D02*
Y98095D01*
X45187D01*
Y98196D01*
X45288D01*
Y98400D01*
X45187D01*
Y98501D01*
X44983D01*
Y98400D01*
X44882D01*
Y98196D01*
X44983D01*
X41554Y99212D02*
Y99111D01*
X41758D01*
Y99212D01*
X41859D01*
Y99416D01*
X41758D01*
Y99517D01*
X41554D01*
Y99416D01*
X41453D01*
Y99212D01*
X41554D01*
X42697D02*
Y99111D01*
X42901D01*
Y99212D01*
X43002D01*
Y99416D01*
X42901D01*
Y99517D01*
X42697D01*
Y99416D01*
X42596D01*
Y99212D01*
X42697D01*
X43840D02*
Y99111D01*
X44044D01*
Y99212D01*
X44145D01*
Y99416D01*
X44044D01*
Y99517D01*
X43840D01*
Y99416D01*
X43739D01*
Y99212D01*
X43840D01*
X44983D02*
Y99111D01*
X45187D01*
Y99212D01*
X45288D01*
Y99416D01*
X45187D01*
Y99517D01*
X44983D01*
Y99416D01*
X44882D01*
Y99212D01*
X44983D01*
X36855D02*
Y99111D01*
X37059D01*
Y99212D01*
X37160D01*
Y99416D01*
X37059D01*
Y99517D01*
X36855D01*
Y99416D01*
X36754D01*
Y99212D01*
X36855D01*
X37998D02*
Y99111D01*
X38202D01*
Y99212D01*
X38303D01*
Y99416D01*
X38202D01*
Y99517D01*
X37998D01*
Y99416D01*
X37897D01*
Y99212D01*
X37998D01*
X39141D02*
Y99111D01*
X39345D01*
Y99212D01*
X39446D01*
Y99416D01*
X39345D01*
Y99517D01*
X39141D01*
Y99416D01*
X39040D01*
Y99212D01*
X39141D01*
X40284D02*
Y99111D01*
X40488D01*
Y99212D01*
X40589D01*
Y99416D01*
X40488D01*
Y99517D01*
X40284D01*
Y99416D01*
X40183D01*
Y99212D01*
X40284D01*
X41554Y100228D02*
Y100127D01*
X41758D01*
Y100228D01*
X41859D01*
Y100432D01*
X41758D01*
Y100533D01*
X41554D01*
Y100432D01*
X41453D01*
Y100228D01*
X41554D01*
X42697D02*
Y100127D01*
X42901D01*
Y100228D01*
X43002D01*
Y100432D01*
X42901D01*
Y100533D01*
X42697D01*
Y100432D01*
X42596D01*
Y100228D01*
X42697D01*
X43840D02*
Y100127D01*
X44044D01*
Y100228D01*
X44145D01*
Y100432D01*
X44044D01*
Y100533D01*
X43840D01*
Y100432D01*
X43739D01*
Y100228D01*
X43840D01*
X44983D02*
Y100127D01*
X45187D01*
Y100228D01*
X45288D01*
Y100432D01*
X45187D01*
Y100533D01*
X44983D01*
Y100432D01*
X44882D01*
Y100228D01*
X44983D01*
X40284D02*
Y100127D01*
X40488D01*
Y100228D01*
X40589D01*
Y100432D01*
X40488D01*
Y100533D01*
X40284D01*
Y100432D01*
X40183D01*
Y100228D01*
X40284D01*
X39141D02*
Y100127D01*
X39345D01*
Y100228D01*
X39446D01*
Y100432D01*
X39345D01*
Y100533D01*
X39141D01*
Y100432D01*
X39040D01*
Y100228D01*
X39141D01*
X37998D02*
Y100127D01*
X38202D01*
Y100228D01*
X38303D01*
Y100432D01*
X38202D01*
Y100533D01*
X37998D01*
Y100432D01*
X37897D01*
Y100228D01*
X37998D01*
X36855D02*
Y100127D01*
X37059D01*
Y100228D01*
X37160D01*
Y100432D01*
X37059D01*
Y100533D01*
X36855D01*
Y100432D01*
X36754D01*
Y100228D01*
X36855D01*
X73939Y40030D02*
Y39929D01*
X74143D01*
Y40030D01*
X74244D01*
Y40234D01*
X74143D01*
Y40335D01*
X73939D01*
Y40234D01*
X73838D01*
Y40030D01*
X73939D01*
X72669D02*
Y39929D01*
X72873D01*
Y40030D01*
X72974D01*
Y40234D01*
X72873D01*
Y40335D01*
X72669D01*
Y40234D01*
X72568D01*
Y40030D01*
X72669D01*
X55905Y57175D02*
Y57074D01*
X56109D01*
Y57175D01*
X56210D01*
Y57379D01*
X56109D01*
Y57480D01*
X55905D01*
Y57379D01*
X55804D01*
Y57175D01*
X55905D01*
X57175D02*
Y57074D01*
X57379D01*
Y57175D01*
X57480D01*
Y57379D01*
X57379D01*
Y57480D01*
X57175D01*
Y57379D01*
X57074D01*
Y57175D01*
X57175D01*
X68732Y39141D02*
Y39040D01*
X68936D01*
Y39141D01*
X69037D01*
Y39345D01*
X68936D01*
Y39446D01*
X68732D01*
Y39345D01*
X68631D01*
Y39141D01*
X68732D01*
X96672Y54889D02*
Y54788D01*
X96876D01*
Y54889D01*
X96977D01*
Y55093D01*
X96876D01*
Y55194D01*
X96672D01*
Y55093D01*
X96571D01*
Y54889D01*
X96672D01*
X110642Y50825D02*
Y50724D01*
X110846D01*
Y50825D01*
X110947D01*
Y51029D01*
X110846D01*
Y51130D01*
X110642D01*
Y51029D01*
X110541D01*
Y50825D01*
X110642D01*
X98704Y53873D02*
Y53772D01*
X98908D01*
Y53873D01*
X99009D01*
Y54077D01*
X98908D01*
Y54178D01*
X98704D01*
Y54077D01*
X98603D01*
Y53873D01*
X98704D01*
X91384Y56201D02*
Y56100D01*
X91587D01*
Y56201D01*
X91689D01*
Y56405D01*
X91587D01*
Y56506D01*
X91384D01*
Y56405D01*
X91283D01*
Y56201D01*
X91384D01*
X108610Y51968D02*
Y51867D01*
X108814D01*
Y51968D01*
X108915D01*
Y52172D01*
X108814D01*
Y52273D01*
X108610D01*
Y52172D01*
X108509D01*
Y51968D01*
X108610D01*
X113944Y62636D02*
Y62535D01*
X114148D01*
Y62636D01*
X114249D01*
Y62840D01*
X114148D01*
Y62941D01*
X113944D01*
Y62840D01*
X113843D01*
Y62636D01*
X113944D01*
X102257Y47272D02*
Y47171D01*
X102461D01*
Y47272D01*
X102562D01*
Y47476D01*
X102461D01*
Y47577D01*
X102257D01*
Y47476D01*
X102156D01*
Y47272D01*
X102257D01*
X100228Y61493D02*
Y61392D01*
X100432D01*
Y61493D01*
X100533D01*
Y61697D01*
X100432D01*
Y61798D01*
X100228D01*
Y61697D01*
X100127D01*
Y61493D01*
X100228D01*
X95802Y48285D02*
Y48184D01*
X96006D01*
Y48285D01*
X96107D01*
Y48489D01*
X96006D01*
Y48590D01*
X95802D01*
Y48489D01*
X95701D01*
Y48285D01*
X95802D01*
X99175Y61456D02*
Y61355D01*
X99379D01*
Y61456D01*
X99480D01*
Y61660D01*
X99379D01*
Y61761D01*
X99175D01*
Y61660D01*
X99074D01*
Y61456D01*
X99175D01*
X107848Y53223D02*
Y53122D01*
X108052D01*
Y53223D01*
X108153D01*
Y53427D01*
X108052D01*
Y53528D01*
X107848D01*
Y53427D01*
X107747D01*
Y53223D01*
X107848D01*
X39649Y64469D02*
Y64367D01*
X39853D01*
Y64469D01*
X39954D01*
Y64672D01*
X39853D01*
Y64774D01*
X39649D01*
Y64672D01*
X39548D01*
Y64469D01*
X39649D01*
X51587Y66192D02*
Y66091D01*
X51791D01*
Y66192D01*
X51892D01*
Y66396D01*
X51791D01*
Y66497D01*
X51587D01*
Y66396D01*
X51486D01*
Y66192D01*
X51587D01*
X74828Y67589D02*
Y67488D01*
X75032D01*
Y67589D01*
X75133D01*
Y67793D01*
X75032D01*
Y67894D01*
X74828D01*
Y67793D01*
X74727D01*
Y67589D01*
X74828D01*
Y71018D02*
Y70917D01*
X75032D01*
Y71018D01*
X75133D01*
Y71222D01*
X75032D01*
Y71323D01*
X74828D01*
Y71222D01*
X74727D01*
Y71018D01*
X74828D01*
X53873Y74066D02*
Y73965D01*
X54077D01*
Y74066D01*
X54178D01*
Y74270D01*
X54077D01*
Y74371D01*
X53873D01*
Y74270D01*
X53772D01*
Y74066D01*
X53873D01*
X89687Y59842D02*
Y59741D01*
X89891D01*
Y59842D01*
X89992D01*
Y60046D01*
X89891D01*
Y60147D01*
X89687D01*
Y60046D01*
X89586D01*
Y59842D01*
X89687D01*
X54000Y78257D02*
Y78156D01*
X54204D01*
Y78257D01*
X54305D01*
Y78461D01*
X54204D01*
Y78562D01*
X54000D01*
Y78461D01*
X53899D01*
Y78257D01*
X54000D01*
X38633Y84226D02*
Y84125D01*
X38837D01*
Y84226D01*
X38938D01*
Y84430D01*
X38837D01*
Y84531D01*
X38633D01*
Y84430D01*
X38532D01*
Y84226D01*
X38633D01*
X119011Y64433D02*
Y64332D01*
X119215D01*
Y64433D01*
X119316D01*
Y64637D01*
X119215D01*
Y64738D01*
X119011D01*
Y64637D01*
X118910D01*
Y64433D01*
X119011D01*
X120548Y61747D02*
Y61646D01*
X120752D01*
Y61747D01*
X120853D01*
Y61951D01*
X120752D01*
Y62052D01*
X120548D01*
Y61951D01*
X120447D01*
Y61747D01*
X120548D01*
X109372Y62509D02*
Y62408D01*
X109576D01*
Y62509D01*
X109677D01*
Y62713D01*
X109576D01*
Y62814D01*
X109372D01*
Y62713D01*
X109271D01*
Y62509D01*
X109372D01*
X92989Y58953D02*
Y58852D01*
X93193D01*
Y58953D01*
X93294D01*
Y59157D01*
X93193D01*
Y59258D01*
X92989D01*
Y59157D01*
X92888D01*
Y58953D01*
X92989D01*
X88290Y54730D02*
Y54628D01*
X88494D01*
Y54730D01*
X88595D01*
Y54933D01*
X88494D01*
Y55035D01*
X88290D01*
Y54933D01*
X88189D01*
Y54730D01*
X88290D01*
X89687Y37718D02*
Y37617D01*
X89891D01*
Y37718D01*
X89992D01*
Y37922D01*
X89891D01*
Y38023D01*
X89687D01*
Y37922D01*
X89586D01*
Y37718D01*
X89687D01*
X94132Y40284D02*
Y40183D01*
X94336D01*
Y40284D01*
X94437D01*
Y40488D01*
X94336D01*
Y40589D01*
X94132D01*
Y40488D01*
X94031D01*
Y40284D01*
X94132D01*
Y39649D02*
Y39548D01*
X94336D01*
Y39649D01*
X94437D01*
Y39853D01*
X94336D01*
Y39954D01*
X94132D01*
Y39853D01*
X94031D01*
Y39649D01*
X94132D01*
X92862Y39014D02*
Y38913D01*
X93066D01*
Y39014D01*
X93167D01*
Y39218D01*
X93066D01*
Y39319D01*
X92862D01*
Y39218D01*
X92761D01*
Y39014D01*
X92862D01*
X93497Y40284D02*
Y40183D01*
X93701D01*
Y40284D01*
X93802D01*
Y40488D01*
X93701D01*
Y40589D01*
X93497D01*
Y40488D01*
X93396D01*
Y40284D01*
X93497D01*
X94132Y39014D02*
Y38913D01*
X94336D01*
Y39014D01*
X94437D01*
Y39218D01*
X94336D01*
Y39319D01*
X94132D01*
Y39218D01*
X94031D01*
Y39014D01*
X94132D01*
X93497D02*
Y38913D01*
X93701D01*
Y39014D01*
X93802D01*
Y39218D01*
X93701D01*
Y39319D01*
X93497D01*
Y39218D01*
X93396D01*
Y39014D01*
X93497D01*
X92862Y40284D02*
Y40183D01*
X93066D01*
Y40284D01*
X93167D01*
Y40488D01*
X93066D01*
Y40589D01*
X92862D01*
Y40488D01*
X92761D01*
Y40284D01*
X92862D01*
X93497Y39649D02*
Y39548D01*
X93701D01*
Y39649D01*
X93802D01*
Y39853D01*
X93701D01*
Y39954D01*
X93497D01*
Y39853D01*
X93396D01*
Y39649D01*
X93497D01*
X92862D02*
Y39548D01*
X93066D01*
Y39649D01*
X93167D01*
Y39853D01*
X93066D01*
Y39954D01*
X92862D01*
Y39853D01*
X92761D01*
Y39649D01*
X92862D01*
X110134Y37617D02*
Y37516D01*
X110338D01*
Y37617D01*
X110439D01*
Y37821D01*
X110338D01*
Y37922D01*
X110134D01*
Y37821D01*
X110033D01*
Y37617D01*
X110134D01*
X58572Y77568D02*
Y77467D01*
X58776D01*
Y77568D01*
X58877D01*
Y77772D01*
X58776D01*
Y77873D01*
X58572D01*
Y77772D01*
X58471D01*
Y77568D01*
X58572D01*
X58699Y75463D02*
Y75362D01*
X58903D01*
Y75463D01*
X59004D01*
Y75667D01*
X58903D01*
Y75768D01*
X58699D01*
Y75667D01*
X58598D01*
Y75463D01*
X58699D01*
X44983Y73558D02*
Y73457D01*
X45187D01*
Y73558D01*
X45288D01*
Y73762D01*
X45187D01*
Y73863D01*
X44983D01*
Y73762D01*
X44882D01*
Y73558D01*
X44983D01*
Y72161D02*
Y72060D01*
X45187D01*
Y72161D01*
X45288D01*
Y72365D01*
X45187D01*
Y72466D01*
X44983D01*
Y72365D01*
X44882D01*
Y72161D01*
X44983D01*
X106197Y44094D02*
Y43993D01*
X106401D01*
Y44094D01*
X106502D01*
Y44298D01*
X106401D01*
Y44399D01*
X106197D01*
Y44298D01*
X106096D01*
Y44094D01*
X106197D01*
X101244Y43459D02*
Y43358D01*
X101448D01*
Y43459D01*
X101549D01*
Y43663D01*
X101448D01*
Y43764D01*
X101244D01*
Y43663D01*
X101143D01*
Y43459D01*
X101244D01*
X95148Y63017D02*
Y62916D01*
X95352D01*
Y63017D01*
X95453D01*
Y63221D01*
X95352D01*
Y63322D01*
X95148D01*
Y63221D01*
X95047D01*
Y63017D01*
X95148D01*
X96164Y69690D02*
Y69589D01*
X96368D01*
Y69690D01*
X96469D01*
Y69894D01*
X96368D01*
Y69995D01*
X96164D01*
Y69894D01*
X96063D01*
Y69690D01*
X96164D01*
X70637Y48920D02*
Y48819D01*
X70841D01*
Y48920D01*
X70942D01*
Y49124D01*
X70841D01*
Y49225D01*
X70637D01*
Y49124D01*
X70536D01*
Y48920D01*
X70637D01*
X61620Y49682D02*
Y49581D01*
X61824D01*
Y49682D01*
X61925D01*
Y49886D01*
X61824D01*
Y49987D01*
X61620D01*
Y49886D01*
X61519D01*
Y49682D01*
X61620D01*
X112308Y61771D02*
Y61670D01*
X112511D01*
Y61771D01*
X112612D01*
Y61974D01*
X112511D01*
Y62076D01*
X112308D01*
Y61974D01*
X112206D01*
Y61771D01*
X112308D01*
X83718Y58953D02*
Y58852D01*
X83922D01*
Y58953D01*
X84023D01*
Y59157D01*
X83922D01*
Y59258D01*
X83718D01*
Y59157D01*
X83617D01*
Y58953D01*
X83718D01*
Y55397D02*
Y55296D01*
X83922D01*
Y55397D01*
X84023D01*
Y55601D01*
X83922D01*
Y55702D01*
X83718D01*
Y55601D01*
X83617D01*
Y55397D01*
X83718D01*
X93370Y44856D02*
Y44755D01*
X93574D01*
Y44856D01*
X93675D01*
Y45060D01*
X93574D01*
Y45161D01*
X93370D01*
Y45060D01*
X93269D01*
Y44856D01*
X93370D01*
X88290Y49428D02*
Y49327D01*
X88494D01*
Y49428D01*
X88595D01*
Y49632D01*
X88494D01*
Y49733D01*
X88290D01*
Y49632D01*
X88189D01*
Y49428D01*
X88290D01*
X98558Y39776D02*
Y39675D01*
X98762D01*
Y39776D01*
X98863D01*
Y39980D01*
X98762D01*
Y40081D01*
X98558D01*
Y39980D01*
X98457D01*
Y39776D01*
X98558D01*
X65176Y45110D02*
Y45009D01*
X65380D01*
Y45110D01*
X65481D01*
Y45314D01*
X65380D01*
Y45415D01*
X65176D01*
Y45314D01*
X65075D01*
Y45110D01*
X65176D01*
X75548Y55270D02*
Y55169D01*
X75752D01*
Y55270D01*
X75853D01*
Y55474D01*
X75752D01*
Y55575D01*
X75548D01*
Y55474D01*
X75447D01*
Y55270D01*
X75548D01*
X75590Y57937D02*
Y57836D01*
X75794D01*
Y57937D01*
X75895D01*
Y58141D01*
X75794D01*
Y58242D01*
X75590D01*
Y58141D01*
X75489D01*
Y57937D01*
X75590D01*
X70764Y71526D02*
Y71425D01*
X70968D01*
Y71526D01*
X71069D01*
Y71730D01*
X70968D01*
Y71831D01*
X70764D01*
Y71730D01*
X70663D01*
Y71526D01*
X70764D01*
X101117Y64287D02*
Y64186D01*
X101321D01*
Y64287D01*
X101422D01*
Y64491D01*
X101321D01*
Y64592D01*
X101117D01*
Y64491D01*
X101016D01*
Y64287D01*
X101117D01*
X109372Y76479D02*
Y76378D01*
X109576D01*
Y76479D01*
X109677D01*
Y76683D01*
X109576D01*
Y76784D01*
X109372D01*
Y76683D01*
X109271D01*
Y76479D01*
X109372D01*
X87401Y74205D02*
Y74104D01*
X87605D01*
Y74205D01*
X87706D01*
Y74409D01*
X87605D01*
Y74510D01*
X87401D01*
Y74409D01*
X87300D01*
Y74205D01*
X87401D01*
X85242Y64668D02*
Y64567D01*
X85446D01*
Y64668D01*
X85547D01*
Y64872D01*
X85446D01*
Y64973D01*
X85242D01*
Y64872D01*
X85141D01*
Y64668D01*
X85242D01*
X89433Y74205D02*
Y74104D01*
X89637D01*
Y74205D01*
X89738D01*
Y74409D01*
X89637D01*
Y74510D01*
X89433D01*
Y74409D01*
X89332D01*
Y74205D01*
X89433D01*
X62001Y32537D02*
Y32436D01*
X62205D01*
Y32537D01*
X62306D01*
Y32741D01*
X62205D01*
Y32842D01*
X62001D01*
Y32741D01*
X61900D01*
Y32537D01*
X62001D01*
X63271Y50444D02*
Y50343D01*
X63475D01*
Y50444D01*
X63576D01*
Y50648D01*
X63475D01*
Y50749D01*
X63271D01*
Y50648D01*
X63170D01*
Y50444D01*
X63271D01*
X72542Y36601D02*
Y36500D01*
X72746D01*
Y36601D01*
X72847D01*
Y36805D01*
X72746D01*
Y36906D01*
X72542D01*
Y36805D01*
X72441D01*
Y36601D01*
X72542D01*
X65176Y42443D02*
Y42342D01*
X65380D01*
Y42443D01*
X65481D01*
Y42647D01*
X65380D01*
Y42748D01*
X65176D01*
Y42647D01*
X65075D01*
Y42443D01*
X65176D01*
X44983Y79400D02*
Y79299D01*
X45187D01*
Y79400D01*
X45288D01*
Y79604D01*
X45187D01*
Y79705D01*
X44983D01*
Y79604D01*
X44882D01*
Y79400D01*
X44983D01*
X43713Y84676D02*
Y84575D01*
X43917D01*
Y84676D01*
X44018D01*
Y84880D01*
X43917D01*
Y84981D01*
X43713D01*
Y84880D01*
X43612D01*
Y84676D01*
X43713D01*
X42443Y83972D02*
Y83871D01*
X42647D01*
Y83972D01*
X42748D01*
Y84176D01*
X42647D01*
Y84277D01*
X42443D01*
Y84176D01*
X42342D01*
Y83972D01*
X42443D01*
X39903Y84607D02*
Y84506D01*
X40107D01*
Y84607D01*
X40208D01*
Y84811D01*
X40107D01*
Y84912D01*
X39903D01*
Y84811D01*
X39802D01*
Y84607D01*
X39903D01*
X37118Y88136D02*
Y88035D01*
X37321D01*
Y88136D01*
X37423D01*
Y88339D01*
X37321D01*
Y88441D01*
X37118D01*
Y88339D01*
X37016D01*
Y88136D01*
X37118D01*
Y86612D02*
Y86511D01*
X37321D01*
Y86612D01*
X37423D01*
Y86815D01*
X37321D01*
Y86917D01*
X37118D01*
Y86815D01*
X37016D01*
Y86612D01*
X37118D01*
Y87374D02*
Y87273D01*
X37321D01*
Y87374D01*
X37423D01*
Y87577D01*
X37321D01*
Y87679D01*
X37118D01*
Y87577D01*
X37016D01*
Y87374D01*
X37118D01*
X68224Y52476D02*
Y52375D01*
X68428D01*
Y52476D01*
X68529D01*
Y52680D01*
X68428D01*
Y52781D01*
X68224D01*
Y52680D01*
X68123D01*
Y52476D01*
X68224D01*
X45618Y109372D02*
Y109271D01*
X45822D01*
Y109372D01*
X45923D01*
Y109576D01*
X45822D01*
Y109677D01*
X45618D01*
Y109576D01*
X45517D01*
Y109372D01*
X45618D01*
X46507D02*
Y109271D01*
X46711D01*
Y109372D01*
X46812D01*
Y109576D01*
X46711D01*
Y109677D01*
X46507D01*
Y109576D01*
X46406D01*
Y109372D01*
X46507D01*
X47396D02*
Y109271D01*
X47600D01*
Y109372D01*
X47701D01*
Y109576D01*
X47600D01*
Y109677D01*
X47396D01*
Y109576D01*
X47295D01*
Y109372D01*
X47396D01*
X48167Y91565D02*
Y91464D01*
X48370D01*
Y91565D01*
X48472D01*
Y91768D01*
X48370D01*
Y91870D01*
X48167D01*
Y91768D01*
X48065D01*
Y91565D01*
X48167D01*
Y90803D02*
Y90702D01*
X48370D01*
Y90803D01*
X48472D01*
Y91006D01*
X48370D01*
Y91108D01*
X48167D01*
Y91006D01*
X48065D01*
Y90803D01*
X48167D01*
Y90041D02*
Y89940D01*
X48370D01*
Y90041D01*
X48472D01*
Y90244D01*
X48370D01*
Y90346D01*
X48167D01*
Y90244D01*
X48065D01*
Y90041D01*
X48167D01*
X48929D02*
Y89940D01*
X49132D01*
Y90041D01*
X49234D01*
Y90244D01*
X49132D01*
Y90346D01*
X48929D01*
Y90244D01*
X48827D01*
Y90041D01*
X48929D01*
Y91565D02*
Y91464D01*
X49132D01*
Y91565D01*
X49234D01*
Y91768D01*
X49132D01*
Y91870D01*
X48929D01*
Y91768D01*
X48827D01*
Y91565D01*
X48929D01*
Y90803D02*
Y90702D01*
X49132D01*
Y90803D01*
X49234D01*
Y91006D01*
X49132D01*
Y91108D01*
X48929D01*
Y91006D01*
X48827D01*
Y90803D01*
X48929D01*
X47405D02*
Y90702D01*
X47608D01*
Y90803D01*
X47710D01*
Y91006D01*
X47608D01*
Y91108D01*
X47405D01*
Y91006D01*
X47303D01*
Y90803D01*
X47405D01*
Y90041D02*
Y89940D01*
X47608D01*
Y90041D01*
X47710D01*
Y90244D01*
X47608D01*
Y90346D01*
X47405D01*
Y90244D01*
X47303D01*
Y90041D01*
X47405D01*
Y91565D02*
Y91464D01*
X47608D01*
Y91565D01*
X47710D01*
Y91768D01*
X47608D01*
Y91870D01*
X47405D01*
Y91768D01*
X47303D01*
Y91565D01*
X47405D01*
X36220Y47904D02*
Y47803D01*
X36424D01*
Y47904D01*
X36525D01*
Y48108D01*
X36424D01*
Y48209D01*
X36220D01*
Y48108D01*
X36119D01*
Y47904D01*
X36220D01*
X61239Y32537D02*
Y32436D01*
X61443D01*
Y32537D01*
X61544D01*
Y32741D01*
X61443D01*
Y32842D01*
X61239D01*
Y32741D01*
X61138D01*
Y32537D01*
X61239D01*
X60223Y108737D02*
Y108636D01*
X60427D01*
Y108737D01*
X60528D01*
Y108941D01*
X60427D01*
Y109042D01*
X60223D01*
Y108941D01*
X60122D01*
Y108737D01*
X60223D01*
X60985D02*
Y108636D01*
X61189D01*
Y108737D01*
X61290D01*
Y108941D01*
X61189D01*
Y109042D01*
X60985D01*
Y108941D01*
X60884D01*
Y108737D01*
X60985D01*
X61747D02*
Y108636D01*
X61951D01*
Y108737D01*
X62052D01*
Y108941D01*
X61951D01*
Y109042D01*
X61747D01*
Y108941D01*
X61646D01*
Y108737D01*
X61747D01*
Y109499D02*
Y109398D01*
X61951D01*
Y109499D01*
X62052D01*
Y109703D01*
X61951D01*
Y109804D01*
X61747D01*
Y109703D01*
X61646D01*
Y109499D01*
X61747D01*
X60985D02*
Y109398D01*
X61189D01*
Y109499D01*
X61290D01*
Y109703D01*
X61189D01*
Y109804D01*
X60985D01*
Y109703D01*
X60884D01*
Y109499D01*
X60985D01*
X60223D02*
Y109398D01*
X60427D01*
Y109499D01*
X60528D01*
Y109703D01*
X60427D01*
Y109804D01*
X60223D01*
Y109703D01*
X60122D01*
Y109499D01*
X60223D01*
X61747Y110261D02*
Y110160D01*
X61951D01*
Y110261D01*
X62052D01*
Y110465D01*
X61951D01*
Y110566D01*
X61747D01*
Y110465D01*
X61646D01*
Y110261D01*
X61747D01*
X60985D02*
Y110160D01*
X61189D01*
Y110261D01*
X61290D01*
Y110465D01*
X61189D01*
Y110566D01*
X60985D01*
Y110465D01*
X60884D01*
Y110261D01*
X60985D01*
X60223D02*
Y110160D01*
X60427D01*
Y110261D01*
X60528D01*
Y110465D01*
X60427D01*
Y110566D01*
X60223D01*
Y110465D01*
X60122D01*
Y110261D01*
X60223D01*
X62509Y108737D02*
Y108636D01*
X62713D01*
Y108737D01*
X62814D01*
Y108941D01*
X62713D01*
Y109042D01*
X62509D01*
Y108941D01*
X62408D01*
Y108737D01*
X62509D01*
Y109499D02*
Y109398D01*
X62713D01*
Y109499D01*
X62814D01*
Y109703D01*
X62713D01*
Y109804D01*
X62509D01*
Y109703D01*
X62408D01*
Y109499D01*
X62509D01*
Y110261D02*
Y110160D01*
X62713D01*
Y110261D01*
X62814D01*
Y110465D01*
X62713D01*
Y110566D01*
X62509D01*
Y110465D01*
X62408D01*
Y110261D01*
X62509D01*
X98577Y110388D02*
Y110287D01*
X98781D01*
Y110388D01*
X98882D01*
Y110592D01*
X98781D01*
Y110693D01*
X98577D01*
Y110592D01*
X98476D01*
Y110388D01*
X98577D01*
Y109626D02*
Y109525D01*
X98781D01*
Y109626D01*
X98882D01*
Y109830D01*
X98781D01*
Y109931D01*
X98577D01*
Y109830D01*
X98476D01*
Y109626D01*
X98577D01*
Y108864D02*
Y108763D01*
X98781D01*
Y108864D01*
X98882D01*
Y109068D01*
X98781D01*
Y109169D01*
X98577D01*
Y109068D01*
X98476D01*
Y108864D01*
X98577D01*
X113690Y109245D02*
Y109144D01*
X113894D01*
Y109245D01*
X113995D01*
Y109449D01*
X113894D01*
Y109550D01*
X113690D01*
Y109449D01*
X113589D01*
Y109245D01*
X113690D01*
X112801D02*
Y109144D01*
X113005D01*
Y109245D01*
X113106D01*
Y109449D01*
X113005D01*
Y109550D01*
X112801D01*
Y109449D01*
X112700D01*
Y109245D01*
X112801D01*
X111912D02*
Y109144D01*
X112116D01*
Y109245D01*
X112217D01*
Y109449D01*
X112116D01*
Y109550D01*
X111912D01*
Y109449D01*
X111811D01*
Y109245D01*
X111912D01*
X96291Y110388D02*
Y110287D01*
X96495D01*
Y110388D01*
X96596D01*
Y110592D01*
X96495D01*
Y110693D01*
X96291D01*
Y110592D01*
X96190D01*
Y110388D01*
X96291D01*
X97053D02*
Y110287D01*
X97257D01*
Y110388D01*
X97358D01*
Y110592D01*
X97257D01*
Y110693D01*
X97053D01*
Y110592D01*
X96952D01*
Y110388D01*
X97053D01*
X97815D02*
Y110287D01*
X98019D01*
Y110388D01*
X98120D01*
Y110592D01*
X98019D01*
Y110693D01*
X97815D01*
Y110592D01*
X97714D01*
Y110388D01*
X97815D01*
X96291Y109626D02*
Y109525D01*
X96495D01*
Y109626D01*
X96596D01*
Y109830D01*
X96495D01*
Y109931D01*
X96291D01*
Y109830D01*
X96190D01*
Y109626D01*
X96291D01*
X97053D02*
Y109525D01*
X97257D01*
Y109626D01*
X97358D01*
Y109830D01*
X97257D01*
Y109931D01*
X97053D01*
Y109830D01*
X96952D01*
Y109626D01*
X97053D01*
X97815D02*
Y109525D01*
X98019D01*
Y109626D01*
X98120D01*
Y109830D01*
X98019D01*
Y109931D01*
X97815D01*
Y109830D01*
X97714D01*
Y109626D01*
X97815D01*
X47396Y108737D02*
Y108636D01*
X47600D01*
Y108737D01*
X47701D01*
Y108941D01*
X47600D01*
Y109042D01*
X47396D01*
Y108941D01*
X47295D01*
Y108737D01*
X47396D01*
X46507D02*
Y108636D01*
X46711D01*
Y108737D01*
X46812D01*
Y108941D01*
X46711D01*
Y109042D01*
X46507D01*
Y108941D01*
X46406D01*
Y108737D01*
X46507D01*
X45618D02*
Y108636D01*
X45822D01*
Y108737D01*
X45923D01*
Y108941D01*
X45822D01*
Y109042D01*
X45618D01*
Y108941D01*
X45517D01*
Y108737D01*
X45618D01*
X97815Y108864D02*
Y108763D01*
X98019D01*
Y108864D01*
X98120D01*
Y109068D01*
X98019D01*
Y109169D01*
X97815D01*
Y109068D01*
X97714D01*
Y108864D01*
X97815D01*
X97053D02*
Y108763D01*
X97257D01*
Y108864D01*
X97358D01*
Y109068D01*
X97257D01*
Y109169D01*
X97053D01*
Y109068D01*
X96952D01*
Y108864D01*
X97053D01*
X96291D02*
Y108763D01*
X96495D01*
Y108864D01*
X96596D01*
Y109068D01*
X96495D01*
Y109169D01*
X96291D01*
Y109068D01*
X96190D01*
Y108864D01*
X96291D01*
X101244Y93370D02*
Y93269D01*
X101448D01*
Y93370D01*
X101549D01*
Y93574D01*
X101448D01*
Y93675D01*
X101244D01*
Y93574D01*
X101143D01*
Y93370D01*
X101244D01*
X102006D02*
Y93269D01*
X102210D01*
Y93370D01*
X102311D01*
Y93574D01*
X102210D01*
Y93675D01*
X102006D01*
Y93574D01*
X101905D01*
Y93370D01*
X102006D01*
X102768D02*
Y93269D01*
X102972D01*
Y93370D01*
X103073D01*
Y93574D01*
X102972D01*
Y93675D01*
X102768D01*
Y93574D01*
X102667D01*
Y93370D01*
X102768D01*
X101244Y92608D02*
Y92507D01*
X101448D01*
Y92608D01*
X101549D01*
Y92812D01*
X101448D01*
Y92913D01*
X101244D01*
Y92812D01*
X101143D01*
Y92608D01*
X101244D01*
X102006D02*
Y92507D01*
X102210D01*
Y92608D01*
X102311D01*
Y92812D01*
X102210D01*
Y92913D01*
X102006D01*
Y92812D01*
X101905D01*
Y92608D01*
X102006D01*
X102768D02*
Y92507D01*
X102972D01*
Y92608D01*
X103073D01*
Y92812D01*
X102972D01*
Y92913D01*
X102768D01*
Y92812D01*
X102667D01*
Y92608D01*
X102768D01*
Y91846D02*
Y91745D01*
X102972D01*
Y91846D01*
X103073D01*
Y92050D01*
X102972D01*
Y92151D01*
X102768D01*
Y92050D01*
X102667D01*
Y91846D01*
X102768D01*
X102006D02*
Y91745D01*
X102210D01*
Y91846D01*
X102311D01*
Y92050D01*
X102210D01*
Y92151D01*
X102006D01*
Y92050D01*
X101905D01*
Y91846D01*
X102006D01*
X101244D02*
Y91745D01*
X101448D01*
Y91846D01*
X101549D01*
Y92050D01*
X101448D01*
Y92151D01*
X101244D01*
Y92050D01*
X101143D01*
Y91846D01*
X101244D01*
X82321Y62509D02*
Y62408D01*
X82525D01*
Y62509D01*
X82626D01*
Y62713D01*
X82525D01*
Y62814D01*
X82321D01*
Y62713D01*
X82220D01*
Y62509D01*
X82321D01*
X71789Y88517D02*
Y88416D01*
X71992D01*
Y88517D01*
X72094D01*
Y88720D01*
X71992D01*
Y88822D01*
X71789D01*
Y88720D01*
X71687D01*
Y88517D01*
X71789D01*
X72551D02*
Y88416D01*
X72754D01*
Y88517D01*
X72856D01*
Y88720D01*
X72754D01*
Y88822D01*
X72551D01*
Y88720D01*
X72449D01*
Y88517D01*
X72551D01*
X69485Y83369D02*
Y83267D01*
X69688D01*
Y83369D01*
X69790D01*
Y83572D01*
X69688D01*
Y83674D01*
X69485D01*
Y83572D01*
X69384D01*
Y83369D01*
X69485D01*
X68215Y84004D02*
Y83902D01*
X68418D01*
Y84004D01*
X68520D01*
Y84207D01*
X68418D01*
Y84309D01*
X68215D01*
Y84207D01*
X68114D01*
Y84004D01*
X68215D01*
X65693Y83691D02*
Y83590D01*
X65896D01*
Y83691D01*
X65998D01*
Y83894D01*
X65896D01*
Y83996D01*
X65693D01*
Y83894D01*
X65591D01*
Y83691D01*
X65693D01*
X64423Y84580D02*
Y84479D01*
X64626D01*
Y84580D01*
X64728D01*
Y84783D01*
X64626D01*
Y84885D01*
X64423D01*
Y84783D01*
X64321D01*
Y84580D01*
X64423D01*
X72551Y86231D02*
Y86130D01*
X72754D01*
Y86231D01*
X72856D01*
Y86434D01*
X72754D01*
Y86536D01*
X72551D01*
Y86434D01*
X72449D01*
Y86231D01*
X72551D01*
X71789D02*
Y86130D01*
X71992D01*
Y86231D01*
X72094D01*
Y86434D01*
X71992D01*
Y86536D01*
X71789D01*
Y86434D01*
X71687D01*
Y86231D01*
X71789D01*
X72551Y86993D02*
Y86892D01*
X72754D01*
Y86993D01*
X72856D01*
Y87196D01*
X72754D01*
Y87298D01*
X72551D01*
Y87196D01*
X72449D01*
Y86993D01*
X72551D01*
X71789D02*
Y86892D01*
X71992D01*
Y86993D01*
X72094D01*
Y87196D01*
X71992D01*
Y87298D01*
X71789D01*
Y87196D01*
X71687D01*
Y86993D01*
X71789D01*
X72551Y87755D02*
Y87654D01*
X72754D01*
Y87755D01*
X72856D01*
Y87958D01*
X72754D01*
Y88060D01*
X72551D01*
Y87958D01*
X72449D01*
Y87755D01*
X72551D01*
X71789D02*
Y87654D01*
X71992D01*
Y87755D01*
X72094D01*
Y87958D01*
X71992D01*
Y88060D01*
X71789D01*
Y87958D01*
X71687D01*
Y87755D01*
X71789D01*
X61239Y59503D02*
Y59402D01*
X61443D01*
Y59503D01*
X61544D01*
Y59707D01*
X61443D01*
Y59808D01*
X61239D01*
Y59707D01*
X61138D01*
Y59503D01*
X61239D01*
X49174Y78257D02*
Y78156D01*
X49378D01*
Y78257D01*
X49479D01*
Y78461D01*
X49378D01*
Y78562D01*
X49174D01*
Y78461D01*
X49073D01*
Y78257D01*
X49174D01*
X51079Y77453D02*
Y77352D01*
X51283D01*
Y77453D01*
X51384D01*
Y77657D01*
X51283D01*
Y77758D01*
X51079D01*
Y77657D01*
X50978D01*
Y77453D01*
X51079D01*
X40792Y50190D02*
Y50089D01*
X40996D01*
Y50190D01*
X41097D01*
Y50394D01*
X40996D01*
Y50495D01*
X40792D01*
Y50394D01*
X40691D01*
Y50190D01*
X40792D01*
X112293Y76860D02*
Y76759D01*
X112497D01*
Y76860D01*
X112598D01*
Y77064D01*
X112497D01*
Y77165D01*
X112293D01*
Y77064D01*
X112192D01*
Y76860D01*
X112293D01*
X100863Y78257D02*
Y78156D01*
X101067D01*
Y78257D01*
X101168D01*
Y78461D01*
X101067D01*
Y78562D01*
X100863D01*
Y78461D01*
X100762D01*
Y78257D01*
X100863D01*
X94494Y44348D02*
Y44247D01*
X94698D01*
Y44348D01*
X94799D01*
Y44552D01*
X94698D01*
Y44653D01*
X94494D01*
Y44552D01*
X94393D01*
Y44348D01*
X94494D01*
X109499Y48412D02*
Y48311D01*
X109703D01*
Y48412D01*
X109804D01*
Y48616D01*
X109703D01*
Y48717D01*
X109499D01*
Y48616D01*
X109398D01*
Y48412D01*
X109499D01*
X112293Y88036D02*
Y87935D01*
X112497D01*
Y88036D01*
X112598D01*
Y88240D01*
X112497D01*
Y88341D01*
X112293D01*
Y88240D01*
X112192D01*
Y88036D01*
X112293D01*
X113055D02*
Y87935D01*
X113259D01*
Y88036D01*
X113360D01*
Y88240D01*
X113259D01*
Y88341D01*
X113055D01*
Y88240D01*
X112954D01*
Y88036D01*
X113055D01*
X113817D02*
Y87935D01*
X114021D01*
Y88036D01*
X114122D01*
Y88240D01*
X114021D01*
Y88341D01*
X113817D01*
Y88240D01*
X113716D01*
Y88036D01*
X113817D01*
X112293Y87274D02*
Y87173D01*
X112497D01*
Y87274D01*
X112598D01*
Y87478D01*
X112497D01*
Y87579D01*
X112293D01*
Y87478D01*
X112192D01*
Y87274D01*
X112293D01*
X113055D02*
Y87173D01*
X113259D01*
Y87274D01*
X113360D01*
Y87478D01*
X113259D01*
Y87579D01*
X113055D01*
Y87478D01*
X112954D01*
Y87274D01*
X113055D01*
X113817D02*
Y87173D01*
X114021D01*
Y87274D01*
X114122D01*
Y87478D01*
X114021D01*
Y87579D01*
X113817D01*
Y87478D01*
X113716D01*
Y87274D01*
X113817D01*
Y86512D02*
Y86411D01*
X114021D01*
Y86512D01*
X114122D01*
Y86716D01*
X114021D01*
Y86817D01*
X113817D01*
Y86716D01*
X113716D01*
Y86512D01*
X113817D01*
X113055D02*
Y86411D01*
X113259D01*
Y86512D01*
X113360D01*
Y86716D01*
X113259D01*
Y86817D01*
X113055D01*
Y86716D01*
X112954D01*
Y86512D01*
X113055D01*
X112293D02*
Y86411D01*
X112497D01*
Y86512D01*
X112598D01*
Y86716D01*
X112497D01*
Y86817D01*
X112293D01*
Y86716D01*
X112192D01*
Y86512D01*
X112293D01*
X36356Y86612D02*
Y86511D01*
X36559D01*
Y86612D01*
X36661D01*
Y86815D01*
X36559D01*
Y86917D01*
X36356D01*
Y86815D01*
X36254D01*
Y86612D01*
X36356D01*
X35594D02*
Y86511D01*
X35797D01*
Y86612D01*
X35899D01*
Y86815D01*
X35797D01*
Y86917D01*
X35594D01*
Y86815D01*
X35492D01*
Y86612D01*
X35594D01*
X36356Y87374D02*
Y87273D01*
X36559D01*
Y87374D01*
X36661D01*
Y87577D01*
X36559D01*
Y87679D01*
X36356D01*
Y87577D01*
X36254D01*
Y87374D01*
X36356D01*
X35594D02*
Y87273D01*
X35797D01*
Y87374D01*
X35899D01*
Y87577D01*
X35797D01*
Y87679D01*
X35594D01*
Y87577D01*
X35492D01*
Y87374D01*
X35594D01*
X36356Y88136D02*
Y88035D01*
X36559D01*
Y88136D01*
X36661D01*
Y88339D01*
X36559D01*
Y88441D01*
X36356D01*
Y88339D01*
X36254D01*
Y88136D01*
X36356D01*
X35594D02*
Y88035D01*
X35797D01*
Y88136D01*
X35899D01*
Y88339D01*
X35797D01*
Y88441D01*
X35594D01*
Y88339D01*
X35492D01*
Y88136D01*
X35594D01*
X60359D02*
Y88035D01*
X60562D01*
Y88136D01*
X60664D01*
Y88339D01*
X60562D01*
Y88441D01*
X60359D01*
Y88339D01*
X60257D01*
Y88136D01*
X60359D01*
X61121D02*
Y88035D01*
X61324D01*
Y88136D01*
X61426D01*
Y88339D01*
X61324D01*
Y88441D01*
X61121D01*
Y88339D01*
X61019D01*
Y88136D01*
X61121D01*
X60359Y87374D02*
Y87273D01*
X60562D01*
Y87374D01*
X60664D01*
Y87577D01*
X60562D01*
Y87679D01*
X60359D01*
Y87577D01*
X60257D01*
Y87374D01*
X60359D01*
X61121D02*
Y87273D01*
X61324D01*
Y87374D01*
X61426D01*
Y87577D01*
X61324D01*
Y87679D01*
X61121D01*
Y87577D01*
X61019D01*
Y87374D01*
X61121D01*
X60359Y86612D02*
Y86511D01*
X60562D01*
Y86612D01*
X60664D01*
Y86815D01*
X60562D01*
Y86917D01*
X60359D01*
Y86815D01*
X60257D01*
Y86612D01*
X60359D01*
X61121D02*
Y86511D01*
X61324D01*
Y86612D01*
X61426D01*
Y86815D01*
X61324D01*
Y86917D01*
X61121D01*
Y86815D01*
X61019D01*
Y86612D01*
X61121D01*
X61883D02*
Y86511D01*
X62086D01*
Y86612D01*
X62188D01*
Y86815D01*
X62086D01*
Y86917D01*
X61883D01*
Y86815D01*
X61781D01*
Y86612D01*
X61883D01*
Y88136D02*
Y88035D01*
X62086D01*
Y88136D01*
X62188D01*
Y88339D01*
X62086D01*
Y88441D01*
X61883D01*
Y88339D01*
X61781D01*
Y88136D01*
X61883D01*
Y87374D02*
Y87273D01*
X62086D01*
Y87374D01*
X62188D01*
Y87577D01*
X62086D01*
Y87679D01*
X61883D01*
Y87577D01*
X61781D01*
Y87374D01*
X61883D01*
X86512Y86766D02*
Y86665D01*
X86716D01*
Y86766D01*
X86817D01*
Y86970D01*
X86716D01*
Y87071D01*
X86512D01*
Y86970D01*
X86411D01*
Y86766D01*
X86512D01*
X87274D02*
Y86665D01*
X87478D01*
Y86766D01*
X87579D01*
Y86970D01*
X87478D01*
Y87071D01*
X87274D01*
Y86970D01*
X87173D01*
Y86766D01*
X87274D01*
X88036D02*
Y86665D01*
X88240D01*
Y86766D01*
X88341D01*
Y86970D01*
X88240D01*
Y87071D01*
X88036D01*
Y86970D01*
X87935D01*
Y86766D01*
X88036D01*
Y87528D02*
Y87427D01*
X88240D01*
Y87528D01*
X88341D01*
Y87732D01*
X88240D01*
Y87833D01*
X88036D01*
Y87732D01*
X87935D01*
Y87528D01*
X88036D01*
X87274D02*
Y87427D01*
X87478D01*
Y87528D01*
X87579D01*
Y87732D01*
X87478D01*
Y87833D01*
X87274D01*
Y87732D01*
X87173D01*
Y87528D01*
X87274D01*
X86512D02*
Y87427D01*
X86716D01*
Y87528D01*
X86817D01*
Y87732D01*
X86716D01*
Y87833D01*
X86512D01*
Y87732D01*
X86411D01*
Y87528D01*
X86512D01*
X88036Y88290D02*
Y88189D01*
X88240D01*
Y88290D01*
X88341D01*
Y88494D01*
X88240D01*
Y88595D01*
X88036D01*
Y88494D01*
X87935D01*
Y88290D01*
X88036D01*
X87274D02*
Y88189D01*
X87478D01*
Y88290D01*
X87579D01*
Y88494D01*
X87478D01*
Y88595D01*
X87274D01*
Y88494D01*
X87173D01*
Y88290D01*
X87274D01*
X86512D02*
Y88189D01*
X86716D01*
Y88290D01*
X86817D01*
Y88494D01*
X86716D01*
Y88595D01*
X86512D01*
Y88494D01*
X86411D01*
Y88290D01*
X86512D01*
X57175Y54762D02*
Y54661D01*
X57379D01*
Y54762D01*
X57480D01*
Y54966D01*
X57379D01*
Y55067D01*
X57175D01*
Y54966D01*
X57074D01*
Y54762D01*
X57175D01*
Y52095D02*
Y51994D01*
X57379D01*
Y52095D01*
X57480D01*
Y52299D01*
X57379D01*
Y52400D01*
X57175D01*
Y52299D01*
X57074D01*
Y52095D01*
X57175D01*
X55905D02*
Y51994D01*
X56109D01*
Y52095D01*
X56210D01*
Y52299D01*
X56109D01*
Y52400D01*
X55905D01*
Y52299D01*
X55804D01*
Y52095D01*
X55905D01*
Y53365D02*
Y53264D01*
X56109D01*
Y53365D01*
X56210D01*
Y53569D01*
X56109D01*
Y53670D01*
X55905D01*
Y53569D01*
X55804D01*
Y53365D01*
X55905D01*
X57175Y56032D02*
Y55931D01*
X57379D01*
Y56032D01*
X57480D01*
Y56236D01*
X57379D01*
Y56337D01*
X57175D01*
Y56236D01*
X57074D01*
Y56032D01*
X57175D01*
Y53365D02*
Y53264D01*
X57379D01*
Y53365D01*
X57480D01*
Y53569D01*
X57379D01*
Y53670D01*
X57175D01*
Y53569D01*
X57074D01*
Y53365D01*
X57175D01*
X55905Y54762D02*
Y54661D01*
X56109D01*
Y54762D01*
X56210D01*
Y54966D01*
X56109D01*
Y55067D01*
X55905D01*
Y54966D01*
X55804D01*
Y54762D01*
X55905D01*
Y56032D02*
Y55931D01*
X56109D01*
Y56032D01*
X56210D01*
Y56236D01*
X56109D01*
Y56337D01*
X55905D01*
Y56236D01*
X55804D01*
Y56032D01*
X55905D01*
X68293Y67970D02*
Y67869D01*
X68497D01*
Y67970D01*
X68598D01*
Y68174D01*
X68497D01*
Y68275D01*
X68293D01*
Y68174D01*
X68192D01*
Y67970D01*
X68293D01*
X68224Y61281D02*
Y61180D01*
X68428D01*
Y61281D01*
X68529D01*
Y61485D01*
X68428D01*
Y61586D01*
X68224D01*
Y61485D01*
X68123D01*
Y61281D01*
X68224D01*
X66954Y65303D02*
Y65202D01*
X67158D01*
Y65303D01*
X67259D01*
Y65507D01*
X67158D01*
Y65608D01*
X66954D01*
Y65507D01*
X66853D01*
Y65303D01*
X66954D01*
X58953Y39903D02*
Y39802D01*
X59157D01*
Y39903D01*
X59258D01*
Y40107D01*
X59157D01*
Y40208D01*
X58953D01*
Y40107D01*
X58852D01*
Y39903D01*
X58953D01*
X51587Y69748D02*
Y69647D01*
X51791D01*
Y69748D01*
X51892D01*
Y69952D01*
X51791D01*
Y70053D01*
X51587D01*
Y69952D01*
X51486D01*
Y69748D01*
X51587D01*
X49428D02*
Y69647D01*
X49632D01*
Y69748D01*
X49733D01*
Y69952D01*
X49632D01*
Y70053D01*
X49428D01*
Y69952D01*
X49327D01*
Y69748D01*
X49428D01*
X53746D02*
Y69647D01*
X53950D01*
Y69748D01*
X54051D01*
Y69952D01*
X53950D01*
Y70053D01*
X53746D01*
Y69952D01*
X53645D01*
Y69748D01*
X53746D01*
X51587Y68097D02*
Y67996D01*
X51791D01*
Y68097D01*
X51892D01*
Y68301D01*
X51791D01*
Y68402D01*
X51587D01*
Y68301D01*
X51486D01*
Y68097D01*
X51587D01*
X53746D02*
Y67996D01*
X53950D01*
Y68097D01*
X54051D01*
Y68301D01*
X53950D01*
Y68402D01*
X53746D01*
Y68301D01*
X53645D01*
Y68097D01*
X53746D01*
X49428D02*
Y67996D01*
X49632D01*
Y68097D01*
X49733D01*
Y68301D01*
X49632D01*
Y68402D01*
X49428D01*
Y68301D01*
X49327D01*
Y68097D01*
X49428D01*
Y66192D02*
Y66091D01*
X49632D01*
Y66192D01*
X49733D01*
Y66396D01*
X49632D01*
Y66497D01*
X49428D01*
Y66396D01*
X49327D01*
Y66192D01*
X49428D01*
X53746D02*
Y66091D01*
X53950D01*
Y66192D01*
X54051D01*
Y66396D01*
X53950D01*
Y66497D01*
X53746D01*
Y66396D01*
X53645D01*
Y66192D01*
X53746D01*
Y64287D02*
Y64186D01*
X53950D01*
Y64287D01*
X54051D01*
Y64491D01*
X53950D01*
Y64592D01*
X53746D01*
Y64491D01*
X53645D01*
Y64287D01*
X53746D01*
X51587D02*
Y64186D01*
X51791D01*
Y64287D01*
X51892D01*
Y64491D01*
X51791D01*
Y64592D01*
X51587D01*
Y64491D01*
X51486D01*
Y64287D01*
X51587D01*
X49428D02*
Y64186D01*
X49632D01*
Y64287D01*
X49733D01*
Y64491D01*
X49632D01*
Y64592D01*
X49428D01*
Y64491D01*
X49327D01*
Y64287D01*
X49428D01*
Y62382D02*
Y62281D01*
X49632D01*
Y62382D01*
X49733D01*
Y62586D01*
X49632D01*
Y62687D01*
X49428D01*
Y62586D01*
X49327D01*
Y62382D01*
X49428D01*
X53746D02*
Y62281D01*
X53950D01*
Y62382D01*
X54051D01*
Y62586D01*
X53950D01*
Y62687D01*
X53746D01*
Y62586D01*
X53645D01*
Y62382D01*
X53746D01*
X51587D02*
Y62281D01*
X51791D01*
Y62382D01*
X51892D01*
Y62586D01*
X51791D01*
Y62687D01*
X51587D01*
Y62586D01*
X51486D01*
Y62382D01*
X51587D01*
X43586Y72161D02*
Y72060D01*
X43790D01*
Y72161D01*
X43891D01*
Y72365D01*
X43790D01*
Y72466D01*
X43586D01*
Y72365D01*
X43485D01*
Y72161D01*
X43586D01*
X42062D02*
Y72060D01*
X42266D01*
Y72161D01*
X42367D01*
Y72365D01*
X42266D01*
Y72466D01*
X42062D01*
Y72365D01*
X41961D01*
Y72161D01*
X42062D01*
X40665D02*
Y72060D01*
X40869D01*
Y72161D01*
X40970D01*
Y72365D01*
X40869D01*
Y72466D01*
X40665D01*
Y72365D01*
X40564D01*
Y72161D01*
X40665D01*
X39141D02*
Y72060D01*
X39345D01*
Y72161D01*
X39446D01*
Y72365D01*
X39345D01*
Y72466D01*
X39141D01*
Y72365D01*
X39040D01*
Y72161D01*
X39141D01*
Y73558D02*
Y73457D01*
X39345D01*
Y73558D01*
X39446D01*
Y73762D01*
X39345D01*
Y73863D01*
X39141D01*
Y73762D01*
X39040D01*
Y73558D01*
X39141D01*
X43586D02*
Y73457D01*
X43790D01*
Y73558D01*
X43891D01*
Y73762D01*
X43790D01*
Y73863D01*
X43586D01*
Y73762D01*
X43485D01*
Y73558D01*
X43586D01*
X42062D02*
Y73457D01*
X42266D01*
Y73558D01*
X42367D01*
Y73762D01*
X42266D01*
Y73863D01*
X42062D01*
Y73762D01*
X41961D01*
Y73558D01*
X42062D01*
X40665D02*
Y73457D01*
X40869D01*
Y73558D01*
X40970D01*
Y73762D01*
X40869D01*
Y73863D01*
X40665D01*
Y73762D01*
X40564D01*
Y73558D01*
X40665D01*
X92100Y44856D02*
Y44755D01*
X92304D01*
Y44856D01*
X92405D01*
Y45060D01*
X92304D01*
Y45161D01*
X92100D01*
Y45060D01*
X91999D01*
Y44856D01*
X92100D01*
X111261Y56051D02*
Y55950D01*
X111465D01*
Y56051D01*
X111566D01*
Y56255D01*
X111465D01*
Y56356D01*
X111261D01*
Y56255D01*
X111160D01*
Y56051D01*
X111261D01*
X107848Y74320D02*
Y74219D01*
X108052D01*
Y74320D01*
X108153D01*
Y74524D01*
X108052D01*
Y74625D01*
X107848D01*
Y74524D01*
X107747D01*
Y74320D01*
X107848D01*
X81432Y55270D02*
Y55169D01*
X81636D01*
Y55270D01*
X81737D01*
Y55474D01*
X81636D01*
Y55575D01*
X81432D01*
Y55474D01*
X81331D01*
Y55270D01*
X81432D01*
X117373Y83718D02*
Y83617D01*
X117577D01*
Y83718D01*
X117678D01*
Y83922D01*
X117577D01*
Y84023D01*
X117373D01*
Y83922D01*
X117272D01*
Y83718D01*
X117373D01*
X121174Y82988D02*
Y82886D01*
X121377D01*
Y82988D01*
X121479D01*
Y83191D01*
X121377D01*
Y83293D01*
X121174D01*
Y83191D01*
X121073D01*
Y82988D01*
X121174D01*
X119913Y84480D02*
Y84379D01*
X120117D01*
Y84480D01*
X120218D01*
Y84684D01*
X120117D01*
Y84785D01*
X119913D01*
Y84684D01*
X119812D01*
Y84480D01*
X119913D01*
X116103Y84607D02*
Y84506D01*
X116307D01*
Y84607D01*
X116408D01*
Y84811D01*
X116307D01*
Y84912D01*
X116103D01*
Y84811D01*
X116002D01*
Y84607D01*
X116103D01*
X91583Y84512D02*
Y84410D01*
X91786D01*
Y84512D01*
X91888D01*
Y84715D01*
X91786D01*
Y84817D01*
X91583D01*
Y84715D01*
X91482D01*
Y84512D01*
X91583D01*
X95393Y84639D02*
Y84537D01*
X95596D01*
Y84639D01*
X95698D01*
Y84842D01*
X95596D01*
Y84944D01*
X95393D01*
Y84842D01*
X95292D01*
Y84639D01*
X95393D01*
X94132Y83972D02*
Y83871D01*
X94336D01*
Y83972D01*
X94437D01*
Y84176D01*
X94336D01*
Y84277D01*
X94132D01*
Y84176D01*
X94031D01*
Y83972D01*
X94132D01*
X90322Y83845D02*
Y83744D01*
X90526D01*
Y83845D01*
X90627D01*
Y84049D01*
X90526D01*
Y84150D01*
X90322D01*
Y84049D01*
X90221D01*
Y83845D01*
X90322D01*
D111*
X82880Y38100D02*
G03*
X82880Y38100I-203J0D01*
G01*
X78880D02*
G03*
X78880Y38100I-203J0D01*
G01*
M02*
